<svg xmlns="http://www.w3.org/2000/svg" xmlns:xlink="http://www.w3.org/1999/xlink" width="600" height="400" viewBox="0 0 2400 1600">
<defs>
  <clipPath id="clip750">
    <rect x="0" y="0" width="2400" height="1600"></rect>
  </clipPath>
</defs>
<path clip-path="url(#clip750)" d="M0 1600 L2400 1600 L2400 0 L0 0  Z" fill="#282c34" fill-rule="evenodd" fill-opacity="1"></path>
<defs>
  <clipPath id="clip751">
    <rect x="480" y="0" width="1681" height="1600"></rect>
  </clipPath>
</defs>
<path clip-path="url(#clip750)" d="M205.121 1423.18 L2352.76 1423.18 L2352.76 123.472 L205.121 123.472  Z" fill="#21252b" fill-rule="evenodd" fill-opacity="1"></path>
<defs>
  <clipPath id="clip752">
    <rect x="205" y="123" width="2149" height="1301"></rect>
  </clipPath>
</defs>
<polyline clip-path="url(#clip752)" style="stroke:#adb2b7; stroke-linecap:round; stroke-linejoin:round; stroke-width:2; stroke-opacity:0.1; fill:none" points="265.903,1423.18 265.903,123.472 "></polyline>
<polyline clip-path="url(#clip752)" style="stroke:#adb2b7; stroke-linecap:round; stroke-linejoin:round; stroke-width:2; stroke-opacity:0.1; fill:none" points="772.421,1423.18 772.421,123.472 "></polyline>
<polyline clip-path="url(#clip752)" style="stroke:#adb2b7; stroke-linecap:round; stroke-linejoin:round; stroke-width:2; stroke-opacity:0.1; fill:none" points="1278.94,1423.18 1278.94,123.472 "></polyline>
<polyline clip-path="url(#clip752)" style="stroke:#adb2b7; stroke-linecap:round; stroke-linejoin:round; stroke-width:2; stroke-opacity:0.1; fill:none" points="1785.46,1423.18 1785.46,123.472 "></polyline>
<polyline clip-path="url(#clip752)" style="stroke:#adb2b7; stroke-linecap:round; stroke-linejoin:round; stroke-width:2; stroke-opacity:0.1; fill:none" points="2291.97,1423.18 2291.97,123.472 "></polyline>
<polyline clip-path="url(#clip750)" style="stroke:#adb2b7; stroke-linecap:round; stroke-linejoin:round; stroke-width:4; stroke-opacity:1; fill:none" points="205.121,1423.18 2352.76,1423.18 "></polyline>
<polyline clip-path="url(#clip750)" style="stroke:#adb2b7; stroke-linecap:round; stroke-linejoin:round; stroke-width:4; stroke-opacity:1; fill:none" points="265.903,1423.18 265.903,1404.28 "></polyline>
<polyline clip-path="url(#clip750)" style="stroke:#adb2b7; stroke-linecap:round; stroke-linejoin:round; stroke-width:4; stroke-opacity:1; fill:none" points="772.421,1423.18 772.421,1404.28 "></polyline>
<polyline clip-path="url(#clip750)" style="stroke:#adb2b7; stroke-linecap:round; stroke-linejoin:round; stroke-width:4; stroke-opacity:1; fill:none" points="1278.94,1423.18 1278.94,1404.28 "></polyline>
<polyline clip-path="url(#clip750)" style="stroke:#adb2b7; stroke-linecap:round; stroke-linejoin:round; stroke-width:4; stroke-opacity:1; fill:none" points="1785.46,1423.18 1785.46,1404.28 "></polyline>
<polyline clip-path="url(#clip750)" style="stroke:#adb2b7; stroke-linecap:round; stroke-linejoin:round; stroke-width:4; stroke-opacity:1; fill:none" points="2291.97,1423.18 2291.97,1404.28 "></polyline>
<path clip-path="url(#clip750)" d="M228.704 1454.1 Q225.093 1454.1 223.264 1457.66 Q221.459 1461.2 221.459 1468.33 Q221.459 1475.44 223.264 1479.01 Q225.093 1482.55 228.704 1482.55 Q232.338 1482.55 234.144 1479.01 Q235.973 1475.44 235.973 1468.33 Q235.973 1461.2 234.144 1457.66 Q232.338 1454.1 228.704 1454.1 M228.704 1450.39 Q234.514 1450.39 237.57 1455 Q240.649 1459.58 240.649 1468.33 Q240.649 1477.06 237.57 1481.67 Q234.514 1486.25 228.704 1486.25 Q222.894 1486.25 219.815 1481.67 Q216.76 1477.06 216.76 1468.33 Q216.76 1459.58 219.815 1455 Q222.894 1450.39 228.704 1450.39 Z" fill="#9eb1be" fill-rule="nonzero" fill-opacity="1"></path><path clip-path="url(#clip750)" d="M248.866 1479.7 L253.75 1479.7 L253.75 1485.58 L248.866 1485.58 L248.866 1479.7 Z" fill="#9eb1be" fill-rule="nonzero" fill-opacity="1"></path><path clip-path="url(#clip750)" d="M262.755 1451.02 L284.977 1451.02 L284.977 1453.01 L272.431 1485.58 L267.547 1485.58 L279.352 1454.96 L262.755 1454.96 L262.755 1451.02 Z" fill="#9eb1be" fill-rule="nonzero" fill-opacity="1"></path><path clip-path="url(#clip750)" d="M294.144 1451.02 L312.5 1451.02 L312.5 1454.96 L298.426 1454.96 L298.426 1463.43 Q299.445 1463.08 300.463 1462.92 Q301.482 1462.73 302.5 1462.73 Q308.287 1462.73 311.667 1465.9 Q315.046 1469.08 315.046 1474.49 Q315.046 1480.07 311.574 1483.17 Q308.102 1486.25 301.783 1486.25 Q299.607 1486.25 297.338 1485.88 Q295.093 1485.51 292.685 1484.77 L292.685 1480.07 Q294.769 1481.2 296.991 1481.76 Q299.213 1482.32 301.69 1482.32 Q305.695 1482.32 308.032 1480.21 Q310.37 1478.1 310.37 1474.49 Q310.37 1470.88 308.032 1468.77 Q305.695 1466.67 301.69 1466.67 Q299.815 1466.67 297.94 1467.08 Q296.088 1467.5 294.144 1468.38 L294.144 1451.02 Z" fill="#9eb1be" fill-rule="nonzero" fill-opacity="1"></path><path clip-path="url(#clip750)" d="M734.724 1454.1 Q731.113 1454.1 729.284 1457.66 Q727.479 1461.2 727.479 1468.33 Q727.479 1475.44 729.284 1479.01 Q731.113 1482.55 734.724 1482.55 Q738.358 1482.55 740.164 1479.01 Q741.993 1475.44 741.993 1468.33 Q741.993 1461.2 740.164 1457.66 Q738.358 1454.1 734.724 1454.1 M734.724 1450.39 Q740.534 1450.39 743.59 1455 Q746.669 1459.58 746.669 1468.33 Q746.669 1477.06 743.59 1481.67 Q740.534 1486.25 734.724 1486.25 Q728.914 1486.25 725.835 1481.67 Q722.78 1477.06 722.78 1468.33 Q722.78 1459.58 725.835 1455 Q728.914 1450.39 734.724 1450.39 Z" fill="#9eb1be" fill-rule="nonzero" fill-opacity="1"></path><path clip-path="url(#clip750)" d="M754.886 1479.7 L759.77 1479.7 L759.77 1485.58 L754.886 1485.58 L754.886 1479.7 Z" fill="#9eb1be" fill-rule="nonzero" fill-opacity="1"></path><path clip-path="url(#clip750)" d="M779.955 1469.17 Q776.622 1469.17 774.701 1470.95 Q772.803 1472.73 772.803 1475.86 Q772.803 1478.98 774.701 1480.77 Q776.622 1482.55 779.955 1482.55 Q783.289 1482.55 785.21 1480.77 Q787.131 1478.96 787.131 1475.86 Q787.131 1472.73 785.21 1470.95 Q783.312 1469.17 779.955 1469.17 M775.28 1467.18 Q772.27 1466.44 770.58 1464.38 Q768.914 1462.32 768.914 1459.35 Q768.914 1455.21 771.854 1452.8 Q774.817 1450.39 779.955 1450.39 Q785.117 1450.39 788.057 1452.8 Q790.997 1455.21 790.997 1459.35 Q790.997 1462.32 789.307 1464.38 Q787.641 1466.44 784.654 1467.18 Q788.034 1467.96 789.909 1470.26 Q791.807 1472.55 791.807 1475.86 Q791.807 1480.88 788.729 1483.57 Q785.673 1486.25 779.955 1486.25 Q774.238 1486.25 771.159 1483.57 Q768.104 1480.88 768.104 1475.86 Q768.104 1472.55 770.002 1470.26 Q771.9 1467.96 775.28 1467.18 M773.567 1459.79 Q773.567 1462.48 775.233 1463.98 Q776.923 1465.49 779.955 1465.49 Q782.965 1465.49 784.654 1463.98 Q786.367 1462.48 786.367 1459.79 Q786.367 1457.11 784.654 1455.6 Q782.965 1454.1 779.955 1454.1 Q776.923 1454.1 775.233 1455.6 Q773.567 1457.11 773.567 1459.79 Z" fill="#9eb1be" fill-rule="nonzero" fill-opacity="1"></path><path clip-path="url(#clip750)" d="M810.117 1454.1 Q806.506 1454.1 804.678 1457.66 Q802.872 1461.2 802.872 1468.33 Q802.872 1475.44 804.678 1479.01 Q806.506 1482.55 810.117 1482.55 Q813.752 1482.55 815.557 1479.01 Q817.386 1475.44 817.386 1468.33 Q817.386 1461.2 815.557 1457.66 Q813.752 1454.1 810.117 1454.1 M810.117 1450.39 Q815.927 1450.39 818.983 1455 Q822.062 1459.58 822.062 1468.33 Q822.062 1477.06 818.983 1481.67 Q815.927 1486.25 810.117 1486.25 Q804.307 1486.25 801.228 1481.67 Q798.173 1477.06 798.173 1468.33 Q798.173 1459.58 801.228 1455 Q804.307 1450.39 810.117 1450.39 Z" fill="#9eb1be" fill-rule="nonzero" fill-opacity="1"></path><path clip-path="url(#clip750)" d="M1241.74 1454.1 Q1238.13 1454.1 1236.3 1457.66 Q1234.49 1461.2 1234.49 1468.33 Q1234.49 1475.44 1236.3 1479.01 Q1238.13 1482.55 1241.74 1482.55 Q1245.37 1482.55 1247.18 1479.01 Q1249.01 1475.44 1249.01 1468.33 Q1249.01 1461.2 1247.18 1457.66 Q1245.37 1454.1 1241.74 1454.1 M1241.74 1450.39 Q1247.55 1450.39 1250.61 1455 Q1253.68 1459.58 1253.68 1468.33 Q1253.68 1477.06 1250.61 1481.67 Q1247.55 1486.25 1241.74 1486.25 Q1235.93 1486.25 1232.85 1481.67 Q1229.8 1477.06 1229.8 1468.33 Q1229.8 1459.58 1232.85 1455 Q1235.93 1450.39 1241.74 1450.39 Z" fill="#9eb1be" fill-rule="nonzero" fill-opacity="1"></path><path clip-path="url(#clip750)" d="M1261.9 1479.7 L1266.79 1479.7 L1266.79 1485.58 L1261.9 1485.58 L1261.9 1479.7 Z" fill="#9eb1be" fill-rule="nonzero" fill-opacity="1"></path><path clip-path="url(#clip750)" d="M1286.97 1469.17 Q1283.64 1469.17 1281.72 1470.95 Q1279.82 1472.73 1279.82 1475.86 Q1279.82 1478.98 1281.72 1480.77 Q1283.64 1482.55 1286.97 1482.55 Q1290.3 1482.55 1292.23 1480.77 Q1294.15 1478.96 1294.15 1475.86 Q1294.15 1472.73 1292.23 1470.95 Q1290.33 1469.17 1286.97 1469.17 M1282.29 1467.18 Q1279.29 1466.44 1277.6 1464.38 Q1275.93 1462.32 1275.93 1459.35 Q1275.93 1455.21 1278.87 1452.8 Q1281.83 1450.39 1286.97 1450.39 Q1292.13 1450.39 1295.07 1452.8 Q1298.01 1455.21 1298.01 1459.35 Q1298.01 1462.32 1296.32 1464.38 Q1294.66 1466.44 1291.67 1467.18 Q1295.05 1467.96 1296.92 1470.26 Q1298.82 1472.55 1298.82 1475.86 Q1298.82 1480.88 1295.74 1483.57 Q1292.69 1486.25 1286.97 1486.25 Q1281.25 1486.25 1278.17 1483.57 Q1275.12 1480.88 1275.12 1475.86 Q1275.12 1472.55 1277.02 1470.26 Q1278.92 1467.96 1282.29 1467.18 M1280.58 1459.79 Q1280.58 1462.48 1282.25 1463.98 Q1283.94 1465.49 1286.97 1465.49 Q1289.98 1465.49 1291.67 1463.98 Q1293.38 1462.48 1293.38 1459.79 Q1293.38 1457.11 1291.67 1455.6 Q1289.98 1454.1 1286.97 1454.1 Q1283.94 1454.1 1282.25 1455.6 Q1280.58 1457.11 1280.58 1459.79 Z" fill="#9eb1be" fill-rule="nonzero" fill-opacity="1"></path><path clip-path="url(#clip750)" d="M1307.18 1451.02 L1325.54 1451.02 L1325.54 1454.96 L1311.46 1454.96 L1311.46 1463.43 Q1312.48 1463.08 1313.5 1462.92 Q1314.52 1462.73 1315.54 1462.73 Q1321.32 1462.73 1324.7 1465.9 Q1328.08 1469.08 1328.08 1474.49 Q1328.08 1480.07 1324.61 1483.17 Q1321.14 1486.25 1314.82 1486.25 Q1312.64 1486.25 1310.37 1485.88 Q1308.13 1485.51 1305.72 1484.77 L1305.72 1480.07 Q1307.8 1481.2 1310.03 1481.76 Q1312.25 1482.32 1314.73 1482.32 Q1318.73 1482.32 1321.07 1480.21 Q1323.41 1478.1 1323.41 1474.49 Q1323.41 1470.88 1321.07 1468.77 Q1318.73 1466.67 1314.73 1466.67 Q1312.85 1466.67 1310.98 1467.08 Q1309.12 1467.5 1307.18 1468.38 L1307.18 1451.02 Z" fill="#9eb1be" fill-rule="nonzero" fill-opacity="1"></path><path clip-path="url(#clip750)" d="M1747.76 1454.1 Q1744.15 1454.1 1742.32 1457.66 Q1740.51 1461.2 1740.51 1468.33 Q1740.51 1475.44 1742.32 1479.01 Q1744.15 1482.55 1747.76 1482.55 Q1751.39 1482.55 1753.2 1479.01 Q1755.03 1475.44 1755.03 1468.33 Q1755.03 1461.2 1753.2 1457.66 Q1751.39 1454.1 1747.76 1454.1 M1747.76 1450.39 Q1753.57 1450.39 1756.63 1455 Q1759.7 1459.58 1759.7 1468.33 Q1759.7 1477.06 1756.63 1481.67 Q1753.57 1486.25 1747.76 1486.25 Q1741.95 1486.25 1738.87 1481.67 Q1735.82 1477.06 1735.82 1468.33 Q1735.82 1459.58 1738.87 1455 Q1741.95 1450.39 1747.76 1450.39 Z" fill="#9eb1be" fill-rule="nonzero" fill-opacity="1"></path><path clip-path="url(#clip750)" d="M1767.92 1479.7 L1772.81 1479.7 L1772.81 1485.58 L1767.92 1485.58 L1767.92 1479.7 Z" fill="#9eb1be" fill-rule="nonzero" fill-opacity="1"></path><path clip-path="url(#clip750)" d="M1783.13 1484.86 L1783.13 1480.6 Q1784.89 1481.44 1786.69 1481.88 Q1788.5 1482.32 1790.24 1482.32 Q1794.87 1482.32 1797.3 1479.21 Q1799.75 1476.09 1800.1 1469.75 Q1798.75 1471.74 1796.69 1472.8 Q1794.63 1473.87 1792.13 1473.87 Q1786.95 1473.87 1783.92 1470.74 Q1780.91 1467.59 1780.91 1462.15 Q1780.91 1456.83 1784.06 1453.61 Q1787.2 1450.39 1792.44 1450.39 Q1798.43 1450.39 1801.58 1455 Q1804.75 1459.58 1804.75 1468.33 Q1804.75 1476.51 1800.86 1481.39 Q1797 1486.25 1790.44 1486.25 Q1788.69 1486.25 1786.88 1485.9 Q1785.07 1485.56 1783.13 1484.86 M1792.44 1470.21 Q1795.58 1470.21 1797.41 1468.06 Q1799.26 1465.9 1799.26 1462.15 Q1799.26 1458.43 1797.41 1456.27 Q1795.58 1454.1 1792.44 1454.1 Q1789.29 1454.1 1787.44 1456.27 Q1785.61 1458.43 1785.61 1462.15 Q1785.61 1465.9 1787.44 1468.06 Q1789.29 1470.21 1792.44 1470.21 Z" fill="#9eb1be" fill-rule="nonzero" fill-opacity="1"></path><path clip-path="url(#clip750)" d="M1823.15 1454.1 Q1819.54 1454.1 1817.71 1457.66 Q1815.91 1461.2 1815.91 1468.33 Q1815.91 1475.44 1817.71 1479.01 Q1819.54 1482.55 1823.15 1482.55 Q1826.79 1482.55 1828.59 1479.01 Q1830.42 1475.44 1830.42 1468.33 Q1830.42 1461.2 1828.59 1457.66 Q1826.79 1454.1 1823.15 1454.1 M1823.15 1450.39 Q1828.96 1450.39 1832.02 1455 Q1835.1 1459.58 1835.1 1468.33 Q1835.1 1477.06 1832.02 1481.67 Q1828.96 1486.25 1823.15 1486.25 Q1817.34 1486.25 1814.26 1481.67 Q1811.21 1477.06 1811.21 1468.33 Q1811.21 1459.58 1814.26 1455 Q1817.34 1450.39 1823.15 1450.39 Z" fill="#9eb1be" fill-rule="nonzero" fill-opacity="1"></path><path clip-path="url(#clip750)" d="M2254.77 1454.1 Q2251.16 1454.1 2249.34 1457.66 Q2247.53 1461.2 2247.53 1468.33 Q2247.53 1475.44 2249.34 1479.01 Q2251.16 1482.55 2254.77 1482.55 Q2258.41 1482.55 2260.21 1479.01 Q2262.04 1475.44 2262.04 1468.33 Q2262.04 1461.2 2260.21 1457.66 Q2258.41 1454.1 2254.77 1454.1 M2254.77 1450.39 Q2260.59 1450.39 2263.64 1455 Q2266.72 1459.58 2266.72 1468.33 Q2266.72 1477.06 2263.64 1481.67 Q2260.59 1486.25 2254.77 1486.25 Q2248.96 1486.25 2245.89 1481.67 Q2242.83 1477.06 2242.83 1468.33 Q2242.83 1459.58 2245.89 1455 Q2248.96 1450.39 2254.77 1450.39 Z" fill="#9eb1be" fill-rule="nonzero" fill-opacity="1"></path><path clip-path="url(#clip750)" d="M2274.94 1479.7 L2279.82 1479.7 L2279.82 1485.58 L2274.94 1485.58 L2274.94 1479.7 Z" fill="#9eb1be" fill-rule="nonzero" fill-opacity="1"></path><path clip-path="url(#clip750)" d="M2290.15 1484.86 L2290.15 1480.6 Q2291.9 1481.44 2293.71 1481.88 Q2295.52 1482.32 2297.25 1482.32 Q2301.88 1482.32 2304.31 1479.21 Q2306.77 1476.09 2307.11 1469.75 Q2305.77 1471.74 2303.71 1472.8 Q2301.65 1473.87 2299.15 1473.87 Q2293.96 1473.87 2290.93 1470.74 Q2287.92 1467.59 2287.92 1462.15 Q2287.92 1456.83 2291.07 1453.61 Q2294.22 1450.39 2299.45 1450.39 Q2305.45 1450.39 2308.59 1455 Q2311.77 1459.58 2311.77 1468.33 Q2311.77 1476.51 2307.88 1481.39 Q2304.01 1486.25 2297.46 1486.25 Q2295.7 1486.25 2293.9 1485.9 Q2292.09 1485.56 2290.15 1484.86 M2299.45 1470.21 Q2302.6 1470.21 2304.43 1468.06 Q2306.28 1465.9 2306.28 1462.15 Q2306.28 1458.43 2304.43 1456.27 Q2302.6 1454.1 2299.45 1454.1 Q2296.3 1454.1 2294.45 1456.27 Q2292.62 1458.43 2292.62 1462.15 Q2292.62 1465.9 2294.45 1468.06 Q2296.3 1470.21 2299.45 1470.21 Z" fill="#9eb1be" fill-rule="nonzero" fill-opacity="1"></path><path clip-path="url(#clip750)" d="M2320.21 1451.02 L2338.57 1451.02 L2338.57 1454.96 L2324.5 1454.96 L2324.5 1463.43 Q2325.52 1463.08 2326.53 1462.92 Q2327.55 1462.73 2328.57 1462.73 Q2334.36 1462.73 2337.74 1465.9 Q2341.12 1469.08 2341.12 1474.49 Q2341.12 1480.07 2337.64 1483.17 Q2334.17 1486.25 2327.85 1486.25 Q2325.68 1486.25 2323.41 1485.88 Q2321.16 1485.51 2318.76 1484.77 L2318.76 1480.07 Q2320.84 1481.2 2323.06 1481.76 Q2325.28 1482.32 2327.76 1482.32 Q2331.77 1482.32 2334.1 1480.21 Q2336.44 1478.1 2336.44 1474.49 Q2336.44 1470.88 2334.1 1468.77 Q2331.77 1466.67 2327.76 1466.67 Q2325.89 1466.67 2324.01 1467.08 Q2322.16 1467.5 2320.21 1468.38 L2320.21 1451.02 Z" fill="#9eb1be" fill-rule="nonzero" fill-opacity="1"></path><path clip-path="url(#clip750)" d="M1144.64 1546.53 L1144.64 1568.04 L1138.78 1568.04 L1138.78 1546.72 Q1138.78 1541.66 1136.81 1539.14 Q1134.83 1536.63 1130.89 1536.63 Q1126.15 1536.63 1123.41 1539.65 Q1120.67 1542.68 1120.67 1547.9 L1120.67 1568.04 L1114.78 1568.04 L1114.78 1518.52 L1120.67 1518.52 L1120.67 1537.93 Q1122.77 1534.72 1125.6 1533.13 Q1128.47 1531.54 1132.19 1531.54 Q1138.34 1531.54 1141.49 1535.36 Q1144.64 1539.14 1144.64 1546.53 Z" fill="#9eb1be" fill-rule="nonzero" fill-opacity="1"></path><path clip-path="url(#clip750)" d="M1170.13 1536.5 Q1165.42 1536.5 1162.68 1540.19 Q1159.95 1543.85 1159.95 1550.25 Q1159.95 1556.65 1162.65 1560.34 Q1165.39 1564 1170.13 1564 Q1174.81 1564 1177.55 1560.31 Q1180.29 1556.62 1180.29 1550.25 Q1180.29 1543.92 1177.55 1540.23 Q1174.81 1536.5 1170.13 1536.5 M1170.13 1531.54 Q1177.77 1531.54 1182.13 1536.5 Q1186.49 1541.47 1186.49 1550.25 Q1186.49 1559 1182.13 1564 Q1177.77 1568.97 1170.13 1568.97 Q1162.46 1568.97 1158.1 1564 Q1153.77 1559 1153.77 1550.25 Q1153.77 1541.47 1158.1 1536.5 Q1162.46 1531.54 1170.13 1531.54 Z" fill="#9eb1be" fill-rule="nonzero" fill-opacity="1"></path><path clip-path="url(#clip750)" d="M1201.87 1562.7 L1201.87 1581.6 L1195.98 1581.6 L1195.98 1532.4 L1201.87 1532.4 L1201.87 1537.81 Q1203.71 1534.62 1206.51 1533.1 Q1209.35 1531.54 1213.26 1531.54 Q1219.75 1531.54 1223.8 1536.69 Q1227.87 1541.85 1227.87 1550.25 Q1227.87 1558.65 1223.8 1563.81 Q1219.75 1568.97 1213.26 1568.97 Q1209.35 1568.97 1206.51 1567.44 Q1203.71 1565.88 1201.87 1562.7 M1221.79 1550.25 Q1221.79 1543.79 1219.12 1540.13 Q1216.47 1536.44 1211.83 1536.44 Q1207.18 1536.44 1204.51 1540.13 Q1201.87 1543.79 1201.87 1550.25 Q1201.87 1556.71 1204.51 1560.4 Q1207.18 1564.07 1211.83 1564.07 Q1216.47 1564.07 1219.12 1560.4 Q1221.79 1556.71 1221.79 1550.25 Z" fill="#9eb1be" fill-rule="nonzero" fill-opacity="1"></path><path clip-path="url(#clip750)" d="M1278.95 1537.87 Q1277.97 1537.3 1276.79 1537.04 Q1275.64 1536.76 1274.24 1536.76 Q1269.28 1536.76 1266.6 1540 Q1263.96 1543.22 1263.96 1549.27 L1263.96 1568.04 L1258.07 1568.04 L1258.07 1532.4 L1263.96 1532.4 L1263.96 1537.93 Q1265.81 1534.69 1268.77 1533.13 Q1271.73 1531.54 1275.96 1531.54 Q1276.57 1531.54 1277.3 1531.63 Q1278.03 1531.7 1278.92 1531.85 L1278.95 1537.87 Z" fill="#9eb1be" fill-rule="nonzero" fill-opacity="1"></path><path clip-path="url(#clip750)" d="M1301.3 1550.12 Q1294.2 1550.12 1291.46 1551.75 Q1288.73 1553.37 1288.73 1557.29 Q1288.73 1560.4 1290.76 1562.25 Q1292.83 1564.07 1296.36 1564.07 Q1301.23 1564.07 1304.16 1560.63 Q1307.12 1557.16 1307.12 1551.43 L1307.12 1550.12 L1301.3 1550.12 M1312.98 1547.71 L1312.98 1568.04 L1307.12 1568.04 L1307.12 1562.63 Q1305.12 1565.88 1302.13 1567.44 Q1299.13 1568.97 1294.8 1568.97 Q1289.33 1568.97 1286.08 1565.91 Q1282.87 1562.82 1282.87 1557.67 Q1282.87 1551.65 1286.88 1548.6 Q1290.92 1545.54 1298.91 1545.54 L1307.12 1545.54 L1307.12 1544.97 Q1307.12 1540.93 1304.45 1538.73 Q1301.81 1536.5 1297 1536.5 Q1293.95 1536.5 1291.05 1537.23 Q1288.15 1537.97 1285.48 1539.43 L1285.48 1534.02 Q1288.69 1532.78 1291.72 1532.17 Q1294.74 1531.54 1297.61 1531.54 Q1305.34 1531.54 1309.16 1535.55 Q1312.98 1539.56 1312.98 1547.71 Z" fill="#9eb1be" fill-rule="nonzero" fill-opacity="1"></path><path clip-path="url(#clip750)" d="M1330.83 1522.27 L1330.83 1532.4 L1342.9 1532.4 L1342.9 1536.95 L1330.83 1536.95 L1330.83 1556.3 Q1330.83 1560.66 1332.01 1561.9 Q1333.22 1563.14 1336.88 1563.14 L1342.9 1563.14 L1342.9 1568.04 L1336.88 1568.04 Q1330.1 1568.04 1327.52 1565.53 Q1324.95 1562.98 1324.95 1556.3 L1324.95 1536.95 L1320.65 1536.95 L1320.65 1532.4 L1324.95 1532.4 L1324.95 1522.27 L1330.83 1522.27 Z" fill="#9eb1be" fill-rule="nonzero" fill-opacity="1"></path><path clip-path="url(#clip750)" d="M1381.09 1548.76 L1381.09 1551.62 L1354.17 1551.62 Q1354.55 1557.67 1357.79 1560.85 Q1361.07 1564 1366.9 1564 Q1370.27 1564 1373.42 1563.17 Q1376.6 1562.35 1379.72 1560.69 L1379.72 1566.23 Q1376.57 1567.57 1373.26 1568.27 Q1369.95 1568.97 1366.55 1568.97 Q1358.02 1568.97 1353.02 1564 Q1348.05 1559.04 1348.05 1550.57 Q1348.05 1541.82 1352.76 1536.69 Q1357.51 1531.54 1365.53 1531.54 Q1372.72 1531.54 1376.89 1536.18 Q1381.09 1540.8 1381.09 1548.76 M1375.24 1547.04 Q1375.17 1542.23 1372.53 1539.37 Q1369.92 1536.5 1365.59 1536.5 Q1360.69 1536.5 1357.73 1539.27 Q1354.8 1542.04 1354.36 1547.07 L1375.24 1547.04 Z" fill="#9eb1be" fill-rule="nonzero" fill-opacity="1"></path><path clip-path="url(#clip750)" d="M1417.09 1562.7 L1417.09 1581.6 L1411.2 1581.6 L1411.2 1532.4 L1417.09 1532.4 L1417.09 1537.81 Q1418.94 1534.62 1421.74 1533.1 Q1424.57 1531.54 1428.48 1531.54 Q1434.98 1531.54 1439.02 1536.69 Q1443.09 1541.85 1443.09 1550.25 Q1443.09 1558.65 1439.02 1563.81 Q1434.98 1568.97 1428.48 1568.97 Q1424.57 1568.97 1421.74 1567.44 Q1418.94 1565.88 1417.09 1562.7 M1437.01 1550.25 Q1437.01 1543.79 1434.34 1540.13 Q1431.7 1536.44 1427.05 1536.44 Q1422.41 1536.44 1419.73 1540.13 Q1417.09 1543.79 1417.09 1550.25 Q1417.09 1556.71 1419.73 1560.4 Q1422.41 1564.07 1427.05 1564.07 Q1431.7 1564.07 1434.34 1560.4 Q1437.01 1556.71 1437.01 1550.25 Z" fill="#9eb1be" fill-rule="nonzero" fill-opacity="1"></path><polyline clip-path="url(#clip752)" style="stroke:#adb2b7; stroke-linecap:round; stroke-linejoin:round; stroke-width:2; stroke-opacity:0.1; fill:none" points="205.121,1322.82 2352.76,1322.82 "></polyline>
<polyline clip-path="url(#clip752)" style="stroke:#adb2b7; stroke-linecap:round; stroke-linejoin:round; stroke-width:2; stroke-opacity:0.1; fill:none" points="205.121,1141.17 2352.76,1141.17 "></polyline>
<polyline clip-path="url(#clip752)" style="stroke:#adb2b7; stroke-linecap:round; stroke-linejoin:round; stroke-width:2; stroke-opacity:0.1; fill:none" points="205.121,959.518 2352.76,959.518 "></polyline>
<polyline clip-path="url(#clip752)" style="stroke:#adb2b7; stroke-linecap:round; stroke-linejoin:round; stroke-width:2; stroke-opacity:0.1; fill:none" points="205.121,777.867 2352.76,777.867 "></polyline>
<polyline clip-path="url(#clip752)" style="stroke:#adb2b7; stroke-linecap:round; stroke-linejoin:round; stroke-width:2; stroke-opacity:0.1; fill:none" points="205.121,596.217 2352.76,596.217 "></polyline>
<polyline clip-path="url(#clip752)" style="stroke:#adb2b7; stroke-linecap:round; stroke-linejoin:round; stroke-width:2; stroke-opacity:0.1; fill:none" points="205.121,414.567 2352.76,414.567 "></polyline>
<polyline clip-path="url(#clip752)" style="stroke:#adb2b7; stroke-linecap:round; stroke-linejoin:round; stroke-width:2; stroke-opacity:0.1; fill:none" points="205.121,232.916 2352.76,232.916 "></polyline>
<polyline clip-path="url(#clip750)" style="stroke:#adb2b7; stroke-linecap:round; stroke-linejoin:round; stroke-width:4; stroke-opacity:1; fill:none" points="205.121,1423.18 205.121,123.472 "></polyline>
<polyline clip-path="url(#clip750)" style="stroke:#adb2b7; stroke-linecap:round; stroke-linejoin:round; stroke-width:4; stroke-opacity:1; fill:none" points="205.121,1322.82 224.019,1322.82 "></polyline>
<polyline clip-path="url(#clip750)" style="stroke:#adb2b7; stroke-linecap:round; stroke-linejoin:round; stroke-width:4; stroke-opacity:1; fill:none" points="205.121,1141.17 224.019,1141.17 "></polyline>
<polyline clip-path="url(#clip750)" style="stroke:#adb2b7; stroke-linecap:round; stroke-linejoin:round; stroke-width:4; stroke-opacity:1; fill:none" points="205.121,959.518 224.019,959.518 "></polyline>
<polyline clip-path="url(#clip750)" style="stroke:#adb2b7; stroke-linecap:round; stroke-linejoin:round; stroke-width:4; stroke-opacity:1; fill:none" points="205.121,777.867 224.019,777.867 "></polyline>
<polyline clip-path="url(#clip750)" style="stroke:#adb2b7; stroke-linecap:round; stroke-linejoin:round; stroke-width:4; stroke-opacity:1; fill:none" points="205.121,596.217 224.019,596.217 "></polyline>
<polyline clip-path="url(#clip750)" style="stroke:#adb2b7; stroke-linecap:round; stroke-linejoin:round; stroke-width:4; stroke-opacity:1; fill:none" points="205.121,414.567 224.019,414.567 "></polyline>
<polyline clip-path="url(#clip750)" style="stroke:#adb2b7; stroke-linecap:round; stroke-linejoin:round; stroke-width:4; stroke-opacity:1; fill:none" points="205.121,232.916 224.019,232.916 "></polyline>
<path clip-path="url(#clip750)" d="M121.043 1336.16 L137.362 1336.16 L137.362 1340.1 L115.418 1340.1 L115.418 1336.16 Q118.08 1333.41 122.663 1328.78 Q127.269 1324.13 128.45 1322.78 Q130.695 1320.26 131.575 1318.52 Q132.478 1316.76 132.478 1315.08 Q132.478 1312.32 130.533 1310.58 Q128.612 1308.85 125.51 1308.85 Q123.311 1308.85 120.857 1309.61 Q118.427 1310.38 115.649 1311.93 L115.649 1307.2 Q118.473 1306.07 120.927 1305.49 Q123.38 1304.91 125.418 1304.91 Q130.788 1304.91 133.982 1307.6 Q137.177 1310.28 137.177 1314.77 Q137.177 1316.9 136.367 1318.83 Q135.579 1320.72 133.473 1323.32 Q132.894 1323.99 129.792 1327.2 Q126.691 1330.4 121.043 1336.16 Z" fill="#9eb1be" fill-rule="nonzero" fill-opacity="1"></path><path clip-path="url(#clip750)" d="M157.177 1308.62 Q153.566 1308.62 151.737 1312.18 Q149.931 1315.72 149.931 1322.85 Q149.931 1329.96 151.737 1333.52 Q153.566 1337.07 157.177 1337.07 Q160.811 1337.07 162.616 1333.52 Q164.445 1329.96 164.445 1322.85 Q164.445 1315.72 162.616 1312.18 Q160.811 1308.62 157.177 1308.62 M157.177 1304.91 Q162.987 1304.91 166.042 1309.52 Q169.121 1314.1 169.121 1322.85 Q169.121 1331.58 166.042 1336.19 Q162.987 1340.77 157.177 1340.77 Q151.366 1340.77 148.288 1336.19 Q145.232 1331.58 145.232 1322.85 Q145.232 1314.1 148.288 1309.52 Q151.366 1304.91 157.177 1304.91 Z" fill="#9eb1be" fill-rule="nonzero" fill-opacity="1"></path><path clip-path="url(#clip750)" d="M131.181 1139.81 Q134.538 1140.53 136.413 1142.8 Q138.311 1145.07 138.311 1148.4 Q138.311 1153.52 134.792 1156.32 Q131.274 1159.12 124.793 1159.12 Q122.617 1159.12 120.302 1158.68 Q118.01 1158.26 115.556 1157.41 L115.556 1152.89 Q117.501 1154.03 119.816 1154.61 Q122.13 1155.18 124.654 1155.18 Q129.052 1155.18 131.343 1153.45 Q133.658 1151.71 133.658 1148.4 Q133.658 1145.35 131.505 1143.63 Q129.376 1141.9 125.556 1141.9 L121.529 1141.9 L121.529 1138.05 L125.742 1138.05 Q129.191 1138.05 131.019 1136.69 Q132.848 1135.3 132.848 1132.71 Q132.848 1130.05 130.95 1128.63 Q129.075 1127.2 125.556 1127.2 Q123.635 1127.2 121.436 1127.61 Q119.237 1128.03 116.598 1128.91 L116.598 1124.74 Q119.26 1124 121.575 1123.63 Q123.913 1123.26 125.973 1123.26 Q131.297 1123.26 134.399 1125.69 Q137.501 1128.1 137.501 1132.22 Q137.501 1135.09 135.857 1137.08 Q134.214 1139.05 131.181 1139.81 Z" fill="#9eb1be" fill-rule="nonzero" fill-opacity="1"></path><path clip-path="url(#clip750)" d="M157.177 1126.97 Q153.566 1126.97 151.737 1130.53 Q149.931 1134.07 149.931 1141.2 Q149.931 1148.31 151.737 1151.87 Q153.566 1155.42 157.177 1155.42 Q160.811 1155.42 162.616 1151.87 Q164.445 1148.31 164.445 1141.2 Q164.445 1134.07 162.616 1130.53 Q160.811 1126.97 157.177 1126.97 M157.177 1123.26 Q162.987 1123.26 166.042 1127.87 Q169.121 1132.45 169.121 1141.2 Q169.121 1149.93 166.042 1154.54 Q162.987 1159.12 157.177 1159.12 Q151.366 1159.12 148.288 1154.54 Q145.232 1149.93 145.232 1141.2 Q145.232 1132.45 148.288 1127.87 Q151.366 1123.26 157.177 1123.26 Z" fill="#9eb1be" fill-rule="nonzero" fill-opacity="1"></path><path clip-path="url(#clip750)" d="M129.862 946.312 L118.056 964.761 L129.862 964.761 L129.862 946.312 M128.635 942.238 L134.515 942.238 L134.515 964.761 L139.445 964.761 L139.445 968.649 L134.515 968.649 L134.515 976.798 L129.862 976.798 L129.862 968.649 L114.26 968.649 L114.26 964.136 L128.635 942.238 Z" fill="#9eb1be" fill-rule="nonzero" fill-opacity="1"></path><path clip-path="url(#clip750)" d="M157.177 945.316 Q153.566 945.316 151.737 948.881 Q149.931 952.423 149.931 959.552 Q149.931 966.659 151.737 970.223 Q153.566 973.765 157.177 973.765 Q160.811 973.765 162.616 970.223 Q164.445 966.659 164.445 959.552 Q164.445 952.423 162.616 948.881 Q160.811 945.316 157.177 945.316 M157.177 941.613 Q162.987 941.613 166.042 946.219 Q169.121 950.802 169.121 959.552 Q169.121 968.279 166.042 972.885 Q162.987 977.469 157.177 977.469 Q151.366 977.469 148.288 972.885 Q145.232 968.279 145.232 959.552 Q145.232 950.802 148.288 946.219 Q151.366 941.613 157.177 941.613 Z" fill="#9eb1be" fill-rule="nonzero" fill-opacity="1"></path><path clip-path="url(#clip750)" d="M117.061 760.587 L135.417 760.587 L135.417 764.522 L121.343 764.522 L121.343 772.995 Q122.362 772.647 123.38 772.485 Q124.399 772.3 125.418 772.3 Q131.205 772.3 134.584 775.471 Q137.964 778.643 137.964 784.059 Q137.964 789.638 134.492 792.74 Q131.019 795.819 124.7 795.819 Q122.524 795.819 120.255 795.448 Q118.01 795.078 115.603 794.337 L115.603 789.638 Q117.686 790.772 119.908 791.328 Q122.13 791.883 124.607 791.883 Q128.612 791.883 130.95 789.777 Q133.288 787.67 133.288 784.059 Q133.288 780.448 130.95 778.342 Q128.612 776.235 124.607 776.235 Q122.732 776.235 120.857 776.652 Q119.006 777.069 117.061 777.948 L117.061 760.587 Z" fill="#9eb1be" fill-rule="nonzero" fill-opacity="1"></path><path clip-path="url(#clip750)" d="M157.177 763.666 Q153.566 763.666 151.737 767.231 Q149.931 770.772 149.931 777.902 Q149.931 785.008 151.737 788.573 Q153.566 792.115 157.177 792.115 Q160.811 792.115 162.616 788.573 Q164.445 785.008 164.445 777.902 Q164.445 770.772 162.616 767.231 Q160.811 763.666 157.177 763.666 M157.177 759.962 Q162.987 759.962 166.042 764.569 Q169.121 769.152 169.121 777.902 Q169.121 786.629 166.042 791.235 Q162.987 795.819 157.177 795.819 Q151.366 795.819 148.288 791.235 Q145.232 786.629 145.232 777.902 Q145.232 769.152 148.288 764.569 Q151.366 759.962 157.177 759.962 Z" fill="#9eb1be" fill-rule="nonzero" fill-opacity="1"></path><path clip-path="url(#clip750)" d="M127.593 594.354 Q124.445 594.354 122.593 596.506 Q120.765 598.659 120.765 602.409 Q120.765 606.136 122.593 608.312 Q124.445 610.465 127.593 610.465 Q130.742 610.465 132.57 608.312 Q134.422 606.136 134.422 602.409 Q134.422 598.659 132.57 596.506 Q130.742 594.354 127.593 594.354 M136.876 579.701 L136.876 583.96 Q135.117 583.127 133.311 582.687 Q131.529 582.247 129.769 582.247 Q125.14 582.247 122.686 585.372 Q120.255 588.497 119.908 594.817 Q121.274 592.803 123.334 591.738 Q125.394 590.65 127.871 590.65 Q133.08 590.65 136.089 593.821 Q139.121 596.969 139.121 602.409 Q139.121 607.733 135.973 610.951 Q132.825 614.168 127.593 614.168 Q121.598 614.168 118.427 609.585 Q115.256 604.978 115.256 596.252 Q115.256 588.057 119.144 583.196 Q123.033 578.312 129.584 578.312 Q131.343 578.312 133.126 578.659 Q134.931 579.006 136.876 579.701 Z" fill="#9eb1be" fill-rule="nonzero" fill-opacity="1"></path><path clip-path="url(#clip750)" d="M157.177 582.016 Q153.566 582.016 151.737 585.58 Q149.931 589.122 149.931 596.252 Q149.931 603.358 151.737 606.923 Q153.566 610.465 157.177 610.465 Q160.811 610.465 162.616 606.923 Q164.445 603.358 164.445 596.252 Q164.445 589.122 162.616 585.58 Q160.811 582.016 157.177 582.016 M157.177 578.312 Q162.987 578.312 166.042 582.918 Q169.121 587.502 169.121 596.252 Q169.121 604.978 166.042 609.585 Q162.987 614.168 157.177 614.168 Q151.366 614.168 148.288 609.585 Q145.232 604.978 145.232 596.252 Q145.232 587.502 148.288 582.918 Q151.366 578.312 157.177 578.312 Z" fill="#9eb1be" fill-rule="nonzero" fill-opacity="1"></path><path clip-path="url(#clip750)" d="M115.834 397.287 L138.056 397.287 L138.056 399.277 L125.51 431.847 L120.626 431.847 L132.431 401.222 L115.834 401.222 L115.834 397.287 Z" fill="#9eb1be" fill-rule="nonzero" fill-opacity="1"></path><path clip-path="url(#clip750)" d="M157.177 400.365 Q153.566 400.365 151.737 403.93 Q149.931 407.472 149.931 414.601 Q149.931 421.708 151.737 425.273 Q153.566 428.814 157.177 428.814 Q160.811 428.814 162.616 425.273 Q164.445 421.708 164.445 414.601 Q164.445 407.472 162.616 403.93 Q160.811 400.365 157.177 400.365 M157.177 396.662 Q162.987 396.662 166.042 401.268 Q169.121 405.851 169.121 414.601 Q169.121 423.328 166.042 427.935 Q162.987 432.518 157.177 432.518 Q151.366 432.518 148.288 427.935 Q145.232 423.328 145.232 414.601 Q145.232 405.851 148.288 401.268 Q151.366 396.662 157.177 396.662 Z" fill="#9eb1be" fill-rule="nonzero" fill-opacity="1"></path><path clip-path="url(#clip750)" d="M127.015 233.784 Q123.681 233.784 121.76 235.567 Q119.862 237.349 119.862 240.474 Q119.862 243.599 121.76 245.382 Q123.681 247.164 127.015 247.164 Q130.348 247.164 132.269 245.382 Q134.191 243.576 134.191 240.474 Q134.191 237.349 132.269 235.567 Q130.371 233.784 127.015 233.784 M122.339 231.794 Q119.33 231.053 117.64 228.993 Q115.973 226.933 115.973 223.97 Q115.973 219.826 118.913 217.419 Q121.876 215.011 127.015 215.011 Q132.177 215.011 135.117 217.419 Q138.056 219.826 138.056 223.97 Q138.056 226.933 136.367 228.993 Q134.7 231.053 131.714 231.794 Q135.093 232.581 136.968 234.872 Q138.867 237.164 138.867 240.474 Q138.867 245.497 135.788 248.183 Q132.732 250.868 127.015 250.868 Q121.297 250.868 118.218 248.183 Q115.163 245.497 115.163 240.474 Q115.163 237.164 117.061 234.872 Q118.959 232.581 122.339 231.794 M120.626 224.41 Q120.626 227.095 122.293 228.599 Q123.982 230.104 127.015 230.104 Q130.024 230.104 131.714 228.599 Q133.427 227.095 133.427 224.41 Q133.427 221.724 131.714 220.22 Q130.024 218.715 127.015 218.715 Q123.982 218.715 122.293 220.22 Q120.626 221.724 120.626 224.41 Z" fill="#9eb1be" fill-rule="nonzero" fill-opacity="1"></path><path clip-path="url(#clip750)" d="M157.177 218.715 Q153.566 218.715 151.737 222.28 Q149.931 225.822 149.931 232.951 Q149.931 240.058 151.737 243.622 Q153.566 247.164 157.177 247.164 Q160.811 247.164 162.616 243.622 Q164.445 240.058 164.445 232.951 Q164.445 225.822 162.616 222.28 Q160.811 218.715 157.177 218.715 M157.177 215.011 Q162.987 215.011 166.042 219.618 Q169.121 224.201 169.121 232.951 Q169.121 241.678 166.042 246.284 Q162.987 250.868 157.177 250.868 Q151.366 250.868 148.288 246.284 Q145.232 241.678 145.232 232.951 Q145.232 224.201 148.288 219.618 Q151.366 215.011 157.177 215.011 Z" fill="#9eb1be" fill-rule="nonzero" fill-opacity="1"></path><path clip-path="url(#clip750)" d="M16.4842 1020.03 L16.4842 992.72 L21.895 992.72 L21.895 1013.6 L35.8996 1013.6 L35.8996 994.757 L41.3104 994.757 L41.3104 1013.6 L64.0042 1013.6 L64.0042 1020.03 L16.4842 1020.03 Z" fill="#9eb1be" fill-rule="nonzero" fill-opacity="1"></path><path clip-path="url(#clip750)" d="M28.3562 987.532 L28.3562 981.676 L64.0042 981.676 L64.0042 987.532 L28.3562 987.532 M14.479 987.532 L14.479 981.676 L21.895 981.676 L21.895 987.532 L14.479 987.532 Z" fill="#9eb1be" fill-rule="nonzero" fill-opacity="1"></path><path clip-path="url(#clip750)" d="M18.2347 963.629 L28.3562 963.629 L28.3562 951.566 L32.9077 951.566 L32.9077 963.629 L52.2594 963.629 Q56.6199 963.629 57.8613 962.451 Q59.1026 961.242 59.1026 957.581 L59.1026 951.566 L64.0042 951.566 L64.0042 957.581 Q64.0042 964.361 61.4897 966.939 Q58.9434 969.517 52.2594 969.517 L32.9077 969.517 L32.9077 973.814 L28.3562 973.814 L28.3562 969.517 L18.2347 969.517 L18.2347 963.629 Z" fill="#9eb1be" fill-rule="nonzero" fill-opacity="1"></path><path clip-path="url(#clip750)" d="M58.657 917.477 L77.5631 917.477 L77.5631 923.366 L28.3562 923.366 L28.3562 917.477 L33.7671 917.477 Q30.5842 915.631 29.0564 912.83 Q27.4968 909.998 27.4968 906.083 Q27.4968 899.59 32.6531 895.548 Q37.8093 891.473 46.212 891.473 Q54.6147 891.473 59.771 895.548 Q64.9272 899.59 64.9272 906.083 Q64.9272 909.998 63.3994 912.83 Q61.8398 915.631 58.657 917.477 M46.212 897.553 Q39.7508 897.553 36.0905 900.226 Q32.3984 902.868 32.3984 907.515 Q32.3984 912.162 36.0905 914.836 Q39.7508 917.477 46.212 917.477 Q52.6732 917.477 56.3653 914.836 Q60.0256 912.162 60.0256 907.515 Q60.0256 902.868 56.3653 900.226 Q52.6732 897.553 46.212 897.553 Z" fill="#9eb1be" fill-rule="nonzero" fill-opacity="1"></path><path clip-path="url(#clip750)" d="M46.0847 865.565 Q46.0847 872.663 47.7079 875.4 Q49.3312 878.137 53.2461 878.137 Q56.3653 878.137 58.2114 876.1 Q60.0256 874.031 60.0256 870.498 Q60.0256 865.629 56.5881 862.701 Q53.1188 859.74 47.3897 859.74 L46.0847 859.74 L46.0847 865.565 M43.6657 853.884 L64.0042 853.884 L64.0042 859.74 L58.5933 859.74 Q61.8398 861.746 63.3994 864.738 Q64.9272 867.729 64.9272 872.058 Q64.9272 877.533 61.8716 880.779 Q58.7843 883.994 53.6281 883.994 Q47.6125 883.994 44.5569 879.983 Q41.5014 875.941 41.5014 867.952 L41.5014 859.74 L40.9285 859.74 Q36.8862 859.74 34.6901 862.414 Q32.4621 865.056 32.4621 869.862 Q32.4621 872.917 33.1941 875.814 Q33.9262 878.71 35.3903 881.384 L29.9795 881.384 Q28.7381 878.169 28.1334 875.145 Q27.4968 872.122 27.4968 869.257 Q27.4968 861.523 31.5072 857.703 Q35.5176 853.884 43.6657 853.884 Z" fill="#9eb1be" fill-rule="nonzero" fill-opacity="1"></path><path clip-path="url(#clip750)" d="M33.8307 821.164 Q33.2578 822.151 33.0032 823.329 Q32.7167 824.474 32.7167 825.875 Q32.7167 830.84 35.9632 833.514 Q39.1779 836.156 45.2253 836.156 L64.0042 836.156 L64.0042 842.044 L28.3562 842.044 L28.3562 836.156 L33.8944 836.156 Q30.6479 834.309 29.0883 831.349 Q27.4968 828.389 27.4968 824.156 Q27.4968 823.551 27.5923 822.819 Q27.656 822.087 27.8151 821.196 L33.8307 821.164 Z" fill="#9eb1be" fill-rule="nonzero" fill-opacity="1"></path><path clip-path="url(#clip750)" d="M46.0847 798.821 Q46.0847 805.918 47.7079 808.656 Q49.3312 811.393 53.2461 811.393 Q56.3653 811.393 58.2114 809.356 Q60.0256 807.287 60.0256 803.754 Q60.0256 798.884 56.5881 795.956 Q53.1188 792.996 47.3897 792.996 L46.0847 792.996 L46.0847 798.821 M43.6657 787.14 L64.0042 787.14 L64.0042 792.996 L58.5933 792.996 Q61.8398 795.001 63.3994 797.993 Q64.9272 800.985 64.9272 805.314 Q64.9272 810.788 61.8716 814.035 Q58.7843 817.249 53.6281 817.249 Q47.6125 817.249 44.5569 813.239 Q41.5014 809.197 41.5014 801.208 L41.5014 792.996 L40.9285 792.996 Q36.8862 792.996 34.6901 795.67 Q32.4621 798.311 32.4621 803.117 Q32.4621 806.173 33.1941 809.069 Q33.9262 811.966 35.3903 814.639 L29.9795 814.639 Q28.7381 811.425 28.1334 808.401 Q27.4968 805.377 27.4968 802.513 Q27.4968 794.778 31.5072 790.959 Q35.5176 787.14 43.6657 787.14 Z" fill="#9eb1be" fill-rule="nonzero" fill-opacity="1"></path><path clip-path="url(#clip750)" d="M35.1993 747.322 Q31.2526 745.126 29.3747 742.07 Q27.4968 739.015 27.4968 734.877 Q27.4968 729.307 31.4117 726.283 Q35.2948 723.26 42.4881 723.26 L64.0042 723.26 L64.0042 729.148 L42.679 729.148 Q37.5546 729.148 35.072 730.962 Q32.5894 732.776 32.5894 736.5 Q32.5894 741.052 35.6131 743.694 Q38.6368 746.335 43.8567 746.335 L64.0042 746.335 L64.0042 752.224 L42.679 752.224 Q37.5228 752.224 35.072 754.038 Q32.5894 755.852 32.5894 759.64 Q32.5894 764.128 35.6449 766.769 Q38.6686 769.411 43.8567 769.411 L64.0042 769.411 L64.0042 775.299 L28.3562 775.299 L28.3562 769.411 L33.8944 769.411 Q30.616 767.406 29.0564 764.605 Q27.4968 761.804 27.4968 757.953 Q27.4968 754.07 29.4702 751.364 Q31.4436 748.627 35.1993 747.322 Z" fill="#9eb1be" fill-rule="nonzero" fill-opacity="1"></path><path clip-path="url(#clip750)" d="M44.7161 681.087 L47.5806 681.087 L47.5806 708.014 Q53.6281 707.632 56.8109 704.385 Q59.9619 701.107 59.9619 695.282 Q59.9619 691.909 59.1344 688.758 Q58.3069 685.575 56.6518 682.456 L62.1899 682.456 Q63.5267 685.607 64.227 688.917 Q64.9272 692.227 64.9272 695.633 Q64.9272 704.163 59.9619 709.16 Q54.9967 714.125 46.5303 714.125 Q37.7774 714.125 32.6531 709.414 Q27.4968 704.672 27.4968 696.651 Q27.4968 689.458 32.1438 685.288 Q36.7589 681.087 44.7161 681.087 M42.9973 686.943 Q38.1912 687.007 35.3266 689.649 Q32.4621 692.259 32.4621 696.587 Q32.4621 701.489 35.2312 704.449 Q38.0002 707.377 43.0292 707.823 L42.9973 686.943 Z" fill="#9eb1be" fill-rule="nonzero" fill-opacity="1"></path><path clip-path="url(#clip750)" d="M18.2347 665.682 L28.3562 665.682 L28.3562 653.619 L32.9077 653.619 L32.9077 665.682 L52.2594 665.682 Q56.6199 665.682 57.8613 664.504 Q59.1026 663.295 59.1026 659.634 L59.1026 653.619 L64.0042 653.619 L64.0042 659.634 Q64.0042 666.414 61.4897 668.992 Q58.9434 671.57 52.2594 671.57 L32.9077 671.57 L32.9077 675.867 L28.3562 675.867 L28.3562 671.57 L18.2347 671.57 L18.2347 665.682 Z" fill="#9eb1be" fill-rule="nonzero" fill-opacity="1"></path><path clip-path="url(#clip750)" d="M44.7161 615.425 L47.5806 615.425 L47.5806 642.352 Q53.6281 641.97 56.8109 638.723 Q59.9619 635.445 59.9619 629.62 Q59.9619 626.246 59.1344 623.095 Q58.3069 619.912 56.6518 616.793 L62.1899 616.793 Q63.5267 619.944 64.227 623.254 Q64.9272 626.565 64.9272 629.97 Q64.9272 638.5 59.9619 643.497 Q54.9967 648.463 46.5303 648.463 Q37.7774 648.463 32.6531 643.752 Q27.4968 639.01 27.4968 630.989 Q27.4968 623.796 32.1438 619.626 Q36.7589 615.425 44.7161 615.425 M42.9973 621.281 Q38.1912 621.345 35.3266 623.987 Q32.4621 626.596 32.4621 630.925 Q32.4621 635.827 35.2312 638.787 Q38.0002 641.715 43.0292 642.161 L42.9973 621.281 Z" fill="#9eb1be" fill-rule="nonzero" fill-opacity="1"></path><path clip-path="url(#clip750)" d="M33.8307 585.156 Q33.2578 586.142 33.0032 587.32 Q32.7167 588.466 32.7167 589.866 Q32.7167 594.832 35.9632 597.505 Q39.1779 600.147 45.2253 600.147 L64.0042 600.147 L64.0042 606.035 L28.3562 606.035 L28.3562 600.147 L33.8944 600.147 Q30.6479 598.301 29.0883 595.341 Q27.4968 592.381 27.4968 588.148 Q27.4968 587.543 27.5923 586.811 Q27.656 586.079 27.8151 585.188 L33.8307 585.156 Z" fill="#9eb1be" fill-rule="nonzero" fill-opacity="1"></path><path clip-path="url(#clip750)" d="M46.212 532.702 Q39.7508 532.702 36.0905 535.376 Q32.3984 538.018 32.3984 542.665 Q32.3984 547.312 36.0905 549.985 Q39.7508 552.627 46.212 552.627 Q52.6732 552.627 56.3653 549.985 Q60.0256 547.312 60.0256 542.665 Q60.0256 538.018 56.3653 535.376 Q52.6732 532.702 46.212 532.702 M33.7671 552.627 Q30.5842 550.781 29.0564 547.98 Q27.4968 545.147 27.4968 541.232 Q27.4968 534.739 32.6531 530.697 Q37.8093 526.623 46.212 526.623 Q54.6147 526.623 59.771 530.697 Q64.9272 534.739 64.9272 541.232 Q64.9272 545.147 63.3994 547.98 Q61.8398 550.781 58.657 552.627 L64.0042 552.627 L64.0042 558.515 L14.479 558.515 L14.479 552.627 L33.7671 552.627 Z" fill="#9eb1be" fill-rule="nonzero" fill-opacity="1"></path><path clip-path="url(#clip750)" d="M1046.6 49.9314 Q1046.6 41.7081 1043.2 37.0496 Q1039.83 32.3505 1033.92 32.3505 Q1028.01 32.3505 1024.6 37.0496 Q1021.24 41.7081 1021.24 49.9314 Q1021.24 58.1548 1024.6 62.8538 Q1028.01 67.5124 1033.92 67.5124 Q1039.83 67.5124 1043.2 62.8538 Q1046.6 58.1548 1046.6 49.9314 M1021.24 34.0924 Q1023.59 30.0415 1027.15 28.0971 Q1030.76 26.1121 1035.74 26.1121 Q1044.01 26.1121 1049.15 32.6746 Q1054.34 39.2371 1054.34 49.9314 Q1054.34 60.6258 1049.15 67.1883 Q1044.01 73.7508 1035.74 73.7508 Q1030.76 73.7508 1027.15 71.8063 Q1023.59 69.8214 1021.24 65.7705 L1021.24 72.576 L1013.75 72.576 L1013.75 9.54393 L1021.24 9.54393 L1021.24 34.0924 Z" fill="#adb2b7" fill-rule="nonzero" fill-opacity="1"></path><path clip-path="url(#clip750)" d="M1084.6 9.62495 Q1079.17 18.942 1076.54 28.0566 Q1073.9 37.1711 1073.9 46.5287 Q1073.9 55.8863 1076.54 65.0818 Q1079.21 74.2369 1084.6 83.5134 L1078.11 83.5134 Q1072.04 73.9938 1069 64.7983 Q1066 55.6027 1066 46.5287 Q1066 37.4952 1069 28.3401 Q1072 19.1851 1078.11 9.62495 L1084.6 9.62495 Z" fill="#adb2b7" fill-rule="nonzero" fill-opacity="1"></path><path clip-path="url(#clip750)" d="M1106.27 65.7705 L1106.27 89.8329 L1098.77 89.8329 L1098.77 27.2059 L1106.27 27.2059 L1106.27 34.0924 Q1108.62 30.0415 1112.18 28.0971 Q1115.79 26.1121 1120.77 26.1121 Q1129.03 26.1121 1134.18 32.6746 Q1139.36 39.2371 1139.36 49.9314 Q1139.36 60.6258 1134.18 67.1883 Q1129.03 73.7508 1120.77 73.7508 Q1115.79 73.7508 1112.18 71.8063 Q1108.62 69.8214 1106.27 65.7705 M1131.63 49.9314 Q1131.63 41.7081 1128.22 37.0496 Q1124.86 32.3505 1118.95 32.3505 Q1113.03 32.3505 1109.63 37.0496 Q1106.27 41.7081 1106.27 49.9314 Q1106.27 58.1548 1109.63 62.8538 Q1113.03 67.5124 1118.95 67.5124 Q1124.86 67.5124 1128.22 62.8538 Q1131.63 58.1548 1131.63 49.9314 Z" fill="#adb2b7" fill-rule="nonzero" fill-opacity="1"></path><path clip-path="url(#clip750)" d="M1150.55 9.62495 L1157.03 9.62495 Q1163.1 19.1851 1166.1 28.3401 Q1169.14 37.4952 1169.14 46.5287 Q1169.14 55.6027 1166.1 64.7983 Q1163.1 73.9938 1157.03 83.5134 L1150.55 83.5134 Q1155.93 74.2369 1158.57 65.0818 Q1161.24 55.8863 1161.24 46.5287 Q1161.24 37.1711 1158.57 28.0566 Q1155.93 18.942 1150.55 9.62495 Z" fill="#adb2b7" fill-rule="nonzero" fill-opacity="1"></path><path clip-path="url(#clip750)" d="M1180.32 46.5287 L1202.15 46.5287 L1202.15 53.1722 L1180.32 53.1722 L1180.32 46.5287 Z" fill="#adb2b7" fill-rule="nonzero" fill-opacity="1"></path><path clip-path="url(#clip750)" d="M1243.88 34.0924 L1243.88 9.54393 L1251.33 9.54393 L1251.33 72.576 L1243.88 72.576 L1243.88 65.7705 Q1241.53 69.8214 1237.92 71.8063 Q1234.36 73.7508 1229.34 73.7508 Q1221.11 73.7508 1215.93 67.1883 Q1210.78 60.6258 1210.78 49.9314 Q1210.78 39.2371 1215.93 32.6746 Q1221.11 26.1121 1229.34 26.1121 Q1234.36 26.1121 1237.92 28.0971 Q1241.53 30.0415 1243.88 34.0924 M1218.48 49.9314 Q1218.48 58.1548 1221.84 62.8538 Q1225.24 67.5124 1231.16 67.5124 Q1237.07 67.5124 1240.48 62.8538 Q1243.88 58.1548 1243.88 49.9314 Q1243.88 41.7081 1240.48 37.0496 Q1237.07 32.3505 1231.16 32.3505 Q1225.24 32.3505 1221.84 37.0496 Q1218.48 41.7081 1218.48 49.9314 Z" fill="#adb2b7" fill-rule="nonzero" fill-opacity="1"></path><path clip-path="url(#clip750)" d="M1266.68 27.2059 L1274.14 27.2059 L1274.14 72.576 L1266.68 72.576 L1266.68 27.2059 M1266.68 9.54393 L1274.14 9.54393 L1274.14 18.9825 L1266.68 18.9825 L1266.68 9.54393 Z" fill="#adb2b7" fill-rule="nonzero" fill-opacity="1"></path><path clip-path="url(#clip750)" d="M1310.35 49.7694 Q1301.32 49.7694 1297.84 51.8354 Q1294.35 53.9013 1294.35 58.8839 Q1294.35 62.8538 1296.94 65.2034 Q1299.58 67.5124 1304.07 67.5124 Q1310.27 67.5124 1314 63.1374 Q1317.77 58.7219 1317.77 51.4303 L1317.77 49.7694 L1310.35 49.7694 M1325.22 46.6907 L1325.22 72.576 L1317.77 72.576 L1317.77 65.6895 Q1315.21 69.8214 1311.41 71.8063 Q1307.6 73.7508 1302.09 73.7508 Q1295.12 73.7508 1290.99 69.8619 Q1286.9 65.9325 1286.9 59.3701 Q1286.9 51.7138 1292 47.825 Q1297.15 43.9361 1307.32 43.9361 L1317.77 43.9361 L1317.77 43.2069 Q1317.77 38.0623 1314.36 35.2672 Q1311 32.4315 1304.88 32.4315 Q1301 32.4315 1297.31 33.3632 Q1293.62 34.295 1290.22 36.1584 L1290.22 29.2718 Q1294.31 27.692 1298.16 26.9223 Q1302.01 26.1121 1305.65 26.1121 Q1315.5 26.1121 1320.36 31.2163 Q1325.22 36.3204 1325.22 46.6907 Z" fill="#adb2b7" fill-rule="nonzero" fill-opacity="1"></path><path clip-path="url(#clip750)" d="M1370.43 49.3643 Q1370.43 41.2625 1367.07 36.8065 Q1363.74 32.3505 1357.71 32.3505 Q1351.71 32.3505 1348.35 36.8065 Q1345.03 41.2625 1345.03 49.3643 Q1345.03 57.4256 1348.35 61.8816 Q1351.71 66.3376 1357.71 66.3376 Q1363.74 66.3376 1367.07 61.8816 Q1370.43 57.4256 1370.43 49.3643 M1377.88 66.9452 Q1377.88 78.5308 1372.74 84.1616 Q1367.59 89.8329 1356.98 89.8329 Q1353.05 89.8329 1349.57 89.2252 Q1346.08 88.6581 1342.8 87.4428 L1342.8 80.1917 Q1346.08 81.9741 1349.28 82.8248 Q1352.48 83.6755 1355.8 83.6755 Q1363.14 83.6755 1366.78 79.8271 Q1370.43 76.0193 1370.43 68.282 L1370.43 64.5957 Q1368.12 68.6061 1364.51 70.5911 Q1360.91 72.576 1355.89 72.576 Q1347.54 72.576 1342.44 66.2161 Q1337.33 59.8562 1337.33 49.3643 Q1337.33 38.832 1342.44 32.472 Q1347.54 26.1121 1355.89 26.1121 Q1360.91 26.1121 1364.51 28.0971 Q1368.12 30.082 1370.43 34.0924 L1370.43 27.2059 L1377.88 27.2059 L1377.88 66.9452 Z" fill="#adb2b7" fill-rule="nonzero" fill-opacity="1"></path><path clip-path="url(#clip750)" d="M1419.53 34.1734 Q1418.27 33.4443 1416.77 33.1202 Q1415.31 32.7556 1413.53 32.7556 Q1407.21 32.7556 1403.81 36.8875 Q1400.45 40.9789 1400.45 48.6757 L1400.45 72.576 L1392.95 72.576 L1392.95 27.2059 L1400.45 27.2059 L1400.45 34.2544 Q1402.79 30.1225 1406.56 28.1376 Q1410.33 26.1121 1415.72 26.1121 Q1416.49 26.1121 1417.42 26.2337 Q1418.35 26.3147 1419.48 26.5172 L1419.53 34.1734 Z" fill="#adb2b7" fill-rule="nonzero" fill-opacity="1"></path><path clip-path="url(#clip750)" d="M1447.96 49.7694 Q1438.93 49.7694 1435.45 51.8354 Q1431.96 53.9013 1431.96 58.8839 Q1431.96 62.8538 1434.55 65.2034 Q1437.19 67.5124 1441.68 67.5124 Q1447.88 67.5124 1451.61 63.1374 Q1455.38 58.7219 1455.38 51.4303 L1455.38 49.7694 L1447.96 49.7694 M1462.83 46.6907 L1462.83 72.576 L1455.38 72.576 L1455.38 65.6895 Q1452.82 69.8214 1449.02 71.8063 Q1445.21 73.7508 1439.7 73.7508 Q1432.73 73.7508 1428.6 69.8619 Q1424.51 65.9325 1424.51 59.3701 Q1424.51 51.7138 1429.61 47.825 Q1434.76 43.9361 1444.92 43.9361 L1455.38 43.9361 L1455.38 43.2069 Q1455.38 38.0623 1451.97 35.2672 Q1448.61 32.4315 1442.49 32.4315 Q1438.6 32.4315 1434.92 33.3632 Q1431.23 34.295 1427.83 36.1584 L1427.83 29.2718 Q1431.92 27.692 1435.77 26.9223 Q1439.62 26.1121 1443.26 26.1121 Q1453.11 26.1121 1457.97 31.2163 Q1462.83 36.3204 1462.83 46.6907 Z" fill="#adb2b7" fill-rule="nonzero" fill-opacity="1"></path><path clip-path="url(#clip750)" d="M1513.51 35.9153 Q1516.3 30.8922 1520.19 28.5022 Q1524.08 26.1121 1529.35 26.1121 Q1536.43 26.1121 1540.28 31.0947 Q1544.13 36.0368 1544.13 45.1919 L1544.13 72.576 L1536.64 72.576 L1536.64 45.4349 Q1536.64 38.913 1534.33 35.7533 Q1532.02 32.5936 1527.28 32.5936 Q1521.49 32.5936 1518.12 36.4419 Q1514.76 40.2903 1514.76 46.9338 L1514.76 72.576 L1507.27 72.576 L1507.27 45.4349 Q1507.27 38.8725 1504.96 35.7533 Q1502.65 32.5936 1497.83 32.5936 Q1492.12 32.5936 1488.76 36.4824 Q1485.39 40.3308 1485.39 46.9338 L1485.39 72.576 L1477.9 72.576 L1477.9 27.2059 L1485.39 27.2059 L1485.39 34.2544 Q1487.94 30.082 1491.51 28.0971 Q1495.07 26.1121 1499.98 26.1121 Q1504.92 26.1121 1508.36 28.6237 Q1511.85 31.1352 1513.51 35.9153 Z" fill="#adb2b7" fill-rule="nonzero" fill-opacity="1"></path><circle clip-path="url(#clip752)" cx="2291.97" cy="160.256" r="14.4" fill="#fe4365" fill-rule="evenodd" fill-opacity="1" stroke="#adb2b7" stroke-opacity="1" stroke-width="3.2"></circle>
<circle clip-path="url(#clip752)" cx="1785.46" cy="765.152" r="14.4" fill="#fe4365" fill-rule="evenodd" fill-opacity="1" stroke="#adb2b7" stroke-opacity="1" stroke-width="3.2"></circle>
<circle clip-path="url(#clip752)" cx="1278.94" cy="1117.55" r="14.4" fill="#fe4365" fill-rule="evenodd" fill-opacity="1" stroke="#adb2b7" stroke-opacity="1" stroke-width="3.2"></circle>
<circle clip-path="url(#clip752)" cx="772.421" cy="1339.17" r="14.4" fill="#fe4365" fill-rule="evenodd" fill-opacity="1" stroke="#adb2b7" stroke-opacity="1" stroke-width="3.2"></circle>
<circle clip-path="url(#clip752)" cx="265.903" cy="1386.4" r="14.4" fill="#fe4365" fill-rule="evenodd" fill-opacity="1" stroke="#adb2b7" stroke-opacity="1" stroke-width="3.2"></circle>
</svg>