<svg xmlns="http://www.w3.org/2000/svg" xmlns:xlink="http://www.w3.org/1999/xlink" width="600" height="400" viewBox="0 0 2400 1600">
<defs>
  <clipPath id="clip310">
    <rect x="0" y="0" width="2400" height="1600"></rect>
  </clipPath>
</defs>
<path clip-path="url(#clip310)" d="M0 1600 L2400 1600 L2400 0 L0 0  Z" fill="#271924" fill-rule="evenodd" fill-opacity="1"></path>
<defs>
  <clipPath id="clip311">
    <rect x="480" y="0" width="1681" height="1600"></rect>
  </clipPath>
</defs>
<path clip-path="url(#clip310)" d="M249.542 1423.18 L2352.76 1423.18 L2352.76 123.472 L249.542 123.472  Z" fill="#271924" fill-rule="evenodd" fill-opacity="1"></path>
<defs>
  <clipPath id="clip312">
    <rect x="249" y="123" width="2104" height="1301"></rect>
  </clipPath>
</defs>
<polyline clip-path="url(#clip312)" style="stroke:#ebfb73; stroke-linecap:round; stroke-linejoin:round; stroke-width:2; stroke-opacity:0.1; fill:none" points="309.067,1423.18 309.067,123.472 "></polyline>
<polyline clip-path="url(#clip312)" style="stroke:#ebfb73; stroke-linecap:round; stroke-linejoin:round; stroke-width:2; stroke-opacity:0.1; fill:none" points="805.108,1423.18 805.108,123.472 "></polyline>
<polyline clip-path="url(#clip312)" style="stroke:#ebfb73; stroke-linecap:round; stroke-linejoin:round; stroke-width:2; stroke-opacity:0.1; fill:none" points="1301.15,1423.18 1301.15,123.472 "></polyline>
<polyline clip-path="url(#clip312)" style="stroke:#ebfb73; stroke-linecap:round; stroke-linejoin:round; stroke-width:2; stroke-opacity:0.1; fill:none" points="1797.19,1423.18 1797.19,123.472 "></polyline>
<polyline clip-path="url(#clip312)" style="stroke:#ebfb73; stroke-linecap:round; stroke-linejoin:round; stroke-width:2; stroke-opacity:0.1; fill:none" points="2293.23,1423.18 2293.23,123.472 "></polyline>
<polyline clip-path="url(#clip310)" style="stroke:#ebfb73; stroke-linecap:round; stroke-linejoin:round; stroke-width:4; stroke-opacity:1; fill:none" points="249.542,1423.18 2352.76,1423.18 "></polyline>
<polyline clip-path="url(#clip310)" style="stroke:#ebfb73; stroke-linecap:round; stroke-linejoin:round; stroke-width:4; stroke-opacity:1; fill:none" points="309.067,1423.18 309.067,1404.28 "></polyline>
<polyline clip-path="url(#clip310)" style="stroke:#ebfb73; stroke-linecap:round; stroke-linejoin:round; stroke-width:4; stroke-opacity:1; fill:none" points="805.108,1423.18 805.108,1404.28 "></polyline>
<polyline clip-path="url(#clip310)" style="stroke:#ebfb73; stroke-linecap:round; stroke-linejoin:round; stroke-width:4; stroke-opacity:1; fill:none" points="1301.15,1423.18 1301.15,1404.28 "></polyline>
<polyline clip-path="url(#clip310)" style="stroke:#ebfb73; stroke-linecap:round; stroke-linejoin:round; stroke-width:4; stroke-opacity:1; fill:none" points="1797.19,1423.18 1797.19,1404.28 "></polyline>
<polyline clip-path="url(#clip310)" style="stroke:#ebfb73; stroke-linecap:round; stroke-linejoin:round; stroke-width:4; stroke-opacity:1; fill:none" points="2293.23,1423.18 2293.23,1404.28 "></polyline>
<path clip-path="url(#clip310)" d="M271.37 1454.1 Q267.759 1454.1 265.931 1457.66 Q264.125 1461.2 264.125 1468.33 Q264.125 1475.44 265.931 1479.01 Q267.759 1482.55 271.37 1482.55 Q275.005 1482.55 276.81 1479.01 Q278.639 1475.44 278.639 1468.33 Q278.639 1461.2 276.81 1457.66 Q275.005 1454.1 271.37 1454.1 M271.37 1450.39 Q277.181 1450.39 280.236 1455 Q283.315 1459.58 283.315 1468.33 Q283.315 1477.06 280.236 1481.67 Q277.181 1486.25 271.37 1486.25 Q265.56 1486.25 262.482 1481.67 Q259.426 1477.06 259.426 1468.33 Q259.426 1459.58 262.482 1455 Q265.56 1450.39 271.37 1450.39 Z" fill="#80d584" fill-rule="nonzero" fill-opacity="1"></path><path clip-path="url(#clip310)" d="M291.532 1479.7 L296.417 1479.7 L296.417 1485.58 L291.532 1485.58 L291.532 1479.7 Z" fill="#80d584" fill-rule="nonzero" fill-opacity="1"></path><path clip-path="url(#clip310)" d="M316.602 1454.1 Q312.991 1454.1 311.162 1457.66 Q309.356 1461.2 309.356 1468.33 Q309.356 1475.44 311.162 1479.01 Q312.991 1482.55 316.602 1482.55 Q320.236 1482.55 322.041 1479.01 Q323.87 1475.44 323.87 1468.33 Q323.87 1461.2 322.041 1457.66 Q320.236 1454.1 316.602 1454.1 M316.602 1450.39 Q322.412 1450.39 325.467 1455 Q328.546 1459.58 328.546 1468.33 Q328.546 1477.06 325.467 1481.67 Q322.412 1486.25 316.602 1486.25 Q310.791 1486.25 307.713 1481.67 Q304.657 1477.06 304.657 1468.33 Q304.657 1459.58 307.713 1455 Q310.791 1450.39 316.602 1450.39 Z" fill="#80d584" fill-rule="nonzero" fill-opacity="1"></path><path clip-path="url(#clip310)" d="M346.764 1454.1 Q343.152 1454.1 341.324 1457.66 Q339.518 1461.2 339.518 1468.33 Q339.518 1475.44 341.324 1479.01 Q343.152 1482.55 346.764 1482.55 Q350.398 1482.55 352.203 1479.01 Q354.032 1475.44 354.032 1468.33 Q354.032 1461.2 352.203 1457.66 Q350.398 1454.1 346.764 1454.1 M346.764 1450.39 Q352.574 1450.39 355.629 1455 Q358.708 1459.58 358.708 1468.33 Q358.708 1477.06 355.629 1481.67 Q352.574 1486.25 346.764 1486.25 Q340.953 1486.25 337.875 1481.67 Q334.819 1477.06 334.819 1468.33 Q334.819 1459.58 337.875 1455 Q340.953 1450.39 346.764 1450.39 Z" fill="#80d584" fill-rule="nonzero" fill-opacity="1"></path><path clip-path="url(#clip310)" d="M767.909 1454.1 Q764.298 1454.1 762.469 1457.66 Q760.664 1461.2 760.664 1468.33 Q760.664 1475.44 762.469 1479.01 Q764.298 1482.55 767.909 1482.55 Q771.543 1482.55 773.349 1479.01 Q775.178 1475.44 775.178 1468.33 Q775.178 1461.2 773.349 1457.66 Q771.543 1454.1 767.909 1454.1 M767.909 1450.39 Q773.719 1450.39 776.775 1455 Q779.853 1459.58 779.853 1468.33 Q779.853 1477.06 776.775 1481.67 Q773.719 1486.25 767.909 1486.25 Q762.099 1486.25 759.02 1481.67 Q755.965 1477.06 755.965 1468.33 Q755.965 1459.58 759.02 1455 Q762.099 1450.39 767.909 1450.39 Z" fill="#80d584" fill-rule="nonzero" fill-opacity="1"></path><path clip-path="url(#clip310)" d="M788.071 1479.7 L792.955 1479.7 L792.955 1485.58 L788.071 1485.58 L788.071 1479.7 Z" fill="#80d584" fill-rule="nonzero" fill-opacity="1"></path><path clip-path="url(#clip310)" d="M807.168 1481.64 L823.487 1481.64 L823.487 1485.58 L801.543 1485.58 L801.543 1481.64 Q804.205 1478.89 808.788 1474.26 Q813.395 1469.61 814.576 1468.27 Q816.821 1465.74 817.7 1464.01 Q818.603 1462.25 818.603 1460.56 Q818.603 1457.8 816.659 1456.07 Q814.738 1454.33 811.636 1454.33 Q809.437 1454.33 806.983 1455.09 Q804.552 1455.86 801.775 1457.41 L801.775 1452.69 Q804.599 1451.55 807.052 1450.97 Q809.506 1450.39 811.543 1450.39 Q816.913 1450.39 820.108 1453.08 Q823.302 1455.77 823.302 1460.26 Q823.302 1462.39 822.492 1464.31 Q821.705 1466.2 819.599 1468.8 Q819.02 1469.47 815.918 1472.69 Q812.816 1475.88 807.168 1481.64 Z" fill="#80d584" fill-rule="nonzero" fill-opacity="1"></path><path clip-path="url(#clip310)" d="M833.349 1451.02 L851.705 1451.02 L851.705 1454.96 L837.631 1454.96 L837.631 1463.43 Q838.649 1463.08 839.668 1462.92 Q840.686 1462.73 841.705 1462.73 Q847.492 1462.73 850.872 1465.9 Q854.251 1469.08 854.251 1474.49 Q854.251 1480.07 850.779 1483.17 Q847.307 1486.25 840.987 1486.25 Q838.811 1486.25 836.543 1485.88 Q834.298 1485.51 831.89 1484.77 L831.89 1480.07 Q833.974 1481.2 836.196 1481.76 Q838.418 1482.32 840.895 1482.32 Q844.899 1482.32 847.237 1480.21 Q849.575 1478.1 849.575 1474.49 Q849.575 1470.88 847.237 1468.77 Q844.899 1466.67 840.895 1466.67 Q839.02 1466.67 837.145 1467.08 Q835.293 1467.5 833.349 1468.38 L833.349 1451.02 Z" fill="#80d584" fill-rule="nonzero" fill-opacity="1"></path><path clip-path="url(#clip310)" d="M1263.45 1454.1 Q1259.84 1454.1 1258.01 1457.66 Q1256.21 1461.2 1256.21 1468.33 Q1256.21 1475.44 1258.01 1479.01 Q1259.84 1482.55 1263.45 1482.55 Q1267.09 1482.55 1268.89 1479.01 Q1270.72 1475.44 1270.72 1468.33 Q1270.72 1461.2 1268.89 1457.66 Q1267.09 1454.1 1263.45 1454.1 M1263.45 1450.39 Q1269.26 1450.39 1272.32 1455 Q1275.4 1459.58 1275.4 1468.33 Q1275.4 1477.06 1272.32 1481.67 Q1269.26 1486.25 1263.45 1486.25 Q1257.64 1486.25 1254.56 1481.67 Q1251.51 1477.06 1251.51 1468.33 Q1251.51 1459.58 1254.56 1455 Q1257.64 1450.39 1263.45 1450.39 Z" fill="#80d584" fill-rule="nonzero" fill-opacity="1"></path><path clip-path="url(#clip310)" d="M1283.61 1479.7 L1288.5 1479.7 L1288.5 1485.58 L1283.61 1485.58 L1283.61 1479.7 Z" fill="#80d584" fill-rule="nonzero" fill-opacity="1"></path><path clip-path="url(#clip310)" d="M1298.73 1451.02 L1317.09 1451.02 L1317.09 1454.96 L1303.01 1454.96 L1303.01 1463.43 Q1304.03 1463.08 1305.05 1462.92 Q1306.07 1462.73 1307.09 1462.73 Q1312.87 1462.73 1316.25 1465.9 Q1319.63 1469.08 1319.63 1474.49 Q1319.63 1480.07 1316.16 1483.17 Q1312.69 1486.25 1306.37 1486.25 Q1304.19 1486.25 1301.92 1485.88 Q1299.68 1485.51 1297.27 1484.77 L1297.27 1480.07 Q1299.35 1481.2 1301.58 1481.76 Q1303.8 1482.32 1306.28 1482.32 Q1310.28 1482.32 1312.62 1480.21 Q1314.96 1478.1 1314.96 1474.49 Q1314.96 1470.88 1312.62 1468.77 Q1310.28 1466.67 1306.28 1466.67 Q1304.4 1466.67 1302.53 1467.08 Q1300.67 1467.5 1298.73 1468.38 L1298.73 1451.02 Z" fill="#80d584" fill-rule="nonzero" fill-opacity="1"></path><path clip-path="url(#clip310)" d="M1338.85 1454.1 Q1335.23 1454.1 1333.41 1457.66 Q1331.6 1461.2 1331.6 1468.33 Q1331.6 1475.44 1333.41 1479.01 Q1335.23 1482.55 1338.85 1482.55 Q1342.48 1482.55 1344.29 1479.01 Q1346.11 1475.44 1346.11 1468.33 Q1346.11 1461.2 1344.29 1457.66 Q1342.48 1454.1 1338.85 1454.1 M1338.85 1450.39 Q1344.66 1450.39 1347.71 1455 Q1350.79 1459.58 1350.79 1468.33 Q1350.79 1477.06 1347.71 1481.67 Q1344.66 1486.25 1338.85 1486.25 Q1333.04 1486.25 1329.96 1481.67 Q1326.9 1477.06 1326.9 1468.33 Q1326.9 1459.58 1329.96 1455 Q1333.04 1450.39 1338.85 1450.39 Z" fill="#80d584" fill-rule="nonzero" fill-opacity="1"></path><path clip-path="url(#clip310)" d="M1759.99 1454.1 Q1756.38 1454.1 1754.55 1457.66 Q1752.75 1461.2 1752.75 1468.33 Q1752.75 1475.44 1754.55 1479.01 Q1756.38 1482.55 1759.99 1482.55 Q1763.63 1482.55 1765.43 1479.01 Q1767.26 1475.44 1767.26 1468.33 Q1767.26 1461.2 1765.43 1457.66 Q1763.63 1454.1 1759.99 1454.1 M1759.99 1450.39 Q1765.8 1450.39 1768.86 1455 Q1771.94 1459.58 1771.94 1468.33 Q1771.94 1477.06 1768.86 1481.67 Q1765.8 1486.25 1759.99 1486.25 Q1754.18 1486.25 1751.1 1481.67 Q1748.05 1477.06 1748.05 1468.33 Q1748.05 1459.58 1751.1 1455 Q1754.18 1450.39 1759.99 1450.39 Z" fill="#80d584" fill-rule="nonzero" fill-opacity="1"></path><path clip-path="url(#clip310)" d="M1780.15 1479.7 L1785.04 1479.7 L1785.04 1485.58 L1780.15 1485.58 L1780.15 1479.7 Z" fill="#80d584" fill-rule="nonzero" fill-opacity="1"></path><path clip-path="url(#clip310)" d="M1794.04 1451.02 L1816.26 1451.02 L1816.26 1453.01 L1803.72 1485.58 L1798.83 1485.58 L1810.64 1454.96 L1794.04 1454.96 L1794.04 1451.02 Z" fill="#80d584" fill-rule="nonzero" fill-opacity="1"></path><path clip-path="url(#clip310)" d="M1825.43 1451.02 L1843.79 1451.02 L1843.79 1454.96 L1829.71 1454.96 L1829.71 1463.43 Q1830.73 1463.08 1831.75 1462.92 Q1832.77 1462.73 1833.79 1462.73 Q1839.57 1462.73 1842.95 1465.9 Q1846.33 1469.08 1846.33 1474.49 Q1846.33 1480.07 1842.86 1483.17 Q1839.39 1486.25 1833.07 1486.25 Q1830.89 1486.25 1828.62 1485.88 Q1826.38 1485.51 1823.97 1484.77 L1823.97 1480.07 Q1826.06 1481.2 1828.28 1481.76 Q1830.5 1482.32 1832.98 1482.32 Q1836.98 1482.32 1839.32 1480.21 Q1841.66 1478.1 1841.66 1474.49 Q1841.66 1470.88 1839.32 1468.77 Q1836.98 1466.67 1832.98 1466.67 Q1831.1 1466.67 1829.23 1467.08 Q1827.38 1467.5 1825.43 1468.38 L1825.43 1451.02 Z" fill="#80d584" fill-rule="nonzero" fill-opacity="1"></path><path clip-path="url(#clip310)" d="M2245.3 1481.64 L2252.94 1481.64 L2252.94 1455.28 L2244.63 1456.95 L2244.63 1452.69 L2252.9 1451.02 L2257.57 1451.02 L2257.57 1481.64 L2265.21 1481.64 L2265.21 1485.58 L2245.3 1485.58 L2245.3 1481.64 Z" fill="#80d584" fill-rule="nonzero" fill-opacity="1"></path><path clip-path="url(#clip310)" d="M2274.65 1479.7 L2279.54 1479.7 L2279.54 1485.58 L2274.65 1485.58 L2274.65 1479.7 Z" fill="#80d584" fill-rule="nonzero" fill-opacity="1"></path><path clip-path="url(#clip310)" d="M2299.72 1454.1 Q2296.11 1454.1 2294.28 1457.66 Q2292.48 1461.2 2292.48 1468.33 Q2292.48 1475.44 2294.28 1479.01 Q2296.11 1482.55 2299.72 1482.55 Q2303.36 1482.55 2305.16 1479.01 Q2306.99 1475.44 2306.99 1468.33 Q2306.99 1461.2 2305.16 1457.66 Q2303.36 1454.1 2299.72 1454.1 M2299.72 1450.39 Q2305.53 1450.39 2308.59 1455 Q2311.67 1459.58 2311.67 1468.33 Q2311.67 1477.06 2308.59 1481.67 Q2305.53 1486.25 2299.72 1486.25 Q2293.91 1486.25 2290.84 1481.67 Q2287.78 1477.06 2287.78 1468.33 Q2287.78 1459.58 2290.84 1455 Q2293.91 1450.39 2299.72 1450.39 Z" fill="#80d584" fill-rule="nonzero" fill-opacity="1"></path><path clip-path="url(#clip310)" d="M2329.89 1454.1 Q2326.27 1454.1 2324.45 1457.66 Q2322.64 1461.2 2322.64 1468.33 Q2322.64 1475.44 2324.45 1479.01 Q2326.27 1482.55 2329.89 1482.55 Q2333.52 1482.55 2335.33 1479.01 Q2337.15 1475.44 2337.15 1468.33 Q2337.15 1461.2 2335.33 1457.66 Q2333.52 1454.1 2329.89 1454.1 M2329.89 1450.39 Q2335.7 1450.39 2338.75 1455 Q2341.83 1459.58 2341.83 1468.33 Q2341.83 1477.06 2338.75 1481.67 Q2335.7 1486.25 2329.89 1486.25 Q2324.08 1486.25 2321 1481.67 Q2317.94 1477.06 2317.94 1468.33 Q2317.94 1459.58 2321 1455 Q2324.08 1450.39 2329.89 1450.39 Z" fill="#80d584" fill-rule="nonzero" fill-opacity="1"></path><path clip-path="url(#clip310)" d="M1137.22 1508.75 L1167.27 1508.75 L1167.27 1514.16 L1143.65 1514.16 L1143.65 1528.23 L1166.28 1528.23 L1166.28 1533.64 L1143.65 1533.64 L1143.65 1550.86 L1167.84 1550.86 L1167.84 1556.27 L1137.22 1556.27 L1137.22 1508.75 Z" fill="#80d584" fill-rule="nonzero" fill-opacity="1"></path><path clip-path="url(#clip310)" d="M1207.79 1520.62 L1194.9 1537.96 L1208.46 1556.27 L1201.55 1556.27 L1191.17 1542.26 L1180.8 1556.27 L1173.89 1556.27 L1187.74 1537.61 L1175.07 1520.62 L1181.97 1520.62 L1191.43 1533.32 L1200.88 1520.62 L1207.79 1520.62 Z" fill="#80d584" fill-rule="nonzero" fill-opacity="1"></path><path clip-path="url(#clip310)" d="M1216.73 1520.62 L1222.59 1520.62 L1222.59 1556.27 L1216.73 1556.27 L1216.73 1520.62 M1216.73 1506.74 L1222.59 1506.74 L1222.59 1514.16 L1216.73 1514.16 L1216.73 1506.74 Z" fill="#80d584" fill-rule="nonzero" fill-opacity="1"></path><path clip-path="url(#clip310)" d="M1240.63 1510.5 L1240.63 1520.62 L1252.7 1520.62 L1252.7 1525.17 L1240.63 1525.17 L1240.63 1544.52 Q1240.63 1548.88 1241.81 1550.12 Q1243.02 1551.36 1246.68 1551.36 L1252.7 1551.36 L1252.7 1556.27 L1246.68 1556.27 Q1239.9 1556.27 1237.32 1553.75 Q1234.75 1551.21 1234.75 1544.52 L1234.75 1525.17 L1230.45 1525.17 L1230.45 1520.62 L1234.75 1520.62 L1234.75 1510.5 L1240.63 1510.5 Z" fill="#80d584" fill-rule="nonzero" fill-opacity="1"></path><path clip-path="url(#clip310)" d="M1301.78 1526.09 Q1300.79 1525.52 1299.61 1525.27 Q1298.47 1524.98 1297.07 1524.98 Q1292.1 1524.98 1289.43 1528.23 Q1286.79 1531.44 1286.79 1537.49 L1286.79 1556.27 L1280.9 1556.27 L1280.9 1520.62 L1286.79 1520.62 L1286.79 1526.16 Q1288.63 1522.91 1291.59 1521.35 Q1294.55 1519.76 1298.78 1519.76 Q1299.39 1519.76 1300.12 1519.85 Q1300.85 1519.92 1301.74 1520.08 L1301.78 1526.09 Z" fill="#80d584" fill-rule="nonzero" fill-opacity="1"></path><path clip-path="url(#clip310)" d="M1324.12 1538.35 Q1317.02 1538.35 1314.29 1539.97 Q1311.55 1541.59 1311.55 1545.51 Q1311.55 1548.63 1313.59 1550.47 Q1315.65 1552.29 1319.19 1552.29 Q1324.06 1552.29 1326.99 1548.85 Q1329.95 1545.38 1329.95 1539.65 L1329.95 1538.35 L1324.12 1538.35 M1335.8 1535.93 L1335.8 1556.27 L1329.95 1556.27 L1329.95 1550.86 Q1327.94 1554.1 1324.95 1555.66 Q1321.96 1557.19 1317.63 1557.19 Q1312.15 1557.19 1308.91 1554.13 Q1305.69 1551.05 1305.69 1545.89 Q1305.69 1539.87 1309.7 1536.82 Q1313.74 1533.76 1321.73 1533.76 L1329.95 1533.76 L1329.95 1533.19 Q1329.95 1529.15 1327.27 1526.95 Q1324.63 1524.72 1319.82 1524.72 Q1316.77 1524.72 1313.87 1525.46 Q1310.98 1526.19 1308.3 1527.65 L1308.3 1522.24 Q1311.52 1521 1314.54 1520.4 Q1317.56 1519.76 1320.43 1519.76 Q1328.16 1519.76 1331.98 1523.77 Q1335.8 1527.78 1335.8 1535.93 Z" fill="#80d584" fill-rule="nonzero" fill-opacity="1"></path><path clip-path="url(#clip310)" d="M1353.66 1510.5 L1353.66 1520.62 L1365.72 1520.62 L1365.72 1525.17 L1353.66 1525.17 L1353.66 1544.52 Q1353.66 1548.88 1354.83 1550.12 Q1356.04 1551.36 1359.7 1551.36 L1365.72 1551.36 L1365.72 1556.27 L1359.7 1556.27 Q1352.93 1556.27 1350.35 1553.75 Q1347.77 1551.21 1347.77 1544.52 L1347.77 1525.17 L1343.47 1525.17 L1343.47 1520.62 L1347.77 1520.62 L1347.77 1510.5 L1353.66 1510.5 Z" fill="#80d584" fill-rule="nonzero" fill-opacity="1"></path><path clip-path="url(#clip310)" d="M1403.91 1536.98 L1403.91 1539.84 L1376.99 1539.84 Q1377.37 1545.89 1380.62 1549.07 Q1383.89 1552.22 1389.72 1552.22 Q1393.09 1552.22 1396.24 1551.4 Q1399.43 1550.57 1402.55 1548.91 L1402.55 1554.45 Q1399.39 1555.79 1396.08 1556.49 Q1392.77 1557.19 1389.37 1557.19 Q1380.84 1557.19 1375.84 1552.22 Q1370.88 1547.26 1370.88 1538.79 Q1370.88 1530.04 1375.59 1524.92 Q1380.33 1519.76 1388.35 1519.76 Q1395.54 1519.76 1399.71 1524.41 Q1403.91 1529.02 1403.91 1536.98 M1398.06 1535.26 Q1397.99 1530.45 1395.35 1527.59 Q1392.74 1524.72 1388.41 1524.72 Q1383.51 1524.72 1380.55 1527.49 Q1377.62 1530.26 1377.18 1535.29 L1398.06 1535.26 Z" fill="#80d584" fill-rule="nonzero" fill-opacity="1"></path><path clip-path="url(#clip310)" d="M1464.01 1518.39 Q1464.01 1519.23 1463.66 1520.84 Q1462.53 1525.38 1458.31 1528.5 Q1457.6 1529.08 1456.35 1529.83 Q1457.86 1530.82 1459.18 1532.66 Q1461.15 1535.69 1461.15 1539.78 Q1461.15 1541.68 1460.63 1544 Q1459.18 1549.37 1454.09 1553.24 Q1448.97 1557.01 1442.89 1557.01 Q1439.6 1557.01 1437.35 1555.27 Q1435.13 1553.5 1434.26 1550.53 L1429.78 1568.6 Q1429.68 1569.05 1429.1 1569.05 L1428.78 1569.05 Q1428.1 1569.05 1428.1 1568.28 L1438.28 1527.7 Q1438.96 1524.96 1440.05 1522.39 Q1441.15 1519.81 1442.66 1517.49 Q1444.21 1515.17 1445.98 1513.46 Q1447.75 1511.73 1449.94 1510.73 Q1452.13 1509.7 1454.45 1509.7 Q1459.31 1509.7 1462.08 1513.01 Q1464.01 1515.36 1464.01 1518.39 M1460.31 1517.23 Q1460.31 1515.24 1459.5 1513.85 Q1457.86 1511.21 1454.38 1511.21 Q1452.29 1511.21 1450.29 1512.18 Q1448.33 1513.11 1446.75 1514.72 Q1445.17 1516.33 1443.82 1518.52 Q1442.47 1520.71 1441.47 1523.09 Q1440.5 1525.45 1439.86 1528.02 L1435.9 1544 Q1435.51 1545.7 1435.51 1547.22 Q1435.51 1550.82 1437.51 1553.17 Q1439.51 1555.53 1442.95 1555.53 Q1447.52 1555.53 1451.45 1552.11 Q1454.87 1549.05 1456.28 1543.67 Q1457.09 1540.29 1457.09 1537.94 Q1457.09 1535.36 1456.16 1533.37 Q1455.48 1531.76 1454.16 1530.79 Q1451.71 1531.66 1449.23 1531.66 Q1448.04 1531.66 1447.4 1531.63 Q1446.78 1531.6 1445.88 1531.47 Q1445.01 1531.34 1444.59 1530.98 Q1444.21 1530.63 1444.21 1530.08 Q1444.21 1529.76 1444.27 1529.63 Q1444.4 1529.12 1444.82 1528.76 Q1445.24 1528.41 1445.72 1528.25 Q1446.2 1528.05 1447.01 1527.96 Q1447.85 1527.86 1448.39 1527.86 Q1448.94 1527.83 1449.88 1527.83 Q1452.07 1527.83 1454.29 1528.7 Q1455.12 1528.25 1456.03 1527.44 Q1458.89 1524.77 1459.86 1520.52 Q1460.31 1518.94 1460.31 1517.23 M1452.19 1529.7 Q1450.84 1529.34 1449.81 1529.34 Q1446.04 1529.34 1445.85 1529.95 Q1445.85 1530.02 1445.98 1530.08 Q1446.11 1530.12 1446.4 1530.15 Q1446.72 1530.15 1446.98 1530.18 Q1447.27 1530.21 1447.75 1530.21 Q1448.23 1530.21 1448.49 1530.21 Q1448.78 1530.21 1449.3 1530.21 Q1450.58 1530.21 1452.19 1529.7 Z" fill="#80d584" fill-rule="nonzero" fill-opacity="1"></path><polyline clip-path="url(#clip312)" style="stroke:#ebfb73; stroke-linecap:round; stroke-linejoin:round; stroke-width:2; stroke-opacity:0.1; fill:none" points="249.542,1177.43 2352.76,1177.43 "></polyline>
<polyline clip-path="url(#clip312)" style="stroke:#ebfb73; stroke-linecap:round; stroke-linejoin:round; stroke-width:2; stroke-opacity:0.1; fill:none" points="249.542,833.677 2352.76,833.677 "></polyline>
<polyline clip-path="url(#clip312)" style="stroke:#ebfb73; stroke-linecap:round; stroke-linejoin:round; stroke-width:2; stroke-opacity:0.1; fill:none" points="249.542,489.919 2352.76,489.919 "></polyline>
<polyline clip-path="url(#clip312)" style="stroke:#ebfb73; stroke-linecap:round; stroke-linejoin:round; stroke-width:2; stroke-opacity:0.1; fill:none" points="249.542,146.162 2352.76,146.162 "></polyline>
<polyline clip-path="url(#clip310)" style="stroke:#ebfb73; stroke-linecap:round; stroke-linejoin:round; stroke-width:4; stroke-opacity:1; fill:none" points="249.542,1423.18 249.542,123.472 "></polyline>
<polyline clip-path="url(#clip310)" style="stroke:#ebfb73; stroke-linecap:round; stroke-linejoin:round; stroke-width:4; stroke-opacity:1; fill:none" points="249.542,1177.43 268.44,1177.43 "></polyline>
<polyline clip-path="url(#clip310)" style="stroke:#ebfb73; stroke-linecap:round; stroke-linejoin:round; stroke-width:4; stroke-opacity:1; fill:none" points="249.542,833.677 268.44,833.677 "></polyline>
<polyline clip-path="url(#clip310)" style="stroke:#ebfb73; stroke-linecap:round; stroke-linejoin:round; stroke-width:4; stroke-opacity:1; fill:none" points="249.542,489.919 268.44,489.919 "></polyline>
<polyline clip-path="url(#clip310)" style="stroke:#ebfb73; stroke-linecap:round; stroke-linejoin:round; stroke-width:4; stroke-opacity:1; fill:none" points="249.542,146.162 268.44,146.162 "></polyline>
<path clip-path="url(#clip310)" d="M127.2 1163.23 Q123.589 1163.23 121.76 1166.8 Q119.955 1170.34 119.955 1177.47 Q119.955 1184.58 121.76 1188.14 Q123.589 1191.68 127.2 1191.68 Q130.834 1191.68 132.64 1188.14 Q134.468 1184.58 134.468 1177.47 Q134.468 1170.34 132.64 1166.8 Q130.834 1163.23 127.2 1163.23 M127.2 1159.53 Q133.01 1159.53 136.066 1164.14 Q139.144 1168.72 139.144 1177.47 Q139.144 1186.2 136.066 1190.8 Q133.01 1195.39 127.2 1195.39 Q121.39 1195.39 118.311 1190.8 Q115.256 1186.2 115.256 1177.47 Q115.256 1168.72 118.311 1164.14 Q121.39 1159.53 127.2 1159.53 Z" fill="#80d584" fill-rule="nonzero" fill-opacity="1"></path><path clip-path="url(#clip310)" d="M147.362 1188.83 L152.246 1188.83 L152.246 1194.71 L147.362 1194.71 L147.362 1188.83 Z" fill="#80d584" fill-rule="nonzero" fill-opacity="1"></path><path clip-path="url(#clip310)" d="M172.431 1163.23 Q168.82 1163.23 166.991 1166.8 Q165.186 1170.34 165.186 1177.47 Q165.186 1184.58 166.991 1188.14 Q168.82 1191.68 172.431 1191.68 Q176.065 1191.68 177.871 1188.14 Q179.7 1184.58 179.7 1177.47 Q179.7 1170.34 177.871 1166.8 Q176.065 1163.23 172.431 1163.23 M172.431 1159.53 Q178.241 1159.53 181.297 1164.14 Q184.376 1168.72 184.376 1177.47 Q184.376 1186.2 181.297 1190.8 Q178.241 1195.39 172.431 1195.39 Q166.621 1195.39 163.542 1190.8 Q160.487 1186.2 160.487 1177.47 Q160.487 1168.72 163.542 1164.14 Q166.621 1159.53 172.431 1159.53 Z" fill="#80d584" fill-rule="nonzero" fill-opacity="1"></path><path clip-path="url(#clip310)" d="M192.639 1160.15 L210.996 1160.15 L210.996 1164.09 L196.922 1164.09 L196.922 1172.56 Q197.94 1172.21 198.959 1172.05 Q199.977 1171.87 200.996 1171.87 Q206.783 1171.87 210.162 1175.04 Q213.542 1178.21 213.542 1183.63 Q213.542 1189.21 210.07 1192.31 Q206.598 1195.39 200.278 1195.39 Q198.102 1195.39 195.834 1195.02 Q193.588 1194.64 191.181 1193.9 L191.181 1189.21 Q193.264 1190.34 195.487 1190.9 Q197.709 1191.45 200.186 1191.45 Q204.19 1191.45 206.528 1189.34 Q208.866 1187.24 208.866 1183.63 Q208.866 1180.02 206.528 1177.91 Q204.19 1175.8 200.186 1175.8 Q198.311 1175.8 196.436 1176.22 Q194.584 1176.64 192.639 1177.52 L192.639 1160.15 Z" fill="#80d584" fill-rule="nonzero" fill-opacity="1"></path><path clip-path="url(#clip310)" d="M126.205 819.476 Q122.593 819.476 120.765 823.04 Q118.959 826.582 118.959 833.712 Q118.959 840.818 120.765 844.383 Q122.593 847.924 126.205 847.924 Q129.839 847.924 131.644 844.383 Q133.473 840.818 133.473 833.712 Q133.473 826.582 131.644 823.04 Q129.839 819.476 126.205 819.476 M126.205 815.772 Q132.015 815.772 135.07 820.378 Q138.149 824.962 138.149 833.712 Q138.149 842.438 135.07 847.045 Q132.015 851.628 126.205 851.628 Q120.394 851.628 117.316 847.045 Q114.26 842.438 114.26 833.712 Q114.26 824.962 117.316 820.378 Q120.394 815.772 126.205 815.772 Z" fill="#80d584" fill-rule="nonzero" fill-opacity="1"></path><path clip-path="url(#clip310)" d="M146.366 845.077 L151.251 845.077 L151.251 850.957 L146.366 850.957 L146.366 845.077 Z" fill="#80d584" fill-rule="nonzero" fill-opacity="1"></path><path clip-path="url(#clip310)" d="M162.246 847.022 L169.885 847.022 L169.885 820.656 L161.575 822.323 L161.575 818.064 L169.839 816.397 L174.514 816.397 L174.514 847.022 L182.153 847.022 L182.153 850.957 L162.246 850.957 L162.246 847.022 Z" fill="#80d584" fill-rule="nonzero" fill-opacity="1"></path><path clip-path="url(#clip310)" d="M201.598 819.476 Q197.987 819.476 196.158 823.04 Q194.352 826.582 194.352 833.712 Q194.352 840.818 196.158 844.383 Q197.987 847.924 201.598 847.924 Q205.232 847.924 207.037 844.383 Q208.866 840.818 208.866 833.712 Q208.866 826.582 207.037 823.04 Q205.232 819.476 201.598 819.476 M201.598 815.772 Q207.408 815.772 210.463 820.378 Q213.542 824.962 213.542 833.712 Q213.542 842.438 210.463 847.045 Q207.408 851.628 201.598 851.628 Q195.787 851.628 192.709 847.045 Q189.653 842.438 189.653 833.712 Q189.653 824.962 192.709 820.378 Q195.787 815.772 201.598 815.772 Z" fill="#80d584" fill-rule="nonzero" fill-opacity="1"></path><path clip-path="url(#clip310)" d="M127.2 475.718 Q123.589 475.718 121.76 479.283 Q119.955 482.824 119.955 489.954 Q119.955 497.06 121.76 500.625 Q123.589 504.167 127.2 504.167 Q130.834 504.167 132.64 500.625 Q134.468 497.06 134.468 489.954 Q134.468 482.824 132.64 479.283 Q130.834 475.718 127.2 475.718 M127.2 472.014 Q133.01 472.014 136.066 476.621 Q139.144 481.204 139.144 489.954 Q139.144 498.681 136.066 503.287 Q133.01 507.871 127.2 507.871 Q121.39 507.871 118.311 503.287 Q115.256 498.681 115.256 489.954 Q115.256 481.204 118.311 476.621 Q121.39 472.014 127.2 472.014 Z" fill="#80d584" fill-rule="nonzero" fill-opacity="1"></path><path clip-path="url(#clip310)" d="M147.362 501.32 L152.246 501.32 L152.246 507.199 L147.362 507.199 L147.362 501.32 Z" fill="#80d584" fill-rule="nonzero" fill-opacity="1"></path><path clip-path="url(#clip310)" d="M163.241 503.264 L170.88 503.264 L170.88 476.899 L162.57 478.565 L162.57 474.306 L170.834 472.639 L175.51 472.639 L175.51 503.264 L183.149 503.264 L183.149 507.199 L163.241 507.199 L163.241 503.264 Z" fill="#80d584" fill-rule="nonzero" fill-opacity="1"></path><path clip-path="url(#clip310)" d="M192.639 472.639 L210.996 472.639 L210.996 476.574 L196.922 476.574 L196.922 485.047 Q197.94 484.699 198.959 484.537 Q199.977 484.352 200.996 484.352 Q206.783 484.352 210.162 487.523 Q213.542 490.695 213.542 496.111 Q213.542 501.69 210.07 504.792 Q206.598 507.871 200.278 507.871 Q198.102 507.871 195.834 507.5 Q193.588 507.13 191.181 506.389 L191.181 501.69 Q193.264 502.824 195.487 503.38 Q197.709 503.935 200.186 503.935 Q204.19 503.935 206.528 501.829 Q208.866 499.723 208.866 496.111 Q208.866 492.5 206.528 490.394 Q204.19 488.287 200.186 488.287 Q198.311 488.287 196.436 488.704 Q194.584 489.121 192.639 490 L192.639 472.639 Z" fill="#80d584" fill-rule="nonzero" fill-opacity="1"></path><path clip-path="url(#clip310)" d="M126.205 131.96 Q122.593 131.96 120.765 135.525 Q118.959 139.067 118.959 146.196 Q118.959 153.303 120.765 156.868 Q122.593 160.409 126.205 160.409 Q129.839 160.409 131.644 156.868 Q133.473 153.303 133.473 146.196 Q133.473 139.067 131.644 135.525 Q129.839 131.96 126.205 131.96 M126.205 128.257 Q132.015 128.257 135.07 132.863 Q138.149 137.447 138.149 146.196 Q138.149 154.923 135.07 159.53 Q132.015 164.113 126.205 164.113 Q120.394 164.113 117.316 159.53 Q114.26 154.923 114.26 146.196 Q114.26 137.447 117.316 132.863 Q120.394 128.257 126.205 128.257 Z" fill="#80d584" fill-rule="nonzero" fill-opacity="1"></path><path clip-path="url(#clip310)" d="M146.366 157.562 L151.251 157.562 L151.251 163.442 L146.366 163.442 L146.366 157.562 Z" fill="#80d584" fill-rule="nonzero" fill-opacity="1"></path><path clip-path="url(#clip310)" d="M165.464 159.507 L181.783 159.507 L181.783 163.442 L159.839 163.442 L159.839 159.507 Q162.501 156.752 167.084 152.122 Q171.69 147.47 172.871 146.127 Q175.116 143.604 175.996 141.868 Q176.899 140.109 176.899 138.419 Q176.899 135.664 174.954 133.928 Q173.033 132.192 169.931 132.192 Q167.732 132.192 165.278 132.956 Q162.848 133.72 160.07 135.271 L160.07 130.548 Q162.894 129.414 165.348 128.835 Q167.802 128.257 169.839 128.257 Q175.209 128.257 178.403 130.942 Q181.598 133.627 181.598 138.118 Q181.598 140.247 180.788 142.169 Q180.001 144.067 177.894 146.659 Q177.315 147.331 174.214 150.548 Q171.112 153.743 165.464 159.507 Z" fill="#80d584" fill-rule="nonzero" fill-opacity="1"></path><path clip-path="url(#clip310)" d="M201.598 131.96 Q197.987 131.96 196.158 135.525 Q194.352 139.067 194.352 146.196 Q194.352 153.303 196.158 156.868 Q197.987 160.409 201.598 160.409 Q205.232 160.409 207.037 156.868 Q208.866 153.303 208.866 146.196 Q208.866 139.067 207.037 135.525 Q205.232 131.96 201.598 131.96 M201.598 128.257 Q207.408 128.257 210.463 132.863 Q213.542 137.447 213.542 146.196 Q213.542 154.923 210.463 159.53 Q207.408 164.113 201.598 164.113 Q195.787 164.113 192.709 159.53 Q189.653 154.923 189.653 146.196 Q189.653 137.447 192.709 132.863 Q195.787 128.257 201.598 128.257 Z" fill="#80d584" fill-rule="nonzero" fill-opacity="1"></path><path clip-path="url(#clip310)" d="M27.4822 884.065 L34.2617 884.065 Q31.238 887.312 29.742 891.004 Q28.2461 894.664 28.2461 898.802 Q28.2461 906.95 33.2432 911.279 Q38.2084 915.607 47.6297 915.607 Q57.0191 915.607 62.0161 911.279 Q66.9814 906.95 66.9814 898.802 Q66.9814 894.664 65.4855 891.004 Q63.9895 887.312 60.9658 884.065 L67.6816 884.065 Q69.9733 887.439 71.1191 891.227 Q72.2649 894.983 72.2649 899.184 Q72.2649 909.974 65.6764 916.18 Q59.0561 922.387 47.6297 922.387 Q36.1714 922.387 29.5829 916.18 Q22.9625 909.974 22.9625 899.184 Q22.9625 894.919 24.1084 891.163 Q25.2224 887.376 27.4822 884.065 Z" fill="#80d584" fill-rule="nonzero" fill-opacity="1"></path><path clip-path="url(#clip310)" d="M57.2737 874.994 L35.694 874.994 L35.694 869.138 L57.0509 869.138 Q62.1116 869.138 64.6579 867.164 Q67.1724 865.191 67.1724 861.244 Q67.1724 856.502 64.1487 853.765 Q61.1249 850.996 55.9051 850.996 L35.694 850.996 L35.694 845.139 L71.3419 845.139 L71.3419 850.996 L65.8674 850.996 Q69.1139 853.128 70.7053 855.961 Q72.2649 858.762 72.2649 862.486 Q72.2649 868.629 68.4455 871.811 Q64.6261 874.994 57.2737 874.994 M34.8346 860.258 L34.8346 860.258 Z" fill="#80d584" fill-rule="nonzero" fill-opacity="1"></path><path clip-path="url(#clip310)" d="M41.1685 812.419 Q40.5955 813.406 40.3409 814.584 Q40.0545 815.73 40.0545 817.13 Q40.0545 822.095 43.301 824.769 Q46.5157 827.411 52.5631 827.411 L71.3419 827.411 L71.3419 833.299 L35.694 833.299 L35.694 827.411 L41.2321 827.411 Q37.9856 825.565 36.426 822.604 Q34.8346 819.644 34.8346 815.411 Q34.8346 814.806 34.9301 814.074 Q34.9937 813.342 35.1529 812.451 L41.1685 812.419 Z" fill="#80d584" fill-rule="nonzero" fill-opacity="1"></path><path clip-path="url(#clip310)" d="M41.1685 786.766 Q40.5955 787.752 40.3409 788.93 Q40.0545 790.076 40.0545 791.476 Q40.0545 796.441 43.301 799.115 Q46.5157 801.757 52.5631 801.757 L71.3419 801.757 L71.3419 807.645 L35.694 807.645 L35.694 801.757 L41.2321 801.757 Q37.9856 799.911 36.426 796.951 Q34.8346 793.991 34.8346 789.757 Q34.8346 789.153 34.9301 788.421 Q34.9937 787.689 35.1529 786.797 L41.1685 786.766 Z" fill="#80d584" fill-rule="nonzero" fill-opacity="1"></path><path clip-path="url(#clip310)" d="M52.0538 751.563 L54.9184 751.563 L54.9184 778.49 Q60.9658 778.108 64.1487 774.862 Q67.2997 771.583 67.2997 765.759 Q67.2997 762.385 66.4721 759.234 Q65.6446 756.051 63.9895 752.932 L69.5277 752.932 Q70.8645 756.083 71.5647 759.393 Q72.2649 762.703 72.2649 766.109 Q72.2649 774.639 67.2997 779.636 Q62.3344 784.601 53.868 784.601 Q45.1152 784.601 39.9908 779.891 Q34.8346 775.148 34.8346 767.127 Q34.8346 759.934 39.4815 755.765 Q44.0967 751.563 52.0538 751.563 M50.3351 757.42 Q45.529 757.483 42.6644 760.125 Q39.7998 762.735 39.7998 767.064 Q39.7998 771.965 42.5689 774.925 Q45.338 777.854 50.3669 778.299 L50.3351 757.42 Z" fill="#80d584" fill-rule="nonzero" fill-opacity="1"></path><path clip-path="url(#clip310)" d="M49.8258 712.319 L71.3419 712.319 L71.3419 718.175 L50.0168 718.175 Q44.9561 718.175 42.4416 720.148 Q39.9271 722.122 39.9271 726.069 Q39.9271 730.811 42.9509 733.548 Q45.9746 736.285 51.1944 736.285 L71.3419 736.285 L71.3419 742.174 L35.694 742.174 L35.694 736.285 L41.2321 736.285 Q38.0174 734.185 36.426 731.352 Q34.8346 728.487 34.8346 724.764 Q34.8346 718.621 38.654 715.47 Q42.4416 712.319 49.8258 712.319 Z" fill="#80d584" fill-rule="nonzero" fill-opacity="1"></path><path clip-path="url(#clip310)" d="M25.5725 694.845 L35.694 694.845 L35.694 682.782 L40.2454 682.782 L40.2454 694.845 L59.5972 694.845 Q63.9577 694.845 65.199 693.667 Q66.4403 692.458 66.4403 688.797 L66.4403 682.782 L71.3419 682.782 L71.3419 688.797 Q71.3419 695.577 68.8275 698.155 Q66.2812 700.733 59.5972 700.733 L40.2454 700.733 L40.2454 705.03 L35.694 705.03 L35.694 700.733 L25.5725 700.733 L25.5725 694.845 Z" fill="#80d584" fill-rule="nonzero" fill-opacity="1"></path><path clip-path="url(#clip310)" d="M27.0911 623.433 Q27.703 623.433 27.9928 623.69 Q28.2505 623.948 28.3149 624.238 Q28.3471 624.528 28.3471 625.204 Q28.3471 626.589 28.4437 627.33 Q28.5403 628.07 28.959 628.521 Q29.3455 628.972 29.7319 629.133 Q30.1184 629.262 31.1168 629.488 L61.9056 637.217 Q66.6399 638.409 69.7316 642.724 Q72.7912 647.04 72.7912 651.774 Q72.7912 655.639 70.7622 658.086 Q68.701 660.502 65.6093 660.502 Q64.0312 660.502 62.904 659.986 Q61.7768 659.471 61.2615 658.698 Q60.7462 657.925 60.5529 657.281 Q60.3275 656.605 60.3275 656.057 Q60.3275 654.995 61.0038 654.093 Q61.6801 653.159 63.0972 653.159 Q64.6753 653.159 65.9957 654.383 Q67.3162 655.606 67.3162 657.442 Q67.3162 658.054 67.2518 658.247 Q68.8299 657.764 69.8282 656.508 Q70.7944 655.252 71.0843 654.157 Q71.3419 653.03 71.3419 651.967 Q71.3419 649.197 68.6688 646.396 Q65.9957 643.594 61.4547 642.466 L31.1812 634.898 Q30.1506 634.64 29.7963 634.64 Q29.12 634.64 28.8946 635.059 Q28.6369 635.446 28.4759 636.669 Q28.3471 638.312 28.3471 640.502 Q28.3471 641.275 28.3471 641.597 Q28.3149 641.919 28.2505 642.241 Q28.1861 642.563 28.0572 642.66 Q27.8962 642.756 27.6063 642.756 Q26.9944 642.756 26.7046 642.499 Q26.3825 642.241 26.3503 642.016 Q26.2859 641.79 26.2859 641.371 L26.4791 631.678 Q26.4791 630.84 26.3825 628.006 Q26.2859 625.172 26.2859 624.335 Q26.2859 623.433 27.0911 623.433 Z" fill="#80d584" fill-rule="nonzero" fill-opacity="1"></path><path clip-path="url(#clip310)" d="M848.197 16.7545 L848.197 25.383 Q844.065 21.5346 839.366 19.6307 Q834.708 17.7268 829.441 17.7268 Q819.071 17.7268 813.562 24.0867 Q808.053 30.4061 808.053 42.3968 Q808.053 54.3469 813.562 60.7069 Q819.071 67.0263 829.441 67.0263 Q834.708 67.0263 839.366 65.1223 Q844.065 63.2184 848.197 59.3701 L848.197 67.9175 Q843.903 70.8341 839.083 72.2924 Q834.303 73.7508 828.955 73.7508 Q815.223 73.7508 807.323 65.3654 Q799.424 56.9395 799.424 42.3968 Q799.424 27.8135 807.323 19.4281 Q815.223 11.0023 828.955 11.0023 Q834.384 11.0023 839.164 12.4606 Q843.984 13.8784 848.197 16.7545 Z" fill="#ebfb73" fill-rule="nonzero" fill-opacity="1"></path><path clip-path="url(#clip310)" d="M859.742 54.671 L859.742 27.2059 L867.196 27.2059 L867.196 54.3874 Q867.196 60.8284 869.707 64.0691 Q872.219 67.2693 877.242 67.2693 Q883.278 67.2693 886.762 63.421 Q890.286 59.5726 890.286 52.9291 L890.286 27.2059 L897.74 27.2059 L897.74 72.576 L890.286 72.576 L890.286 65.6084 Q887.572 69.7404 883.967 71.7658 Q880.402 73.7508 875.662 73.7508 Q867.844 73.7508 863.793 68.8897 Q859.742 64.0286 859.742 54.671 M878.498 26.1121 L878.498 26.1121 Z" fill="#ebfb73" fill-rule="nonzero" fill-opacity="1"></path><path clip-path="url(#clip310)" d="M939.383 34.1734 Q938.127 33.4443 936.628 33.1202 Q935.17 32.7556 933.388 32.7556 Q927.068 32.7556 923.665 36.8875 Q920.303 40.9789 920.303 48.6757 L920.303 72.576 L912.809 72.576 L912.809 27.2059 L920.303 27.2059 L920.303 34.2544 Q922.653 30.1225 926.42 28.1376 Q930.187 26.1121 935.575 26.1121 Q936.345 26.1121 937.276 26.2337 Q938.208 26.3147 939.342 26.5172 L939.383 34.1734 Z" fill="#ebfb73" fill-rule="nonzero" fill-opacity="1"></path><path clip-path="url(#clip310)" d="M972.033 34.1734 Q970.777 33.4443 969.279 33.1202 Q967.82 32.7556 966.038 32.7556 Q959.719 32.7556 956.316 36.8875 Q952.953 40.9789 952.953 48.6757 L952.953 72.576 L945.459 72.576 L945.459 27.2059 L952.953 27.2059 L952.953 34.2544 Q955.303 30.1225 959.07 28.1376 Q962.838 26.1121 968.225 26.1121 Q968.995 26.1121 969.927 26.2337 Q970.858 26.3147 971.993 26.5172 L972.033 34.1734 Z" fill="#ebfb73" fill-rule="nonzero" fill-opacity="1"></path><path clip-path="url(#clip310)" d="M1016.84 48.0275 L1016.84 51.6733 L982.566 51.6733 Q983.052 59.3701 987.184 63.421 Q991.356 67.4314 998.769 67.4314 Q1003.06 67.4314 1007.07 66.3781 Q1011.12 65.3249 1015.09 63.2184 L1015.09 70.267 Q1011.08 71.9684 1006.87 72.8596 Q1002.66 73.7508 998.324 73.7508 Q987.467 73.7508 981.107 67.4314 Q974.788 61.1119 974.788 50.3365 Q974.788 39.1965 980.783 32.6746 Q986.819 26.1121 997.027 26.1121 Q1006.18 26.1121 1011.49 32.0264 Q1016.84 37.9003 1016.84 48.0275 M1009.38 45.84 Q1009.3 39.7232 1005.94 36.0774 Q1002.62 32.4315 997.108 32.4315 Q990.87 32.4315 987.103 35.9558 Q983.376 39.4801 982.809 45.8805 L1009.38 45.84 Z" fill="#ebfb73" fill-rule="nonzero" fill-opacity="1"></path><path clip-path="url(#clip310)" d="M1066.78 45.1919 L1066.78 72.576 L1059.33 72.576 L1059.33 45.4349 Q1059.33 38.994 1056.82 35.7938 Q1054.31 32.5936 1049.28 32.5936 Q1043.25 32.5936 1039.76 36.4419 Q1036.28 40.2903 1036.28 46.9338 L1036.28 72.576 L1028.79 72.576 L1028.79 27.2059 L1036.28 27.2059 L1036.28 34.2544 Q1038.95 30.163 1042.56 28.1376 Q1046.21 26.1121 1050.94 26.1121 Q1058.76 26.1121 1062.77 30.9732 Q1066.78 35.7938 1066.78 45.1919 Z" fill="#ebfb73" fill-rule="nonzero" fill-opacity="1"></path><path clip-path="url(#clip310)" d="M1089.02 14.324 L1089.02 27.2059 L1104.38 27.2059 L1104.38 32.9987 L1089.02 32.9987 L1089.02 57.6282 Q1089.02 63.1779 1090.52 64.7578 Q1092.06 66.3376 1096.72 66.3376 L1104.38 66.3376 L1104.38 72.576 L1096.72 72.576 Q1088.09 72.576 1084.81 69.3758 Q1081.53 66.1351 1081.53 57.6282 L1081.53 32.9987 L1076.06 32.9987 L1076.06 27.2059 L1081.53 27.2059 L1081.53 14.324 L1089.02 14.324 Z" fill="#ebfb73" fill-rule="nonzero" fill-opacity="1"></path><path clip-path="url(#clip310)" d="M1163.52 9.54393 L1163.52 15.7418 L1156.39 15.7418 Q1152.38 15.7418 1150.8 17.3622 Q1149.26 18.9825 1149.26 23.1955 L1149.26 27.2059 L1161.53 27.2059 L1161.53 32.9987 L1149.26 32.9987 L1149.26 72.576 L1141.77 72.576 L1141.77 32.9987 L1134.64 32.9987 L1134.64 27.2059 L1141.77 27.2059 L1141.77 24.0462 Q1141.77 16.471 1145.29 13.0277 Q1148.81 9.54393 1156.47 9.54393 L1163.52 9.54393 Z" fill="#ebfb73" fill-rule="nonzero" fill-opacity="1"></path><path clip-path="url(#clip310)" d="M1187.34 32.4315 Q1181.34 32.4315 1177.86 37.1306 Q1174.38 41.7891 1174.38 49.9314 Q1174.38 58.0738 1177.82 62.7728 Q1181.3 67.4314 1187.34 67.4314 Q1193.29 67.4314 1196.78 62.7323 Q1200.26 58.0333 1200.26 49.9314 Q1200.26 41.8701 1196.78 37.1711 Q1193.29 32.4315 1187.34 32.4315 M1187.34 26.1121 Q1197.06 26.1121 1202.61 32.4315 Q1208.16 38.7509 1208.16 49.9314 Q1208.16 61.0714 1202.61 67.4314 Q1197.06 73.7508 1187.34 73.7508 Q1177.58 73.7508 1172.03 67.4314 Q1166.52 61.0714 1166.52 49.9314 Q1166.52 38.7509 1172.03 32.4315 Q1177.58 26.1121 1187.34 26.1121 Z" fill="#ebfb73" fill-rule="nonzero" fill-opacity="1"></path><path clip-path="url(#clip310)" d="M1246.81 34.1734 Q1245.55 33.4443 1244.05 33.1202 Q1242.59 32.7556 1240.81 32.7556 Q1234.49 32.7556 1231.09 36.8875 Q1227.73 40.9789 1227.73 48.6757 L1227.73 72.576 L1220.23 72.576 L1220.23 27.2059 L1227.73 27.2059 L1227.73 34.2544 Q1230.08 30.1225 1233.84 28.1376 Q1237.61 26.1121 1243 26.1121 Q1243.77 26.1121 1244.7 26.2337 Q1245.63 26.3147 1246.77 26.5172 L1246.81 34.1734 Z" fill="#ebfb73" fill-rule="nonzero" fill-opacity="1"></path><path clip-path="url(#clip310)" d="M1301.61 49.7694 Q1292.58 49.7694 1289.1 51.8354 Q1285.61 53.9013 1285.61 58.8839 Q1285.61 62.8538 1288.21 65.2034 Q1290.84 67.5124 1295.34 67.5124 Q1301.53 67.5124 1305.26 63.1374 Q1309.03 58.7219 1309.03 51.4303 L1309.03 49.7694 L1301.61 49.7694 M1316.48 46.6907 L1316.48 72.576 L1309.03 72.576 L1309.03 65.6895 Q1306.48 69.8214 1302.67 71.8063 Q1298.86 73.7508 1293.35 73.7508 Q1286.38 73.7508 1282.25 69.8619 Q1278.16 65.9325 1278.16 59.3701 Q1278.16 51.7138 1283.26 47.825 Q1288.41 43.9361 1298.58 43.9361 L1309.03 43.9361 L1309.03 43.2069 Q1309.03 38.0623 1305.63 35.2672 Q1302.26 32.4315 1296.15 32.4315 Q1292.26 32.4315 1288.57 33.3632 Q1284.88 34.295 1281.48 36.1584 L1281.48 29.2718 Q1285.57 27.692 1289.42 26.9223 Q1293.27 26.1121 1296.92 26.1121 Q1306.76 26.1121 1311.62 31.2163 Q1316.48 36.3204 1316.48 46.6907 Z" fill="#ebfb73" fill-rule="nonzero" fill-opacity="1"></path><path clip-path="url(#clip310)" d="M1331.83 9.54393 L1339.29 9.54393 L1339.29 72.576 L1331.83 72.576 L1331.83 9.54393 Z" fill="#ebfb73" fill-rule="nonzero" fill-opacity="1"></path><path clip-path="url(#clip310)" d="M1362.09 65.7705 L1362.09 89.8329 L1354.6 89.8329 L1354.6 27.2059 L1362.09 27.2059 L1362.09 34.0924 Q1364.44 30.0415 1368.01 28.0971 Q1371.61 26.1121 1376.6 26.1121 Q1384.86 26.1121 1390.01 32.6746 Q1395.19 39.2371 1395.19 49.9314 Q1395.19 60.6258 1390.01 67.1883 Q1384.86 73.7508 1376.6 73.7508 Q1371.61 73.7508 1368.01 71.8063 Q1364.44 69.8214 1362.09 65.7705 M1387.45 49.9314 Q1387.45 41.7081 1384.05 37.0496 Q1380.69 32.3505 1374.77 32.3505 Q1368.86 32.3505 1365.46 37.0496 Q1362.09 41.7081 1362.09 49.9314 Q1362.09 58.1548 1365.46 62.8538 Q1368.86 67.5124 1374.77 67.5124 Q1380.69 67.5124 1384.05 62.8538 Q1387.45 58.1548 1387.45 49.9314 Z" fill="#ebfb73" fill-rule="nonzero" fill-opacity="1"></path><path clip-path="url(#clip310)" d="M1445.26 45.1919 L1445.26 72.576 L1437.81 72.576 L1437.81 45.4349 Q1437.81 38.994 1435.29 35.7938 Q1432.78 32.5936 1427.76 32.5936 Q1421.72 32.5936 1418.24 36.4419 Q1414.76 40.2903 1414.76 46.9338 L1414.76 72.576 L1407.26 72.576 L1407.26 9.54393 L1414.76 9.54393 L1414.76 34.2544 Q1417.43 30.163 1421.04 28.1376 Q1424.68 26.1121 1429.42 26.1121 Q1437.24 26.1121 1441.25 30.9732 Q1445.26 35.7938 1445.26 45.1919 Z" fill="#ebfb73" fill-rule="nonzero" fill-opacity="1"></path><path clip-path="url(#clip310)" d="M1480.75 49.7694 Q1471.71 49.7694 1468.23 51.8354 Q1464.74 53.9013 1464.74 58.8839 Q1464.74 62.8538 1467.34 65.2034 Q1469.97 67.5124 1474.47 67.5124 Q1480.66 67.5124 1484.39 63.1374 Q1488.16 58.7219 1488.16 51.4303 L1488.16 49.7694 L1480.75 49.7694 M1495.61 46.6907 L1495.61 72.576 L1488.16 72.576 L1488.16 65.6895 Q1485.61 69.8214 1481.8 71.8063 Q1477.99 73.7508 1472.48 73.7508 Q1465.51 73.7508 1461.38 69.8619 Q1457.29 65.9325 1457.29 59.3701 Q1457.29 51.7138 1462.4 47.825 Q1467.54 43.9361 1477.71 43.9361 L1488.16 43.9361 L1488.16 43.2069 Q1488.16 38.0623 1484.76 35.2672 Q1481.39 32.4315 1475.28 32.4315 Q1471.39 32.4315 1467.7 33.3632 Q1464.02 34.295 1460.61 36.1584 L1460.61 29.2718 Q1464.7 27.692 1468.55 26.9223 Q1472.4 26.1121 1476.05 26.1121 Q1485.89 26.1121 1490.75 31.2163 Q1495.61 36.3204 1495.61 46.6907 Z" fill="#ebfb73" fill-rule="nonzero" fill-opacity="1"></path><path clip-path="url(#clip310)" d="M1538.31 34.9026 L1590.24 34.9026 L1590.24 41.7081 L1538.31 41.7081 L1538.31 34.9026 M1538.31 51.4303 L1590.24 51.4303 L1590.24 58.3168 L1538.31 58.3168 L1538.31 51.4303 Z" fill="#ebfb73" fill-rule="nonzero" fill-opacity="1"></path><path clip-path="url(#clip310)" d="M1651.77 17.4837 Q1645.46 17.4837 1642.26 23.7221 Q1639.1 29.92 1639.1 42.3968 Q1639.1 54.833 1642.26 61.0714 Q1645.46 67.2693 1651.77 67.2693 Q1658.13 67.2693 1661.29 61.0714 Q1664.49 54.833 1664.49 42.3968 Q1664.49 29.92 1661.29 23.7221 Q1658.13 17.4837 1651.77 17.4837 M1651.77 11.0023 Q1661.94 11.0023 1667.29 19.0636 Q1672.68 27.0843 1672.68 42.3968 Q1672.68 57.6687 1667.29 65.73 Q1661.94 73.7508 1651.77 73.7508 Q1641.61 73.7508 1636.22 65.73 Q1630.87 57.6687 1630.87 42.3968 Q1630.87 27.0843 1636.22 19.0636 Q1641.61 11.0023 1651.77 11.0023 Z" fill="#ebfb73" fill-rule="nonzero" fill-opacity="1"></path><path clip-path="url(#clip310)" d="M1687.06 62.2867 L1695.61 62.2867 L1695.61 72.576 L1687.06 72.576 L1687.06 62.2867 Z" fill="#ebfb73" fill-rule="nonzero" fill-opacity="1"></path><path clip-path="url(#clip310)" d="M1720.48 65.6895 L1749.04 65.6895 L1749.04 72.576 L1710.63 72.576 L1710.63 65.6895 Q1715.29 60.8689 1723.31 52.7671 Q1731.38 44.6248 1733.44 42.2752 Q1737.37 37.8598 1738.91 34.8216 Q1740.49 31.7429 1740.49 28.7857 Q1740.49 23.9651 1737.09 20.927 Q1733.72 17.8888 1728.3 17.8888 Q1724.45 17.8888 1720.15 19.2256 Q1715.9 20.5624 1711.04 23.2765 L1711.04 15.0127 Q1715.98 13.0277 1720.28 12.015 Q1724.57 11.0023 1728.13 11.0023 Q1737.53 11.0023 1743.12 15.7013 Q1748.71 20.4004 1748.71 28.2591 Q1748.71 31.9859 1747.3 35.3482 Q1745.92 38.6699 1742.23 43.2069 Q1741.22 44.3817 1735.79 50.0125 Q1730.36 55.6027 1720.48 65.6895 Z" fill="#ebfb73" fill-rule="nonzero" fill-opacity="1"></path><path clip-path="url(#clip310)" d="M1766.29 12.096 L1798.42 12.096 L1798.42 18.9825 L1773.79 18.9825 L1773.79 33.8088 Q1775.57 33.2012 1777.35 32.9176 Q1779.14 32.5936 1780.92 32.5936 Q1791.05 32.5936 1796.96 38.1433 Q1802.87 43.6931 1802.87 53.1722 Q1802.87 62.9348 1796.8 68.3631 Q1790.72 73.7508 1779.66 73.7508 Q1775.85 73.7508 1771.88 73.1026 Q1767.95 72.4545 1763.74 71.1582 L1763.74 62.9348 Q1767.39 64.9198 1771.28 65.892 Q1775.17 66.8642 1779.5 66.8642 Q1786.51 66.8642 1790.6 63.1779 Q1794.69 59.4916 1794.69 53.1722 Q1794.69 46.8528 1790.6 43.1664 Q1786.51 39.4801 1779.5 39.4801 Q1776.22 39.4801 1772.94 40.2093 Q1769.7 40.9384 1766.29 42.4778 L1766.29 12.096 Z" fill="#ebfb73" fill-rule="nonzero" fill-opacity="1"></path><circle clip-path="url(#clip312)" cx="309.067" cy="1386.4" r="3.6" fill="#ebfb73" fill-rule="evenodd" fill-opacity="1" stroke="none"></circle>
<circle clip-path="url(#clip312)" cx="319.038" cy="1342.74" r="3.6" fill="#ebfb73" fill-rule="evenodd" fill-opacity="1" stroke="none"></circle>
<circle clip-path="url(#clip312)" cx="329.008" cy="1322.92" r="3.6" fill="#ebfb73" fill-rule="evenodd" fill-opacity="1" stroke="none"></circle>
<circle clip-path="url(#clip312)" cx="338.979" cy="1301.08" r="3.6" fill="#ebfb73" fill-rule="evenodd" fill-opacity="1" stroke="none"></circle>
<circle clip-path="url(#clip312)" cx="348.95" cy="1251.07" r="3.6" fill="#ebfb73" fill-rule="evenodd" fill-opacity="1" stroke="none"></circle>
<circle clip-path="url(#clip312)" cx="358.92" cy="1224.27" r="3.6" fill="#ebfb73" fill-rule="evenodd" fill-opacity="1" stroke="none"></circle>
<circle clip-path="url(#clip312)" cx="368.891" cy="1201.48" r="3.6" fill="#ebfb73" fill-rule="evenodd" fill-opacity="1" stroke="none"></circle>
<circle clip-path="url(#clip312)" cx="378.862" cy="1145.78" r="3.6" fill="#ebfb73" fill-rule="evenodd" fill-opacity="1" stroke="none"></circle>
<circle clip-path="url(#clip312)" cx="388.832" cy="1123.49" r="3.6" fill="#ebfb73" fill-rule="evenodd" fill-opacity="1" stroke="none"></circle>
<circle clip-path="url(#clip312)" cx="398.803" cy="1128.96" r="3.6" fill="#ebfb73" fill-rule="evenodd" fill-opacity="1" stroke="none"></circle>
<circle clip-path="url(#clip312)" cx="408.774" cy="1062.16" r="3.6" fill="#ebfb73" fill-rule="evenodd" fill-opacity="1" stroke="none"></circle>
<circle clip-path="url(#clip312)" cx="418.744" cy="1022.2" r="3.6" fill="#ebfb73" fill-rule="evenodd" fill-opacity="1" stroke="none"></circle>
<circle clip-path="url(#clip312)" cx="428.715" cy="998.381" r="3.6" fill="#ebfb73" fill-rule="evenodd" fill-opacity="1" stroke="none"></circle>
<circle clip-path="url(#clip312)" cx="438.686" cy="1047.21" r="3.6" fill="#ebfb73" fill-rule="evenodd" fill-opacity="1" stroke="none"></circle>
<circle clip-path="url(#clip312)" cx="448.656" cy="967.038" r="3.6" fill="#ebfb73" fill-rule="evenodd" fill-opacity="1" stroke="none"></circle>
<circle clip-path="url(#clip312)" cx="458.627" cy="922.367" r="3.6" fill="#ebfb73" fill-rule="evenodd" fill-opacity="1" stroke="none"></circle>
<circle clip-path="url(#clip312)" cx="468.598" cy="888.827" r="3.6" fill="#ebfb73" fill-rule="evenodd" fill-opacity="1" stroke="none"></circle>
<circle clip-path="url(#clip312)" cx="478.568" cy="879.916" r="3.6" fill="#ebfb73" fill-rule="evenodd" fill-opacity="1" stroke="none"></circle>
<circle clip-path="url(#clip312)" cx="488.539" cy="800.326" r="3.6" fill="#ebfb73" fill-rule="evenodd" fill-opacity="1" stroke="none"></circle>
<circle clip-path="url(#clip312)" cx="498.51" cy="704.641" r="3.6" fill="#ebfb73" fill-rule="evenodd" fill-opacity="1" stroke="none"></circle>
<circle clip-path="url(#clip312)" cx="508.48" cy="673.431" r="3.6" fill="#ebfb73" fill-rule="evenodd" fill-opacity="1" stroke="none"></circle>
<circle clip-path="url(#clip312)" cx="518.451" cy="717.665" r="3.6" fill="#ebfb73" fill-rule="evenodd" fill-opacity="1" stroke="none"></circle>
<circle clip-path="url(#clip312)" cx="528.422" cy="687.363" r="3.6" fill="#ebfb73" fill-rule="evenodd" fill-opacity="1" stroke="none"></circle>
<circle clip-path="url(#clip312)" cx="538.392" cy="731.796" r="3.6" fill="#ebfb73" fill-rule="evenodd" fill-opacity="1" stroke="none"></circle>
<circle clip-path="url(#clip312)" cx="548.363" cy="678.196" r="3.6" fill="#ebfb73" fill-rule="evenodd" fill-opacity="1" stroke="none"></circle>
<circle clip-path="url(#clip312)" cx="558.334" cy="627.988" r="3.6" fill="#ebfb73" fill-rule="evenodd" fill-opacity="1" stroke="none"></circle>
<circle clip-path="url(#clip312)" cx="568.304" cy="550.609" r="3.6" fill="#ebfb73" fill-rule="evenodd" fill-opacity="1" stroke="none"></circle>
<circle clip-path="url(#clip312)" cx="578.275" cy="509.411" r="3.6" fill="#ebfb73" fill-rule="evenodd" fill-opacity="1" stroke="none"></circle>
<circle clip-path="url(#clip312)" cx="588.246" cy="486.954" r="3.6" fill="#ebfb73" fill-rule="evenodd" fill-opacity="1" stroke="none"></circle>
<circle clip-path="url(#clip312)" cx="598.216" cy="568.962" r="3.6" fill="#ebfb73" fill-rule="evenodd" fill-opacity="1" stroke="none"></circle>
<circle clip-path="url(#clip312)" cx="608.187" cy="515.454" r="3.6" fill="#ebfb73" fill-rule="evenodd" fill-opacity="1" stroke="none"></circle>
<circle clip-path="url(#clip312)" cx="618.158" cy="484.08" r="3.6" fill="#ebfb73" fill-rule="evenodd" fill-opacity="1" stroke="none"></circle>
<circle clip-path="url(#clip312)" cx="628.129" cy="418.579" r="3.6" fill="#ebfb73" fill-rule="evenodd" fill-opacity="1" stroke="none"></circle>
<circle clip-path="url(#clip312)" cx="638.099" cy="493.256" r="3.6" fill="#ebfb73" fill-rule="evenodd" fill-opacity="1" stroke="none"></circle>
<circle clip-path="url(#clip312)" cx="648.07" cy="434.958" r="3.6" fill="#ebfb73" fill-rule="evenodd" fill-opacity="1" stroke="none"></circle>
<circle clip-path="url(#clip312)" cx="658.041" cy="325.951" r="3.6" fill="#ebfb73" fill-rule="evenodd" fill-opacity="1" stroke="none"></circle>
<circle clip-path="url(#clip312)" cx="668.011" cy="381.843" r="3.6" fill="#ebfb73" fill-rule="evenodd" fill-opacity="1" stroke="none"></circle>
<circle clip-path="url(#clip312)" cx="677.982" cy="325.845" r="3.6" fill="#ebfb73" fill-rule="evenodd" fill-opacity="1" stroke="none"></circle>
<circle clip-path="url(#clip312)" cx="687.953" cy="285.719" r="3.6" fill="#ebfb73" fill-rule="evenodd" fill-opacity="1" stroke="none"></circle>
<circle clip-path="url(#clip312)" cx="697.923" cy="275.914" r="3.6" fill="#ebfb73" fill-rule="evenodd" fill-opacity="1" stroke="none"></circle>
<circle clip-path="url(#clip312)" cx="707.894" cy="230.332" r="3.6" fill="#ebfb73" fill-rule="evenodd" fill-opacity="1" stroke="none"></circle>
<circle clip-path="url(#clip312)" cx="717.865" cy="258.296" r="3.6" fill="#ebfb73" fill-rule="evenodd" fill-opacity="1" stroke="none"></circle>
<circle clip-path="url(#clip312)" cx="727.835" cy="254.969" r="3.6" fill="#ebfb73" fill-rule="evenodd" fill-opacity="1" stroke="none"></circle>
<circle clip-path="url(#clip312)" cx="737.806" cy="252.082" r="3.6" fill="#ebfb73" fill-rule="evenodd" fill-opacity="1" stroke="none"></circle>
<circle clip-path="url(#clip312)" cx="747.777" cy="258.907" r="3.6" fill="#ebfb73" fill-rule="evenodd" fill-opacity="1" stroke="none"></circle>
<circle clip-path="url(#clip312)" cx="757.747" cy="318.46" r="3.6" fill="#ebfb73" fill-rule="evenodd" fill-opacity="1" stroke="none"></circle>
<circle clip-path="url(#clip312)" cx="767.718" cy="324.929" r="3.6" fill="#ebfb73" fill-rule="evenodd" fill-opacity="1" stroke="none"></circle>
<circle clip-path="url(#clip312)" cx="777.689" cy="305.23" r="3.6" fill="#ebfb73" fill-rule="evenodd" fill-opacity="1" stroke="none"></circle>
<circle clip-path="url(#clip312)" cx="787.659" cy="291.159" r="3.6" fill="#ebfb73" fill-rule="evenodd" fill-opacity="1" stroke="none"></circle>
<circle clip-path="url(#clip312)" cx="797.63" cy="312.374" r="3.6" fill="#ebfb73" fill-rule="evenodd" fill-opacity="1" stroke="none"></circle>
<circle clip-path="url(#clip312)" cx="807.601" cy="293.772" r="3.6" fill="#ebfb73" fill-rule="evenodd" fill-opacity="1" stroke="none"></circle>
<circle clip-path="url(#clip312)" cx="817.571" cy="287.796" r="3.6" fill="#ebfb73" fill-rule="evenodd" fill-opacity="1" stroke="none"></circle>
<circle clip-path="url(#clip312)" cx="827.542" cy="290.045" r="3.6" fill="#ebfb73" fill-rule="evenodd" fill-opacity="1" stroke="none"></circle>
<circle clip-path="url(#clip312)" cx="837.513" cy="274.508" r="3.6" fill="#ebfb73" fill-rule="evenodd" fill-opacity="1" stroke="none"></circle>
<circle clip-path="url(#clip312)" cx="847.483" cy="275.106" r="3.6" fill="#ebfb73" fill-rule="evenodd" fill-opacity="1" stroke="none"></circle>
<circle clip-path="url(#clip312)" cx="857.454" cy="187.961" r="3.6" fill="#ebfb73" fill-rule="evenodd" fill-opacity="1" stroke="none"></circle>
<circle clip-path="url(#clip312)" cx="867.425" cy="160.256" r="3.6" fill="#ebfb73" fill-rule="evenodd" fill-opacity="1" stroke="none"></circle>
<circle clip-path="url(#clip312)" cx="877.395" cy="247.524" r="3.6" fill="#ebfb73" fill-rule="evenodd" fill-opacity="1" stroke="none"></circle>
<circle clip-path="url(#clip312)" cx="887.366" cy="194.722" r="3.6" fill="#ebfb73" fill-rule="evenodd" fill-opacity="1" stroke="none"></circle>
<circle clip-path="url(#clip312)" cx="897.337" cy="164.916" r="3.6" fill="#ebfb73" fill-rule="evenodd" fill-opacity="1" stroke="none"></circle>
<circle clip-path="url(#clip312)" cx="907.307" cy="175.077" r="3.6" fill="#ebfb73" fill-rule="evenodd" fill-opacity="1" stroke="none"></circle>
<circle clip-path="url(#clip312)" cx="917.278" cy="191.684" r="3.6" fill="#ebfb73" fill-rule="evenodd" fill-opacity="1" stroke="none"></circle>
<circle clip-path="url(#clip312)" cx="927.249" cy="202.309" r="3.6" fill="#ebfb73" fill-rule="evenodd" fill-opacity="1" stroke="none"></circle>
<circle clip-path="url(#clip312)" cx="937.219" cy="222.755" r="3.6" fill="#ebfb73" fill-rule="evenodd" fill-opacity="1" stroke="none"></circle>
<circle clip-path="url(#clip312)" cx="947.19" cy="174.832" r="3.6" fill="#ebfb73" fill-rule="evenodd" fill-opacity="1" stroke="none"></circle>
<circle clip-path="url(#clip312)" cx="957.161" cy="169.627" r="3.6" fill="#ebfb73" fill-rule="evenodd" fill-opacity="1" stroke="none"></circle>
<circle clip-path="url(#clip312)" cx="967.131" cy="165.328" r="3.6" fill="#ebfb73" fill-rule="evenodd" fill-opacity="1" stroke="none"></circle>
<circle clip-path="url(#clip312)" cx="977.102" cy="224.604" r="3.6" fill="#ebfb73" fill-rule="evenodd" fill-opacity="1" stroke="none"></circle>
<circle clip-path="url(#clip312)" cx="987.073" cy="179.965" r="3.6" fill="#ebfb73" fill-rule="evenodd" fill-opacity="1" stroke="none"></circle>
<circle clip-path="url(#clip312)" cx="997.043" cy="161.325" r="3.6" fill="#ebfb73" fill-rule="evenodd" fill-opacity="1" stroke="none"></circle>
<circle clip-path="url(#clip312)" cx="1007.01" cy="210.94" r="3.6" fill="#ebfb73" fill-rule="evenodd" fill-opacity="1" stroke="none"></circle>
<circle clip-path="url(#clip312)" cx="1016.98" cy="228.036" r="3.6" fill="#ebfb73" fill-rule="evenodd" fill-opacity="1" stroke="none"></circle>
<circle clip-path="url(#clip312)" cx="1026.96" cy="249.226" r="3.6" fill="#ebfb73" fill-rule="evenodd" fill-opacity="1" stroke="none"></circle>
<circle clip-path="url(#clip312)" cx="1036.93" cy="211.743" r="3.6" fill="#ebfb73" fill-rule="evenodd" fill-opacity="1" stroke="none"></circle>
<circle clip-path="url(#clip312)" cx="1046.9" cy="211.719" r="3.6" fill="#ebfb73" fill-rule="evenodd" fill-opacity="1" stroke="none"></circle>
<circle clip-path="url(#clip312)" cx="1056.87" cy="296.467" r="3.6" fill="#ebfb73" fill-rule="evenodd" fill-opacity="1" stroke="none"></circle>
<circle clip-path="url(#clip312)" cx="1066.84" cy="264.725" r="3.6" fill="#ebfb73" fill-rule="evenodd" fill-opacity="1" stroke="none"></circle>
<circle clip-path="url(#clip312)" cx="1076.81" cy="259.636" r="3.6" fill="#ebfb73" fill-rule="evenodd" fill-opacity="1" stroke="none"></circle>
<circle clip-path="url(#clip312)" cx="1086.78" cy="261.922" r="3.6" fill="#ebfb73" fill-rule="evenodd" fill-opacity="1" stroke="none"></circle>
<circle clip-path="url(#clip312)" cx="1096.75" cy="270.996" r="3.6" fill="#ebfb73" fill-rule="evenodd" fill-opacity="1" stroke="none"></circle>
<circle clip-path="url(#clip312)" cx="1106.72" cy="274.697" r="3.6" fill="#ebfb73" fill-rule="evenodd" fill-opacity="1" stroke="none"></circle>
<circle clip-path="url(#clip312)" cx="1116.69" cy="233.285" r="3.6" fill="#ebfb73" fill-rule="evenodd" fill-opacity="1" stroke="none"></circle>
<circle clip-path="url(#clip312)" cx="1126.66" cy="244.178" r="3.6" fill="#ebfb73" fill-rule="evenodd" fill-opacity="1" stroke="none"></circle>
<circle clip-path="url(#clip312)" cx="1136.63" cy="273.524" r="3.6" fill="#ebfb73" fill-rule="evenodd" fill-opacity="1" stroke="none"></circle>
<circle clip-path="url(#clip312)" cx="1146.6" cy="340.666" r="3.6" fill="#ebfb73" fill-rule="evenodd" fill-opacity="1" stroke="none"></circle>
<circle clip-path="url(#clip312)" cx="1156.57" cy="279.964" r="3.6" fill="#ebfb73" fill-rule="evenodd" fill-opacity="1" stroke="none"></circle>
<circle clip-path="url(#clip312)" cx="1166.54" cy="281.205" r="3.6" fill="#ebfb73" fill-rule="evenodd" fill-opacity="1" stroke="none"></circle>
<circle clip-path="url(#clip312)" cx="1176.52" cy="304.501" r="3.6" fill="#ebfb73" fill-rule="evenodd" fill-opacity="1" stroke="none"></circle>
<circle clip-path="url(#clip312)" cx="1186.49" cy="312.535" r="3.6" fill="#ebfb73" fill-rule="evenodd" fill-opacity="1" stroke="none"></circle>
<circle clip-path="url(#clip312)" cx="1196.46" cy="314.787" r="3.6" fill="#ebfb73" fill-rule="evenodd" fill-opacity="1" stroke="none"></circle>
<circle clip-path="url(#clip312)" cx="1206.43" cy="307.059" r="3.6" fill="#ebfb73" fill-rule="evenodd" fill-opacity="1" stroke="none"></circle>
<circle clip-path="url(#clip312)" cx="1216.4" cy="336.982" r="3.6" fill="#ebfb73" fill-rule="evenodd" fill-opacity="1" stroke="none"></circle>
<circle clip-path="url(#clip312)" cx="1226.37" cy="301.836" r="3.6" fill="#ebfb73" fill-rule="evenodd" fill-opacity="1" stroke="none"></circle>
<circle clip-path="url(#clip312)" cx="1236.34" cy="283.924" r="3.6" fill="#ebfb73" fill-rule="evenodd" fill-opacity="1" stroke="none"></circle>
<circle clip-path="url(#clip312)" cx="1246.31" cy="305.508" r="3.6" fill="#ebfb73" fill-rule="evenodd" fill-opacity="1" stroke="none"></circle>
<circle clip-path="url(#clip312)" cx="1256.28" cy="305.747" r="3.6" fill="#ebfb73" fill-rule="evenodd" fill-opacity="1" stroke="none"></circle>
<circle clip-path="url(#clip312)" cx="1266.25" cy="319.94" r="3.6" fill="#ebfb73" fill-rule="evenodd" fill-opacity="1" stroke="none"></circle>
<circle clip-path="url(#clip312)" cx="1276.22" cy="335.459" r="3.6" fill="#ebfb73" fill-rule="evenodd" fill-opacity="1" stroke="none"></circle>
<circle clip-path="url(#clip312)" cx="1286.19" cy="309.343" r="3.6" fill="#ebfb73" fill-rule="evenodd" fill-opacity="1" stroke="none"></circle>
<circle clip-path="url(#clip312)" cx="1296.16" cy="302.755" r="3.6" fill="#ebfb73" fill-rule="evenodd" fill-opacity="1" stroke="none"></circle>
<circle clip-path="url(#clip312)" cx="1306.13" cy="325.792" r="3.6" fill="#ebfb73" fill-rule="evenodd" fill-opacity="1" stroke="none"></circle>
<circle clip-path="url(#clip312)" cx="1316.1" cy="307.227" r="3.6" fill="#ebfb73" fill-rule="evenodd" fill-opacity="1" stroke="none"></circle>
<circle clip-path="url(#clip312)" cx="1326.08" cy="337.7" r="3.6" fill="#ebfb73" fill-rule="evenodd" fill-opacity="1" stroke="none"></circle>
<circle clip-path="url(#clip312)" cx="1336.05" cy="352.656" r="3.6" fill="#ebfb73" fill-rule="evenodd" fill-opacity="1" stroke="none"></circle>
<circle clip-path="url(#clip312)" cx="1346.02" cy="350.458" r="3.6" fill="#ebfb73" fill-rule="evenodd" fill-opacity="1" stroke="none"></circle>
<circle clip-path="url(#clip312)" cx="1355.99" cy="309.884" r="3.6" fill="#ebfb73" fill-rule="evenodd" fill-opacity="1" stroke="none"></circle>
<circle clip-path="url(#clip312)" cx="1365.96" cy="318.182" r="3.6" fill="#ebfb73" fill-rule="evenodd" fill-opacity="1" stroke="none"></circle>
<circle clip-path="url(#clip312)" cx="1375.93" cy="319.04" r="3.6" fill="#ebfb73" fill-rule="evenodd" fill-opacity="1" stroke="none"></circle>
<circle clip-path="url(#clip312)" cx="1385.9" cy="324.901" r="3.6" fill="#ebfb73" fill-rule="evenodd" fill-opacity="1" stroke="none"></circle>
<circle clip-path="url(#clip312)" cx="1395.87" cy="314.102" r="3.6" fill="#ebfb73" fill-rule="evenodd" fill-opacity="1" stroke="none"></circle>
<circle clip-path="url(#clip312)" cx="1405.84" cy="331.909" r="3.6" fill="#ebfb73" fill-rule="evenodd" fill-opacity="1" stroke="none"></circle>
<circle clip-path="url(#clip312)" cx="1415.81" cy="357.507" r="3.6" fill="#ebfb73" fill-rule="evenodd" fill-opacity="1" stroke="none"></circle>
<circle clip-path="url(#clip312)" cx="1425.78" cy="299.612" r="3.6" fill="#ebfb73" fill-rule="evenodd" fill-opacity="1" stroke="none"></circle>
<circle clip-path="url(#clip312)" cx="1435.75" cy="349.756" r="3.6" fill="#ebfb73" fill-rule="evenodd" fill-opacity="1" stroke="none"></circle>
<circle clip-path="url(#clip312)" cx="1445.72" cy="306.393" r="3.6" fill="#ebfb73" fill-rule="evenodd" fill-opacity="1" stroke="none"></circle>
<circle clip-path="url(#clip312)" cx="1455.69" cy="308.372" r="3.6" fill="#ebfb73" fill-rule="evenodd" fill-opacity="1" stroke="none"></circle>
<circle clip-path="url(#clip312)" cx="1465.67" cy="352.482" r="3.6" fill="#ebfb73" fill-rule="evenodd" fill-opacity="1" stroke="none"></circle>
<circle clip-path="url(#clip312)" cx="1475.64" cy="338.155" r="3.6" fill="#ebfb73" fill-rule="evenodd" fill-opacity="1" stroke="none"></circle>
<circle clip-path="url(#clip312)" cx="1485.61" cy="352.673" r="3.6" fill="#ebfb73" fill-rule="evenodd" fill-opacity="1" stroke="none"></circle>
<circle clip-path="url(#clip312)" cx="1495.58" cy="337.687" r="3.6" fill="#ebfb73" fill-rule="evenodd" fill-opacity="1" stroke="none"></circle>
<circle clip-path="url(#clip312)" cx="1505.55" cy="355.116" r="3.6" fill="#ebfb73" fill-rule="evenodd" fill-opacity="1" stroke="none"></circle>
<circle clip-path="url(#clip312)" cx="1515.52" cy="325.793" r="3.6" fill="#ebfb73" fill-rule="evenodd" fill-opacity="1" stroke="none"></circle>
<circle clip-path="url(#clip312)" cx="1525.49" cy="340.22" r="3.6" fill="#ebfb73" fill-rule="evenodd" fill-opacity="1" stroke="none"></circle>
<circle clip-path="url(#clip312)" cx="1535.46" cy="341.209" r="3.6" fill="#ebfb73" fill-rule="evenodd" fill-opacity="1" stroke="none"></circle>
<circle clip-path="url(#clip312)" cx="1545.43" cy="317.691" r="3.6" fill="#ebfb73" fill-rule="evenodd" fill-opacity="1" stroke="none"></circle>
<circle clip-path="url(#clip312)" cx="1555.4" cy="329.088" r="3.6" fill="#ebfb73" fill-rule="evenodd" fill-opacity="1" stroke="none"></circle>
<circle clip-path="url(#clip312)" cx="1565.37" cy="332.073" r="3.6" fill="#ebfb73" fill-rule="evenodd" fill-opacity="1" stroke="none"></circle>
<circle clip-path="url(#clip312)" cx="1575.34" cy="307.124" r="3.6" fill="#ebfb73" fill-rule="evenodd" fill-opacity="1" stroke="none"></circle>
<circle clip-path="url(#clip312)" cx="1585.31" cy="330.572" r="3.6" fill="#ebfb73" fill-rule="evenodd" fill-opacity="1" stroke="none"></circle>
<circle clip-path="url(#clip312)" cx="1595.28" cy="352.269" r="3.6" fill="#ebfb73" fill-rule="evenodd" fill-opacity="1" stroke="none"></circle>
<circle clip-path="url(#clip312)" cx="1605.25" cy="327.644" r="3.6" fill="#ebfb73" fill-rule="evenodd" fill-opacity="1" stroke="none"></circle>
<circle clip-path="url(#clip312)" cx="1615.23" cy="348.74" r="3.6" fill="#ebfb73" fill-rule="evenodd" fill-opacity="1" stroke="none"></circle>
<circle clip-path="url(#clip312)" cx="1625.2" cy="298.303" r="3.6" fill="#ebfb73" fill-rule="evenodd" fill-opacity="1" stroke="none"></circle>
<circle clip-path="url(#clip312)" cx="1635.17" cy="344.289" r="3.6" fill="#ebfb73" fill-rule="evenodd" fill-opacity="1" stroke="none"></circle>
<circle clip-path="url(#clip312)" cx="1645.14" cy="344.65" r="3.6" fill="#ebfb73" fill-rule="evenodd" fill-opacity="1" stroke="none"></circle>
<circle clip-path="url(#clip312)" cx="1655.11" cy="315.378" r="3.6" fill="#ebfb73" fill-rule="evenodd" fill-opacity="1" stroke="none"></circle>
<circle clip-path="url(#clip312)" cx="1665.08" cy="348.657" r="3.6" fill="#ebfb73" fill-rule="evenodd" fill-opacity="1" stroke="none"></circle>
<circle clip-path="url(#clip312)" cx="1675.05" cy="346.244" r="3.6" fill="#ebfb73" fill-rule="evenodd" fill-opacity="1" stroke="none"></circle>
<circle clip-path="url(#clip312)" cx="1685.02" cy="305.856" r="3.6" fill="#ebfb73" fill-rule="evenodd" fill-opacity="1" stroke="none"></circle>
<circle clip-path="url(#clip312)" cx="1694.99" cy="347.046" r="3.6" fill="#ebfb73" fill-rule="evenodd" fill-opacity="1" stroke="none"></circle>
<circle clip-path="url(#clip312)" cx="1704.96" cy="335.306" r="3.6" fill="#ebfb73" fill-rule="evenodd" fill-opacity="1" stroke="none"></circle>
<circle clip-path="url(#clip312)" cx="1714.93" cy="320.526" r="3.6" fill="#ebfb73" fill-rule="evenodd" fill-opacity="1" stroke="none"></circle>
<circle clip-path="url(#clip312)" cx="1724.9" cy="363.408" r="3.6" fill="#ebfb73" fill-rule="evenodd" fill-opacity="1" stroke="none"></circle>
<circle clip-path="url(#clip312)" cx="1734.87" cy="347.949" r="3.6" fill="#ebfb73" fill-rule="evenodd" fill-opacity="1" stroke="none"></circle>
<circle clip-path="url(#clip312)" cx="1744.84" cy="345.793" r="3.6" fill="#ebfb73" fill-rule="evenodd" fill-opacity="1" stroke="none"></circle>
<circle clip-path="url(#clip312)" cx="1754.81" cy="326.546" r="3.6" fill="#ebfb73" fill-rule="evenodd" fill-opacity="1" stroke="none"></circle>
<circle clip-path="url(#clip312)" cx="1764.79" cy="341.846" r="3.6" fill="#ebfb73" fill-rule="evenodd" fill-opacity="1" stroke="none"></circle>
<circle clip-path="url(#clip312)" cx="1774.76" cy="360.84" r="3.6" fill="#ebfb73" fill-rule="evenodd" fill-opacity="1" stroke="none"></circle>
<circle clip-path="url(#clip312)" cx="1784.73" cy="308.638" r="3.6" fill="#ebfb73" fill-rule="evenodd" fill-opacity="1" stroke="none"></circle>
<circle clip-path="url(#clip312)" cx="1794.7" cy="388.148" r="3.6" fill="#ebfb73" fill-rule="evenodd" fill-opacity="1" stroke="none"></circle>
<circle clip-path="url(#clip312)" cx="1804.67" cy="344.823" r="3.6" fill="#ebfb73" fill-rule="evenodd" fill-opacity="1" stroke="none"></circle>
<circle clip-path="url(#clip312)" cx="1814.64" cy="307.508" r="3.6" fill="#ebfb73" fill-rule="evenodd" fill-opacity="1" stroke="none"></circle>
<circle clip-path="url(#clip312)" cx="1824.61" cy="327.512" r="3.6" fill="#ebfb73" fill-rule="evenodd" fill-opacity="1" stroke="none"></circle>
<circle clip-path="url(#clip312)" cx="1834.58" cy="368.423" r="3.6" fill="#ebfb73" fill-rule="evenodd" fill-opacity="1" stroke="none"></circle>
<circle clip-path="url(#clip312)" cx="1844.55" cy="338.354" r="3.6" fill="#ebfb73" fill-rule="evenodd" fill-opacity="1" stroke="none"></circle>
<circle clip-path="url(#clip312)" cx="1854.52" cy="323.055" r="3.6" fill="#ebfb73" fill-rule="evenodd" fill-opacity="1" stroke="none"></circle>
<circle clip-path="url(#clip312)" cx="1864.49" cy="360.572" r="3.6" fill="#ebfb73" fill-rule="evenodd" fill-opacity="1" stroke="none"></circle>
<circle clip-path="url(#clip312)" cx="1874.46" cy="314.673" r="3.6" fill="#ebfb73" fill-rule="evenodd" fill-opacity="1" stroke="none"></circle>
<circle clip-path="url(#clip312)" cx="1884.43" cy="352.339" r="3.6" fill="#ebfb73" fill-rule="evenodd" fill-opacity="1" stroke="none"></circle>
<circle clip-path="url(#clip312)" cx="1894.4" cy="334.537" r="3.6" fill="#ebfb73" fill-rule="evenodd" fill-opacity="1" stroke="none"></circle>
<circle clip-path="url(#clip312)" cx="1904.37" cy="304.507" r="3.6" fill="#ebfb73" fill-rule="evenodd" fill-opacity="1" stroke="none"></circle>
<circle clip-path="url(#clip312)" cx="1914.35" cy="382.55" r="3.6" fill="#ebfb73" fill-rule="evenodd" fill-opacity="1" stroke="none"></circle>
<circle clip-path="url(#clip312)" cx="1924.32" cy="324.208" r="3.6" fill="#ebfb73" fill-rule="evenodd" fill-opacity="1" stroke="none"></circle>
<circle clip-path="url(#clip312)" cx="1934.29" cy="358.589" r="3.6" fill="#ebfb73" fill-rule="evenodd" fill-opacity="1" stroke="none"></circle>
<circle clip-path="url(#clip312)" cx="1944.26" cy="312.416" r="3.6" fill="#ebfb73" fill-rule="evenodd" fill-opacity="1" stroke="none"></circle>
<circle clip-path="url(#clip312)" cx="1954.23" cy="355.504" r="3.6" fill="#ebfb73" fill-rule="evenodd" fill-opacity="1" stroke="none"></circle>
<circle clip-path="url(#clip312)" cx="1964.2" cy="351.597" r="3.6" fill="#ebfb73" fill-rule="evenodd" fill-opacity="1" stroke="none"></circle>
<circle clip-path="url(#clip312)" cx="1974.17" cy="344.473" r="3.6" fill="#ebfb73" fill-rule="evenodd" fill-opacity="1" stroke="none"></circle>
<circle clip-path="url(#clip312)" cx="1984.14" cy="321.586" r="3.6" fill="#ebfb73" fill-rule="evenodd" fill-opacity="1" stroke="none"></circle>
<circle clip-path="url(#clip312)" cx="1994.11" cy="376.893" r="3.6" fill="#ebfb73" fill-rule="evenodd" fill-opacity="1" stroke="none"></circle>
<circle clip-path="url(#clip312)" cx="2004.08" cy="301.817" r="3.6" fill="#ebfb73" fill-rule="evenodd" fill-opacity="1" stroke="none"></circle>
<circle clip-path="url(#clip312)" cx="2014.05" cy="341.703" r="3.6" fill="#ebfb73" fill-rule="evenodd" fill-opacity="1" stroke="none"></circle>
<circle clip-path="url(#clip312)" cx="2024.02" cy="309.975" r="3.6" fill="#ebfb73" fill-rule="evenodd" fill-opacity="1" stroke="none"></circle>
<circle clip-path="url(#clip312)" cx="2033.99" cy="343.029" r="3.6" fill="#ebfb73" fill-rule="evenodd" fill-opacity="1" stroke="none"></circle>
<circle clip-path="url(#clip312)" cx="2043.96" cy="323.242" r="3.6" fill="#ebfb73" fill-rule="evenodd" fill-opacity="1" stroke="none"></circle>
<circle clip-path="url(#clip312)" cx="2053.93" cy="324.542" r="3.6" fill="#ebfb73" fill-rule="evenodd" fill-opacity="1" stroke="none"></circle>
<circle clip-path="url(#clip312)" cx="2063.91" cy="323.003" r="3.6" fill="#ebfb73" fill-rule="evenodd" fill-opacity="1" stroke="none"></circle>
<circle clip-path="url(#clip312)" cx="2073.88" cy="362.622" r="3.6" fill="#ebfb73" fill-rule="evenodd" fill-opacity="1" stroke="none"></circle>
<circle clip-path="url(#clip312)" cx="2083.85" cy="347.883" r="3.6" fill="#ebfb73" fill-rule="evenodd" fill-opacity="1" stroke="none"></circle>
<circle clip-path="url(#clip312)" cx="2093.82" cy="351.063" r="3.6" fill="#ebfb73" fill-rule="evenodd" fill-opacity="1" stroke="none"></circle>
<circle clip-path="url(#clip312)" cx="2103.79" cy="342.479" r="3.6" fill="#ebfb73" fill-rule="evenodd" fill-opacity="1" stroke="none"></circle>
<circle clip-path="url(#clip312)" cx="2113.76" cy="383.346" r="3.6" fill="#ebfb73" fill-rule="evenodd" fill-opacity="1" stroke="none"></circle>
<circle clip-path="url(#clip312)" cx="2123.73" cy="313.156" r="3.6" fill="#ebfb73" fill-rule="evenodd" fill-opacity="1" stroke="none"></circle>
<circle clip-path="url(#clip312)" cx="2133.7" cy="311.436" r="3.6" fill="#ebfb73" fill-rule="evenodd" fill-opacity="1" stroke="none"></circle>
<circle clip-path="url(#clip312)" cx="2143.67" cy="353.882" r="3.6" fill="#ebfb73" fill-rule="evenodd" fill-opacity="1" stroke="none"></circle>
<circle clip-path="url(#clip312)" cx="2153.64" cy="349.085" r="3.6" fill="#ebfb73" fill-rule="evenodd" fill-opacity="1" stroke="none"></circle>
<circle clip-path="url(#clip312)" cx="2163.61" cy="330.837" r="3.6" fill="#ebfb73" fill-rule="evenodd" fill-opacity="1" stroke="none"></circle>
<circle clip-path="url(#clip312)" cx="2173.58" cy="319.113" r="3.6" fill="#ebfb73" fill-rule="evenodd" fill-opacity="1" stroke="none"></circle>
<circle clip-path="url(#clip312)" cx="2183.55" cy="356.013" r="3.6" fill="#ebfb73" fill-rule="evenodd" fill-opacity="1" stroke="none"></circle>
<circle clip-path="url(#clip312)" cx="2193.52" cy="365.626" r="3.6" fill="#ebfb73" fill-rule="evenodd" fill-opacity="1" stroke="none"></circle>
<circle clip-path="url(#clip312)" cx="2203.49" cy="293.951" r="3.6" fill="#ebfb73" fill-rule="evenodd" fill-opacity="1" stroke="none"></circle>
<circle clip-path="url(#clip312)" cx="2213.47" cy="343.179" r="3.6" fill="#ebfb73" fill-rule="evenodd" fill-opacity="1" stroke="none"></circle>
<circle clip-path="url(#clip312)" cx="2223.44" cy="365.612" r="3.6" fill="#ebfb73" fill-rule="evenodd" fill-opacity="1" stroke="none"></circle>
<circle clip-path="url(#clip312)" cx="2233.41" cy="325.335" r="3.6" fill="#ebfb73" fill-rule="evenodd" fill-opacity="1" stroke="none"></circle>
<circle clip-path="url(#clip312)" cx="2243.38" cy="313.131" r="3.6" fill="#ebfb73" fill-rule="evenodd" fill-opacity="1" stroke="none"></circle>
<circle clip-path="url(#clip312)" cx="2253.35" cy="352.614" r="3.6" fill="#ebfb73" fill-rule="evenodd" fill-opacity="1" stroke="none"></circle>
<circle clip-path="url(#clip312)" cx="2263.32" cy="331.128" r="3.6" fill="#ebfb73" fill-rule="evenodd" fill-opacity="1" stroke="none"></circle>
<circle clip-path="url(#clip312)" cx="2273.29" cy="359.779" r="3.6" fill="#ebfb73" fill-rule="evenodd" fill-opacity="1" stroke="none"></circle>
<circle clip-path="url(#clip312)" cx="2283.26" cy="365.037" r="3.6" fill="#ebfb73" fill-rule="evenodd" fill-opacity="1" stroke="none"></circle>
<circle clip-path="url(#clip312)" cx="2293.23" cy="347.56" r="3.6" fill="#ebfb73" fill-rule="evenodd" fill-opacity="1" stroke="none"></circle>
</svg>