<svg xmlns="http://www.w3.org/2000/svg" xmlns:xlink="http://www.w3.org/1999/xlink" width="600" height="400" viewBox="0 0 2400 1600">
<defs>
  <clipPath id="clip890">
    <rect x="0" y="0" width="2400" height="1600"></rect>
  </clipPath>
</defs>
<path clip-path="url(#clip890)" d="M0 1600 L2400 1600 L2400 0 L0 0  Z" fill="#282c34" fill-rule="evenodd" fill-opacity="1"></path>
<defs>
  <clipPath id="clip891">
    <rect x="480" y="0" width="1681" height="1600"></rect>
  </clipPath>
</defs>
<path clip-path="url(#clip890)" d="M249.542 1423.18 L2352.76 1423.18 L2352.76 123.472 L249.542 123.472  Z" fill="#21252b" fill-rule="evenodd" fill-opacity="1"></path>
<defs>
  <clipPath id="clip892">
    <rect x="249" y="123" width="2104" height="1301"></rect>
  </clipPath>
</defs>
<polyline clip-path="url(#clip892)" style="stroke:#adb2b7; stroke-linecap:round; stroke-linejoin:round; stroke-width:2; stroke-opacity:0.1; fill:none" points="309.067,1423.18 309.067,123.472 "></polyline>
<polyline clip-path="url(#clip892)" style="stroke:#adb2b7; stroke-linecap:round; stroke-linejoin:round; stroke-width:2; stroke-opacity:0.1; fill:none" points="705.9,1423.18 705.9,123.472 "></polyline>
<polyline clip-path="url(#clip892)" style="stroke:#adb2b7; stroke-linecap:round; stroke-linejoin:round; stroke-width:2; stroke-opacity:0.1; fill:none" points="1102.73,1423.18 1102.73,123.472 "></polyline>
<polyline clip-path="url(#clip892)" style="stroke:#adb2b7; stroke-linecap:round; stroke-linejoin:round; stroke-width:2; stroke-opacity:0.1; fill:none" points="1499.57,1423.18 1499.57,123.472 "></polyline>
<polyline clip-path="url(#clip892)" style="stroke:#adb2b7; stroke-linecap:round; stroke-linejoin:round; stroke-width:2; stroke-opacity:0.1; fill:none" points="1896.4,1423.18 1896.4,123.472 "></polyline>
<polyline clip-path="url(#clip892)" style="stroke:#adb2b7; stroke-linecap:round; stroke-linejoin:round; stroke-width:2; stroke-opacity:0.1; fill:none" points="2293.23,1423.18 2293.23,123.472 "></polyline>
<polyline clip-path="url(#clip890)" style="stroke:#adb2b7; stroke-linecap:round; stroke-linejoin:round; stroke-width:4; stroke-opacity:1; fill:none" points="249.542,1423.18 2352.76,1423.18 "></polyline>
<polyline clip-path="url(#clip890)" style="stroke:#adb2b7; stroke-linecap:round; stroke-linejoin:round; stroke-width:4; stroke-opacity:1; fill:none" points="309.067,1423.18 309.067,1404.28 "></polyline>
<polyline clip-path="url(#clip890)" style="stroke:#adb2b7; stroke-linecap:round; stroke-linejoin:round; stroke-width:4; stroke-opacity:1; fill:none" points="705.9,1423.18 705.9,1404.28 "></polyline>
<polyline clip-path="url(#clip890)" style="stroke:#adb2b7; stroke-linecap:round; stroke-linejoin:round; stroke-width:4; stroke-opacity:1; fill:none" points="1102.73,1423.18 1102.73,1404.28 "></polyline>
<polyline clip-path="url(#clip890)" style="stroke:#adb2b7; stroke-linecap:round; stroke-linejoin:round; stroke-width:4; stroke-opacity:1; fill:none" points="1499.57,1423.18 1499.57,1404.28 "></polyline>
<polyline clip-path="url(#clip890)" style="stroke:#adb2b7; stroke-linecap:round; stroke-linejoin:round; stroke-width:4; stroke-opacity:1; fill:none" points="1896.4,1423.18 1896.4,1404.28 "></polyline>
<polyline clip-path="url(#clip890)" style="stroke:#adb2b7; stroke-linecap:round; stroke-linejoin:round; stroke-width:4; stroke-opacity:1; fill:none" points="2293.23,1423.18 2293.23,1404.28 "></polyline>
<path clip-path="url(#clip890)" d="M271.868 1454.1 Q268.257 1454.1 266.428 1457.66 Q264.623 1461.2 264.623 1468.33 Q264.623 1475.44 266.428 1479.01 Q268.257 1482.55 271.868 1482.55 Q275.502 1482.55 277.308 1479.01 Q279.137 1475.44 279.137 1468.33 Q279.137 1461.2 277.308 1457.66 Q275.502 1454.1 271.868 1454.1 M271.868 1450.39 Q277.678 1450.39 280.734 1455 Q283.812 1459.58 283.812 1468.33 Q283.812 1477.06 280.734 1481.67 Q277.678 1486.25 271.868 1486.25 Q266.058 1486.25 262.979 1481.67 Q259.924 1477.06 259.924 1468.33 Q259.924 1459.58 262.979 1455 Q266.058 1450.39 271.868 1450.39 Z" fill="#9eb1be" fill-rule="nonzero" fill-opacity="1"></path><path clip-path="url(#clip890)" d="M292.03 1479.7 L296.914 1479.7 L296.914 1485.58 L292.03 1485.58 L292.03 1479.7 Z" fill="#9eb1be" fill-rule="nonzero" fill-opacity="1"></path><path clip-path="url(#clip890)" d="M305.919 1451.02 L328.141 1451.02 L328.141 1453.01 L315.595 1485.58 L310.71 1485.58 L322.516 1454.96 L305.919 1454.96 L305.919 1451.02 Z" fill="#9eb1be" fill-rule="nonzero" fill-opacity="1"></path><path clip-path="url(#clip890)" d="M337.308 1451.02 L355.664 1451.02 L355.664 1454.96 L341.59 1454.96 L341.59 1463.43 Q342.608 1463.08 343.627 1462.92 Q344.645 1462.73 345.664 1462.73 Q351.451 1462.73 354.831 1465.9 Q358.21 1469.08 358.21 1474.49 Q358.21 1480.07 354.738 1483.17 Q351.266 1486.25 344.946 1486.25 Q342.77 1486.25 340.502 1485.88 Q338.257 1485.51 335.849 1484.77 L335.849 1480.07 Q337.933 1481.2 340.155 1481.76 Q342.377 1482.32 344.854 1482.32 Q348.858 1482.32 351.196 1480.21 Q353.534 1478.1 353.534 1474.49 Q353.534 1470.88 351.196 1468.77 Q348.858 1466.67 344.854 1466.67 Q342.979 1466.67 341.104 1467.08 Q339.252 1467.5 337.308 1468.38 L337.308 1451.02 Z" fill="#9eb1be" fill-rule="nonzero" fill-opacity="1"></path><path clip-path="url(#clip890)" d="M668.203 1454.1 Q664.592 1454.1 662.763 1457.66 Q660.958 1461.2 660.958 1468.33 Q660.958 1475.44 662.763 1479.01 Q664.592 1482.55 668.203 1482.55 Q671.837 1482.55 673.643 1479.01 Q675.472 1475.44 675.472 1468.33 Q675.472 1461.2 673.643 1457.66 Q671.837 1454.1 668.203 1454.1 M668.203 1450.39 Q674.013 1450.39 677.069 1455 Q680.148 1459.58 680.148 1468.33 Q680.148 1477.06 677.069 1481.67 Q674.013 1486.25 668.203 1486.25 Q662.393 1486.25 659.314 1481.67 Q656.259 1477.06 656.259 1468.33 Q656.259 1459.58 659.314 1455 Q662.393 1450.39 668.203 1450.39 Z" fill="#9eb1be" fill-rule="nonzero" fill-opacity="1"></path><path clip-path="url(#clip890)" d="M688.365 1479.7 L693.249 1479.7 L693.249 1485.58 L688.365 1485.58 L688.365 1479.7 Z" fill="#9eb1be" fill-rule="nonzero" fill-opacity="1"></path><path clip-path="url(#clip890)" d="M713.434 1469.17 Q710.101 1469.17 708.18 1470.95 Q706.282 1472.73 706.282 1475.86 Q706.282 1478.98 708.18 1480.77 Q710.101 1482.55 713.434 1482.55 Q716.768 1482.55 718.689 1480.77 Q720.61 1478.96 720.61 1475.86 Q720.61 1472.73 718.689 1470.95 Q716.791 1469.17 713.434 1469.17 M708.759 1467.18 Q705.749 1466.44 704.059 1464.38 Q702.393 1462.32 702.393 1459.35 Q702.393 1455.21 705.333 1452.8 Q708.296 1450.39 713.434 1450.39 Q718.596 1450.39 721.536 1452.8 Q724.476 1455.21 724.476 1459.35 Q724.476 1462.32 722.786 1464.38 Q721.12 1466.44 718.133 1467.18 Q721.513 1467.96 723.388 1470.26 Q725.286 1472.55 725.286 1475.86 Q725.286 1480.88 722.208 1483.57 Q719.152 1486.25 713.434 1486.25 Q707.717 1486.25 704.638 1483.57 Q701.583 1480.88 701.583 1475.86 Q701.583 1472.55 703.481 1470.26 Q705.379 1467.96 708.759 1467.18 M707.046 1459.79 Q707.046 1462.48 708.712 1463.98 Q710.402 1465.49 713.434 1465.49 Q716.444 1465.49 718.133 1463.98 Q719.846 1462.48 719.846 1459.79 Q719.846 1457.11 718.133 1455.6 Q716.444 1454.1 713.434 1454.1 Q710.402 1454.1 708.712 1455.6 Q707.046 1457.11 707.046 1459.79 Z" fill="#9eb1be" fill-rule="nonzero" fill-opacity="1"></path><path clip-path="url(#clip890)" d="M743.596 1454.1 Q739.985 1454.1 738.157 1457.66 Q736.351 1461.2 736.351 1468.33 Q736.351 1475.44 738.157 1479.01 Q739.985 1482.55 743.596 1482.55 Q747.231 1482.55 749.036 1479.01 Q750.865 1475.44 750.865 1468.33 Q750.865 1461.2 749.036 1457.66 Q747.231 1454.1 743.596 1454.1 M743.596 1450.39 Q749.406 1450.39 752.462 1455 Q755.541 1459.58 755.541 1468.33 Q755.541 1477.06 752.462 1481.67 Q749.406 1486.25 743.596 1486.25 Q737.786 1486.25 734.707 1481.67 Q731.652 1477.06 731.652 1468.33 Q731.652 1459.58 734.707 1455 Q737.786 1450.39 743.596 1450.39 Z" fill="#9eb1be" fill-rule="nonzero" fill-opacity="1"></path><path clip-path="url(#clip890)" d="M1065.53 1454.1 Q1061.92 1454.1 1060.09 1457.66 Q1058.29 1461.2 1058.29 1468.33 Q1058.29 1475.44 1060.09 1479.01 Q1061.92 1482.55 1065.53 1482.55 Q1069.17 1482.55 1070.97 1479.01 Q1072.8 1475.44 1072.8 1468.33 Q1072.8 1461.2 1070.97 1457.66 Q1069.17 1454.1 1065.53 1454.1 M1065.53 1450.39 Q1071.34 1450.39 1074.4 1455 Q1077.48 1459.58 1077.48 1468.33 Q1077.48 1477.06 1074.4 1481.67 Q1071.34 1486.25 1065.53 1486.25 Q1059.72 1486.25 1056.64 1481.67 Q1053.59 1477.06 1053.59 1468.33 Q1053.59 1459.58 1056.64 1455 Q1059.72 1450.39 1065.53 1450.39 Z" fill="#9eb1be" fill-rule="nonzero" fill-opacity="1"></path><path clip-path="url(#clip890)" d="M1085.7 1479.7 L1090.58 1479.7 L1090.58 1485.58 L1085.7 1485.58 L1085.7 1479.7 Z" fill="#9eb1be" fill-rule="nonzero" fill-opacity="1"></path><path clip-path="url(#clip890)" d="M1110.76 1469.17 Q1107.43 1469.17 1105.51 1470.95 Q1103.61 1472.73 1103.61 1475.86 Q1103.61 1478.98 1105.51 1480.77 Q1107.43 1482.55 1110.76 1482.55 Q1114.1 1482.55 1116.02 1480.77 Q1117.94 1478.96 1117.94 1475.86 Q1117.94 1472.73 1116.02 1470.95 Q1114.12 1469.17 1110.76 1469.17 M1106.09 1467.18 Q1103.08 1466.44 1101.39 1464.38 Q1099.72 1462.32 1099.72 1459.35 Q1099.72 1455.21 1102.66 1452.8 Q1105.63 1450.39 1110.76 1450.39 Q1115.93 1450.39 1118.87 1452.8 Q1121.81 1455.21 1121.81 1459.35 Q1121.81 1462.32 1120.12 1464.38 Q1118.45 1466.44 1115.46 1467.18 Q1118.84 1467.96 1120.72 1470.26 Q1122.62 1472.55 1122.62 1475.86 Q1122.62 1480.88 1119.54 1483.57 Q1116.48 1486.25 1110.76 1486.25 Q1105.05 1486.25 1101.97 1483.57 Q1098.91 1480.88 1098.91 1475.86 Q1098.91 1472.55 1100.81 1470.26 Q1102.71 1467.96 1106.09 1467.18 M1104.38 1459.79 Q1104.38 1462.48 1106.04 1463.98 Q1107.73 1465.49 1110.76 1465.49 Q1113.77 1465.49 1115.46 1463.98 Q1117.18 1462.48 1117.18 1459.79 Q1117.18 1457.11 1115.46 1455.6 Q1113.77 1454.1 1110.76 1454.1 Q1107.73 1454.1 1106.04 1455.6 Q1104.38 1457.11 1104.38 1459.79 Z" fill="#9eb1be" fill-rule="nonzero" fill-opacity="1"></path><path clip-path="url(#clip890)" d="M1130.97 1451.02 L1149.33 1451.02 L1149.33 1454.96 L1135.26 1454.96 L1135.26 1463.43 Q1136.27 1463.08 1137.29 1462.92 Q1138.31 1462.73 1139.33 1462.73 Q1145.12 1462.73 1148.5 1465.9 Q1151.88 1469.08 1151.88 1474.49 Q1151.88 1480.07 1148.4 1483.17 Q1144.93 1486.25 1138.61 1486.25 Q1136.44 1486.25 1134.17 1485.88 Q1131.92 1485.51 1129.51 1484.77 L1129.51 1480.07 Q1131.6 1481.2 1133.82 1481.76 Q1136.04 1482.32 1138.52 1482.32 Q1142.52 1482.32 1144.86 1480.21 Q1147.2 1478.1 1147.2 1474.49 Q1147.2 1470.88 1144.86 1468.77 Q1142.52 1466.67 1138.52 1466.67 Q1136.64 1466.67 1134.77 1467.08 Q1132.92 1467.5 1130.97 1468.38 L1130.97 1451.02 Z" fill="#9eb1be" fill-rule="nonzero" fill-opacity="1"></path><path clip-path="url(#clip890)" d="M1461.87 1454.1 Q1458.26 1454.1 1456.43 1457.66 Q1454.62 1461.2 1454.62 1468.33 Q1454.62 1475.44 1456.43 1479.01 Q1458.26 1482.55 1461.87 1482.55 Q1465.5 1482.55 1467.31 1479.01 Q1469.14 1475.44 1469.14 1468.33 Q1469.14 1461.2 1467.31 1457.66 Q1465.5 1454.1 1461.87 1454.1 M1461.87 1450.39 Q1467.68 1450.39 1470.73 1455 Q1473.81 1459.58 1473.81 1468.33 Q1473.81 1477.06 1470.73 1481.67 Q1467.68 1486.25 1461.87 1486.25 Q1456.06 1486.25 1452.98 1481.67 Q1449.92 1477.06 1449.92 1468.33 Q1449.92 1459.58 1452.98 1455 Q1456.06 1450.39 1461.87 1450.39 Z" fill="#9eb1be" fill-rule="nonzero" fill-opacity="1"></path><path clip-path="url(#clip890)" d="M1482.03 1479.7 L1486.91 1479.7 L1486.91 1485.58 L1482.03 1485.58 L1482.03 1479.7 Z" fill="#9eb1be" fill-rule="nonzero" fill-opacity="1"></path><path clip-path="url(#clip890)" d="M1497.24 1484.86 L1497.24 1480.6 Q1499 1481.44 1500.8 1481.88 Q1502.61 1482.32 1504.35 1482.32 Q1508.98 1482.32 1511.41 1479.21 Q1513.86 1476.09 1514.21 1469.75 Q1512.86 1471.74 1510.8 1472.8 Q1508.74 1473.87 1506.24 1473.87 Q1501.06 1473.87 1498.03 1470.74 Q1495.02 1467.59 1495.02 1462.15 Q1495.02 1456.83 1498.16 1453.61 Q1501.31 1450.39 1506.54 1450.39 Q1512.54 1450.39 1515.69 1455 Q1518.86 1459.58 1518.86 1468.33 Q1518.86 1476.51 1514.97 1481.39 Q1511.1 1486.25 1504.55 1486.25 Q1502.79 1486.25 1500.99 1485.9 Q1499.18 1485.56 1497.24 1484.86 M1506.54 1470.21 Q1509.69 1470.21 1511.52 1468.06 Q1513.37 1465.9 1513.37 1462.15 Q1513.37 1458.43 1511.52 1456.27 Q1509.69 1454.1 1506.54 1454.1 Q1503.4 1454.1 1501.54 1456.27 Q1499.72 1458.43 1499.72 1462.15 Q1499.72 1465.9 1501.54 1468.06 Q1503.4 1470.21 1506.54 1470.21 Z" fill="#9eb1be" fill-rule="nonzero" fill-opacity="1"></path><path clip-path="url(#clip890)" d="M1537.26 1454.1 Q1533.65 1454.1 1531.82 1457.66 Q1530.02 1461.2 1530.02 1468.33 Q1530.02 1475.44 1531.82 1479.01 Q1533.65 1482.55 1537.26 1482.55 Q1540.9 1482.55 1542.7 1479.01 Q1544.53 1475.44 1544.53 1468.33 Q1544.53 1461.2 1542.7 1457.66 Q1540.9 1454.1 1537.26 1454.1 M1537.26 1450.39 Q1543.07 1450.39 1546.13 1455 Q1549.21 1459.58 1549.21 1468.33 Q1549.21 1477.06 1546.13 1481.67 Q1543.07 1486.25 1537.26 1486.25 Q1531.45 1486.25 1528.37 1481.67 Q1525.32 1477.06 1525.32 1468.33 Q1525.32 1459.58 1528.37 1455 Q1531.45 1450.39 1537.26 1450.39 Z" fill="#9eb1be" fill-rule="nonzero" fill-opacity="1"></path><path clip-path="url(#clip890)" d="M1859.2 1454.1 Q1855.59 1454.1 1853.76 1457.66 Q1851.95 1461.2 1851.95 1468.33 Q1851.95 1475.44 1853.76 1479.01 Q1855.59 1482.55 1859.2 1482.55 Q1862.83 1482.55 1864.64 1479.01 Q1866.47 1475.44 1866.47 1468.33 Q1866.47 1461.2 1864.64 1457.66 Q1862.83 1454.1 1859.2 1454.1 M1859.2 1450.39 Q1865.01 1450.39 1868.06 1455 Q1871.14 1459.58 1871.14 1468.33 Q1871.14 1477.06 1868.06 1481.67 Q1865.01 1486.25 1859.2 1486.25 Q1853.39 1486.25 1850.31 1481.67 Q1847.25 1477.06 1847.25 1468.33 Q1847.25 1459.58 1850.31 1455 Q1853.39 1450.39 1859.2 1450.39 Z" fill="#9eb1be" fill-rule="nonzero" fill-opacity="1"></path><path clip-path="url(#clip890)" d="M1879.36 1479.7 L1884.25 1479.7 L1884.25 1485.58 L1879.36 1485.58 L1879.36 1479.7 Z" fill="#9eb1be" fill-rule="nonzero" fill-opacity="1"></path><path clip-path="url(#clip890)" d="M1894.57 1484.86 L1894.57 1480.6 Q1896.33 1481.44 1898.13 1481.88 Q1899.94 1482.32 1901.68 1482.32 Q1906.31 1482.32 1908.74 1479.21 Q1911.19 1476.09 1911.54 1469.75 Q1910.19 1471.74 1908.13 1472.8 Q1906.07 1473.87 1903.57 1473.87 Q1898.39 1473.87 1895.36 1470.74 Q1892.35 1467.59 1892.35 1462.15 Q1892.35 1456.83 1895.5 1453.61 Q1898.64 1450.39 1903.87 1450.39 Q1909.87 1450.39 1913.02 1455 Q1916.19 1459.58 1916.19 1468.33 Q1916.19 1476.51 1912.3 1481.39 Q1908.44 1486.25 1901.88 1486.25 Q1900.13 1486.25 1898.32 1485.9 Q1896.51 1485.56 1894.57 1484.86 M1903.87 1470.21 Q1907.02 1470.21 1908.85 1468.06 Q1910.7 1465.9 1910.7 1462.15 Q1910.7 1458.43 1908.85 1456.27 Q1907.02 1454.1 1903.87 1454.1 Q1900.73 1454.1 1898.88 1456.27 Q1897.05 1458.43 1897.05 1462.15 Q1897.05 1465.9 1898.88 1468.06 Q1900.73 1470.21 1903.87 1470.21 Z" fill="#9eb1be" fill-rule="nonzero" fill-opacity="1"></path><path clip-path="url(#clip890)" d="M1924.64 1451.02 L1943 1451.02 L1943 1454.96 L1928.92 1454.96 L1928.92 1463.43 Q1929.94 1463.08 1930.96 1462.92 Q1931.98 1462.73 1933 1462.73 Q1938.78 1462.73 1942.16 1465.9 Q1945.54 1469.08 1945.54 1474.49 Q1945.54 1480.07 1942.07 1483.17 Q1938.6 1486.25 1932.28 1486.25 Q1930.1 1486.25 1927.83 1485.88 Q1925.59 1485.51 1923.18 1484.77 L1923.18 1480.07 Q1925.26 1481.2 1927.49 1481.76 Q1929.71 1482.32 1932.19 1482.32 Q1936.19 1482.32 1938.53 1480.21 Q1940.87 1478.1 1940.87 1474.49 Q1940.87 1470.88 1938.53 1468.77 Q1936.19 1466.67 1932.19 1466.67 Q1930.31 1466.67 1928.44 1467.08 Q1926.58 1467.5 1924.64 1468.38 L1924.64 1451.02 Z" fill="#9eb1be" fill-rule="nonzero" fill-opacity="1"></path><path clip-path="url(#clip890)" d="M2245.3 1481.64 L2252.94 1481.64 L2252.94 1455.28 L2244.63 1456.95 L2244.63 1452.69 L2252.9 1451.02 L2257.57 1451.02 L2257.57 1481.64 L2265.21 1481.64 L2265.21 1485.58 L2245.3 1485.58 L2245.3 1481.64 Z" fill="#9eb1be" fill-rule="nonzero" fill-opacity="1"></path><path clip-path="url(#clip890)" d="M2274.65 1479.7 L2279.54 1479.7 L2279.54 1485.58 L2274.65 1485.58 L2274.65 1479.7 Z" fill="#9eb1be" fill-rule="nonzero" fill-opacity="1"></path><path clip-path="url(#clip890)" d="M2299.72 1454.1 Q2296.11 1454.1 2294.28 1457.66 Q2292.48 1461.2 2292.48 1468.33 Q2292.48 1475.44 2294.28 1479.01 Q2296.11 1482.55 2299.72 1482.55 Q2303.36 1482.55 2305.16 1479.01 Q2306.99 1475.44 2306.99 1468.33 Q2306.99 1461.2 2305.16 1457.66 Q2303.36 1454.1 2299.72 1454.1 M2299.72 1450.39 Q2305.53 1450.39 2308.59 1455 Q2311.67 1459.58 2311.67 1468.33 Q2311.67 1477.06 2308.59 1481.67 Q2305.53 1486.25 2299.72 1486.25 Q2293.91 1486.25 2290.84 1481.67 Q2287.78 1477.06 2287.78 1468.33 Q2287.78 1459.58 2290.84 1455 Q2293.91 1450.39 2299.72 1450.39 Z" fill="#9eb1be" fill-rule="nonzero" fill-opacity="1"></path><path clip-path="url(#clip890)" d="M2329.89 1454.1 Q2326.27 1454.1 2324.45 1457.66 Q2322.64 1461.2 2322.64 1468.33 Q2322.64 1475.44 2324.45 1479.01 Q2326.27 1482.55 2329.89 1482.55 Q2333.52 1482.55 2335.33 1479.01 Q2337.15 1475.44 2337.15 1468.33 Q2337.15 1461.2 2335.33 1457.66 Q2333.52 1454.1 2329.89 1454.1 M2329.89 1450.39 Q2335.7 1450.39 2338.75 1455 Q2341.83 1459.58 2341.83 1468.33 Q2341.83 1477.06 2338.75 1481.67 Q2335.7 1486.25 2329.89 1486.25 Q2324.08 1486.25 2321 1481.67 Q2317.94 1477.06 2317.94 1468.33 Q2317.94 1459.58 2321 1455 Q2324.08 1450.39 2329.89 1450.39 Z" fill="#9eb1be" fill-rule="nonzero" fill-opacity="1"></path><path clip-path="url(#clip890)" d="M1133.38 1520.52 L1139.81 1520.52 L1139.81 1540 L1163.17 1540 L1163.17 1520.52 L1169.6 1520.52 L1169.6 1568.04 L1163.17 1568.04 L1163.17 1545.41 L1139.81 1545.41 L1139.81 1568.04 L1133.38 1568.04 L1133.38 1520.52 Z" fill="#9eb1be" fill-rule="nonzero" fill-opacity="1"></path><path clip-path="url(#clip890)" d="M1195.96 1536.5 Q1191.25 1536.5 1188.51 1540.19 Q1185.77 1543.85 1185.77 1550.25 Q1185.77 1556.65 1188.48 1560.34 Q1191.21 1564 1195.96 1564 Q1200.63 1564 1203.37 1560.31 Q1206.11 1556.62 1206.11 1550.25 Q1206.11 1543.92 1203.37 1540.23 Q1200.63 1536.5 1195.96 1536.5 M1195.96 1531.54 Q1203.59 1531.54 1207.96 1536.5 Q1212.32 1541.47 1212.32 1550.25 Q1212.32 1559 1207.96 1564 Q1203.59 1568.97 1195.96 1568.97 Q1188.28 1568.97 1183.92 1564 Q1179.6 1559 1179.6 1550.25 Q1179.6 1541.47 1183.92 1536.5 Q1188.28 1531.54 1195.96 1531.54 Z" fill="#9eb1be" fill-rule="nonzero" fill-opacity="1"></path><path clip-path="url(#clip890)" d="M1227.69 1562.7 L1227.69 1581.6 L1221.8 1581.6 L1221.8 1532.4 L1227.69 1532.4 L1227.69 1537.81 Q1229.53 1534.62 1232.34 1533.1 Q1235.17 1531.54 1239.08 1531.54 Q1245.58 1531.54 1249.62 1536.69 Q1253.69 1541.85 1253.69 1550.25 Q1253.69 1558.65 1249.62 1563.81 Q1245.58 1568.97 1239.08 1568.97 Q1235.17 1568.97 1232.34 1567.44 Q1229.53 1565.88 1227.69 1562.7 M1247.61 1550.25 Q1247.61 1543.79 1244.94 1540.13 Q1242.3 1536.44 1237.65 1536.44 Q1233 1536.44 1230.33 1540.13 Q1227.69 1543.79 1227.69 1550.25 Q1227.69 1556.71 1230.33 1560.4 Q1233 1564.07 1237.65 1564.07 Q1242.3 1564.07 1244.94 1560.4 Q1247.61 1556.71 1247.61 1550.25 Z" fill="#9eb1be" fill-rule="nonzero" fill-opacity="1"></path><path clip-path="url(#clip890)" d="M1304.78 1537.87 Q1303.79 1537.3 1302.61 1537.04 Q1301.47 1536.76 1300.07 1536.76 Q1295.1 1536.76 1292.43 1540 Q1289.79 1543.22 1289.79 1549.27 L1289.79 1568.04 L1283.9 1568.04 L1283.9 1532.4 L1289.79 1532.4 L1289.79 1537.93 Q1291.63 1534.69 1294.59 1533.13 Q1297.55 1531.54 1301.79 1531.54 Q1302.39 1531.54 1303.12 1531.63 Q1303.85 1531.7 1304.75 1531.85 L1304.78 1537.87 Z" fill="#9eb1be" fill-rule="nonzero" fill-opacity="1"></path><path clip-path="url(#clip890)" d="M1327.12 1550.12 Q1320.02 1550.12 1317.29 1551.75 Q1314.55 1553.37 1314.55 1557.29 Q1314.55 1560.4 1316.59 1562.25 Q1318.65 1564.07 1322.19 1564.07 Q1327.06 1564.07 1329.99 1560.63 Q1332.95 1557.16 1332.95 1551.43 L1332.95 1550.12 L1327.12 1550.12 M1338.8 1547.71 L1338.8 1568.04 L1332.95 1568.04 L1332.95 1562.63 Q1330.94 1565.88 1327.95 1567.44 Q1324.96 1568.97 1320.63 1568.97 Q1315.15 1568.97 1311.91 1565.91 Q1308.69 1562.82 1308.69 1557.67 Q1308.69 1551.65 1312.7 1548.6 Q1316.74 1545.54 1324.73 1545.54 L1332.95 1545.54 L1332.95 1544.97 Q1332.95 1540.93 1330.27 1538.73 Q1327.63 1536.5 1322.82 1536.5 Q1319.77 1536.5 1316.87 1537.23 Q1313.98 1537.97 1311.3 1539.43 L1311.3 1534.02 Q1314.52 1532.78 1317.54 1532.17 Q1320.56 1531.54 1323.43 1531.54 Q1331.16 1531.54 1334.98 1535.55 Q1338.8 1539.56 1338.8 1547.71 Z" fill="#9eb1be" fill-rule="nonzero" fill-opacity="1"></path><path clip-path="url(#clip890)" d="M1356.66 1522.27 L1356.66 1532.4 L1368.72 1532.4 L1368.72 1536.95 L1356.66 1536.95 L1356.66 1556.3 Q1356.66 1560.66 1357.84 1561.9 Q1359.05 1563.14 1362.71 1563.14 L1368.72 1563.14 L1368.72 1568.04 L1362.71 1568.04 Q1355.93 1568.04 1353.35 1565.53 Q1350.77 1562.98 1350.77 1556.3 L1350.77 1536.95 L1346.47 1536.95 L1346.47 1532.4 L1350.77 1532.4 L1350.77 1522.27 L1356.66 1522.27 Z" fill="#9eb1be" fill-rule="nonzero" fill-opacity="1"></path><path clip-path="url(#clip890)" d="M1406.92 1548.76 L1406.92 1551.62 L1379.99 1551.62 Q1380.37 1557.67 1383.62 1560.85 Q1386.9 1564 1392.72 1564 Q1396.09 1564 1399.24 1563.17 Q1402.43 1562.35 1405.55 1560.69 L1405.55 1566.23 Q1402.4 1567.57 1399.09 1568.27 Q1395.78 1568.97 1392.37 1568.97 Q1383.84 1568.97 1378.84 1564 Q1373.88 1559.04 1373.88 1550.57 Q1373.88 1541.82 1378.59 1536.69 Q1383.33 1531.54 1391.35 1531.54 Q1398.54 1531.54 1402.71 1536.18 Q1406.92 1540.8 1406.92 1548.76 M1401.06 1547.04 Q1401 1542.23 1398.35 1539.37 Q1395.74 1536.5 1391.41 1536.5 Q1386.51 1536.5 1383.55 1539.27 Q1380.62 1542.04 1380.18 1547.07 L1401.06 1547.04 Z" fill="#9eb1be" fill-rule="nonzero" fill-opacity="1"></path><path clip-path="url(#clip890)" d="M1442.91 1562.7 L1442.91 1581.6 L1437.02 1581.6 L1437.02 1532.4 L1442.91 1532.4 L1442.91 1537.81 Q1444.76 1534.62 1447.56 1533.1 Q1450.39 1531.54 1454.31 1531.54 Q1460.8 1531.54 1464.84 1536.69 Q1468.92 1541.85 1468.92 1550.25 Q1468.92 1558.65 1464.84 1563.81 Q1460.8 1568.97 1454.31 1568.97 Q1450.39 1568.97 1447.56 1567.44 Q1444.76 1565.88 1442.91 1562.7 M1462.84 1550.25 Q1462.84 1543.79 1460.16 1540.13 Q1457.52 1536.44 1452.88 1536.44 Q1448.23 1536.44 1445.56 1540.13 Q1442.91 1543.79 1442.91 1550.25 Q1442.91 1556.71 1445.56 1560.4 Q1448.23 1564.07 1452.88 1564.07 Q1457.52 1564.07 1460.16 1560.4 Q1462.84 1556.71 1462.84 1550.25 Z" fill="#9eb1be" fill-rule="nonzero" fill-opacity="1"></path><polyline clip-path="url(#clip892)" style="stroke:#adb2b7; stroke-linecap:round; stroke-linejoin:round; stroke-width:2; stroke-opacity:0.1; fill:none" points="249.542,1372.95 2352.76,1372.95 "></polyline>
<polyline clip-path="url(#clip892)" style="stroke:#adb2b7; stroke-linecap:round; stroke-linejoin:round; stroke-width:2; stroke-opacity:0.1; fill:none" points="249.542,1148.79 2352.76,1148.79 "></polyline>
<polyline clip-path="url(#clip892)" style="stroke:#adb2b7; stroke-linecap:round; stroke-linejoin:round; stroke-width:2; stroke-opacity:0.1; fill:none" points="249.542,924.632 2352.76,924.632 "></polyline>
<polyline clip-path="url(#clip892)" style="stroke:#adb2b7; stroke-linecap:round; stroke-linejoin:round; stroke-width:2; stroke-opacity:0.1; fill:none" points="249.542,700.475 2352.76,700.475 "></polyline>
<polyline clip-path="url(#clip892)" style="stroke:#adb2b7; stroke-linecap:round; stroke-linejoin:round; stroke-width:2; stroke-opacity:0.1; fill:none" points="249.542,476.318 2352.76,476.318 "></polyline>
<polyline clip-path="url(#clip892)" style="stroke:#adb2b7; stroke-linecap:round; stroke-linejoin:round; stroke-width:2; stroke-opacity:0.1; fill:none" points="249.542,252.161 2352.76,252.161 "></polyline>
<polyline clip-path="url(#clip890)" style="stroke:#adb2b7; stroke-linecap:round; stroke-linejoin:round; stroke-width:4; stroke-opacity:1; fill:none" points="249.542,1423.18 249.542,123.472 "></polyline>
<polyline clip-path="url(#clip890)" style="stroke:#adb2b7; stroke-linecap:round; stroke-linejoin:round; stroke-width:4; stroke-opacity:1; fill:none" points="249.542,1372.95 268.44,1372.95 "></polyline>
<polyline clip-path="url(#clip890)" style="stroke:#adb2b7; stroke-linecap:round; stroke-linejoin:round; stroke-width:4; stroke-opacity:1; fill:none" points="249.542,1148.79 268.44,1148.79 "></polyline>
<polyline clip-path="url(#clip890)" style="stroke:#adb2b7; stroke-linecap:round; stroke-linejoin:round; stroke-width:4; stroke-opacity:1; fill:none" points="249.542,924.632 268.44,924.632 "></polyline>
<polyline clip-path="url(#clip890)" style="stroke:#adb2b7; stroke-linecap:round; stroke-linejoin:round; stroke-width:4; stroke-opacity:1; fill:none" points="249.542,700.475 268.44,700.475 "></polyline>
<polyline clip-path="url(#clip890)" style="stroke:#adb2b7; stroke-linecap:round; stroke-linejoin:round; stroke-width:4; stroke-opacity:1; fill:none" points="249.542,476.318 268.44,476.318 "></polyline>
<polyline clip-path="url(#clip890)" style="stroke:#adb2b7; stroke-linecap:round; stroke-linejoin:round; stroke-width:4; stroke-opacity:1; fill:none" points="249.542,252.161 268.44,252.161 "></polyline>
<path clip-path="url(#clip890)" d="M126.205 1358.74 Q122.593 1358.74 120.765 1362.31 Q118.959 1365.85 118.959 1372.98 Q118.959 1380.09 120.765 1383.65 Q122.593 1387.19 126.205 1387.19 Q129.839 1387.19 131.644 1383.65 Q133.473 1380.09 133.473 1372.98 Q133.473 1365.85 131.644 1362.31 Q129.839 1358.74 126.205 1358.74 M126.205 1355.04 Q132.015 1355.04 135.07 1359.65 Q138.149 1364.23 138.149 1372.98 Q138.149 1381.71 135.07 1386.31 Q132.015 1390.9 126.205 1390.9 Q120.394 1390.9 117.316 1386.31 Q114.26 1381.71 114.26 1372.98 Q114.26 1364.23 117.316 1359.65 Q120.394 1355.04 126.205 1355.04 Z" fill="#9eb1be" fill-rule="nonzero" fill-opacity="1"></path><path clip-path="url(#clip890)" d="M146.366 1384.35 L151.251 1384.35 L151.251 1390.23 L146.366 1390.23 L146.366 1384.35 Z" fill="#9eb1be" fill-rule="nonzero" fill-opacity="1"></path><path clip-path="url(#clip890)" d="M161.482 1355.67 L179.839 1355.67 L179.839 1359.6 L165.765 1359.6 L165.765 1368.07 Q166.783 1367.73 167.802 1367.56 Q168.82 1367.38 169.839 1367.38 Q175.626 1367.38 179.005 1370.55 Q182.385 1373.72 182.385 1379.14 Q182.385 1384.72 178.913 1387.82 Q175.44 1390.9 169.121 1390.9 Q166.945 1390.9 164.677 1390.53 Q162.431 1390.16 160.024 1389.42 L160.024 1384.72 Q162.107 1385.85 164.329 1386.41 Q166.552 1386.96 169.028 1386.96 Q173.033 1386.96 175.371 1384.86 Q177.709 1382.75 177.709 1379.14 Q177.709 1375.53 175.371 1373.42 Q173.033 1371.31 169.028 1371.31 Q167.153 1371.31 165.278 1371.73 Q163.427 1372.15 161.482 1373.03 L161.482 1355.67 Z" fill="#9eb1be" fill-rule="nonzero" fill-opacity="1"></path><path clip-path="url(#clip890)" d="M201.598 1358.74 Q197.987 1358.74 196.158 1362.31 Q194.352 1365.85 194.352 1372.98 Q194.352 1380.09 196.158 1383.65 Q197.987 1387.19 201.598 1387.19 Q205.232 1387.19 207.037 1383.65 Q208.866 1380.09 208.866 1372.98 Q208.866 1365.85 207.037 1362.31 Q205.232 1358.74 201.598 1358.74 M201.598 1355.04 Q207.408 1355.04 210.463 1359.65 Q213.542 1364.23 213.542 1372.98 Q213.542 1381.71 210.463 1386.31 Q207.408 1390.9 201.598 1390.9 Q195.787 1390.9 192.709 1386.31 Q189.653 1381.71 189.653 1372.98 Q189.653 1364.23 192.709 1359.65 Q195.787 1355.04 201.598 1355.04 Z" fill="#9eb1be" fill-rule="nonzero" fill-opacity="1"></path><path clip-path="url(#clip890)" d="M127.2 1134.59 Q123.589 1134.59 121.76 1138.15 Q119.955 1141.69 119.955 1148.82 Q119.955 1155.93 121.76 1159.5 Q123.589 1163.04 127.2 1163.04 Q130.834 1163.04 132.64 1159.5 Q134.468 1155.93 134.468 1148.82 Q134.468 1141.69 132.64 1138.15 Q130.834 1134.59 127.2 1134.59 M127.2 1130.88 Q133.01 1130.88 136.066 1135.49 Q139.144 1140.07 139.144 1148.82 Q139.144 1157.55 136.066 1162.16 Q133.01 1166.74 127.2 1166.74 Q121.39 1166.74 118.311 1162.16 Q115.256 1157.55 115.256 1148.82 Q115.256 1140.07 118.311 1135.49 Q121.39 1130.88 127.2 1130.88 Z" fill="#9eb1be" fill-rule="nonzero" fill-opacity="1"></path><path clip-path="url(#clip890)" d="M147.362 1160.19 L152.246 1160.19 L152.246 1166.07 L147.362 1166.07 L147.362 1160.19 Z" fill="#9eb1be" fill-rule="nonzero" fill-opacity="1"></path><path clip-path="url(#clip890)" d="M162.477 1131.51 L180.834 1131.51 L180.834 1135.44 L166.76 1135.44 L166.76 1143.92 Q167.778 1143.57 168.797 1143.41 Q169.815 1143.22 170.834 1143.22 Q176.621 1143.22 180.001 1146.39 Q183.38 1149.56 183.38 1154.98 Q183.38 1160.56 179.908 1163.66 Q176.436 1166.74 170.116 1166.74 Q167.94 1166.74 165.672 1166.37 Q163.427 1166 161.019 1165.26 L161.019 1160.56 Q163.102 1161.69 165.325 1162.25 Q167.547 1162.81 170.024 1162.81 Q174.028 1162.81 176.366 1160.7 Q178.704 1158.59 178.704 1154.98 Q178.704 1151.37 176.366 1149.26 Q174.028 1147.16 170.024 1147.16 Q168.149 1147.16 166.274 1147.57 Q164.422 1147.99 162.477 1148.87 L162.477 1131.51 Z" fill="#9eb1be" fill-rule="nonzero" fill-opacity="1"></path><path clip-path="url(#clip890)" d="M192.639 1131.51 L210.996 1131.51 L210.996 1135.44 L196.922 1135.44 L196.922 1143.92 Q197.94 1143.57 198.959 1143.41 Q199.977 1143.22 200.996 1143.22 Q206.783 1143.22 210.162 1146.39 Q213.542 1149.56 213.542 1154.98 Q213.542 1160.56 210.07 1163.66 Q206.598 1166.74 200.278 1166.74 Q198.102 1166.74 195.834 1166.37 Q193.588 1166 191.181 1165.26 L191.181 1160.56 Q193.264 1161.69 195.487 1162.25 Q197.709 1162.81 200.186 1162.81 Q204.19 1162.81 206.528 1160.7 Q208.866 1158.59 208.866 1154.98 Q208.866 1151.37 206.528 1149.26 Q204.19 1147.16 200.186 1147.16 Q198.311 1147.16 196.436 1147.57 Q194.584 1147.99 192.639 1148.87 L192.639 1131.51 Z" fill="#9eb1be" fill-rule="nonzero" fill-opacity="1"></path><path clip-path="url(#clip890)" d="M126.205 910.431 Q122.593 910.431 120.765 913.996 Q118.959 917.537 118.959 924.667 Q118.959 931.773 120.765 935.338 Q122.593 938.88 126.205 938.88 Q129.839 938.88 131.644 935.338 Q133.473 931.773 133.473 924.667 Q133.473 917.537 131.644 913.996 Q129.839 910.431 126.205 910.431 M126.205 906.727 Q132.015 906.727 135.07 911.333 Q138.149 915.917 138.149 924.667 Q138.149 933.394 135.07 938 Q132.015 942.583 126.205 942.583 Q120.394 942.583 117.316 938 Q114.26 933.394 114.26 924.667 Q114.26 915.917 117.316 911.333 Q120.394 906.727 126.205 906.727 Z" fill="#9eb1be" fill-rule="nonzero" fill-opacity="1"></path><path clip-path="url(#clip890)" d="M146.366 936.032 L151.251 936.032 L151.251 941.912 L146.366 941.912 L146.366 936.032 Z" fill="#9eb1be" fill-rule="nonzero" fill-opacity="1"></path><path clip-path="url(#clip890)" d="M172.014 922.769 Q168.866 922.769 167.015 924.921 Q165.186 927.074 165.186 930.824 Q165.186 934.551 167.015 936.727 Q168.866 938.88 172.014 938.88 Q175.163 938.88 176.991 936.727 Q178.843 934.551 178.843 930.824 Q178.843 927.074 176.991 924.921 Q175.163 922.769 172.014 922.769 M181.297 908.116 L181.297 912.375 Q179.538 911.542 177.732 911.102 Q175.95 910.662 174.19 910.662 Q169.561 910.662 167.107 913.787 Q164.677 916.912 164.329 923.232 Q165.695 921.218 167.755 920.153 Q169.815 919.065 172.292 919.065 Q177.501 919.065 180.51 922.236 Q183.542 925.384 183.542 930.824 Q183.542 936.148 180.394 939.366 Q177.246 942.583 172.014 942.583 Q166.019 942.583 162.848 938 Q159.677 933.394 159.677 924.667 Q159.677 916.472 163.565 911.611 Q167.454 906.727 174.005 906.727 Q175.764 906.727 177.547 907.074 Q179.352 907.421 181.297 908.116 Z" fill="#9eb1be" fill-rule="nonzero" fill-opacity="1"></path><path clip-path="url(#clip890)" d="M201.598 910.431 Q197.987 910.431 196.158 913.996 Q194.352 917.537 194.352 924.667 Q194.352 931.773 196.158 935.338 Q197.987 938.88 201.598 938.88 Q205.232 938.88 207.037 935.338 Q208.866 931.773 208.866 924.667 Q208.866 917.537 207.037 913.996 Q205.232 910.431 201.598 910.431 M201.598 906.727 Q207.408 906.727 210.463 911.333 Q213.542 915.917 213.542 924.667 Q213.542 933.394 210.463 938 Q207.408 942.583 201.598 942.583 Q195.787 942.583 192.709 938 Q189.653 933.394 189.653 924.667 Q189.653 915.917 192.709 911.333 Q195.787 906.727 201.598 906.727 Z" fill="#9eb1be" fill-rule="nonzero" fill-opacity="1"></path><path clip-path="url(#clip890)" d="M127.2 686.274 Q123.589 686.274 121.76 689.838 Q119.955 693.38 119.955 700.51 Q119.955 707.616 121.76 711.181 Q123.589 714.723 127.2 714.723 Q130.834 714.723 132.64 711.181 Q134.468 707.616 134.468 700.51 Q134.468 693.38 132.64 689.838 Q130.834 686.274 127.2 686.274 M127.2 682.57 Q133.01 682.57 136.066 687.176 Q139.144 691.76 139.144 700.51 Q139.144 709.236 136.066 713.843 Q133.01 718.426 127.2 718.426 Q121.39 718.426 118.311 713.843 Q115.256 709.236 115.256 700.51 Q115.256 691.76 118.311 687.176 Q121.39 682.57 127.2 682.57 Z" fill="#9eb1be" fill-rule="nonzero" fill-opacity="1"></path><path clip-path="url(#clip890)" d="M147.362 711.875 L152.246 711.875 L152.246 717.755 L147.362 717.755 L147.362 711.875 Z" fill="#9eb1be" fill-rule="nonzero" fill-opacity="1"></path><path clip-path="url(#clip890)" d="M173.01 698.612 Q169.862 698.612 168.01 700.764 Q166.181 702.917 166.181 706.667 Q166.181 710.394 168.01 712.57 Q169.862 714.723 173.01 714.723 Q176.158 714.723 177.987 712.57 Q179.839 710.394 179.839 706.667 Q179.839 702.917 177.987 700.764 Q176.158 698.612 173.01 698.612 M182.292 683.959 L182.292 688.218 Q180.533 687.385 178.727 686.945 Q176.945 686.505 175.186 686.505 Q170.556 686.505 168.102 689.63 Q165.672 692.755 165.325 699.074 Q166.69 697.061 168.751 695.996 Q170.811 694.908 173.288 694.908 Q178.496 694.908 181.505 698.079 Q184.538 701.227 184.538 706.667 Q184.538 711.991 181.389 715.209 Q178.241 718.426 173.01 718.426 Q167.015 718.426 163.843 713.843 Q160.672 709.236 160.672 700.51 Q160.672 692.315 164.561 687.454 Q168.45 682.57 175.001 682.57 Q176.76 682.57 178.542 682.917 Q180.348 683.264 182.292 683.959 Z" fill="#9eb1be" fill-rule="nonzero" fill-opacity="1"></path><path clip-path="url(#clip890)" d="M192.639 683.195 L210.996 683.195 L210.996 687.13 L196.922 687.13 L196.922 695.602 Q197.94 695.255 198.959 695.093 Q199.977 694.908 200.996 694.908 Q206.783 694.908 210.162 698.079 Q213.542 701.25 213.542 706.667 Q213.542 712.246 210.07 715.348 Q206.598 718.426 200.278 718.426 Q198.102 718.426 195.834 718.056 Q193.588 717.685 191.181 716.945 L191.181 712.246 Q193.264 713.38 195.487 713.936 Q197.709 714.491 200.186 714.491 Q204.19 714.491 206.528 712.385 Q208.866 710.278 208.866 706.667 Q208.866 703.056 206.528 700.949 Q204.19 698.843 200.186 698.843 Q198.311 698.843 196.436 699.26 Q194.584 699.676 192.639 700.556 L192.639 683.195 Z" fill="#9eb1be" fill-rule="nonzero" fill-opacity="1"></path><path clip-path="url(#clip890)" d="M126.205 462.117 Q122.593 462.117 120.765 465.681 Q118.959 469.223 118.959 476.353 Q118.959 483.459 120.765 487.024 Q122.593 490.565 126.205 490.565 Q129.839 490.565 131.644 487.024 Q133.473 483.459 133.473 476.353 Q133.473 469.223 131.644 465.681 Q129.839 462.117 126.205 462.117 M126.205 458.413 Q132.015 458.413 135.07 463.019 Q138.149 467.603 138.149 476.353 Q138.149 485.079 135.07 489.686 Q132.015 494.269 126.205 494.269 Q120.394 494.269 117.316 489.686 Q114.26 485.079 114.26 476.353 Q114.26 467.603 117.316 463.019 Q120.394 458.413 126.205 458.413 Z" fill="#9eb1be" fill-rule="nonzero" fill-opacity="1"></path><path clip-path="url(#clip890)" d="M146.366 487.718 L151.251 487.718 L151.251 493.598 L146.366 493.598 L146.366 487.718 Z" fill="#9eb1be" fill-rule="nonzero" fill-opacity="1"></path><path clip-path="url(#clip890)" d="M160.255 459.038 L182.477 459.038 L182.477 461.029 L169.931 493.598 L165.047 493.598 L176.852 462.973 L160.255 462.973 L160.255 459.038 Z" fill="#9eb1be" fill-rule="nonzero" fill-opacity="1"></path><path clip-path="url(#clip890)" d="M201.598 462.117 Q197.987 462.117 196.158 465.681 Q194.352 469.223 194.352 476.353 Q194.352 483.459 196.158 487.024 Q197.987 490.565 201.598 490.565 Q205.232 490.565 207.037 487.024 Q208.866 483.459 208.866 476.353 Q208.866 469.223 207.037 465.681 Q205.232 462.117 201.598 462.117 M201.598 458.413 Q207.408 458.413 210.463 463.019 Q213.542 467.603 213.542 476.353 Q213.542 485.079 210.463 489.686 Q207.408 494.269 201.598 494.269 Q195.787 494.269 192.709 489.686 Q189.653 485.079 189.653 476.353 Q189.653 467.603 192.709 463.019 Q195.787 458.413 201.598 458.413 Z" fill="#9eb1be" fill-rule="nonzero" fill-opacity="1"></path><path clip-path="url(#clip890)" d="M127.2 237.959 Q123.589 237.959 121.76 241.524 Q119.955 245.066 119.955 252.195 Q119.955 259.302 121.76 262.867 Q123.589 266.408 127.2 266.408 Q130.834 266.408 132.64 262.867 Q134.468 259.302 134.468 252.195 Q134.468 245.066 132.64 241.524 Q130.834 237.959 127.2 237.959 M127.2 234.256 Q133.01 234.256 136.066 238.862 Q139.144 243.445 139.144 252.195 Q139.144 260.922 136.066 265.529 Q133.01 270.112 127.2 270.112 Q121.39 270.112 118.311 265.529 Q115.256 260.922 115.256 252.195 Q115.256 243.445 118.311 238.862 Q121.39 234.256 127.2 234.256 Z" fill="#9eb1be" fill-rule="nonzero" fill-opacity="1"></path><path clip-path="url(#clip890)" d="M147.362 263.561 L152.246 263.561 L152.246 269.441 L147.362 269.441 L147.362 263.561 Z" fill="#9eb1be" fill-rule="nonzero" fill-opacity="1"></path><path clip-path="url(#clip890)" d="M161.251 234.881 L183.473 234.881 L183.473 236.871 L170.927 269.441 L166.042 269.441 L177.848 238.816 L161.251 238.816 L161.251 234.881 Z" fill="#9eb1be" fill-rule="nonzero" fill-opacity="1"></path><path clip-path="url(#clip890)" d="M192.639 234.881 L210.996 234.881 L210.996 238.816 L196.922 238.816 L196.922 247.288 Q197.94 246.941 198.959 246.779 Q199.977 246.594 200.996 246.594 Q206.783 246.594 210.162 249.765 Q213.542 252.936 213.542 258.353 Q213.542 263.931 210.07 267.033 Q206.598 270.112 200.278 270.112 Q198.102 270.112 195.834 269.742 Q193.588 269.371 191.181 268.631 L191.181 263.931 Q193.264 265.066 195.487 265.621 Q197.709 266.177 200.186 266.177 Q204.19 266.177 206.528 264.07 Q208.866 261.964 208.866 258.353 Q208.866 254.742 206.528 252.635 Q204.19 250.529 200.186 250.529 Q198.311 250.529 196.436 250.945 Q194.584 251.362 192.639 252.242 L192.639 234.881 Z" fill="#9eb1be" fill-rule="nonzero" fill-opacity="1"></path><path clip-path="url(#clip890)" d="M16.5884 1016.02 L16.5884 1006.44 L48.9262 994.317 L16.5884 982.126 L16.5884 972.546 L64.1084 972.546 L64.1084 978.816 L22.3812 978.816 L54.9736 991.07 L54.9736 997.531 L22.3812 1009.79 L64.1084 1009.79 L64.1084 1016.02 L16.5884 1016.02 Z" fill="#9eb1be" fill-rule="nonzero" fill-opacity="1"></path><path clip-path="url(#clip890)" d="M44.8203 929.546 L47.6849 929.546 L47.6849 956.473 Q53.7323 956.091 56.9151 952.844 Q60.0662 949.566 60.0662 943.741 Q60.0662 940.367 59.2386 937.216 Q58.4111 934.033 56.756 930.914 L62.2942 930.914 Q63.631 934.065 64.3312 937.375 Q65.0314 940.686 65.0314 944.091 Q65.0314 952.621 60.0662 957.618 Q55.1009 962.584 46.6345 962.584 Q37.8817 962.584 32.7573 957.873 Q27.6011 953.131 27.6011 945.11 Q27.6011 937.917 32.248 933.747 Q36.8632 929.546 44.8203 929.546 M43.1016 935.402 Q38.2954 935.466 35.4309 938.107 Q32.5663 940.717 32.5663 945.046 Q32.5663 949.948 35.3354 952.908 Q38.1045 955.836 43.1334 956.282 L43.1016 935.402 Z" fill="#9eb1be" fill-rule="nonzero" fill-opacity="1"></path><path clip-path="url(#clip890)" d="M46.1889 903.733 Q46.1889 910.83 47.8122 913.568 Q49.4354 916.305 53.3503 916.305 Q56.4695 916.305 58.3156 914.268 Q60.1298 912.199 60.1298 908.666 Q60.1298 903.796 56.6923 900.868 Q53.223 897.908 47.4939 897.908 L46.1889 897.908 L46.1889 903.733 M43.7699 892.052 L64.1084 892.052 L64.1084 897.908 L58.6975 897.908 Q61.944 899.913 63.5036 902.905 Q65.0314 905.897 65.0314 910.226 Q65.0314 915.7 61.9759 918.947 Q58.8885 922.161 53.7323 922.161 Q47.7167 922.161 44.6611 918.151 Q41.6056 914.109 41.6056 906.12 L41.6056 897.908 L41.0327 897.908 Q36.9905 897.908 34.7943 900.582 Q32.5663 903.223 32.5663 908.03 Q32.5663 911.085 33.2984 913.981 Q34.0304 916.878 35.4945 919.551 L30.0837 919.551 Q28.8424 916.337 28.2376 913.313 Q27.6011 910.289 27.6011 907.425 Q27.6011 899.69 31.6115 895.871 Q35.6218 892.052 43.7699 892.052 Z" fill="#9eb1be" fill-rule="nonzero" fill-opacity="1"></path><path clip-path="url(#clip890)" d="M42.5923 850.356 L64.1084 850.356 L64.1084 856.213 L42.7833 856.213 Q37.7225 856.213 35.2081 858.186 Q32.6936 860.159 32.6936 864.106 Q32.6936 868.849 35.7173 871.586 Q38.741 874.323 43.9609 874.323 L64.1084 874.323 L64.1084 880.211 L28.4604 880.211 L28.4604 874.323 L33.9986 874.323 Q30.7839 872.222 29.1925 869.39 Q27.6011 866.525 27.6011 862.801 Q27.6011 856.658 31.4205 853.507 Q35.2081 850.356 42.5923 850.356 Z" fill="#9eb1be" fill-rule="nonzero" fill-opacity="1"></path><path clip-path="url(#clip890)" d="M33.8713 794.497 L14.5832 794.497 L14.5832 788.641 L64.1084 788.641 L64.1084 794.497 L58.7612 794.497 Q61.944 796.343 63.5036 799.176 Q65.0314 801.977 65.0314 805.924 Q65.0314 812.385 59.8752 816.459 Q54.719 820.501 46.3162 820.501 Q37.9135 820.501 32.7573 816.459 Q27.6011 812.385 27.6011 805.924 Q27.6011 801.977 29.1607 799.176 Q30.6884 796.343 33.8713 794.497 M46.3162 814.454 Q52.7774 814.454 56.4695 811.812 Q60.1298 809.138 60.1298 804.491 Q60.1298 799.844 56.4695 797.171 Q52.7774 794.497 46.3162 794.497 Q39.855 794.497 36.1948 797.171 Q32.5026 799.844 32.5026 804.491 Q32.5026 809.138 36.1948 811.812 Q39.855 814.454 46.3162 814.454 Z" fill="#9eb1be" fill-rule="nonzero" fill-opacity="1"></path><path clip-path="url(#clip890)" d="M44.8203 746.086 L47.6849 746.086 L47.6849 773.013 Q53.7323 772.631 56.9151 769.384 Q60.0662 766.106 60.0662 760.281 Q60.0662 756.908 59.2386 753.757 Q58.4111 750.574 56.756 747.455 L62.2942 747.455 Q63.631 750.606 64.3312 753.916 Q65.0314 757.226 65.0314 760.632 Q65.0314 769.162 60.0662 774.159 Q55.1009 779.124 46.6345 779.124 Q37.8817 779.124 32.7573 774.413 Q27.6011 769.671 27.6011 761.65 Q27.6011 754.457 32.248 750.287 Q36.8632 746.086 44.8203 746.086 M43.1016 751.942 Q38.2954 752.006 35.4309 754.648 Q32.5663 757.258 32.5663 761.586 Q32.5663 766.488 35.3354 769.448 Q38.1045 772.376 43.1334 772.822 L43.1016 751.942 Z" fill="#9eb1be" fill-rule="nonzero" fill-opacity="1"></path><path clip-path="url(#clip890)" d="M42.5923 706.841 L64.1084 706.841 L64.1084 712.698 L42.7833 712.698 Q37.7225 712.698 35.2081 714.671 Q32.6936 716.645 32.6936 720.591 Q32.6936 725.334 35.7173 728.071 Q38.741 730.808 43.9609 730.808 L64.1084 730.808 L64.1084 736.697 L28.4604 736.697 L28.4604 730.808 L33.9986 730.808 Q30.7839 728.708 29.1925 725.875 Q27.6011 723.01 27.6011 719.286 Q27.6011 713.143 31.4205 709.992 Q35.2081 706.841 42.5923 706.841 Z" fill="#9eb1be" fill-rule="nonzero" fill-opacity="1"></path><path clip-path="url(#clip890)" d="M29.5108 672.435 L35.0489 672.435 Q33.7758 674.917 33.1392 677.591 Q32.5026 680.265 32.5026 683.129 Q32.5026 687.49 33.8394 689.686 Q35.1762 691.85 37.8498 691.85 Q39.8869 691.85 41.0645 690.291 Q42.2104 688.731 43.2607 684.02 L43.7063 682.015 Q45.0431 675.777 47.4939 673.167 Q49.9129 670.525 54.2734 670.525 Q59.2386 670.525 62.135 674.472 Q65.0314 678.387 65.0314 685.262 Q65.0314 688.126 64.4585 691.245 Q63.9174 694.333 62.8034 697.77 L56.756 697.77 Q58.4429 694.524 59.3023 691.373 Q60.1298 688.222 60.1298 685.134 Q60.1298 680.997 58.7294 678.769 Q57.2971 676.541 54.719 676.541 Q52.3318 676.541 51.0587 678.164 Q49.7855 679.755 48.6079 685.198 L48.1305 687.235 Q46.9846 692.678 44.6293 695.097 Q42.2422 697.516 38.1045 697.516 Q33.0756 697.516 30.3383 693.951 Q27.6011 690.386 27.6011 683.829 Q27.6011 680.583 28.0785 677.718 Q28.5559 674.854 29.5108 672.435 Z" fill="#9eb1be" fill-rule="nonzero" fill-opacity="1"></path><path clip-path="url(#clip890)" d="M28.4604 661.199 L28.4604 655.343 L64.1084 655.343 L64.1084 661.199 L28.4604 661.199 M14.5832 661.199 L14.5832 655.343 L21.9992 655.343 L21.9992 661.199 L14.5832 661.199 Z" fill="#9eb1be" fill-rule="nonzero" fill-opacity="1"></path><path clip-path="url(#clip890)" d="M18.339 637.296 L28.4604 637.296 L28.4604 625.233 L33.0119 625.233 L33.0119 637.296 L52.3637 637.296 Q56.7242 637.296 57.9655 636.118 Q59.2068 634.909 59.2068 631.249 L59.2068 625.233 L64.1084 625.233 L64.1084 631.249 Q64.1084 638.028 61.5939 640.606 Q59.0476 643.184 52.3637 643.184 L33.0119 643.184 L33.0119 647.481 L28.4604 647.481 L28.4604 643.184 L18.339 643.184 L18.339 637.296 Z" fill="#9eb1be" fill-rule="nonzero" fill-opacity="1"></path><path clip-path="url(#clip890)" d="M67.4185 602.698 Q73.7843 605.181 75.7258 607.536 Q77.6673 609.892 77.6673 613.838 L77.6673 618.517 L72.7657 618.517 L72.7657 615.08 Q72.7657 612.661 71.6199 611.324 Q70.4741 609.987 66.2091 608.364 L63.5355 607.314 L28.4604 621.732 L28.4604 615.525 L56.3422 604.385 L28.4604 593.245 L28.4604 587.039 L67.4185 602.698 Z" fill="#9eb1be" fill-rule="nonzero" fill-opacity="1"></path><path clip-path="url(#clip890)" d="M24.8142 564.377 L24.8142 530.628 L21.2942 530.628 L21.2942 564.377  Z" fill="#9eb1be" fill-rule="evenodd" fill-opacity="1"></path>
<path clip-path="url(#clip890)" d="M45.2996 533.234 Q50.0661 533.234 54.5427 535.681 Q59.0193 538.097 61.7246 541.897 Q64.4299 545.665 64.4299 549.466 Q64.4299 553.749 59.9855 555.971 Q76.1206 559.997 76.5393 560.222 Q77.9242 561.156 77.9242 562.509 Q77.9242 563.346 77.4089 563.862 Q76.9258 564.377 76.1529 564.377 Q75.8952 564.345 75.0901 564.151 L49.1643 557.71 Q43.1418 556.229 38.8585 551.752 Q34.5429 547.243 34.5429 542.412 Q34.5429 538.58 37.4092 535.907 Q40.2755 533.234 45.2996 533.234 M42.4655 537.968 Q39.2449 537.968 37.6346 539.256 Q35.9921 540.545 35.9921 542.541 Q35.9921 544.377 37.4736 546.599 Q38.9551 548.789 42.2401 550.722 Q44.1402 551.752 46.4913 552.493 Q48.8423 553.234 54.6393 554.683 Q56.9582 555.198 57.087 555.198 Q57.3446 555.198 57.9243 555.069 Q58.504 554.908 59.4058 554.522 Q60.2754 554.103 61.0483 553.523 Q61.8212 552.944 62.4009 551.881 Q62.9484 550.818 62.9484 549.53 Q62.9484 547.533 61.3382 545.408 Q59.6957 543.25 56.7005 541.672 Q54.2851 540.351 49.744 539.16 Q45.1708 537.968 42.4655 537.968 Z" fill="#9eb1be" fill-rule="nonzero" fill-opacity="1"></path><path clip-path="url(#clip890)" d="M1046.31 25.2259 L1089.26 25.2259 L1089.26 20.7459 L1046.31 20.7459  Z" fill="#adb2b7" fill-rule="evenodd" fill-opacity="1"></path>
<path clip-path="url(#clip890)" d="M1085.94 51.5554 Q1085.94 57.6218 1082.83 63.3193 Q1079.75 69.0168 1074.92 72.4599 Q1070.12 75.903 1065.29 75.903 Q1059.83 75.903 1057.01 70.2465 Q1051.88 90.7821 1051.6 91.315 Q1050.41 93.0775 1048.69 93.0775 Q1047.62 93.0775 1046.96 92.4217 Q1046.31 91.8069 1046.31 90.8231 Q1046.35 90.4952 1046.59 89.4705 L1054.79 56.4741 Q1056.68 48.8091 1062.38 43.3575 Q1068.11 37.865 1074.26 37.865 Q1079.14 37.865 1082.54 41.513 Q1085.94 45.1611 1085.94 51.5554 M1079.92 47.9483 Q1079.92 43.8494 1078.28 41.7999 Q1076.64 39.7095 1074.1 39.7095 Q1071.76 39.7095 1068.93 41.595 Q1066.15 43.4805 1063.69 47.6614 Q1062.38 50.0798 1061.43 53.072 Q1060.49 56.0642 1058.65 63.4423 Q1057.99 66.3935 1057.99 66.5575 Q1057.99 66.8854 1058.15 67.6232 Q1058.36 68.361 1058.85 69.5087 Q1059.38 70.6154 1060.12 71.5991 Q1060.86 72.5829 1062.21 73.3207 Q1063.56 74.0175 1065.2 74.0175 Q1067.75 74.0175 1070.45 71.968 Q1073.2 69.8776 1075.21 66.0656 Q1076.89 62.9914 1078.4 57.2119 Q1079.92 51.3914 1079.92 47.9483 Z" fill="#adb2b7" fill-rule="nonzero" fill-opacity="1"></path><path clip-path="url(#clip890)" d="M1089.26 54.2346 Q1089.26 40.0523 1094.55 28.6163 Q1096.8 23.8205 1099.96 19.8036 Q1103.11 15.7866 1105.2 14.0241 Q1107.29 12.2615 1107.87 12.2615 Q1108.69 12.2615 1108.73 13.0813 Q1108.73 13.4912 1107.62 14.5159 Q1094.09 28.2883 1094.14 54.2346 Q1094.14 80.2627 1107.29 93.5023 Q1108.73 94.9369 1108.73 95.3878 Q1108.73 96.2076 1107.87 96.2076 Q1107.29 96.2076 1105.29 94.527 Q1103.28 92.8465 1100.16 88.9935 Q1097.05 85.1405 1094.79 80.4267 Q1089.26 68.9907 1089.26 54.2346 Z" fill="#adb2b7" fill-rule="nonzero" fill-opacity="1"></path><path clip-path="url(#clip890)" d="M1153.93 51.5293 Q1153.93 57.5137 1150.89 63.2932 Q1147.9 69.0727 1143.19 72.6387 Q1138.47 76.1638 1133.68 76.1638 Q1130.81 76.1638 1128.88 74.6062 Q1127 73.0076 1125.97 70.7532 Q1125.19 73.5405 1123.51 80.2218 Q1121.83 86.903 1121.83 87.5588 Q1121.83 87.9277 1121.91 88.0917 Q1122 88.2557 1122.36 88.4606 Q1122.73 88.7065 1123.63 88.7885 Q1124.54 88.9115 1126.05 88.9115 Q1126.83 88.9115 1127.12 88.9115 Q1127.45 88.9525 1127.73 89.1574 Q1128.06 89.3624 1128.06 89.8132 Q1128.06 91.4938 1126.55 91.4938 Q1125.19 91.4938 1122.41 91.3708 Q1119.62 91.2479 1118.22 91.2479 Q1117.04 91.2479 1114.66 91.3708 Q1112.28 91.4938 1111.17 91.4938 Q1110.07 91.4938 1110.07 90.5101 Q1110.07 89.9362 1110.23 89.5673 Q1110.35 89.2394 1110.68 89.0754 Q1111.01 88.9525 1111.3 88.9115 Q1111.54 88.9115 1112.03 88.9115 Q1113.92 88.9115 1114.74 88.5836 Q1115.56 88.2966 1115.85 87.6818 Q1116.17 87.108 1116.54 85.4684 L1125.97 48.0862 Q1126.55 45.5858 1126.55 43.8233 Q1126.55 41.6099 1125.85 40.7901 Q1125.15 39.9703 1123.92 39.9703 Q1121.79 39.9703 1120.4 42.5116 Q1119 45.053 1117.81 49.9717 Q1117.45 51.3243 1117.2 51.6112 Q1116.99 51.8982 1116.38 51.8982 Q1115.36 51.8572 1115.36 51.0374 Q1115.36 50.8324 1115.68 49.5208 Q1116.01 48.1681 1116.63 46.2007 Q1117.28 44.1922 1117.98 42.9215 Q1118.39 42.0607 1118.76 41.4869 Q1119.13 40.913 1119.86 40.0113 Q1120.64 39.1095 1121.75 38.6176 Q1122.86 38.1258 1124.21 38.1258 Q1126.83 38.1258 1129 39.6834 Q1131.18 41.241 1131.75 44.3971 Q1134.09 41.6508 1136.96 39.8883 Q1139.83 38.1258 1142.74 38.1258 Q1147.57 38.1258 1150.73 41.8968 Q1153.93 45.6268 1153.93 51.5293 M1147.86 47.8402 Q1147.86 44.1102 1146.42 42.0607 Q1145.03 39.9703 1142.49 39.9703 Q1139.33 39.9703 1135.69 43.1674 Q1132.08 46.2007 1131.34 49.0289 L1127.2 65.4656 L1126.96 66.8183 Q1126.96 67.0642 1127.08 67.802 Q1127.24 68.4988 1127.69 69.6465 Q1128.18 70.7942 1128.84 71.819 Q1129.54 72.8027 1130.77 73.5405 Q1132.04 74.2783 1133.6 74.2783 Q1136.1 74.2783 1138.8 72.0649 Q1141.55 69.8515 1143.6 65.6706 Q1144.87 62.9653 1146.34 57.1448 Q1147.86 51.2833 1147.86 47.8402 Z" fill="#adb2b7" fill-rule="nonzero" fill-opacity="1"></path><path clip-path="url(#clip890)" d="M1159.95 95.3878 Q1159.95 94.9779 1161.01 93.9532 Q1174.54 80.1808 1174.54 54.2346 Q1174.54 28.2064 1161.54 15.0488 Q1159.95 13.5322 1159.95 13.0813 Q1159.95 12.2615 1160.77 12.2615 Q1161.34 12.2615 1163.35 13.9421 Q1165.4 15.6227 1168.47 19.4756 Q1171.59 23.3286 1173.88 28.0424 Q1179.42 39.4784 1179.42 54.2346 Q1179.42 68.4168 1174.13 79.8529 Q1171.87 84.6486 1168.72 88.6655 Q1165.56 92.6825 1163.47 94.445 Q1161.38 96.2076 1160.77 96.2076 Q1159.95 96.2076 1159.95 95.3878 Z" fill="#adb2b7" fill-rule="nonzero" fill-opacity="1"></path><path clip-path="url(#clip890)" d="M1192.18 49.1737 L1214.01 49.1737 L1214.01 55.8172 L1192.18 55.8172 L1192.18 49.1737 Z" fill="#adb2b7" fill-rule="nonzero" fill-opacity="1"></path><path clip-path="url(#clip890)" d="M1255.74 36.7375 L1255.74 12.189 L1263.19 12.189 L1263.19 75.2211 L1255.74 75.2211 L1255.74 68.4155 Q1253.39 72.4664 1249.78 74.4514 Q1246.22 76.3958 1241.19 76.3958 Q1232.97 76.3958 1227.79 69.8334 Q1222.64 63.2709 1222.64 52.5765 Q1222.64 41.8821 1227.79 35.3197 Q1232.97 28.7572 1241.19 28.7572 Q1246.22 28.7572 1249.78 30.7421 Q1253.39 32.6866 1255.74 36.7375 M1230.34 52.5765 Q1230.34 60.7998 1233.7 65.4989 Q1237.1 70.1574 1243.02 70.1574 Q1248.93 70.1574 1252.33 65.4989 Q1255.74 60.7998 1255.74 52.5765 Q1255.74 44.3532 1252.33 39.6946 Q1248.93 34.9956 1243.02 34.9956 Q1237.1 34.9956 1233.7 39.6946 Q1230.34 44.3532 1230.34 52.5765 Z" fill="#adb2b7" fill-rule="nonzero" fill-opacity="1"></path><path clip-path="url(#clip890)" d="M1278.54 29.8509 L1286 29.8509 L1286 75.2211 L1278.54 75.2211 L1278.54 29.8509 M1278.54 12.189 L1286 12.189 L1286 21.6276 L1278.54 21.6276 L1278.54 12.189 Z" fill="#adb2b7" fill-rule="nonzero" fill-opacity="1"></path><path clip-path="url(#clip890)" d="M1322.21 52.4145 Q1313.18 52.4145 1309.7 54.4804 Q1306.21 56.5464 1306.21 61.529 Q1306.21 65.4989 1308.8 67.8484 Q1311.44 70.1574 1315.93 70.1574 Q1322.13 70.1574 1325.86 65.7825 Q1329.63 61.367 1329.63 54.0753 L1329.63 52.4145 L1322.21 52.4145 M1337.08 49.3358 L1337.08 75.2211 L1329.63 75.2211 L1329.63 68.3345 Q1327.07 72.4664 1323.27 74.4514 Q1319.46 76.3958 1313.95 76.3958 Q1306.98 76.3958 1302.85 72.507 Q1298.76 68.5776 1298.76 62.0151 Q1298.76 54.3589 1303.86 50.47 Q1309.01 46.5812 1319.17 46.5812 L1329.63 46.5812 L1329.63 45.852 Q1329.63 40.7074 1326.22 37.9122 Q1322.86 35.0766 1316.74 35.0766 Q1312.86 35.0766 1309.17 36.0083 Q1305.48 36.94 1302.08 38.8034 L1302.08 31.9169 Q1306.17 30.337 1310.02 29.5674 Q1313.87 28.7572 1317.51 28.7572 Q1327.36 28.7572 1332.22 33.8613 Q1337.08 38.9655 1337.08 49.3358 Z" fill="#adb2b7" fill-rule="nonzero" fill-opacity="1"></path><path clip-path="url(#clip890)" d="M1382.29 52.0094 Q1382.29 43.9076 1378.93 39.4516 Q1375.6 34.9956 1369.57 34.9956 Q1363.57 34.9956 1360.21 39.4516 Q1356.89 43.9076 1356.89 52.0094 Q1356.89 60.0707 1360.21 64.5267 Q1363.57 68.9827 1369.57 68.9827 Q1375.6 68.9827 1378.93 64.5267 Q1382.29 60.0707 1382.29 52.0094 M1389.74 69.5903 Q1389.74 81.1759 1384.6 86.8066 Q1379.45 92.4779 1368.84 92.4779 Q1364.91 92.4779 1361.43 91.8703 Q1357.94 91.3032 1354.66 90.0879 L1354.66 82.8368 Q1357.94 84.6192 1361.14 85.4699 Q1364.34 86.3205 1367.66 86.3205 Q1375 86.3205 1378.64 82.4722 Q1382.29 78.6643 1382.29 70.9271 L1382.29 67.2408 Q1379.98 71.2512 1376.37 73.2361 Q1372.77 75.2211 1367.74 75.2211 Q1359.4 75.2211 1354.3 68.8611 Q1349.19 62.5012 1349.19 52.0094 Q1349.19 41.477 1354.3 35.1171 Q1359.4 28.7572 1367.74 28.7572 Q1372.77 28.7572 1376.37 30.7421 Q1379.98 32.7271 1382.29 36.7375 L1382.29 29.8509 L1389.74 29.8509 L1389.74 69.5903 Z" fill="#adb2b7" fill-rule="nonzero" fill-opacity="1"></path><path clip-path="url(#clip890)" d="M1431.38 36.8185 Q1430.13 36.0893 1428.63 35.7653 Q1427.17 35.4007 1425.39 35.4007 Q1419.07 35.4007 1415.67 39.5326 Q1412.3 43.624 1412.3 51.3207 L1412.3 75.2211 L1404.81 75.2211 L1404.81 29.8509 L1412.3 29.8509 L1412.3 36.8995 Q1414.65 32.7676 1418.42 30.7826 Q1422.19 28.7572 1427.58 28.7572 Q1428.35 28.7572 1429.28 28.8787 Q1430.21 28.9597 1431.34 29.1623 L1431.38 36.8185 Z" fill="#adb2b7" fill-rule="nonzero" fill-opacity="1"></path><path clip-path="url(#clip890)" d="M1459.82 52.4145 Q1450.79 52.4145 1447.3 54.4804 Q1443.82 56.5464 1443.82 61.529 Q1443.82 65.4989 1446.41 67.8484 Q1449.05 70.1574 1453.54 70.1574 Q1459.74 70.1574 1463.47 65.7825 Q1467.23 61.367 1467.23 54.0753 L1467.23 52.4145 L1459.82 52.4145 M1474.69 49.3358 L1474.69 75.2211 L1467.23 75.2211 L1467.23 68.3345 Q1464.68 72.4664 1460.88 74.4514 Q1457.07 76.3958 1451.56 76.3958 Q1444.59 76.3958 1440.46 72.507 Q1436.37 68.5776 1436.37 62.0151 Q1436.37 54.3589 1441.47 50.47 Q1446.62 46.5812 1456.78 46.5812 L1467.23 46.5812 L1467.23 45.852 Q1467.23 40.7074 1463.83 37.9122 Q1460.47 35.0766 1454.35 35.0766 Q1450.46 35.0766 1446.78 36.0083 Q1443.09 36.94 1439.69 38.8034 L1439.69 31.9169 Q1443.78 30.337 1447.63 29.5674 Q1451.48 28.7572 1455.12 28.7572 Q1464.97 28.7572 1469.83 33.8613 Q1474.69 38.9655 1474.69 49.3358 Z" fill="#adb2b7" fill-rule="nonzero" fill-opacity="1"></path><path clip-path="url(#clip890)" d="M1525.37 38.5604 Q1528.16 33.5373 1532.05 31.1472 Q1535.94 28.7572 1541.2 28.7572 Q1548.29 28.7572 1552.14 33.7398 Q1555.99 38.6819 1555.99 47.8369 L1555.99 75.2211 L1548.5 75.2211 L1548.5 48.08 Q1548.5 41.558 1546.19 38.3983 Q1543.88 35.2386 1539.14 35.2386 Q1533.35 35.2386 1529.98 39.087 Q1526.62 42.9354 1526.62 49.5788 L1526.62 75.2211 L1519.13 75.2211 L1519.13 48.08 Q1519.13 41.5175 1516.82 38.3983 Q1514.51 35.2386 1509.69 35.2386 Q1503.98 35.2386 1500.61 39.1275 Q1497.25 42.9759 1497.25 49.5788 L1497.25 75.2211 L1489.76 75.2211 L1489.76 29.8509 L1497.25 29.8509 L1497.25 36.8995 Q1499.8 32.7271 1503.37 30.7421 Q1506.93 28.7572 1511.84 28.7572 Q1516.78 28.7572 1520.22 31.2688 Q1523.7 33.7803 1525.37 38.5604 Z" fill="#adb2b7" fill-rule="nonzero" fill-opacity="1"></path><polyline clip-path="url(#clip892)" style="stroke:#adb2b7; stroke-linecap:round; stroke-linejoin:round; stroke-width:4; stroke-opacity:1; fill:none" points="2293.23,386.207 2293.23,160.256 "></polyline>
<polyline clip-path="url(#clip892)" style="stroke:#adb2b7; stroke-linecap:round; stroke-linejoin:round; stroke-width:4; stroke-opacity:1; fill:none" points="1896.4,575.395 1896.4,331.512 "></polyline>
<polyline clip-path="url(#clip892)" style="stroke:#adb2b7; stroke-linecap:round; stroke-linejoin:round; stroke-width:4; stroke-opacity:1; fill:none" points="1499.57,783.413 1499.57,519.804 "></polyline>
<polyline clip-path="url(#clip892)" style="stroke:#adb2b7; stroke-linecap:round; stroke-linejoin:round; stroke-width:4; stroke-opacity:1; fill:none" points="1102.73,1008.02 1102.73,730.064 "></polyline>
<polyline clip-path="url(#clip892)" style="stroke:#adb2b7; stroke-linecap:round; stroke-linejoin:round; stroke-width:4; stroke-opacity:1; fill:none" points="705.9,1245.18 705.9,969.912 "></polyline>
<polyline clip-path="url(#clip892)" style="stroke:#adb2b7; stroke-linecap:round; stroke-linejoin:round; stroke-width:4; stroke-opacity:1; fill:none" points="309.067,1386.4 309.067,1138.03 "></polyline>
<line clip-path="url(#clip892)" x1="2309.23" y1="386.207" x2="2277.23" y2="386.207" style="stroke:#adb2b7; stroke-width:4; stroke-opacity:1"></line>
<line clip-path="url(#clip892)" x1="2309.23" y1="160.256" x2="2277.23" y2="160.256" style="stroke:#adb2b7; stroke-width:4; stroke-opacity:1"></line>
<line clip-path="url(#clip892)" x1="1912.4" y1="575.395" x2="1880.4" y2="575.395" style="stroke:#adb2b7; stroke-width:4; stroke-opacity:1"></line>
<line clip-path="url(#clip892)" x1="1912.4" y1="331.512" x2="1880.4" y2="331.512" style="stroke:#adb2b7; stroke-width:4; stroke-opacity:1"></line>
<line clip-path="url(#clip892)" x1="1515.57" y1="783.413" x2="1483.57" y2="783.413" style="stroke:#adb2b7; stroke-width:4; stroke-opacity:1"></line>
<line clip-path="url(#clip892)" x1="1515.57" y1="519.804" x2="1483.57" y2="519.804" style="stroke:#adb2b7; stroke-width:4; stroke-opacity:1"></line>
<line clip-path="url(#clip892)" x1="1118.73" y1="1008.02" x2="1086.73" y2="1008.02" style="stroke:#adb2b7; stroke-width:4; stroke-opacity:1"></line>
<line clip-path="url(#clip892)" x1="1118.73" y1="730.064" x2="1086.73" y2="730.064" style="stroke:#adb2b7; stroke-width:4; stroke-opacity:1"></line>
<line clip-path="url(#clip892)" x1="721.9" y1="1245.18" x2="689.9" y2="1245.18" style="stroke:#adb2b7; stroke-width:4; stroke-opacity:1"></line>
<line clip-path="url(#clip892)" x1="721.9" y1="969.912" x2="689.9" y2="969.912" style="stroke:#adb2b7; stroke-width:4; stroke-opacity:1"></line>
<line clip-path="url(#clip892)" x1="325.067" y1="1386.4" x2="293.067" y2="1386.4" style="stroke:#adb2b7; stroke-width:4; stroke-opacity:1"></line>
<line clip-path="url(#clip892)" x1="325.067" y1="1138.03" x2="293.067" y2="1138.03" style="stroke:#adb2b7; stroke-width:4; stroke-opacity:1"></line>
<circle clip-path="url(#clip892)" cx="2293.23" cy="273.231" r="14.4" fill="#fe4365" fill-rule="evenodd" fill-opacity="1" stroke="#adb2b7" stroke-opacity="1" stroke-width="3.2"></circle>
<circle clip-path="url(#clip892)" cx="1896.4" cy="453.454" r="14.4" fill="#fe4365" fill-rule="evenodd" fill-opacity="1" stroke="#adb2b7" stroke-opacity="1" stroke-width="3.2"></circle>
<circle clip-path="url(#clip892)" cx="1499.57" cy="651.609" r="14.4" fill="#fe4365" fill-rule="evenodd" fill-opacity="1" stroke="#adb2b7" stroke-opacity="1" stroke-width="3.2"></circle>
<circle clip-path="url(#clip892)" cx="1102.73" cy="869.041" r="14.4" fill="#fe4365" fill-rule="evenodd" fill-opacity="1" stroke="#adb2b7" stroke-opacity="1" stroke-width="3.2"></circle>
<circle clip-path="url(#clip892)" cx="705.9" cy="1107.54" r="14.4" fill="#fe4365" fill-rule="evenodd" fill-opacity="1" stroke="#adb2b7" stroke-opacity="1" stroke-width="3.2"></circle>
<circle clip-path="url(#clip892)" cx="309.067" cy="1262.21" r="14.4" fill="#fe4365" fill-rule="evenodd" fill-opacity="1" stroke="#adb2b7" stroke-opacity="1" stroke-width="3.2"></circle>
<polyline clip-path="url(#clip892)" style="stroke:#eca25c; stroke-linecap:round; stroke-linejoin:round; stroke-width:4; stroke-opacity:1; fill:none" stroke-dasharray="16, 10" points="2293.23,476.318 1896.4,476.318 1499.57,476.318 1102.73,476.318 705.9,476.318 309.067,476.318 "></polyline>
<path clip-path="url(#clip890)" d="M1138.58 1379.86 L2282.65 1379.86 L2282.65 1224.34 L1138.58 1224.34  Z" fill="#282c34" fill-rule="evenodd" fill-opacity="1"></path>
<polyline clip-path="url(#clip890)" style="stroke:#9eb1be; stroke-linecap:round; stroke-linejoin:round; stroke-width:4; stroke-opacity:1; fill:none" points="1138.58,1379.86 2282.65,1379.86 2282.65,1224.34 1138.58,1224.34 1138.58,1379.86 "></polyline>
<circle clip-path="url(#clip890)" cx="1232.06" cy="1276.18" r="20.48" fill="#fe4365" fill-rule="evenodd" fill-opacity="1" stroke="#adb2b7" stroke-opacity="1" stroke-width="4.55111"></circle>
<path clip-path="url(#clip890)" d="M1353.4 1261.56 L1353.4 1266.49 Q1351.04 1264.29 1348.36 1263.2 Q1345.7 1262.11 1342.69 1262.11 Q1336.76 1262.11 1333.61 1265.75 Q1330.47 1269.36 1330.47 1276.21 Q1330.47 1283.04 1333.61 1286.67 Q1336.76 1290.28 1342.69 1290.28 Q1345.7 1290.28 1348.36 1289.2 Q1351.04 1288.11 1353.4 1285.91 L1353.4 1290.79 Q1350.95 1292.46 1348.2 1293.29 Q1345.47 1294.13 1342.41 1294.13 Q1334.56 1294.13 1330.05 1289.34 Q1325.53 1284.52 1325.53 1276.21 Q1325.53 1267.88 1330.05 1263.09 Q1334.56 1258.27 1342.41 1258.27 Q1345.51 1258.27 1348.24 1259.1 Q1351 1259.91 1353.4 1261.56 Z" fill="#adb2b7" fill-rule="nonzero" fill-opacity="1"></path><path clip-path="url(#clip890)" d="M1372.22 1280.42 Q1367.06 1280.42 1365.07 1281.6 Q1363.08 1282.79 1363.08 1285.63 Q1363.08 1287.9 1364.56 1289.24 Q1366.07 1290.56 1368.64 1290.56 Q1372.18 1290.56 1374.31 1288.06 Q1376.46 1285.54 1376.46 1281.37 L1376.46 1280.42 L1372.22 1280.42 M1380.72 1278.66 L1380.72 1293.46 L1376.46 1293.46 L1376.46 1289.52 Q1375 1291.88 1372.83 1293.02 Q1370.65 1294.13 1367.5 1294.13 Q1363.52 1294.13 1361.16 1291.91 Q1358.82 1289.66 1358.82 1285.91 Q1358.82 1281.54 1361.74 1279.31 Q1364.68 1277.09 1370.49 1277.09 L1376.46 1277.09 L1376.46 1276.67 Q1376.46 1273.73 1374.52 1272.14 Q1372.59 1270.52 1369.1 1270.52 Q1366.88 1270.52 1364.77 1271.05 Q1362.66 1271.58 1360.72 1272.65 L1360.72 1268.71 Q1363.06 1267.81 1365.26 1267.37 Q1367.46 1266.91 1369.54 1266.91 Q1375.16 1266.91 1377.94 1269.82 Q1380.72 1272.74 1380.72 1278.66 Z" fill="#adb2b7" fill-rule="nonzero" fill-opacity="1"></path><path clip-path="url(#clip890)" d="M1389.49 1257.44 L1393.75 1257.44 L1393.75 1293.46 L1389.49 1293.46 L1389.49 1257.44 Z" fill="#adb2b7" fill-rule="nonzero" fill-opacity="1"></path><path clip-path="url(#clip890)" d="M1421.32 1268.53 L1421.32 1272.51 Q1419.52 1271.51 1417.69 1271.03 Q1415.88 1270.52 1414.03 1270.52 Q1409.89 1270.52 1407.59 1273.16 Q1405.3 1275.77 1405.3 1280.52 Q1405.3 1285.26 1407.59 1287.9 Q1409.89 1290.52 1414.03 1290.52 Q1415.88 1290.52 1417.69 1290.03 Q1419.52 1289.52 1421.32 1288.53 L1421.32 1292.46 Q1419.54 1293.29 1417.62 1293.71 Q1415.72 1294.13 1413.57 1294.13 Q1407.71 1294.13 1404.26 1290.45 Q1400.81 1286.77 1400.81 1280.52 Q1400.81 1274.17 1404.28 1270.54 Q1407.78 1266.91 1413.84 1266.91 Q1415.81 1266.91 1417.69 1267.32 Q1419.56 1267.72 1421.32 1268.53 Z" fill="#adb2b7" fill-rule="nonzero" fill-opacity="1"></path><path clip-path="url(#clip890)" d="M1428.29 1283.22 L1428.29 1267.53 L1432.55 1267.53 L1432.55 1283.06 Q1432.55 1286.74 1433.98 1288.6 Q1435.42 1290.42 1438.29 1290.42 Q1441.74 1290.42 1443.73 1288.22 Q1445.74 1286.03 1445.74 1282.23 L1445.74 1267.53 L1450 1267.53 L1450 1293.46 L1445.74 1293.46 L1445.74 1289.47 Q1444.19 1291.84 1442.13 1292.99 Q1440.09 1294.13 1437.39 1294.13 Q1432.92 1294.13 1430.6 1291.35 Q1428.29 1288.57 1428.29 1283.22 M1439.01 1266.91 L1439.01 1266.91 Z" fill="#adb2b7" fill-rule="nonzero" fill-opacity="1"></path><path clip-path="url(#clip890)" d="M1458.77 1257.44 L1463.03 1257.44 L1463.03 1293.46 L1458.77 1293.46 L1458.77 1257.44 Z" fill="#adb2b7" fill-rule="nonzero" fill-opacity="1"></path><path clip-path="url(#clip890)" d="M1483.73 1280.42 Q1478.57 1280.42 1476.58 1281.6 Q1474.58 1282.79 1474.58 1285.63 Q1474.58 1287.9 1476.07 1289.24 Q1477.57 1290.56 1480.14 1290.56 Q1483.68 1290.56 1485.81 1288.06 Q1487.96 1285.54 1487.96 1281.37 L1487.96 1280.42 L1483.73 1280.42 M1492.22 1278.66 L1492.22 1293.46 L1487.96 1293.46 L1487.96 1289.52 Q1486.51 1291.88 1484.33 1293.02 Q1482.15 1294.13 1479.01 1294.13 Q1475.02 1294.13 1472.66 1291.91 Q1470.33 1289.66 1470.33 1285.91 Q1470.33 1281.54 1473.24 1279.31 Q1476.18 1277.09 1481.99 1277.09 L1487.96 1277.09 L1487.96 1276.67 Q1487.96 1273.73 1486.02 1272.14 Q1484.1 1270.52 1480.6 1270.52 Q1478.38 1270.52 1476.27 1271.05 Q1474.17 1271.58 1472.22 1272.65 L1472.22 1268.71 Q1474.56 1267.81 1476.76 1267.37 Q1478.96 1266.91 1481.04 1266.91 Q1486.67 1266.91 1489.45 1269.82 Q1492.22 1272.74 1492.22 1278.66 Z" fill="#adb2b7" fill-rule="nonzero" fill-opacity="1"></path><path clip-path="url(#clip890)" d="M1505.21 1260.17 L1505.21 1267.53 L1513.98 1267.53 L1513.98 1270.84 L1505.21 1270.84 L1505.21 1284.91 Q1505.21 1288.09 1506.07 1288.99 Q1506.95 1289.89 1509.61 1289.89 L1513.98 1289.89 L1513.98 1293.46 L1509.61 1293.46 Q1504.68 1293.46 1502.8 1291.63 Q1500.93 1289.78 1500.93 1284.91 L1500.93 1270.84 L1497.8 1270.84 L1497.8 1267.53 L1500.93 1267.53 L1500.93 1260.17 L1505.21 1260.17 Z" fill="#adb2b7" fill-rule="nonzero" fill-opacity="1"></path><path clip-path="url(#clip890)" d="M1541.76 1279.43 L1541.76 1281.51 L1522.18 1281.51 Q1522.45 1285.91 1524.82 1288.22 Q1527.2 1290.52 1531.44 1290.52 Q1533.89 1290.52 1536.18 1289.91 Q1538.5 1289.31 1540.77 1288.11 L1540.77 1292.14 Q1538.47 1293.11 1536.07 1293.62 Q1533.66 1294.13 1531.18 1294.13 Q1524.98 1294.13 1521.34 1290.52 Q1517.73 1286.91 1517.73 1280.75 Q1517.73 1274.38 1521.16 1270.66 Q1524.61 1266.91 1530.44 1266.91 Q1535.67 1266.91 1538.7 1270.29 Q1541.76 1273.64 1541.76 1279.43 M1537.5 1278.18 Q1537.45 1274.68 1535.53 1272.6 Q1533.64 1270.52 1530.49 1270.52 Q1526.92 1270.52 1524.77 1272.53 Q1522.64 1274.54 1522.32 1278.2 L1537.5 1278.18 Z" fill="#adb2b7" fill-rule="nonzero" fill-opacity="1"></path><path clip-path="url(#clip890)" d="M1565.81 1271.47 L1565.81 1257.44 L1570.07 1257.44 L1570.07 1293.46 L1565.81 1293.46 L1565.81 1289.57 Q1564.47 1291.88 1562.41 1293.02 Q1560.37 1294.13 1557.5 1294.13 Q1552.8 1294.13 1549.84 1290.38 Q1546.9 1286.63 1546.9 1280.52 Q1546.9 1274.41 1549.84 1270.66 Q1552.8 1266.91 1557.5 1266.91 Q1560.37 1266.91 1562.41 1268.04 Q1564.47 1269.15 1565.81 1271.47 M1551.3 1280.52 Q1551.3 1285.22 1553.22 1287.9 Q1555.16 1290.56 1558.54 1290.56 Q1561.92 1290.56 1563.87 1287.9 Q1565.81 1285.22 1565.81 1280.52 Q1565.81 1275.82 1563.87 1273.16 Q1561.92 1270.47 1558.54 1270.47 Q1555.16 1270.47 1553.22 1273.16 Q1551.3 1275.82 1551.3 1280.52 Z" fill="#adb2b7" fill-rule="nonzero" fill-opacity="1"></path><path clip-path="url(#clip890)" d="M1614.1 1272.51 Q1615.7 1269.64 1617.92 1268.27 Q1620.14 1266.91 1623.15 1266.91 Q1627.2 1266.91 1629.4 1269.75 Q1631.6 1272.58 1631.6 1277.81 L1631.6 1293.46 L1627.32 1293.46 L1627.32 1277.95 Q1627.32 1274.22 1626 1272.41 Q1624.68 1270.61 1621.97 1270.61 Q1618.66 1270.61 1616.74 1272.81 Q1614.82 1275.01 1614.82 1278.8 L1614.82 1293.46 L1610.53 1293.46 L1610.53 1277.95 Q1610.53 1274.2 1609.21 1272.41 Q1607.89 1270.61 1605.14 1270.61 Q1601.88 1270.61 1599.95 1272.83 Q1598.03 1275.03 1598.03 1278.8 L1598.03 1293.46 L1593.75 1293.46 L1593.75 1267.53 L1598.03 1267.53 L1598.03 1271.56 Q1599.49 1269.17 1601.53 1268.04 Q1603.57 1266.91 1606.37 1266.91 Q1609.19 1266.91 1611.16 1268.34 Q1613.15 1269.78 1614.1 1272.51 Z" fill="#adb2b7" fill-rule="nonzero" fill-opacity="1"></path><path clip-path="url(#clip890)" d="M1662.27 1279.43 L1662.27 1281.51 L1642.69 1281.51 Q1642.96 1285.91 1645.32 1288.22 Q1647.71 1290.52 1651.95 1290.52 Q1654.4 1290.52 1656.69 1289.91 Q1659.01 1289.31 1661.27 1288.11 L1661.27 1292.14 Q1658.98 1293.11 1656.57 1293.62 Q1654.17 1294.13 1651.69 1294.13 Q1645.49 1294.13 1641.85 1290.52 Q1638.24 1286.91 1638.24 1280.75 Q1638.24 1274.38 1641.67 1270.66 Q1645.12 1266.91 1650.95 1266.91 Q1656.18 1266.91 1659.21 1270.29 Q1662.27 1273.64 1662.27 1279.43 M1658.01 1278.18 Q1657.96 1274.68 1656.04 1272.6 Q1654.14 1270.52 1651 1270.52 Q1647.43 1270.52 1645.28 1272.53 Q1643.15 1274.54 1642.82 1278.2 L1658.01 1278.18 Z" fill="#adb2b7" fill-rule="nonzero" fill-opacity="1"></path><path clip-path="url(#clip890)" d="M1681.04 1280.42 Q1675.88 1280.42 1673.89 1281.6 Q1671.9 1282.79 1671.9 1285.63 Q1671.9 1287.9 1673.38 1289.24 Q1674.88 1290.56 1677.45 1290.56 Q1681 1290.56 1683.13 1288.06 Q1685.28 1285.54 1685.28 1281.37 L1685.28 1280.42 L1681.04 1280.42 M1689.54 1278.66 L1689.54 1293.46 L1685.28 1293.46 L1685.28 1289.52 Q1683.82 1291.88 1681.64 1293.02 Q1679.47 1294.13 1676.32 1294.13 Q1672.34 1294.13 1669.98 1291.91 Q1667.64 1289.66 1667.64 1285.91 Q1667.64 1281.54 1670.56 1279.31 Q1673.5 1277.09 1679.31 1277.09 L1685.28 1277.09 L1685.28 1276.67 Q1685.28 1273.73 1683.33 1272.14 Q1681.41 1270.52 1677.92 1270.52 Q1675.69 1270.52 1673.59 1271.05 Q1671.48 1271.58 1669.54 1272.65 L1669.54 1268.71 Q1671.88 1267.81 1674.07 1267.37 Q1676.27 1266.91 1678.36 1266.91 Q1683.98 1266.91 1686.76 1269.82 Q1689.54 1272.74 1689.54 1278.66 Z" fill="#adb2b7" fill-rule="nonzero" fill-opacity="1"></path><path clip-path="url(#clip890)" d="M1719.86 1277.81 L1719.86 1293.46 L1715.6 1293.46 L1715.6 1277.95 Q1715.6 1274.27 1714.17 1272.44 Q1712.73 1270.61 1709.86 1270.61 Q1706.41 1270.61 1704.42 1272.81 Q1702.43 1275.01 1702.43 1278.8 L1702.43 1293.46 L1698.15 1293.46 L1698.15 1267.53 L1702.43 1267.53 L1702.43 1271.56 Q1703.96 1269.22 1706.02 1268.06 Q1708.1 1266.91 1710.81 1266.91 Q1715.28 1266.91 1717.57 1269.68 Q1719.86 1272.44 1719.86 1277.81 Z" fill="#adb2b7" fill-rule="nonzero" fill-opacity="1"></path><path clip-path="url(#clip890)" d="M1760.49 1271.47 L1760.49 1257.44 L1764.75 1257.44 L1764.75 1293.46 L1760.49 1293.46 L1760.49 1289.57 Q1759.14 1291.88 1757.08 1293.02 Q1755.05 1294.13 1752.18 1294.13 Q1747.48 1294.13 1744.51 1290.38 Q1741.57 1286.63 1741.57 1280.52 Q1741.57 1274.41 1744.51 1270.66 Q1747.48 1266.91 1752.18 1266.91 Q1755.05 1266.91 1757.08 1268.04 Q1759.14 1269.15 1760.49 1271.47 M1745.97 1280.52 Q1745.97 1285.22 1747.89 1287.9 Q1749.84 1290.56 1753.22 1290.56 Q1756.6 1290.56 1758.54 1287.9 Q1760.49 1285.22 1760.49 1280.52 Q1760.49 1275.82 1758.54 1273.16 Q1756.6 1270.47 1753.22 1270.47 Q1749.84 1270.47 1747.89 1273.16 Q1745.97 1275.82 1745.97 1280.52 Z" fill="#adb2b7" fill-rule="nonzero" fill-opacity="1"></path><path clip-path="url(#clip890)" d="M1795.69 1279.43 L1795.69 1281.51 L1776.11 1281.51 Q1776.39 1285.91 1778.75 1288.22 Q1781.13 1290.52 1785.37 1290.52 Q1787.82 1290.52 1790.12 1289.91 Q1792.43 1289.31 1794.7 1288.11 L1794.7 1292.14 Q1792.41 1293.11 1790 1293.62 Q1787.59 1294.13 1785.12 1294.13 Q1778.91 1294.13 1775.28 1290.52 Q1771.67 1286.91 1771.67 1280.75 Q1771.67 1274.38 1775.09 1270.66 Q1778.54 1266.91 1784.37 1266.91 Q1789.61 1266.91 1792.64 1270.29 Q1795.69 1273.64 1795.69 1279.43 M1791.44 1278.18 Q1791.39 1274.68 1789.47 1272.6 Q1787.57 1270.52 1784.42 1270.52 Q1780.86 1270.52 1778.7 1272.53 Q1776.57 1274.54 1776.25 1278.2 L1791.44 1278.18 Z" fill="#adb2b7" fill-rule="nonzero" fill-opacity="1"></path><path clip-path="url(#clip890)" d="M1824.24 1277.81 L1824.24 1293.46 L1819.98 1293.46 L1819.98 1277.95 Q1819.98 1274.27 1818.54 1272.44 Q1817.11 1270.61 1814.24 1270.61 Q1810.79 1270.61 1808.8 1272.81 Q1806.81 1275.01 1806.81 1278.8 L1806.81 1293.46 L1802.52 1293.46 L1802.52 1267.53 L1806.81 1267.53 L1806.81 1271.56 Q1808.33 1269.22 1810.39 1268.06 Q1812.48 1266.91 1815.18 1266.91 Q1819.65 1266.91 1821.94 1269.68 Q1824.24 1272.44 1824.24 1277.81 Z" fill="#adb2b7" fill-rule="nonzero" fill-opacity="1"></path><path clip-path="url(#clip890)" d="M1849.26 1268.29 L1849.26 1272.32 Q1847.45 1271.4 1845.51 1270.93 Q1843.56 1270.47 1841.48 1270.47 Q1838.31 1270.47 1836.71 1271.44 Q1835.14 1272.41 1835.14 1274.36 Q1835.14 1275.84 1836.27 1276.7 Q1837.41 1277.53 1840.83 1278.29 L1842.29 1278.62 Q1846.83 1279.59 1848.73 1281.37 Q1850.65 1283.13 1850.65 1286.3 Q1850.65 1289.91 1847.78 1292.02 Q1844.93 1294.13 1839.93 1294.13 Q1837.85 1294.13 1835.58 1293.71 Q1833.33 1293.32 1830.83 1292.51 L1830.83 1288.11 Q1833.19 1289.34 1835.49 1289.96 Q1837.78 1290.56 1840.02 1290.56 Q1843.03 1290.56 1844.65 1289.54 Q1846.27 1288.5 1846.27 1286.63 Q1846.27 1284.89 1845.09 1283.97 Q1843.93 1283.04 1839.98 1282.18 L1838.49 1281.84 Q1834.54 1281 1832.78 1279.29 Q1831.02 1277.55 1831.02 1274.54 Q1831.02 1270.89 1833.61 1268.9 Q1836.2 1266.91 1840.97 1266.91 Q1843.33 1266.91 1845.42 1267.25 Q1847.5 1267.6 1849.26 1268.29 Z" fill="#adb2b7" fill-rule="nonzero" fill-opacity="1"></path><path clip-path="url(#clip890)" d="M1857.43 1267.53 L1861.69 1267.53 L1861.69 1293.46 L1857.43 1293.46 L1857.43 1267.53 M1857.43 1257.44 L1861.69 1257.44 L1861.69 1262.83 L1857.43 1262.83 L1857.43 1257.44 Z" fill="#adb2b7" fill-rule="nonzero" fill-opacity="1"></path><path clip-path="url(#clip890)" d="M1874.81 1260.17 L1874.81 1267.53 L1883.59 1267.53 L1883.59 1270.84 L1874.81 1270.84 L1874.81 1284.91 Q1874.81 1288.09 1875.67 1288.99 Q1876.55 1289.89 1879.21 1289.89 L1883.59 1289.89 L1883.59 1293.46 L1879.21 1293.46 Q1874.28 1293.46 1872.41 1291.63 Q1870.53 1289.78 1870.53 1284.91 L1870.53 1270.84 L1867.41 1270.84 L1867.41 1267.53 L1870.53 1267.53 L1870.53 1260.17 L1874.81 1260.17 Z" fill="#adb2b7" fill-rule="nonzero" fill-opacity="1"></path><path clip-path="url(#clip890)" d="M1899.98 1295.86 Q1898.17 1300.49 1896.46 1301.91 Q1894.74 1303.32 1891.87 1303.32 L1888.47 1303.32 L1888.47 1299.75 L1890.97 1299.75 Q1892.73 1299.75 1893.7 1298.92 Q1894.68 1298.09 1895.86 1294.98 L1896.62 1293.04 L1886.13 1267.53 L1890.65 1267.53 L1898.75 1287.81 L1906.85 1267.53 L1911.36 1267.53 L1899.98 1295.86 Z" fill="#adb2b7" fill-rule="nonzero" fill-opacity="1"></path><path clip-path="url(#clip890)" d="M1929.84 1267.53 L1934.1 1267.53 L1939.42 1287.76 L1944.72 1267.53 L1949.74 1267.53 L1955.07 1287.76 L1960.37 1267.53 L1964.63 1267.53 L1957.85 1293.46 L1952.82 1293.46 L1947.24 1272.21 L1941.64 1293.46 L1936.62 1293.46 L1929.84 1267.53 Z" fill="#adb2b7" fill-rule="nonzero" fill-opacity="1"></path><path clip-path="url(#clip890)" d="M1971.09 1267.53 L1975.35 1267.53 L1975.35 1293.46 L1971.09 1293.46 L1971.09 1267.53 M1971.09 1257.44 L1975.35 1257.44 L1975.35 1262.83 L1971.09 1262.83 L1971.09 1257.44 Z" fill="#adb2b7" fill-rule="nonzero" fill-opacity="1"></path><path clip-path="url(#clip890)" d="M1988.47 1260.17 L1988.47 1267.53 L1997.24 1267.53 L1997.24 1270.84 L1988.47 1270.84 L1988.47 1284.91 Q1988.47 1288.09 1989.33 1288.99 Q1990.21 1289.89 1992.87 1289.89 L1997.24 1289.89 L1997.24 1293.46 L1992.87 1293.46 Q1987.94 1293.46 1986.06 1291.63 Q1984.19 1289.78 1984.19 1284.91 L1984.19 1270.84 L1981.06 1270.84 L1981.06 1267.53 L1984.19 1267.53 L1984.19 1260.17 L1988.47 1260.17 Z" fill="#adb2b7" fill-rule="nonzero" fill-opacity="1"></path><path clip-path="url(#clip890)" d="M2024.4 1277.81 L2024.4 1293.46 L2020.14 1293.46 L2020.14 1277.95 Q2020.14 1274.27 2018.7 1272.44 Q2017.27 1270.61 2014.4 1270.61 Q2010.95 1270.61 2008.96 1272.81 Q2006.97 1275.01 2006.97 1278.8 L2006.97 1293.46 L2002.68 1293.46 L2002.68 1257.44 L2006.97 1257.44 L2006.97 1271.56 Q2008.49 1269.22 2010.55 1268.06 Q2012.64 1266.91 2015.35 1266.91 Q2019.81 1266.91 2022.11 1269.68 Q2024.4 1272.44 2024.4 1277.81 Z" fill="#adb2b7" fill-rule="nonzero" fill-opacity="1"></path><path clip-path="url(#clip890)" d="M2070.14 1279.43 L2070.14 1281.51 L2050.55 1281.51 Q2050.83 1285.91 2053.19 1288.22 Q2055.58 1290.52 2059.81 1290.52 Q2062.27 1290.52 2064.56 1289.91 Q2066.87 1289.31 2069.14 1288.11 L2069.14 1292.14 Q2066.85 1293.11 2064.44 1293.62 Q2062.04 1294.13 2059.56 1294.13 Q2053.35 1294.13 2049.72 1290.52 Q2046.11 1286.91 2046.11 1280.75 Q2046.11 1274.38 2049.54 1270.66 Q2052.98 1266.91 2058.82 1266.91 Q2064.05 1266.91 2067.08 1270.29 Q2070.14 1273.64 2070.14 1279.43 M2065.88 1278.18 Q2065.83 1274.68 2063.91 1272.6 Q2062.01 1270.52 2058.86 1270.52 Q2055.3 1270.52 2053.15 1272.53 Q2051.02 1274.54 2050.69 1278.2 L2065.88 1278.18 Z" fill="#adb2b7" fill-rule="nonzero" fill-opacity="1"></path><path clip-path="url(#clip890)" d="M2092.15 1271.51 Q2091.43 1271.1 2090.58 1270.91 Q2089.74 1270.7 2088.73 1270.7 Q2085.11 1270.7 2083.17 1273.06 Q2081.25 1275.4 2081.25 1279.8 L2081.25 1293.46 L2076.97 1293.46 L2076.97 1267.53 L2081.25 1267.53 L2081.25 1271.56 Q2082.59 1269.2 2084.74 1268.06 Q2086.9 1266.91 2089.98 1266.91 Q2090.41 1266.91 2090.95 1266.97 Q2091.48 1267.02 2092.13 1267.14 L2092.15 1271.51 Z" fill="#adb2b7" fill-rule="nonzero" fill-opacity="1"></path><path clip-path="url(#clip890)" d="M2110.81 1271.51 Q2110.09 1271.1 2109.23 1270.91 Q2108.4 1270.7 2107.38 1270.7 Q2103.77 1270.7 2101.83 1273.06 Q2099.91 1275.4 2099.91 1279.8 L2099.91 1293.46 L2095.62 1293.46 L2095.62 1267.53 L2099.91 1267.53 L2099.91 1271.56 Q2101.25 1269.2 2103.4 1268.06 Q2105.55 1266.91 2108.63 1266.91 Q2109.07 1266.91 2109.6 1266.97 Q2110.14 1267.02 2110.79 1267.14 L2110.81 1271.51 Z" fill="#adb2b7" fill-rule="nonzero" fill-opacity="1"></path><path clip-path="url(#clip890)" d="M2124.28 1270.52 Q2120.85 1270.52 2118.86 1273.2 Q2116.87 1275.86 2116.87 1280.52 Q2116.87 1285.17 2118.84 1287.85 Q2120.83 1290.52 2124.28 1290.52 Q2127.68 1290.52 2129.67 1287.83 Q2131.66 1285.15 2131.66 1280.52 Q2131.66 1275.91 2129.67 1273.22 Q2127.68 1270.52 2124.28 1270.52 M2124.28 1266.91 Q2129.84 1266.91 2133.01 1270.52 Q2136.18 1274.13 2136.18 1280.52 Q2136.18 1286.88 2133.01 1290.52 Q2129.84 1294.13 2124.28 1294.13 Q2118.7 1294.13 2115.53 1290.52 Q2112.38 1286.88 2112.38 1280.52 Q2112.38 1274.13 2115.53 1270.52 Q2118.7 1266.91 2124.28 1266.91 Z" fill="#adb2b7" fill-rule="nonzero" fill-opacity="1"></path><path clip-path="url(#clip890)" d="M2158.26 1271.51 Q2157.54 1271.1 2156.69 1270.91 Q2155.85 1270.7 2154.84 1270.7 Q2151.22 1270.7 2149.28 1273.06 Q2147.36 1275.4 2147.36 1279.8 L2147.36 1293.46 L2143.08 1293.46 L2143.08 1267.53 L2147.36 1267.53 L2147.36 1271.56 Q2148.7 1269.2 2150.85 1268.06 Q2153.01 1266.91 2156.09 1266.91 Q2156.53 1266.91 2157.06 1266.97 Q2157.59 1267.02 2158.24 1267.14 L2158.26 1271.51 Z" fill="#adb2b7" fill-rule="nonzero" fill-opacity="1"></path><path clip-path="url(#clip890)" d="M2181.34 1280.52 Q2181.34 1275.82 2179.4 1273.16 Q2177.47 1270.47 2174.1 1270.47 Q2170.72 1270.47 2168.77 1273.16 Q2166.85 1275.82 2166.85 1280.52 Q2166.85 1285.22 2168.77 1287.9 Q2170.72 1290.56 2174.1 1290.56 Q2177.47 1290.56 2179.4 1287.9 Q2181.34 1285.22 2181.34 1280.52 M2166.85 1271.47 Q2168.19 1269.15 2170.23 1268.04 Q2172.29 1266.91 2175.14 1266.91 Q2179.86 1266.91 2182.8 1270.66 Q2185.76 1274.41 2185.76 1280.52 Q2185.76 1286.63 2182.8 1290.38 Q2179.86 1294.13 2175.14 1294.13 Q2172.29 1294.13 2170.23 1293.02 Q2168.19 1291.88 2166.85 1289.57 L2166.85 1293.46 L2162.57 1293.46 L2162.57 1257.44 L2166.85 1257.44 L2166.85 1271.47 Z" fill="#adb2b7" fill-rule="nonzero" fill-opacity="1"></path><path clip-path="url(#clip890)" d="M2204.6 1280.42 Q2199.44 1280.42 2197.45 1281.6 Q2195.46 1282.79 2195.46 1285.63 Q2195.46 1287.9 2196.94 1289.24 Q2198.45 1290.56 2201.02 1290.56 Q2204.56 1290.56 2206.69 1288.06 Q2208.84 1285.54 2208.84 1281.37 L2208.84 1280.42 L2204.6 1280.42 M2213.1 1278.66 L2213.1 1293.46 L2208.84 1293.46 L2208.84 1289.52 Q2207.38 1291.88 2205.21 1293.02 Q2203.03 1294.13 2199.88 1294.13 Q2195.9 1294.13 2193.54 1291.91 Q2191.2 1289.66 2191.2 1285.91 Q2191.2 1281.54 2194.12 1279.31 Q2197.06 1277.09 2202.87 1277.09 L2208.84 1277.09 L2208.84 1276.67 Q2208.84 1273.73 2206.9 1272.14 Q2204.97 1270.52 2201.48 1270.52 Q2199.26 1270.52 2197.15 1271.05 Q2195.04 1271.58 2193.1 1272.65 L2193.1 1268.71 Q2195.44 1267.81 2197.64 1267.37 Q2199.84 1266.91 2201.92 1266.91 Q2207.54 1266.91 2210.32 1269.82 Q2213.1 1272.74 2213.1 1278.66 Z" fill="#adb2b7" fill-rule="nonzero" fill-opacity="1"></path><path clip-path="url(#clip890)" d="M2236.9 1271.51 Q2236.18 1271.1 2235.32 1270.91 Q2234.49 1270.7 2233.47 1270.7 Q2229.86 1270.7 2227.91 1273.06 Q2225.99 1275.4 2225.99 1279.8 L2225.99 1293.46 L2221.71 1293.46 L2221.71 1267.53 L2225.99 1267.53 L2225.99 1271.56 Q2227.34 1269.2 2229.49 1268.06 Q2231.64 1266.91 2234.72 1266.91 Q2235.16 1266.91 2235.69 1266.97 Q2236.22 1267.02 2236.87 1267.14 L2236.9 1271.51 Z" fill="#adb2b7" fill-rule="nonzero" fill-opacity="1"></path><path clip-path="url(#clip890)" d="M2257.89 1268.29 L2257.89 1272.32 Q2256.09 1271.4 2254.14 1270.93 Q2252.2 1270.47 2250.11 1270.47 Q2246.94 1270.47 2245.34 1271.44 Q2243.77 1272.41 2243.77 1274.36 Q2243.77 1275.84 2244.9 1276.7 Q2246.04 1277.53 2249.46 1278.29 L2250.92 1278.62 Q2255.46 1279.59 2257.36 1281.37 Q2259.28 1283.13 2259.28 1286.3 Q2259.28 1289.91 2256.41 1292.02 Q2253.56 1294.13 2248.56 1294.13 Q2246.48 1294.13 2244.21 1293.71 Q2241.97 1293.32 2239.47 1292.51 L2239.47 1288.11 Q2241.83 1289.34 2244.12 1289.96 Q2246.41 1290.56 2248.65 1290.56 Q2251.66 1290.56 2253.28 1289.54 Q2254.9 1288.5 2254.9 1286.63 Q2254.9 1284.89 2253.72 1283.97 Q2252.57 1283.04 2248.61 1282.18 L2247.13 1281.84 Q2243.17 1281 2241.41 1279.29 Q2239.65 1277.55 2239.65 1274.54 Q2239.65 1270.89 2242.24 1268.9 Q2244.84 1266.91 2249.6 1266.91 Q2251.96 1266.91 2254.05 1267.25 Q2256.13 1267.6 2257.89 1268.29 Z" fill="#adb2b7" fill-rule="nonzero" fill-opacity="1"></path><polyline clip-path="url(#clip890)" style="stroke:#eca25c; stroke-linecap:round; stroke-linejoin:round; stroke-width:4; stroke-opacity:1; fill:none" stroke-dasharray="16, 10" points="1161.95,1328.02 1302.17,1328.02 "></polyline>
<path clip-path="url(#clip890)" d="M1325.53 1310.74 L1347.39 1310.74 L1347.39 1314.67 L1330.21 1314.67 L1330.21 1324.9 L1346.67 1324.9 L1346.67 1328.84 L1330.21 1328.84 L1330.21 1341.36 L1347.8 1341.36 L1347.8 1345.3 L1325.53 1345.3 L1325.53 1310.74 Z" fill="#adb2b7" fill-rule="nonzero" fill-opacity="1"></path><path clip-path="url(#clip890)" d="M1376.85 1319.37 L1367.48 1331.99 L1377.34 1345.3 L1372.32 1345.3 L1364.77 1335.11 L1357.22 1345.3 L1352.2 1345.3 L1362.27 1331.73 L1353.06 1319.37 L1358.08 1319.37 L1364.96 1328.61 L1371.83 1319.37 L1376.85 1319.37 Z" fill="#adb2b7" fill-rule="nonzero" fill-opacity="1"></path><path clip-path="url(#clip890)" d="M1387.48 1341.41 L1387.48 1355.16 L1383.2 1355.16 L1383.2 1319.37 L1387.48 1319.37 L1387.48 1323.31 Q1388.82 1320.99 1390.86 1319.88 Q1392.92 1318.75 1395.77 1318.75 Q1400.49 1318.75 1403.43 1322.5 Q1406.39 1326.25 1406.39 1332.36 Q1406.39 1338.47 1403.43 1342.22 Q1400.49 1345.97 1395.77 1345.97 Q1392.92 1345.97 1390.86 1344.86 Q1388.82 1343.72 1387.48 1341.41 M1401.97 1332.36 Q1401.97 1327.66 1400.03 1325 Q1398.1 1322.31 1394.72 1322.31 Q1391.34 1322.31 1389.4 1325 Q1387.48 1327.66 1387.48 1332.36 Q1387.48 1337.06 1389.4 1339.74 Q1391.34 1342.4 1394.72 1342.4 Q1398.1 1342.4 1400.03 1339.74 Q1401.97 1337.06 1401.97 1332.36 Z" fill="#adb2b7" fill-rule="nonzero" fill-opacity="1"></path><path clip-path="url(#clip890)" d="M1435.63 1331.27 L1435.63 1333.35 L1416.04 1333.35 Q1416.32 1337.75 1418.68 1340.06 Q1421.07 1342.36 1425.3 1342.36 Q1427.76 1342.36 1430.05 1341.75 Q1432.36 1341.15 1434.63 1339.95 L1434.63 1343.98 Q1432.34 1344.95 1429.93 1345.46 Q1427.52 1345.97 1425.05 1345.97 Q1418.84 1345.97 1415.21 1342.36 Q1411.6 1338.75 1411.6 1332.59 Q1411.6 1326.22 1415.02 1322.5 Q1418.47 1318.75 1424.31 1318.75 Q1429.54 1318.75 1432.57 1322.13 Q1435.63 1325.48 1435.63 1331.27 M1431.37 1330.02 Q1431.32 1326.52 1429.4 1324.44 Q1427.5 1322.36 1424.35 1322.36 Q1420.79 1322.36 1418.64 1324.37 Q1416.51 1326.38 1416.18 1330.04 L1431.37 1330.02 Z" fill="#adb2b7" fill-rule="nonzero" fill-opacity="1"></path><path clip-path="url(#clip890)" d="M1461.27 1320.37 L1461.27 1324.35 Q1459.47 1323.35 1457.64 1322.87 Q1455.83 1322.36 1453.98 1322.36 Q1449.84 1322.36 1447.55 1325 Q1445.26 1327.61 1445.26 1332.36 Q1445.26 1337.1 1447.55 1339.74 Q1449.84 1342.36 1453.98 1342.36 Q1455.83 1342.36 1457.64 1341.87 Q1459.47 1341.36 1461.27 1340.37 L1461.27 1344.3 Q1459.49 1345.13 1457.57 1345.55 Q1455.67 1345.97 1453.52 1345.97 Q1447.66 1345.97 1444.21 1342.29 Q1440.77 1338.61 1440.77 1332.36 Q1440.77 1326.01 1444.24 1322.38 Q1447.73 1318.75 1453.8 1318.75 Q1455.77 1318.75 1457.64 1319.16 Q1459.52 1319.56 1461.27 1320.37 Z" fill="#adb2b7" fill-rule="nonzero" fill-opacity="1"></path><path clip-path="url(#clip890)" d="M1472.9 1312.01 L1472.9 1319.37 L1481.67 1319.37 L1481.67 1322.68 L1472.9 1322.68 L1472.9 1336.75 Q1472.9 1339.93 1473.75 1340.83 Q1474.63 1341.73 1477.29 1341.73 L1481.67 1341.73 L1481.67 1345.3 L1477.29 1345.3 Q1472.36 1345.3 1470.49 1343.47 Q1468.61 1341.62 1468.61 1336.75 L1468.61 1322.68 L1465.49 1322.68 L1465.49 1319.37 L1468.61 1319.37 L1468.61 1312.01 L1472.9 1312.01 Z" fill="#adb2b7" fill-rule="nonzero" fill-opacity="1"></path><path clip-path="url(#clip890)" d="M1509.45 1331.27 L1509.45 1333.35 L1489.86 1333.35 Q1490.14 1337.75 1492.5 1340.06 Q1494.89 1342.36 1499.12 1342.36 Q1501.58 1342.36 1503.87 1341.75 Q1506.18 1341.15 1508.45 1339.95 L1508.45 1343.98 Q1506.16 1344.95 1503.75 1345.46 Q1501.34 1345.97 1498.87 1345.97 Q1492.66 1345.97 1489.03 1342.36 Q1485.42 1338.75 1485.42 1332.59 Q1485.42 1326.22 1488.84 1322.5 Q1492.29 1318.75 1498.13 1318.75 Q1503.36 1318.75 1506.39 1322.13 Q1509.45 1325.48 1509.45 1331.27 M1505.19 1330.02 Q1505.14 1326.52 1503.22 1324.44 Q1501.32 1322.36 1498.17 1322.36 Q1494.61 1322.36 1492.46 1324.37 Q1490.33 1326.38 1490 1330.04 L1505.19 1330.02 Z" fill="#adb2b7" fill-rule="nonzero" fill-opacity="1"></path><path clip-path="url(#clip890)" d="M1533.5 1323.31 L1533.5 1309.28 L1537.76 1309.28 L1537.76 1345.3 L1533.5 1345.3 L1533.5 1341.41 Q1532.15 1343.72 1530.09 1344.86 Q1528.06 1345.97 1525.19 1345.97 Q1520.49 1345.97 1517.52 1342.22 Q1514.58 1338.47 1514.58 1332.36 Q1514.58 1326.25 1517.52 1322.5 Q1520.49 1318.75 1525.19 1318.75 Q1528.06 1318.75 1530.09 1319.88 Q1532.15 1320.99 1533.5 1323.31 M1518.98 1332.36 Q1518.98 1337.06 1520.9 1339.74 Q1522.85 1342.4 1526.23 1342.4 Q1529.61 1342.4 1531.55 1339.74 Q1533.5 1337.06 1533.5 1332.36 Q1533.5 1327.66 1531.55 1325 Q1529.61 1322.31 1526.23 1322.31 Q1522.85 1322.31 1520.9 1325 Q1518.98 1327.66 1518.98 1332.36 Z" fill="#adb2b7" fill-rule="nonzero" fill-opacity="1"></path><path clip-path="url(#clip890)" d="M1578.66 1323.31 L1578.66 1309.28 L1582.92 1309.28 L1582.92 1345.3 L1578.66 1345.3 L1578.66 1341.41 Q1577.32 1343.72 1575.26 1344.86 Q1573.22 1345.97 1570.35 1345.97 Q1565.65 1345.97 1562.69 1342.22 Q1559.75 1338.47 1559.75 1332.36 Q1559.75 1326.25 1562.69 1322.5 Q1565.65 1318.75 1570.35 1318.75 Q1573.22 1318.75 1575.26 1319.88 Q1577.32 1320.99 1578.66 1323.31 M1564.14 1332.36 Q1564.14 1337.06 1566.07 1339.74 Q1568.01 1342.4 1571.39 1342.4 Q1574.77 1342.4 1576.71 1339.74 Q1578.66 1337.06 1578.66 1332.36 Q1578.66 1327.66 1576.71 1325 Q1574.77 1322.31 1571.39 1322.31 Q1568.01 1322.31 1566.07 1325 Q1564.14 1327.66 1564.14 1332.36 Z" fill="#adb2b7" fill-rule="nonzero" fill-opacity="1"></path><path clip-path="url(#clip890)" d="M1613.87 1331.27 L1613.87 1333.35 L1594.28 1333.35 Q1594.56 1337.75 1596.92 1340.06 Q1599.31 1342.36 1603.54 1342.36 Q1606 1342.36 1608.29 1341.75 Q1610.6 1341.15 1612.87 1339.95 L1612.87 1343.98 Q1610.58 1344.95 1608.17 1345.46 Q1605.76 1345.97 1603.29 1345.97 Q1597.08 1345.97 1593.45 1342.36 Q1589.84 1338.75 1589.84 1332.59 Q1589.84 1326.22 1593.26 1322.5 Q1596.71 1318.75 1602.55 1318.75 Q1607.78 1318.75 1610.81 1322.13 Q1613.87 1325.48 1613.87 1331.27 M1609.61 1330.02 Q1609.56 1326.52 1607.64 1324.44 Q1605.74 1322.36 1602.59 1322.36 Q1599.03 1322.36 1596.88 1324.37 Q1594.75 1326.38 1594.42 1330.04 L1609.61 1330.02 Z" fill="#adb2b7" fill-rule="nonzero" fill-opacity="1"></path><path clip-path="url(#clip890)" d="M1642.41 1329.65 L1642.41 1345.3 L1638.15 1345.3 L1638.15 1329.79 Q1638.15 1326.11 1636.71 1324.28 Q1635.28 1322.45 1632.41 1322.45 Q1628.96 1322.45 1626.97 1324.65 Q1624.98 1326.85 1624.98 1330.64 L1624.98 1345.3 L1620.7 1345.3 L1620.7 1319.37 L1624.98 1319.37 L1624.98 1323.4 Q1626.51 1321.06 1628.57 1319.9 Q1630.65 1318.75 1633.36 1318.75 Q1637.82 1318.75 1640.12 1321.52 Q1642.41 1324.28 1642.41 1329.65 Z" fill="#adb2b7" fill-rule="nonzero" fill-opacity="1"></path><path clip-path="url(#clip890)" d="M1667.43 1320.13 L1667.43 1324.16 Q1665.63 1323.24 1663.68 1322.77 Q1661.74 1322.31 1659.65 1322.31 Q1656.48 1322.31 1654.88 1323.28 Q1653.31 1324.25 1653.31 1326.2 Q1653.31 1327.68 1654.45 1328.54 Q1655.58 1329.37 1659.01 1330.13 L1660.46 1330.46 Q1665 1331.43 1666.9 1333.21 Q1668.82 1334.97 1668.82 1338.14 Q1668.82 1341.75 1665.95 1343.86 Q1663.1 1345.97 1658.1 1345.97 Q1656.02 1345.97 1653.75 1345.55 Q1651.51 1345.16 1649.01 1344.35 L1649.01 1339.95 Q1651.37 1341.18 1653.66 1341.8 Q1655.95 1342.4 1658.19 1342.4 Q1661.2 1342.4 1662.82 1341.38 Q1664.44 1340.34 1664.44 1338.47 Q1664.44 1336.73 1663.26 1335.81 Q1662.11 1334.88 1658.15 1334.02 L1656.67 1333.68 Q1652.71 1332.84 1650.95 1331.13 Q1649.19 1329.39 1649.19 1326.38 Q1649.19 1322.73 1651.78 1320.74 Q1654.38 1318.75 1659.14 1318.75 Q1661.51 1318.75 1663.59 1319.09 Q1665.67 1319.44 1667.43 1320.13 Z" fill="#adb2b7" fill-rule="nonzero" fill-opacity="1"></path><path clip-path="url(#clip890)" d="M1675.6 1319.37 L1679.86 1319.37 L1679.86 1345.3 L1675.6 1345.3 L1675.6 1319.37 M1675.6 1309.28 L1679.86 1309.28 L1679.86 1314.67 L1675.6 1314.67 L1675.6 1309.28 Z" fill="#adb2b7" fill-rule="nonzero" fill-opacity="1"></path><path clip-path="url(#clip890)" d="M1692.99 1312.01 L1692.99 1319.37 L1701.76 1319.37 L1701.76 1322.68 L1692.99 1322.68 L1692.99 1336.75 Q1692.99 1339.93 1693.84 1340.83 Q1694.72 1341.73 1697.38 1341.73 L1701.76 1341.73 L1701.76 1345.3 L1697.38 1345.3 Q1692.45 1345.3 1690.58 1343.47 Q1688.7 1341.62 1688.7 1336.75 L1688.7 1322.68 L1685.58 1322.68 L1685.58 1319.37 L1688.7 1319.37 L1688.7 1312.01 L1692.99 1312.01 Z" fill="#adb2b7" fill-rule="nonzero" fill-opacity="1"></path><path clip-path="url(#clip890)" d="M1718.15 1347.7 Q1716.34 1352.33 1714.63 1353.75 Q1712.92 1355.16 1710.05 1355.16 L1706.64 1355.16 L1706.64 1351.59 L1709.14 1351.59 Q1710.9 1351.59 1711.88 1350.76 Q1712.85 1349.93 1714.03 1346.82 L1714.79 1344.88 L1704.31 1319.37 L1708.82 1319.37 L1716.92 1339.65 L1725.02 1319.37 L1729.54 1319.37 L1718.15 1347.7 Z" fill="#adb2b7" fill-rule="nonzero" fill-opacity="1"></path><path clip-path="url(#clip890)" d="M1747.43 1319.37 L1751.94 1319.37 L1760.05 1341.13 L1768.15 1319.37 L1772.66 1319.37 L1762.94 1345.3 L1757.15 1345.3 L1747.43 1319.37 Z" fill="#adb2b7" fill-rule="nonzero" fill-opacity="1"></path><path clip-path="url(#clip890)" d="M1790.32 1332.26 Q1785.16 1332.26 1783.17 1333.44 Q1781.18 1334.63 1781.18 1337.47 Q1781.18 1339.74 1782.66 1341.08 Q1784.17 1342.4 1786.74 1342.4 Q1790.28 1342.4 1792.41 1339.9 Q1794.56 1337.38 1794.56 1333.21 L1794.56 1332.26 L1790.32 1332.26 M1798.82 1330.5 L1798.82 1345.3 L1794.56 1345.3 L1794.56 1341.36 Q1793.1 1343.72 1790.93 1344.86 Q1788.75 1345.97 1785.6 1345.97 Q1781.62 1345.97 1779.26 1343.75 Q1776.92 1341.5 1776.92 1337.75 Q1776.92 1333.38 1779.84 1331.15 Q1782.78 1328.93 1788.59 1328.93 L1794.56 1328.93 L1794.56 1328.51 Q1794.56 1325.57 1792.62 1323.98 Q1790.69 1322.36 1787.2 1322.36 Q1784.98 1322.36 1782.87 1322.89 Q1780.76 1323.42 1778.82 1324.49 L1778.82 1320.55 Q1781.16 1319.65 1783.36 1319.21 Q1785.56 1318.75 1787.64 1318.75 Q1793.26 1318.75 1796.04 1321.66 Q1798.82 1324.58 1798.82 1330.5 Z" fill="#adb2b7" fill-rule="nonzero" fill-opacity="1"></path><path clip-path="url(#clip890)" d="M1807.59 1309.28 L1811.85 1309.28 L1811.85 1345.3 L1807.59 1345.3 L1807.59 1309.28 Z" fill="#adb2b7" fill-rule="nonzero" fill-opacity="1"></path><path clip-path="url(#clip890)" d="M1820.32 1335.06 L1820.32 1319.37 L1824.58 1319.37 L1824.58 1334.9 Q1824.58 1338.58 1826.02 1340.44 Q1827.45 1342.26 1830.32 1342.26 Q1833.77 1342.26 1835.76 1340.06 Q1837.78 1337.87 1837.78 1334.07 L1837.78 1319.37 L1842.04 1319.37 L1842.04 1345.3 L1837.78 1345.3 L1837.78 1341.31 Q1836.23 1343.68 1834.17 1344.83 Q1832.13 1345.97 1829.42 1345.97 Q1824.95 1345.97 1822.64 1343.19 Q1820.32 1340.41 1820.32 1335.06 M1831.04 1318.75 L1831.04 1318.75 Z" fill="#adb2b7" fill-rule="nonzero" fill-opacity="1"></path><path clip-path="url(#clip890)" d="M1872.99 1331.27 L1872.99 1333.35 L1853.4 1333.35 Q1853.68 1337.75 1856.04 1340.06 Q1858.43 1342.36 1862.66 1342.36 Q1865.12 1342.36 1867.41 1341.75 Q1869.72 1341.15 1871.99 1339.95 L1871.99 1343.98 Q1869.7 1344.95 1867.29 1345.46 Q1864.88 1345.97 1862.41 1345.97 Q1856.2 1345.97 1852.57 1342.36 Q1848.96 1338.75 1848.96 1332.59 Q1848.96 1326.22 1852.38 1322.5 Q1855.83 1318.75 1861.67 1318.75 Q1866.9 1318.75 1869.93 1322.13 Q1872.99 1325.48 1872.99 1331.27 M1868.73 1330.02 Q1868.68 1326.52 1866.76 1324.44 Q1864.86 1322.36 1861.71 1322.36 Q1858.15 1322.36 1855.99 1324.37 Q1853.87 1326.38 1853.54 1330.04 L1868.73 1330.02 Z" fill="#adb2b7" fill-rule="nonzero" fill-opacity="1"></path></svg>