<svg xmlns="http://www.w3.org/2000/svg" xmlns:xlink="http://www.w3.org/1999/xlink" width="600" height="400" viewBox="0 0 2400 1600">
<defs>
  <clipPath id="clip410">
    <rect x="0" y="0" width="2400" height="1600"></rect>
  </clipPath>
</defs>
<path clip-path="url(#clip410)" d="M0 1600 L2400 1600 L2400 0 L0 0  Z" fill="#282c34" fill-rule="evenodd" fill-opacity="1"></path>
<defs>
  <clipPath id="clip411">
    <rect x="480" y="0" width="1681" height="1600"></rect>
  </clipPath>
</defs>
<path clip-path="url(#clip410)" d="M219.866 1423.18 L2352.76 1423.18 L2352.76 123.472 L219.866 123.472  Z" fill="#21252b" fill-rule="evenodd" fill-opacity="1"></path>
<defs>
  <clipPath id="clip412">
    <rect x="219" y="123" width="2134" height="1301"></rect>
  </clipPath>
</defs>
<polyline clip-path="url(#clip412)" style="stroke:#adb2b7; stroke-linecap:round; stroke-linejoin:round; stroke-width:2; stroke-opacity:0.1; fill:none" points="280.231,1423.18 280.231,123.472 "></polyline>
<polyline clip-path="url(#clip412)" style="stroke:#adb2b7; stroke-linecap:round; stroke-linejoin:round; stroke-width:2; stroke-opacity:0.1; fill:none" points="783.271,1423.18 783.271,123.472 "></polyline>
<polyline clip-path="url(#clip412)" style="stroke:#adb2b7; stroke-linecap:round; stroke-linejoin:round; stroke-width:2; stroke-opacity:0.1; fill:none" points="1286.31,1423.18 1286.31,123.472 "></polyline>
<polyline clip-path="url(#clip412)" style="stroke:#adb2b7; stroke-linecap:round; stroke-linejoin:round; stroke-width:2; stroke-opacity:0.1; fill:none" points="1789.35,1423.18 1789.35,123.472 "></polyline>
<polyline clip-path="url(#clip412)" style="stroke:#adb2b7; stroke-linecap:round; stroke-linejoin:round; stroke-width:2; stroke-opacity:0.1; fill:none" points="2292.39,1423.18 2292.39,123.472 "></polyline>
<polyline clip-path="url(#clip410)" style="stroke:#adb2b7; stroke-linecap:round; stroke-linejoin:round; stroke-width:4; stroke-opacity:1; fill:none" points="219.866,1423.18 2352.76,1423.18 "></polyline>
<polyline clip-path="url(#clip410)" style="stroke:#adb2b7; stroke-linecap:round; stroke-linejoin:round; stroke-width:4; stroke-opacity:1; fill:none" points="280.231,1423.18 280.231,1404.28 "></polyline>
<polyline clip-path="url(#clip410)" style="stroke:#adb2b7; stroke-linecap:round; stroke-linejoin:round; stroke-width:4; stroke-opacity:1; fill:none" points="783.271,1423.18 783.271,1404.28 "></polyline>
<polyline clip-path="url(#clip410)" style="stroke:#adb2b7; stroke-linecap:round; stroke-linejoin:round; stroke-width:4; stroke-opacity:1; fill:none" points="1286.31,1423.18 1286.31,1404.28 "></polyline>
<polyline clip-path="url(#clip410)" style="stroke:#adb2b7; stroke-linecap:round; stroke-linejoin:round; stroke-width:4; stroke-opacity:1; fill:none" points="1789.35,1423.18 1789.35,1404.28 "></polyline>
<polyline clip-path="url(#clip410)" style="stroke:#adb2b7; stroke-linecap:round; stroke-linejoin:round; stroke-width:4; stroke-opacity:1; fill:none" points="2292.39,1423.18 2292.39,1404.28 "></polyline>
<path clip-path="url(#clip410)" d="M227.558 1468.75 L257.234 1468.75 L257.234 1472.69 L227.558 1472.69 L227.558 1468.75 Z" fill="#9eb1be" fill-rule="nonzero" fill-opacity="1"></path><path clip-path="url(#clip410)" d="M277.326 1454.1 Q273.715 1454.1 271.886 1457.66 Q270.081 1461.2 270.081 1468.33 Q270.081 1475.44 271.886 1479.01 Q273.715 1482.55 277.326 1482.55 Q280.96 1482.55 282.766 1479.01 Q284.594 1475.44 284.594 1468.33 Q284.594 1461.2 282.766 1457.66 Q280.96 1454.1 277.326 1454.1 M277.326 1450.39 Q283.136 1450.39 286.192 1455 Q289.27 1459.58 289.27 1468.33 Q289.27 1477.06 286.192 1481.67 Q283.136 1486.25 277.326 1486.25 Q271.516 1486.25 268.437 1481.67 Q265.382 1477.06 265.382 1468.33 Q265.382 1459.58 268.437 1455 Q271.516 1450.39 277.326 1450.39 Z" fill="#9eb1be" fill-rule="nonzero" fill-opacity="1"></path><path clip-path="url(#clip410)" d="M297.488 1479.7 L302.372 1479.7 L302.372 1485.58 L297.488 1485.58 L297.488 1479.7 Z" fill="#9eb1be" fill-rule="nonzero" fill-opacity="1"></path><path clip-path="url(#clip410)" d="M316.585 1481.64 L332.904 1481.64 L332.904 1485.58 L310.96 1485.58 L310.96 1481.64 Q313.622 1478.89 318.205 1474.26 Q322.812 1469.61 323.992 1468.27 Q326.238 1465.74 327.117 1464.01 Q328.02 1462.25 328.02 1460.56 Q328.02 1457.8 326.076 1456.07 Q324.154 1454.33 321.053 1454.33 Q318.854 1454.33 316.4 1455.09 Q313.969 1455.86 311.192 1457.41 L311.192 1452.69 Q314.016 1451.55 316.469 1450.97 Q318.923 1450.39 320.96 1450.39 Q326.33 1450.39 329.525 1453.08 Q332.719 1455.77 332.719 1460.26 Q332.719 1462.39 331.909 1464.31 Q331.122 1466.2 329.016 1468.8 Q328.437 1469.47 325.335 1472.69 Q322.233 1475.88 316.585 1481.64 Z" fill="#9eb1be" fill-rule="nonzero" fill-opacity="1"></path><path clip-path="url(#clip410)" d="M730.413 1468.75 L760.088 1468.75 L760.088 1472.69 L730.413 1472.69 L730.413 1468.75 Z" fill="#9eb1be" fill-rule="nonzero" fill-opacity="1"></path><path clip-path="url(#clip410)" d="M780.181 1454.1 Q776.57 1454.1 774.741 1457.66 Q772.935 1461.2 772.935 1468.33 Q772.935 1475.44 774.741 1479.01 Q776.57 1482.55 780.181 1482.55 Q783.815 1482.55 785.621 1479.01 Q787.449 1475.44 787.449 1468.33 Q787.449 1461.2 785.621 1457.66 Q783.815 1454.1 780.181 1454.1 M780.181 1450.39 Q785.991 1450.39 789.047 1455 Q792.125 1459.58 792.125 1468.33 Q792.125 1477.06 789.047 1481.67 Q785.991 1486.25 780.181 1486.25 Q774.371 1486.25 771.292 1481.67 Q768.236 1477.06 768.236 1468.33 Q768.236 1459.58 771.292 1455 Q774.371 1450.39 780.181 1450.39 Z" fill="#9eb1be" fill-rule="nonzero" fill-opacity="1"></path><path clip-path="url(#clip410)" d="M800.343 1479.7 L805.227 1479.7 L805.227 1485.58 L800.343 1485.58 L800.343 1479.7 Z" fill="#9eb1be" fill-rule="nonzero" fill-opacity="1"></path><path clip-path="url(#clip410)" d="M816.222 1481.64 L823.861 1481.64 L823.861 1455.28 L815.551 1456.95 L815.551 1452.69 L823.815 1451.02 L828.491 1451.02 L828.491 1481.64 L836.13 1481.64 L836.13 1485.58 L816.222 1485.58 L816.222 1481.64 Z" fill="#9eb1be" fill-rule="nonzero" fill-opacity="1"></path><path clip-path="url(#clip410)" d="M1263.7 1454.1 Q1260.08 1454.1 1258.26 1457.66 Q1256.45 1461.2 1256.45 1468.33 Q1256.45 1475.44 1258.26 1479.01 Q1260.08 1482.55 1263.7 1482.55 Q1267.33 1482.55 1269.14 1479.01 Q1270.96 1475.44 1270.96 1468.33 Q1270.96 1461.2 1269.14 1457.66 Q1267.33 1454.1 1263.7 1454.1 M1263.7 1450.39 Q1269.51 1450.39 1272.56 1455 Q1275.64 1459.58 1275.64 1468.33 Q1275.64 1477.06 1272.56 1481.67 Q1269.51 1486.25 1263.7 1486.25 Q1257.89 1486.25 1254.81 1481.67 Q1251.75 1477.06 1251.75 1468.33 Q1251.75 1459.58 1254.81 1455 Q1257.89 1450.39 1263.7 1450.39 Z" fill="#9eb1be" fill-rule="nonzero" fill-opacity="1"></path><path clip-path="url(#clip410)" d="M1283.86 1479.7 L1288.74 1479.7 L1288.74 1485.58 L1283.86 1485.58 L1283.86 1479.7 Z" fill="#9eb1be" fill-rule="nonzero" fill-opacity="1"></path><path clip-path="url(#clip410)" d="M1308.93 1454.1 Q1305.32 1454.1 1303.49 1457.66 Q1301.68 1461.2 1301.68 1468.33 Q1301.68 1475.44 1303.49 1479.01 Q1305.32 1482.55 1308.93 1482.55 Q1312.56 1482.55 1314.37 1479.01 Q1316.2 1475.44 1316.2 1468.33 Q1316.2 1461.2 1314.37 1457.66 Q1312.56 1454.1 1308.93 1454.1 M1308.93 1450.39 Q1314.74 1450.39 1317.79 1455 Q1320.87 1459.58 1320.87 1468.33 Q1320.87 1477.06 1317.79 1481.67 Q1314.74 1486.25 1308.93 1486.25 Q1303.12 1486.25 1300.04 1481.67 Q1296.98 1477.06 1296.98 1468.33 Q1296.98 1459.58 1300.04 1455 Q1303.12 1450.39 1308.93 1450.39 Z" fill="#9eb1be" fill-rule="nonzero" fill-opacity="1"></path><path clip-path="url(#clip410)" d="M1767.35 1454.1 Q1763.74 1454.1 1761.91 1457.66 Q1760.1 1461.2 1760.1 1468.33 Q1760.1 1475.44 1761.91 1479.01 Q1763.74 1482.55 1767.35 1482.55 Q1770.98 1482.55 1772.79 1479.01 Q1774.62 1475.44 1774.62 1468.33 Q1774.62 1461.2 1772.79 1457.66 Q1770.98 1454.1 1767.35 1454.1 M1767.35 1450.39 Q1773.16 1450.39 1776.21 1455 Q1779.29 1459.58 1779.29 1468.33 Q1779.29 1477.06 1776.21 1481.67 Q1773.16 1486.25 1767.35 1486.25 Q1761.54 1486.25 1758.46 1481.67 Q1755.4 1477.06 1755.4 1468.33 Q1755.4 1459.58 1758.46 1455 Q1761.54 1450.39 1767.35 1450.39 Z" fill="#9eb1be" fill-rule="nonzero" fill-opacity="1"></path><path clip-path="url(#clip410)" d="M1787.51 1479.7 L1792.4 1479.7 L1792.4 1485.58 L1787.51 1485.58 L1787.51 1479.7 Z" fill="#9eb1be" fill-rule="nonzero" fill-opacity="1"></path><path clip-path="url(#clip410)" d="M1803.39 1481.64 L1811.03 1481.64 L1811.03 1455.28 L1802.72 1456.95 L1802.72 1452.69 L1810.98 1451.02 L1815.66 1451.02 L1815.66 1481.64 L1823.3 1481.64 L1823.3 1485.58 L1803.39 1485.58 L1803.39 1481.64 Z" fill="#9eb1be" fill-rule="nonzero" fill-opacity="1"></path><path clip-path="url(#clip410)" d="M2270.57 1454.1 Q2266.96 1454.1 2265.13 1457.66 Q2263.33 1461.2 2263.33 1468.33 Q2263.33 1475.44 2265.13 1479.01 Q2266.96 1482.55 2270.57 1482.55 Q2274.21 1482.55 2276.01 1479.01 Q2277.84 1475.44 2277.84 1468.33 Q2277.84 1461.2 2276.01 1457.66 Q2274.21 1454.1 2270.57 1454.1 M2270.57 1450.39 Q2276.38 1450.39 2279.44 1455 Q2282.52 1459.58 2282.52 1468.33 Q2282.52 1477.06 2279.44 1481.67 Q2276.38 1486.25 2270.57 1486.25 Q2264.76 1486.25 2261.69 1481.67 Q2258.63 1477.06 2258.63 1468.33 Q2258.63 1459.58 2261.69 1455 Q2264.76 1450.39 2270.57 1450.39 Z" fill="#9eb1be" fill-rule="nonzero" fill-opacity="1"></path><path clip-path="url(#clip410)" d="M2290.74 1479.7 L2295.62 1479.7 L2295.62 1485.58 L2290.74 1485.58 L2290.74 1479.7 Z" fill="#9eb1be" fill-rule="nonzero" fill-opacity="1"></path><path clip-path="url(#clip410)" d="M2309.83 1481.64 L2326.15 1481.64 L2326.15 1485.58 L2304.21 1485.58 L2304.21 1481.64 Q2306.87 1478.89 2311.45 1474.26 Q2316.06 1469.61 2317.24 1468.27 Q2319.49 1465.74 2320.37 1464.01 Q2321.27 1462.25 2321.27 1460.56 Q2321.27 1457.8 2319.32 1456.07 Q2317.4 1454.33 2314.3 1454.33 Q2312.1 1454.33 2309.65 1455.09 Q2307.22 1455.86 2304.44 1457.41 L2304.44 1452.69 Q2307.26 1451.55 2309.72 1450.97 Q2312.17 1450.39 2314.21 1450.39 Q2319.58 1450.39 2322.77 1453.08 Q2325.97 1455.77 2325.97 1460.26 Q2325.97 1462.39 2325.16 1464.31 Q2324.37 1466.2 2322.26 1468.8 Q2321.68 1469.47 2318.58 1472.69 Q2315.48 1475.88 2309.83 1481.64 Z" fill="#9eb1be" fill-rule="nonzero" fill-opacity="1"></path><path clip-path="url(#clip410)" d="M1276.25 1562.7 L1276.25 1581.6 L1270.36 1581.6 L1270.36 1532.4 L1276.25 1532.4 L1276.25 1537.81 Q1278.1 1534.62 1280.9 1533.1 Q1283.73 1531.54 1287.65 1531.54 Q1294.14 1531.54 1298.18 1536.69 Q1302.26 1541.85 1302.26 1550.25 Q1302.26 1558.65 1298.18 1563.81 Q1294.14 1568.97 1287.65 1568.97 Q1283.73 1568.97 1280.9 1567.44 Q1278.1 1565.88 1276.25 1562.7 M1296.18 1550.25 Q1296.18 1543.79 1293.5 1540.13 Q1290.86 1536.44 1286.22 1536.44 Q1281.57 1536.44 1278.9 1540.13 Q1276.25 1543.79 1276.25 1550.25 Q1276.25 1556.71 1278.9 1560.4 Q1281.57 1564.07 1286.22 1564.07 Q1290.86 1564.07 1293.5 1560.4 Q1296.18 1556.71 1296.18 1550.25 Z" fill="#9eb1be" fill-rule="nonzero" fill-opacity="1"></path><polyline clip-path="url(#clip412)" style="stroke:#adb2b7; stroke-linecap:round; stroke-linejoin:round; stroke-width:2; stroke-opacity:0.1; fill:none" points="219.866,1423.18 2352.76,1423.18 "></polyline>
<polyline clip-path="url(#clip412)" style="stroke:#adb2b7; stroke-linecap:round; stroke-linejoin:round; stroke-width:2; stroke-opacity:0.1; fill:none" points="219.866,1163.24 2352.76,1163.24 "></polyline>
<polyline clip-path="url(#clip412)" style="stroke:#adb2b7; stroke-linecap:round; stroke-linejoin:round; stroke-width:2; stroke-opacity:0.1; fill:none" points="219.866,903.297 2352.76,903.297 "></polyline>
<polyline clip-path="url(#clip412)" style="stroke:#adb2b7; stroke-linecap:round; stroke-linejoin:round; stroke-width:2; stroke-opacity:0.1; fill:none" points="219.866,643.355 2352.76,643.355 "></polyline>
<polyline clip-path="url(#clip412)" style="stroke:#adb2b7; stroke-linecap:round; stroke-linejoin:round; stroke-width:2; stroke-opacity:0.1; fill:none" points="219.866,383.414 2352.76,383.414 "></polyline>
<polyline clip-path="url(#clip412)" style="stroke:#adb2b7; stroke-linecap:round; stroke-linejoin:round; stroke-width:2; stroke-opacity:0.1; fill:none" points="219.866,123.472 2352.76,123.472 "></polyline>
<polyline clip-path="url(#clip410)" style="stroke:#adb2b7; stroke-linecap:round; stroke-linejoin:round; stroke-width:4; stroke-opacity:1; fill:none" points="219.866,1423.18 219.866,123.472 "></polyline>
<polyline clip-path="url(#clip410)" style="stroke:#adb2b7; stroke-linecap:round; stroke-linejoin:round; stroke-width:4; stroke-opacity:1; fill:none" points="219.866,1423.18 238.764,1423.18 "></polyline>
<polyline clip-path="url(#clip410)" style="stroke:#adb2b7; stroke-linecap:round; stroke-linejoin:round; stroke-width:4; stroke-opacity:1; fill:none" points="219.866,1163.24 238.764,1163.24 "></polyline>
<polyline clip-path="url(#clip410)" style="stroke:#adb2b7; stroke-linecap:round; stroke-linejoin:round; stroke-width:4; stroke-opacity:1; fill:none" points="219.866,903.297 238.764,903.297 "></polyline>
<polyline clip-path="url(#clip410)" style="stroke:#adb2b7; stroke-linecap:round; stroke-linejoin:round; stroke-width:4; stroke-opacity:1; fill:none" points="219.866,643.355 238.764,643.355 "></polyline>
<polyline clip-path="url(#clip410)" style="stroke:#adb2b7; stroke-linecap:round; stroke-linejoin:round; stroke-width:4; stroke-opacity:1; fill:none" points="219.866,383.414 238.764,383.414 "></polyline>
<polyline clip-path="url(#clip410)" style="stroke:#adb2b7; stroke-linecap:round; stroke-linejoin:round; stroke-width:4; stroke-opacity:1; fill:none" points="219.866,123.472 238.764,123.472 "></polyline>
<path clip-path="url(#clip410)" d="M126.691 1408.98 Q123.08 1408.98 121.251 1412.54 Q119.445 1416.08 119.445 1423.21 Q119.445 1430.32 121.251 1433.89 Q123.08 1437.43 126.691 1437.43 Q130.325 1437.43 132.13 1433.89 Q133.959 1430.32 133.959 1423.21 Q133.959 1416.08 132.13 1412.54 Q130.325 1408.98 126.691 1408.98 M126.691 1405.27 Q132.501 1405.27 135.556 1409.88 Q138.635 1414.46 138.635 1423.21 Q138.635 1431.94 135.556 1436.55 Q132.501 1441.13 126.691 1441.13 Q120.88 1441.13 117.802 1436.55 Q114.746 1431.94 114.746 1423.21 Q114.746 1414.46 117.802 1409.88 Q120.88 1405.27 126.691 1405.27 Z" fill="#9eb1be" fill-rule="nonzero" fill-opacity="1"></path><path clip-path="url(#clip410)" d="M146.853 1434.58 L151.737 1434.58 L151.737 1440.46 L146.853 1440.46 L146.853 1434.58 Z" fill="#9eb1be" fill-rule="nonzero" fill-opacity="1"></path><path clip-path="url(#clip410)" d="M171.922 1408.98 Q168.311 1408.98 166.482 1412.54 Q164.677 1416.08 164.677 1423.21 Q164.677 1430.32 166.482 1433.89 Q168.311 1437.43 171.922 1437.43 Q175.556 1437.43 177.362 1433.89 Q179.19 1430.32 179.19 1423.21 Q179.19 1416.08 177.362 1412.54 Q175.556 1408.98 171.922 1408.98 M171.922 1405.27 Q177.732 1405.27 180.788 1409.88 Q183.866 1414.46 183.866 1423.21 Q183.866 1431.94 180.788 1436.55 Q177.732 1441.13 171.922 1441.13 Q166.112 1441.13 163.033 1436.55 Q159.978 1431.94 159.978 1423.21 Q159.978 1414.46 163.033 1409.88 Q166.112 1405.27 171.922 1405.27 Z" fill="#9eb1be" fill-rule="nonzero" fill-opacity="1"></path><path clip-path="url(#clip410)" d="M128.288 1149.04 Q124.677 1149.04 122.848 1152.6 Q121.043 1156.14 121.043 1163.27 Q121.043 1170.38 122.848 1173.94 Q124.677 1177.49 128.288 1177.49 Q131.922 1177.49 133.728 1173.94 Q135.556 1170.38 135.556 1163.27 Q135.556 1156.14 133.728 1152.6 Q131.922 1149.04 128.288 1149.04 M128.288 1145.33 Q134.098 1145.33 137.154 1149.94 Q140.232 1154.52 140.232 1163.27 Q140.232 1172 137.154 1176.61 Q134.098 1181.19 128.288 1181.19 Q122.478 1181.19 119.399 1176.61 Q116.343 1172 116.343 1163.27 Q116.343 1154.52 119.399 1149.94 Q122.478 1145.33 128.288 1145.33 Z" fill="#9eb1be" fill-rule="nonzero" fill-opacity="1"></path><path clip-path="url(#clip410)" d="M148.45 1174.64 L153.334 1174.64 L153.334 1180.52 L148.45 1180.52 L148.45 1174.64 Z" fill="#9eb1be" fill-rule="nonzero" fill-opacity="1"></path><path clip-path="url(#clip410)" d="M167.547 1176.58 L183.866 1176.58 L183.866 1180.52 L161.922 1180.52 L161.922 1176.58 Q164.584 1173.83 169.167 1169.2 Q173.774 1164.55 174.954 1163.2 Q177.2 1160.68 178.079 1158.94 Q178.982 1157.19 178.982 1155.5 Q178.982 1152.74 177.038 1151 Q175.116 1149.27 172.014 1149.27 Q169.815 1149.27 167.362 1150.03 Q164.931 1150.8 162.153 1152.35 L162.153 1147.62 Q164.977 1146.49 167.431 1145.91 Q169.885 1145.33 171.922 1145.33 Q177.292 1145.33 180.487 1148.02 Q183.681 1150.7 183.681 1155.19 Q183.681 1157.32 182.871 1159.25 Q182.084 1161.14 179.977 1163.74 Q179.399 1164.41 176.297 1167.62 Q173.195 1170.82 167.547 1176.58 Z" fill="#9eb1be" fill-rule="nonzero" fill-opacity="1"></path><path clip-path="url(#clip410)" d="M126.205 889.095 Q122.593 889.095 120.765 892.66 Q118.959 896.202 118.959 903.331 Q118.959 910.438 120.765 914.003 Q122.593 917.544 126.205 917.544 Q129.839 917.544 131.644 914.003 Q133.473 910.438 133.473 903.331 Q133.473 896.202 131.644 892.66 Q129.839 889.095 126.205 889.095 M126.205 885.392 Q132.015 885.392 135.07 889.998 Q138.149 894.582 138.149 903.331 Q138.149 912.058 135.07 916.665 Q132.015 921.248 126.205 921.248 Q120.394 921.248 117.316 916.665 Q114.26 912.058 114.26 903.331 Q114.26 894.582 117.316 889.998 Q120.394 885.392 126.205 885.392 Z" fill="#9eb1be" fill-rule="nonzero" fill-opacity="1"></path><path clip-path="url(#clip410)" d="M146.366 914.697 L151.251 914.697 L151.251 920.577 L146.366 920.577 L146.366 914.697 Z" fill="#9eb1be" fill-rule="nonzero" fill-opacity="1"></path><path clip-path="url(#clip410)" d="M174.283 890.091 L162.477 908.54 L174.283 908.54 L174.283 890.091 M173.056 886.017 L178.936 886.017 L178.936 908.54 L183.866 908.54 L183.866 912.429 L178.936 912.429 L178.936 920.577 L174.283 920.577 L174.283 912.429 L158.681 912.429 L158.681 907.915 L173.056 886.017 Z" fill="#9eb1be" fill-rule="nonzero" fill-opacity="1"></path><path clip-path="url(#clip410)" d="M126.529 629.154 Q122.918 629.154 121.089 632.719 Q119.283 636.26 119.283 643.39 Q119.283 650.496 121.089 654.061 Q122.918 657.603 126.529 657.603 Q130.163 657.603 131.968 654.061 Q133.797 650.496 133.797 643.39 Q133.797 636.26 131.968 632.719 Q130.163 629.154 126.529 629.154 M126.529 625.45 Q132.339 625.45 135.394 630.057 Q138.473 634.64 138.473 643.39 Q138.473 652.117 135.394 656.723 Q132.339 661.307 126.529 661.307 Q120.718 661.307 117.64 656.723 Q114.584 652.117 114.584 643.39 Q114.584 634.64 117.64 630.057 Q120.718 625.45 126.529 625.45 Z" fill="#9eb1be" fill-rule="nonzero" fill-opacity="1"></path><path clip-path="url(#clip410)" d="M146.691 654.756 L151.575 654.756 L151.575 660.635 L146.691 660.635 L146.691 654.756 Z" fill="#9eb1be" fill-rule="nonzero" fill-opacity="1"></path><path clip-path="url(#clip410)" d="M172.339 641.492 Q169.19 641.492 167.339 643.645 Q165.51 645.797 165.51 649.547 Q165.51 653.274 167.339 655.45 Q169.19 657.603 172.339 657.603 Q175.487 657.603 177.315 655.45 Q179.167 653.274 179.167 649.547 Q179.167 645.797 177.315 643.645 Q175.487 641.492 172.339 641.492 M181.621 626.839 L181.621 631.098 Q179.862 630.265 178.056 629.825 Q176.274 629.385 174.514 629.385 Q169.885 629.385 167.431 632.51 Q165.001 635.635 164.653 641.955 Q166.019 639.941 168.079 638.876 Q170.139 637.788 172.616 637.788 Q177.825 637.788 180.834 640.959 Q183.866 644.108 183.866 649.547 Q183.866 654.871 180.718 658.089 Q177.57 661.307 172.339 661.307 Q166.343 661.307 163.172 656.723 Q160.001 652.117 160.001 643.39 Q160.001 635.196 163.89 630.334 Q167.778 625.45 174.329 625.45 Q176.089 625.45 177.871 625.797 Q179.676 626.145 181.621 626.839 Z" fill="#9eb1be" fill-rule="nonzero" fill-opacity="1"></path><path clip-path="url(#clip410)" d="M126.783 369.212 Q123.172 369.212 121.343 372.777 Q119.538 376.319 119.538 383.448 Q119.538 390.555 121.343 394.12 Q123.172 397.661 126.783 397.661 Q130.417 397.661 132.223 394.12 Q134.052 390.555 134.052 383.448 Q134.052 376.319 132.223 372.777 Q130.417 369.212 126.783 369.212 M126.783 365.509 Q132.593 365.509 135.649 370.115 Q138.728 374.698 138.728 383.448 Q138.728 392.175 135.649 396.782 Q132.593 401.365 126.783 401.365 Q120.973 401.365 117.894 396.782 Q114.839 392.175 114.839 383.448 Q114.839 374.698 117.894 370.115 Q120.973 365.509 126.783 365.509 Z" fill="#9eb1be" fill-rule="nonzero" fill-opacity="1"></path><path clip-path="url(#clip410)" d="M146.945 394.814 L151.829 394.814 L151.829 400.694 L146.945 400.694 L146.945 394.814 Z" fill="#9eb1be" fill-rule="nonzero" fill-opacity="1"></path><path clip-path="url(#clip410)" d="M172.014 384.282 Q168.681 384.282 166.76 386.064 Q164.862 387.847 164.862 390.971 Q164.862 394.096 166.76 395.879 Q168.681 397.661 172.014 397.661 Q175.348 397.661 177.269 395.879 Q179.19 394.073 179.19 390.971 Q179.19 387.847 177.269 386.064 Q175.371 384.282 172.014 384.282 M167.339 382.291 Q164.329 381.55 162.64 379.49 Q160.973 377.43 160.973 374.467 Q160.973 370.323 163.913 367.916 Q166.876 365.509 172.014 365.509 Q177.176 365.509 180.116 367.916 Q183.056 370.323 183.056 374.467 Q183.056 377.43 181.366 379.49 Q179.7 381.55 176.714 382.291 Q180.093 383.078 181.968 385.37 Q183.866 387.661 183.866 390.971 Q183.866 395.995 180.788 398.68 Q177.732 401.365 172.014 401.365 Q166.297 401.365 163.218 398.68 Q160.163 395.995 160.163 390.971 Q160.163 387.661 162.061 385.37 Q163.959 383.078 167.339 382.291 M165.626 374.907 Q165.626 377.592 167.292 379.097 Q168.982 380.601 172.014 380.601 Q175.024 380.601 176.714 379.097 Q178.426 377.592 178.426 374.907 Q178.426 372.222 176.714 370.717 Q175.024 369.212 172.014 369.212 Q168.982 369.212 167.292 370.717 Q165.626 372.222 165.626 374.907 Z" fill="#9eb1be" fill-rule="nonzero" fill-opacity="1"></path><path clip-path="url(#clip410)" d="M117.501 136.817 L125.14 136.817 L125.14 110.451 L116.83 112.118 L116.83 107.859 L125.093 106.192 L129.769 106.192 L129.769 136.817 L137.408 136.817 L137.408 140.752 L117.501 140.752 L117.501 136.817 Z" fill="#9eb1be" fill-rule="nonzero" fill-opacity="1"></path><path clip-path="url(#clip410)" d="M146.853 134.873 L151.737 134.873 L151.737 140.752 L146.853 140.752 L146.853 134.873 Z" fill="#9eb1be" fill-rule="nonzero" fill-opacity="1"></path><path clip-path="url(#clip410)" d="M171.922 109.271 Q168.311 109.271 166.482 112.836 Q164.677 116.377 164.677 123.507 Q164.677 130.613 166.482 134.178 Q168.311 137.72 171.922 137.72 Q175.556 137.72 177.362 134.178 Q179.19 130.613 179.19 123.507 Q179.19 116.377 177.362 112.836 Q175.556 109.271 171.922 109.271 M171.922 105.567 Q177.732 105.567 180.788 110.174 Q183.866 114.757 183.866 123.507 Q183.866 132.234 180.788 136.84 Q177.732 141.423 171.922 141.423 Q166.112 141.423 163.033 136.84 Q159.978 132.234 159.978 123.507 Q159.978 114.757 163.033 110.174 Q166.112 105.567 171.922 105.567 Z" fill="#9eb1be" fill-rule="nonzero" fill-opacity="1"></path><path clip-path="url(#clip410)" d="M64.0042 776.954 L16.4842 795.097 L16.4842 788.381 L56.4926 773.326 L16.4842 758.239 L16.4842 751.555 L64.0042 769.666 L64.0042 776.954 Z" fill="#9eb1be" fill-rule="nonzero" fill-opacity="1"></path><path clip-path="url(#clip410)" d="M614.428 72.576 L591.338 12.096 L599.885 12.096 L619.046 63.0159 L638.247 12.096 L646.754 12.096 L623.705 72.576 L614.428 72.576 Z" fill="#adb2b7" fill-rule="nonzero" fill-opacity="1"></path><path clip-path="url(#clip410)" d="M673.166 9.62495 Q667.738 18.942 665.105 28.0566 Q662.472 37.1711 662.472 46.5287 Q662.472 55.8863 665.105 65.0818 Q667.779 74.2369 673.166 83.5134 L666.685 83.5134 Q660.608 73.9938 657.57 64.7983 Q654.573 55.6027 654.573 46.5287 Q654.573 37.4952 657.57 28.3401 Q660.568 19.1851 666.685 9.62495 L673.166 9.62495 Z" fill="#adb2b7" fill-rule="nonzero" fill-opacity="1"></path><path clip-path="url(#clip410)" d="M694.839 65.7705 L694.839 89.8329 L687.344 89.8329 L687.344 27.2059 L694.839 27.2059 L694.839 34.0924 Q697.188 30.0415 700.753 28.0971 Q704.358 26.1121 709.341 26.1121 Q717.605 26.1121 722.749 32.6746 Q727.934 39.2371 727.934 49.9314 Q727.934 60.6258 722.749 67.1883 Q717.605 73.7508 709.341 73.7508 Q704.358 73.7508 700.753 71.8063 Q697.188 69.8214 694.839 65.7705 M720.197 49.9314 Q720.197 41.7081 716.794 37.0496 Q713.432 32.3505 707.518 32.3505 Q701.604 32.3505 698.201 37.0496 Q694.839 41.7081 694.839 49.9314 Q694.839 58.1548 698.201 62.8538 Q701.604 67.5124 707.518 67.5124 Q713.432 67.5124 716.794 62.8538 Q720.197 58.1548 720.197 49.9314 Z" fill="#adb2b7" fill-rule="nonzero" fill-opacity="1"></path><path clip-path="url(#clip410)" d="M739.115 9.62495 L745.596 9.62495 Q751.673 19.1851 754.67 28.3401 Q757.709 37.4952 757.709 46.5287 Q757.709 55.6027 754.67 64.7983 Q751.673 73.9938 745.596 83.5134 L739.115 83.5134 Q744.503 74.2369 747.136 65.0818 Q749.809 55.8863 749.809 46.5287 Q749.809 37.1711 747.136 28.0566 Q744.503 18.942 739.115 9.62495 Z" fill="#adb2b7" fill-rule="nonzero" fill-opacity="1"></path><path clip-path="url(#clip410)" d="M768.889 46.5287 L790.723 46.5287 L790.723 53.1722 L768.889 53.1722 L768.889 46.5287 Z" fill="#adb2b7" fill-rule="nonzero" fill-opacity="1"></path><path clip-path="url(#clip410)" d="M832.448 34.0924 L832.448 9.54393 L839.901 9.54393 L839.901 72.576 L832.448 72.576 L832.448 65.7705 Q830.098 69.8214 826.493 71.8063 Q822.928 73.7508 817.905 73.7508 Q809.682 73.7508 804.497 67.1883 Q799.352 60.6258 799.352 49.9314 Q799.352 39.2371 804.497 32.6746 Q809.682 26.1121 817.905 26.1121 Q822.928 26.1121 826.493 28.0971 Q830.098 30.0415 832.448 34.0924 M807.049 49.9314 Q807.049 58.1548 810.411 62.8538 Q813.814 67.5124 819.728 67.5124 Q825.642 67.5124 829.045 62.8538 Q832.448 58.1548 832.448 49.9314 Q832.448 41.7081 829.045 37.0496 Q825.642 32.3505 819.728 32.3505 Q813.814 32.3505 810.411 37.0496 Q807.049 41.7081 807.049 49.9314 Z" fill="#adb2b7" fill-rule="nonzero" fill-opacity="1"></path><path clip-path="url(#clip410)" d="M855.254 27.2059 L862.708 27.2059 L862.708 72.576 L855.254 72.576 L855.254 27.2059 M855.254 9.54393 L862.708 9.54393 L862.708 18.9825 L855.254 18.9825 L855.254 9.54393 Z" fill="#adb2b7" fill-rule="nonzero" fill-opacity="1"></path><path clip-path="url(#clip410)" d="M898.923 49.7694 Q889.89 49.7694 886.406 51.8354 Q882.922 53.9013 882.922 58.8839 Q882.922 62.8538 885.515 65.2034 Q888.148 67.5124 892.644 67.5124 Q898.842 67.5124 902.569 63.1374 Q906.336 58.7219 906.336 51.4303 L906.336 49.7694 L898.923 49.7694 M913.79 46.6907 L913.79 72.576 L906.336 72.576 L906.336 65.6895 Q903.784 69.8214 899.976 71.8063 Q896.169 73.7508 890.659 73.7508 Q883.692 73.7508 879.56 69.8619 Q875.468 65.9325 875.468 59.3701 Q875.468 51.7138 880.573 47.825 Q885.717 43.9361 895.885 43.9361 L906.336 43.9361 L906.336 43.2069 Q906.336 38.0623 902.934 35.2672 Q899.571 32.4315 893.454 32.4315 Q889.566 32.4315 885.879 33.3632 Q882.193 34.295 878.79 36.1584 L878.79 29.2718 Q882.882 27.692 886.73 26.9223 Q890.578 26.1121 894.224 26.1121 Q904.068 26.1121 908.929 31.2163 Q913.79 36.3204 913.79 46.6907 Z" fill="#adb2b7" fill-rule="nonzero" fill-opacity="1"></path><path clip-path="url(#clip410)" d="M958.998 49.3643 Q958.998 41.2625 955.636 36.8065 Q952.314 32.3505 946.278 32.3505 Q940.283 32.3505 936.921 36.8065 Q933.599 41.2625 933.599 49.3643 Q933.599 57.4256 936.921 61.8816 Q940.283 66.3376 946.278 66.3376 Q952.314 66.3376 955.636 61.8816 Q958.998 57.4256 958.998 49.3643 M966.452 66.9452 Q966.452 78.5308 961.307 84.1616 Q956.162 89.8329 945.549 89.8329 Q941.62 89.8329 938.136 89.2252 Q934.652 88.6581 931.371 87.4428 L931.371 80.1917 Q934.652 81.9741 937.852 82.8248 Q941.053 83.6755 944.374 83.6755 Q951.706 83.6755 955.352 79.8271 Q958.998 76.0193 958.998 68.282 L958.998 64.5957 Q956.689 68.6061 953.084 70.5911 Q949.478 72.576 944.455 72.576 Q936.11 72.576 931.006 66.2161 Q925.902 59.8562 925.902 49.3643 Q925.902 38.832 931.006 32.472 Q936.11 26.1121 944.455 26.1121 Q949.478 26.1121 953.084 28.0971 Q956.689 30.082 958.998 34.0924 L958.998 27.2059 L966.452 27.2059 L966.452 66.9452 Z" fill="#adb2b7" fill-rule="nonzero" fill-opacity="1"></path><path clip-path="url(#clip410)" d="M1008.09 34.1734 Q1006.84 33.4443 1005.34 33.1202 Q1003.88 32.7556 1002.1 32.7556 Q995.78 32.7556 992.377 36.8875 Q989.015 40.9789 989.015 48.6757 L989.015 72.576 L981.521 72.576 L981.521 27.2059 L989.015 27.2059 L989.015 34.2544 Q991.365 30.1225 995.132 28.1376 Q998.899 26.1121 1004.29 26.1121 Q1005.06 26.1121 1005.99 26.2337 Q1006.92 26.3147 1008.05 26.5172 L1008.09 34.1734 Z" fill="#adb2b7" fill-rule="nonzero" fill-opacity="1"></path><path clip-path="url(#clip410)" d="M1036.53 49.7694 Q1027.5 49.7694 1024.02 51.8354 Q1020.53 53.9013 1020.53 58.8839 Q1020.53 62.8538 1023.12 65.2034 Q1025.76 67.5124 1030.25 67.5124 Q1036.45 67.5124 1040.18 63.1374 Q1043.95 58.7219 1043.95 51.4303 L1043.95 49.7694 L1036.53 49.7694 M1051.4 46.6907 L1051.4 72.576 L1043.95 72.576 L1043.95 65.6895 Q1041.39 69.8214 1037.59 71.8063 Q1033.78 73.7508 1028.27 73.7508 Q1021.3 73.7508 1017.17 69.8619 Q1013.08 65.9325 1013.08 59.3701 Q1013.08 51.7138 1018.18 47.825 Q1023.33 43.9361 1033.49 43.9361 L1043.95 43.9361 L1043.95 43.2069 Q1043.95 38.0623 1040.54 35.2672 Q1037.18 32.4315 1031.06 32.4315 Q1027.17 32.4315 1023.49 33.3632 Q1019.8 34.295 1016.4 36.1584 L1016.4 29.2718 Q1020.49 27.692 1024.34 26.9223 Q1028.19 26.1121 1031.83 26.1121 Q1041.68 26.1121 1046.54 31.2163 Q1051.4 36.3204 1051.4 46.6907 Z" fill="#adb2b7" fill-rule="nonzero" fill-opacity="1"></path><path clip-path="url(#clip410)" d="M1102.08 35.9153 Q1104.87 30.8922 1108.76 28.5022 Q1112.65 26.1121 1117.91 26.1121 Q1125 26.1121 1128.85 31.0947 Q1132.7 36.0368 1132.7 45.1919 L1132.7 72.576 L1125.21 72.576 L1125.21 45.4349 Q1125.21 38.913 1122.9 35.7533 Q1120.59 32.5936 1115.85 32.5936 Q1110.06 32.5936 1106.69 36.4419 Q1103.33 40.2903 1103.33 46.9338 L1103.33 72.576 L1095.84 72.576 L1095.84 45.4349 Q1095.84 38.8725 1093.53 35.7533 Q1091.22 32.5936 1086.4 32.5936 Q1080.69 32.5936 1077.32 36.4824 Q1073.96 40.3308 1073.96 46.9338 L1073.96 72.576 L1066.47 72.576 L1066.47 27.2059 L1073.96 27.2059 L1073.96 34.2544 Q1076.51 30.082 1080.08 28.0971 Q1083.64 26.1121 1088.55 26.1121 Q1093.49 26.1121 1096.93 28.6237 Q1100.42 31.1352 1102.08 35.9153 Z" fill="#adb2b7" fill-rule="nonzero" fill-opacity="1"></path><path clip-path="url(#clip410)" d="M1169.6 27.2059 L1177.06 27.2059 L1186.38 62.6108 L1195.65 27.2059 L1204.44 27.2059 L1213.76 62.6108 L1223.04 27.2059 L1230.49 27.2059 L1218.62 72.576 L1209.83 72.576 L1200.07 35.3887 L1190.26 72.576 L1181.47 72.576 L1169.6 27.2059 Z" fill="#adb2b7" fill-rule="nonzero" fill-opacity="1"></path><path clip-path="url(#clip410)" d="M1241.79 27.2059 L1249.25 27.2059 L1249.25 72.576 L1241.79 72.576 L1241.79 27.2059 M1241.79 9.54393 L1249.25 9.54393 L1249.25 18.9825 L1241.79 18.9825 L1241.79 9.54393 Z" fill="#adb2b7" fill-rule="nonzero" fill-opacity="1"></path><path clip-path="url(#clip410)" d="M1272.21 14.324 L1272.21 27.2059 L1287.57 27.2059 L1287.57 32.9987 L1272.21 32.9987 L1272.21 57.6282 Q1272.21 63.1779 1273.71 64.7578 Q1275.25 66.3376 1279.91 66.3376 L1287.57 66.3376 L1287.57 72.576 L1279.91 72.576 Q1271.28 72.576 1268 69.3758 Q1264.72 66.1351 1264.72 57.6282 L1264.72 32.9987 L1259.25 32.9987 L1259.25 27.2059 L1264.72 27.2059 L1264.72 14.324 L1272.21 14.324 Z" fill="#adb2b7" fill-rule="nonzero" fill-opacity="1"></path><path clip-path="url(#clip410)" d="M1335.08 45.1919 L1335.08 72.576 L1327.63 72.576 L1327.63 45.4349 Q1327.63 38.994 1325.12 35.7938 Q1322.61 32.5936 1317.58 32.5936 Q1311.55 32.5936 1308.06 36.4419 Q1304.58 40.2903 1304.58 46.9338 L1304.58 72.576 L1297.09 72.576 L1297.09 9.54393 L1304.58 9.54393 L1304.58 34.2544 Q1307.25 30.163 1310.86 28.1376 Q1314.51 26.1121 1319.24 26.1121 Q1327.06 26.1121 1331.07 30.9732 Q1335.08 35.7938 1335.08 45.1919 Z" fill="#adb2b7" fill-rule="nonzero" fill-opacity="1"></path><path clip-path="url(#clip410)" d="M1383.53 65.7705 L1383.53 89.8329 L1376.04 89.8329 L1376.04 27.2059 L1383.53 27.2059 L1383.53 34.0924 Q1385.88 30.0415 1389.45 28.0971 Q1393.05 26.1121 1398.04 26.1121 Q1406.3 26.1121 1411.44 32.6746 Q1416.63 39.2371 1416.63 49.9314 Q1416.63 60.6258 1411.44 67.1883 Q1406.3 73.7508 1398.04 73.7508 Q1393.05 73.7508 1389.45 71.8063 Q1385.88 69.8214 1383.53 65.7705 M1408.89 49.9314 Q1408.89 41.7081 1405.49 37.0496 Q1402.13 32.3505 1396.21 32.3505 Q1390.3 32.3505 1386.9 37.0496 Q1383.53 41.7081 1383.53 49.9314 Q1383.53 58.1548 1386.9 62.8538 Q1390.3 67.5124 1396.21 67.5124 Q1402.13 67.5124 1405.49 62.8538 Q1408.89 58.1548 1408.89 49.9314 Z" fill="#adb2b7" fill-rule="nonzero" fill-opacity="1"></path><path clip-path="url(#clip410)" d="M1446.89 9.62495 Q1441.46 18.942 1438.83 28.0566 Q1436.19 37.1711 1436.19 46.5287 Q1436.19 55.8863 1438.83 65.0818 Q1441.5 74.2369 1446.89 83.5134 L1440.41 83.5134 Q1434.33 73.9938 1431.29 64.7983 Q1428.3 55.6027 1428.3 46.5287 Q1428.3 37.4952 1431.29 28.3401 Q1434.29 19.1851 1440.41 9.62495 L1446.89 9.62495 Z" fill="#adb2b7" fill-rule="nonzero" fill-opacity="1"></path><path clip-path="url(#clip410)" d="M1487.8 51.4708 L1486.02 42.1132 Q1484.2 32.5126 1476.99 32.5126 Q1471.56 32.5126 1469.09 36.9686 Q1465.97 42.5588 1465.97 49.9314 Q1465.97 58.8434 1469.01 63.0969 Q1472.09 67.4314 1476.99 67.4314 Q1482.42 67.4314 1485.33 58.8029 L1487.8 51.4708 M1491.98 39.075 L1495.99 27.2059 L1502.63 27.2059 L1494.33 51.7949 L1495.95 60.6663 Q1496.31 62.6513 1497.73 64.3122 Q1499.39 66.2566 1500.68 66.2566 L1504.25 66.2566 L1504.25 72.576 L1499.79 72.576 Q1495.99 72.576 1492.58 69.1732 Q1490.92 67.4719 1490.23 63.9071 Q1488.37 68.4036 1484.56 71.9279 Q1482.78 73.5887 1476.99 73.5887 Q1467.47 73.5887 1462.85 67.4314 Q1458.11 61.0714 1458.11 49.9314 Q1458.11 38.0218 1463.25 32.4315 Q1468.97 26.1931 1476.99 26.1931 Q1489.59 26.1931 1491.98 39.075 Z" fill="#adb2b7" fill-rule="nonzero" fill-opacity="1"></path><path clip-path="url(#clip410)" d="M1517.01 34.9026 L1568.94 34.9026 L1568.94 41.7081 L1517.01 41.7081 L1517.01 34.9026 M1517.01 51.4303 L1568.94 51.4303 L1568.94 58.3168 L1517.01 58.3168 L1517.01 51.4303 Z" fill="#adb2b7" fill-rule="nonzero" fill-opacity="1"></path><path clip-path="url(#clip410)" d="M1593.01 69.7809 L1593.01 89.8329 L1585.51 89.8329 L1585.51 27.4894 Q1585.51 9.01731 1602.77 9.01731 Q1620.35 9.01731 1620.35 24.6133 Q1620.35 35.7128 1613.38 39.7637 Q1624.72 43.4095 1624.72 54.2254 Q1624.72 73.4267 1605.2 73.4267 Q1596.61 73.4267 1593.01 69.7809 M1593.01 60.0587 Q1597.5 67.0668 1605.48 67.0668 Q1617.15 67.0668 1617.15 54.3469 Q1617.15 42.9234 1598.35 43.8146 L1598.35 36.928 Q1613.06 36.928 1613.06 23.9651 Q1613.06 15.0937 1603.58 15.0937 Q1593.01 15.0937 1593.01 27.7325 L1593.01 60.0587 Z" fill="#adb2b7" fill-rule="nonzero" fill-opacity="1"></path><path clip-path="url(#clip410)" d="M1639.47 34.9026 L1691.4 34.9026 L1691.4 41.7081 L1639.47 41.7081 L1639.47 34.9026 M1639.47 51.4303 L1691.4 51.4303 L1691.4 58.3168 L1639.47 58.3168 L1639.47 51.4303 Z" fill="#adb2b7" fill-rule="nonzero" fill-opacity="1"></path><path clip-path="url(#clip410)" d="M1726.56 17.4837 Q1720.24 17.4837 1717.04 23.7221 Q1713.88 29.92 1713.88 42.3968 Q1713.88 54.833 1717.04 61.0714 Q1720.24 67.2693 1726.56 67.2693 Q1732.92 67.2693 1736.08 61.0714 Q1739.28 54.833 1739.28 42.3968 Q1739.28 29.92 1736.08 23.7221 Q1732.92 17.4837 1726.56 17.4837 M1726.56 11.0023 Q1736.73 11.0023 1742.08 19.0636 Q1747.47 27.0843 1747.47 42.3968 Q1747.47 57.6687 1742.08 65.73 Q1736.73 73.7508 1726.56 73.7508 Q1716.4 73.7508 1711.01 65.73 Q1705.66 57.6687 1705.66 42.3968 Q1705.66 27.0843 1711.01 19.0636 Q1716.4 11.0023 1726.56 11.0023 Z" fill="#adb2b7" fill-rule="nonzero" fill-opacity="1"></path><path clip-path="url(#clip410)" d="M1761.85 62.2867 L1770.39 62.2867 L1770.39 72.576 L1761.85 72.576 L1761.85 62.2867 Z" fill="#adb2b7" fill-rule="nonzero" fill-opacity="1"></path><path clip-path="url(#clip410)" d="M1789.64 65.6895 L1803 65.6895 L1803 19.5497 L1788.46 22.4663 L1788.46 15.0127 L1802.92 12.096 L1811.11 12.096 L1811.11 65.6895 L1824.47 65.6895 L1824.47 72.576 L1789.64 72.576 L1789.64 65.6895 Z" fill="#adb2b7" fill-rule="nonzero" fill-opacity="1"></path><path clip-path="url(#clip410)" d="M1838.77 9.62495 L1845.25 9.62495 Q1851.33 19.1851 1854.33 28.3401 Q1857.37 37.4952 1857.37 46.5287 Q1857.37 55.6027 1854.33 64.7983 Q1851.33 73.9938 1845.25 83.5134 L1838.77 83.5134 Q1844.16 74.2369 1846.79 65.0818 Q1849.47 55.8863 1849.47 46.5287 Q1849.47 37.1711 1846.79 28.0566 Q1844.16 18.942 1838.77 9.62495 Z" fill="#adb2b7" fill-rule="nonzero" fill-opacity="1"></path><path clip-path="url(#clip410)" d="M1873.29 34.9026 L1925.22 34.9026 L1925.22 41.7081 L1873.29 41.7081 L1873.29 34.9026 M1873.29 51.4303 L1925.22 51.4303 L1925.22 58.3168 L1873.29 58.3168 L1873.29 51.4303 Z" fill="#adb2b7" fill-rule="nonzero" fill-opacity="1"></path><path clip-path="url(#clip410)" d="M1960.38 17.4837 Q1954.06 17.4837 1950.86 23.7221 Q1947.7 29.92 1947.7 42.3968 Q1947.7 54.833 1950.86 61.0714 Q1954.06 67.2693 1960.38 67.2693 Q1966.74 67.2693 1969.9 61.0714 Q1973.1 54.833 1973.1 42.3968 Q1973.1 29.92 1969.9 23.7221 Q1966.74 17.4837 1960.38 17.4837 M1960.38 11.0023 Q1970.55 11.0023 1975.9 19.0636 Q1981.28 27.0843 1981.28 42.3968 Q1981.28 57.6687 1975.9 65.73 Q1970.55 73.7508 1960.38 73.7508 Q1950.21 73.7508 1944.83 65.73 Q1939.48 57.6687 1939.48 42.3968 Q1939.48 27.0843 1944.83 19.0636 Q1950.21 11.0023 1960.38 11.0023 Z" fill="#adb2b7" fill-rule="nonzero" fill-opacity="1"></path><circle clip-path="url(#clip412)" cx="2292.39" cy="1423.18" r="10.8" fill="#fe4365" fill-rule="evenodd" fill-opacity="1" stroke="none"></circle>
<circle clip-path="url(#clip412)" cx="2251.33" cy="1415.74" r="10.8" fill="#fe4365" fill-rule="evenodd" fill-opacity="1" stroke="none"></circle>
<circle clip-path="url(#clip412)" cx="2210.26" cy="1408.03" r="10.8" fill="#fe4365" fill-rule="evenodd" fill-opacity="1" stroke="none"></circle>
<circle clip-path="url(#clip412)" cx="2169.2" cy="1401.74" r="10.8" fill="#fe4365" fill-rule="evenodd" fill-opacity="1" stroke="none"></circle>
<circle clip-path="url(#clip412)" cx="2128.13" cy="1393.26" r="10.8" fill="#fe4365" fill-rule="evenodd" fill-opacity="1" stroke="none"></circle>
<circle clip-path="url(#clip412)" cx="2087.07" cy="1382.62" r="10.8" fill="#fe4365" fill-rule="evenodd" fill-opacity="1" stroke="none"></circle>
<circle clip-path="url(#clip412)" cx="2046" cy="1374.48" r="10.8" fill="#fe4365" fill-rule="evenodd" fill-opacity="1" stroke="none"></circle>
<circle clip-path="url(#clip412)" cx="2004.94" cy="1367.44" r="10.8" fill="#fe4365" fill-rule="evenodd" fill-opacity="1" stroke="none"></circle>
<circle clip-path="url(#clip412)" cx="1963.88" cy="1351.69" r="10.8" fill="#fe4365" fill-rule="evenodd" fill-opacity="1" stroke="none"></circle>
<circle clip-path="url(#clip412)" cx="1922.81" cy="1346.57" r="10.8" fill="#fe4365" fill-rule="evenodd" fill-opacity="1" stroke="none"></circle>
<circle clip-path="url(#clip412)" cx="1881.75" cy="1338.37" r="10.8" fill="#fe4365" fill-rule="evenodd" fill-opacity="1" stroke="none"></circle>
<circle clip-path="url(#clip412)" cx="1840.68" cy="1320.82" r="10.8" fill="#fe4365" fill-rule="evenodd" fill-opacity="1" stroke="none"></circle>
<circle clip-path="url(#clip412)" cx="1799.62" cy="1298.56" r="10.8" fill="#fe4365" fill-rule="evenodd" fill-opacity="1" stroke="none"></circle>
<circle clip-path="url(#clip412)" cx="1758.55" cy="1298.63" r="10.8" fill="#fe4365" fill-rule="evenodd" fill-opacity="1" stroke="none"></circle>
<circle clip-path="url(#clip412)" cx="1717.49" cy="1266" r="10.8" fill="#fe4365" fill-rule="evenodd" fill-opacity="1" stroke="none"></circle>
<circle clip-path="url(#clip412)" cx="1676.42" cy="1252.68" r="10.8" fill="#fe4365" fill-rule="evenodd" fill-opacity="1" stroke="none"></circle>
<circle clip-path="url(#clip412)" cx="1635.36" cy="1230.01" r="10.8" fill="#fe4365" fill-rule="evenodd" fill-opacity="1" stroke="none"></circle>
<circle clip-path="url(#clip412)" cx="1594.29" cy="1202.84" r="10.8" fill="#fe4365" fill-rule="evenodd" fill-opacity="1" stroke="none"></circle>
<circle clip-path="url(#clip412)" cx="1553.23" cy="1180.95" r="10.8" fill="#fe4365" fill-rule="evenodd" fill-opacity="1" stroke="none"></circle>
<circle clip-path="url(#clip412)" cx="1512.17" cy="1170.76" r="10.8" fill="#fe4365" fill-rule="evenodd" fill-opacity="1" stroke="none"></circle>
<circle clip-path="url(#clip412)" cx="1471.1" cy="1094.33" r="10.8" fill="#fe4365" fill-rule="evenodd" fill-opacity="1" stroke="none"></circle>
<circle clip-path="url(#clip412)" cx="1430.04" cy="1030.98" r="10.8" fill="#fe4365" fill-rule="evenodd" fill-opacity="1" stroke="none"></circle>
<circle clip-path="url(#clip412)" cx="1388.97" cy="998.689" r="10.8" fill="#fe4365" fill-rule="evenodd" fill-opacity="1" stroke="none"></circle>
<circle clip-path="url(#clip412)" cx="1347.91" cy="887.125" r="10.8" fill="#fe4365" fill-rule="evenodd" fill-opacity="1" stroke="none"></circle>
<circle clip-path="url(#clip412)" cx="1306.84" cy="758.868" r="10.8" fill="#fe4365" fill-rule="evenodd" fill-opacity="1" stroke="none"></circle>
<circle clip-path="url(#clip412)" cx="1265.78" cy="741.274" r="10.8" fill="#fe4365" fill-rule="evenodd" fill-opacity="1" stroke="none"></circle>
<circle clip-path="url(#clip412)" cx="1224.71" cy="706.826" r="10.8" fill="#fe4365" fill-rule="evenodd" fill-opacity="1" stroke="none"></circle>
<circle clip-path="url(#clip412)" cx="1183.65" cy="556.069" r="10.8" fill="#fe4365" fill-rule="evenodd" fill-opacity="1" stroke="none"></circle>
<circle clip-path="url(#clip412)" cx="1142.59" cy="499.162" r="10.8" fill="#fe4365" fill-rule="evenodd" fill-opacity="1" stroke="none"></circle>
<circle clip-path="url(#clip412)" cx="1101.52" cy="462.731" r="10.8" fill="#fe4365" fill-rule="evenodd" fill-opacity="1" stroke="none"></circle>
<circle clip-path="url(#clip412)" cx="1060.46" cy="389.741" r="10.8" fill="#fe4365" fill-rule="evenodd" fill-opacity="1" stroke="none"></circle>
<circle clip-path="url(#clip412)" cx="1019.39" cy="387.548" r="10.8" fill="#fe4365" fill-rule="evenodd" fill-opacity="1" stroke="none"></circle>
<circle clip-path="url(#clip412)" cx="978.327" cy="343.166" r="10.8" fill="#fe4365" fill-rule="evenodd" fill-opacity="1" stroke="none"></circle>
<circle clip-path="url(#clip412)" cx="937.263" cy="312.283" r="10.8" fill="#fe4365" fill-rule="evenodd" fill-opacity="1" stroke="none"></circle>
<circle clip-path="url(#clip412)" cx="896.198" cy="294.665" r="10.8" fill="#fe4365" fill-rule="evenodd" fill-opacity="1" stroke="none"></circle>
<circle clip-path="url(#clip412)" cx="855.134" cy="267.511" r="10.8" fill="#fe4365" fill-rule="evenodd" fill-opacity="1" stroke="none"></circle>
<circle clip-path="url(#clip412)" cx="814.069" cy="254.539" r="10.8" fill="#fe4365" fill-rule="evenodd" fill-opacity="1" stroke="none"></circle>
<circle clip-path="url(#clip412)" cx="773.005" cy="240.918" r="10.8" fill="#fe4365" fill-rule="evenodd" fill-opacity="1" stroke="none"></circle>
<circle clip-path="url(#clip412)" cx="731.94" cy="227.548" r="10.8" fill="#fe4365" fill-rule="evenodd" fill-opacity="1" stroke="none"></circle>
<circle clip-path="url(#clip412)" cx="690.876" cy="215.802" r="10.8" fill="#fe4365" fill-rule="evenodd" fill-opacity="1" stroke="none"></circle>
<circle clip-path="url(#clip412)" cx="649.811" cy="207.192" r="10.8" fill="#fe4365" fill-rule="evenodd" fill-opacity="1" stroke="none"></circle>
<circle clip-path="url(#clip412)" cx="608.747" cy="194.578" r="10.8" fill="#fe4365" fill-rule="evenodd" fill-opacity="1" stroke="none"></circle>
<circle clip-path="url(#clip412)" cx="567.683" cy="181.639" r="10.8" fill="#fe4365" fill-rule="evenodd" fill-opacity="1" stroke="none"></circle>
<circle clip-path="url(#clip412)" cx="526.618" cy="171.477" r="10.8" fill="#fe4365" fill-rule="evenodd" fill-opacity="1" stroke="none"></circle>
<circle clip-path="url(#clip412)" cx="485.554" cy="161.015" r="10.8" fill="#fe4365" fill-rule="evenodd" fill-opacity="1" stroke="none"></circle>
<circle clip-path="url(#clip412)" cx="444.489" cy="155.597" r="10.8" fill="#fe4365" fill-rule="evenodd" fill-opacity="1" stroke="none"></circle>
<circle clip-path="url(#clip412)" cx="403.425" cy="143.616" r="10.8" fill="#fe4365" fill-rule="evenodd" fill-opacity="1" stroke="none"></circle>
<circle clip-path="url(#clip412)" cx="362.36" cy="141.602" r="10.8" fill="#fe4365" fill-rule="evenodd" fill-opacity="1" stroke="none"></circle>
<circle clip-path="url(#clip412)" cx="321.296" cy="130.701" r="10.8" fill="#fe4365" fill-rule="evenodd" fill-opacity="1" stroke="none"></circle>
<circle clip-path="url(#clip412)" cx="280.231" cy="123.472" r="10.8" fill="#fe4365" fill-rule="evenodd" fill-opacity="1" stroke="none"></circle>
<circle clip-path="url(#clip412)" cx="2292.39" cy="1423.18" r="10.8" fill="#eca25c" fill-rule="evenodd" fill-opacity="1" stroke="none"></circle>
<circle clip-path="url(#clip412)" cx="2251.33" cy="1416.92" r="10.8" fill="#eca25c" fill-rule="evenodd" fill-opacity="1" stroke="none"></circle>
<circle clip-path="url(#clip412)" cx="2210.26" cy="1412.46" r="10.8" fill="#eca25c" fill-rule="evenodd" fill-opacity="1" stroke="none"></circle>
<circle clip-path="url(#clip412)" cx="2169.2" cy="1407.5" r="10.8" fill="#eca25c" fill-rule="evenodd" fill-opacity="1" stroke="none"></circle>
<circle clip-path="url(#clip412)" cx="2128.13" cy="1401.8" r="10.8" fill="#eca25c" fill-rule="evenodd" fill-opacity="1" stroke="none"></circle>
<circle clip-path="url(#clip412)" cx="2087.07" cy="1395.81" r="10.8" fill="#eca25c" fill-rule="evenodd" fill-opacity="1" stroke="none"></circle>
<circle clip-path="url(#clip412)" cx="2046" cy="1389.42" r="10.8" fill="#eca25c" fill-rule="evenodd" fill-opacity="1" stroke="none"></circle>
<circle clip-path="url(#clip412)" cx="2004.94" cy="1386.81" r="10.8" fill="#eca25c" fill-rule="evenodd" fill-opacity="1" stroke="none"></circle>
<circle clip-path="url(#clip412)" cx="1963.88" cy="1380.54" r="10.8" fill="#eca25c" fill-rule="evenodd" fill-opacity="1" stroke="none"></circle>
<circle clip-path="url(#clip412)" cx="1922.81" cy="1374.88" r="10.8" fill="#eca25c" fill-rule="evenodd" fill-opacity="1" stroke="none"></circle>
<circle clip-path="url(#clip412)" cx="1881.75" cy="1362.8" r="10.8" fill="#eca25c" fill-rule="evenodd" fill-opacity="1" stroke="none"></circle>
<circle clip-path="url(#clip412)" cx="1840.68" cy="1363.26" r="10.8" fill="#eca25c" fill-rule="evenodd" fill-opacity="1" stroke="none"></circle>
<circle clip-path="url(#clip412)" cx="1799.62" cy="1352.27" r="10.8" fill="#eca25c" fill-rule="evenodd" fill-opacity="1" stroke="none"></circle>
<circle clip-path="url(#clip412)" cx="1758.55" cy="1351.55" r="10.8" fill="#eca25c" fill-rule="evenodd" fill-opacity="1" stroke="none"></circle>
<circle clip-path="url(#clip412)" cx="1717.49" cy="1343.95" r="10.8" fill="#eca25c" fill-rule="evenodd" fill-opacity="1" stroke="none"></circle>
<circle clip-path="url(#clip412)" cx="1676.42" cy="1334.59" r="10.8" fill="#eca25c" fill-rule="evenodd" fill-opacity="1" stroke="none"></circle>
<circle clip-path="url(#clip412)" cx="1635.36" cy="1333.14" r="10.8" fill="#eca25c" fill-rule="evenodd" fill-opacity="1" stroke="none"></circle>
<circle clip-path="url(#clip412)" cx="1594.29" cy="1331.56" r="10.8" fill="#eca25c" fill-rule="evenodd" fill-opacity="1" stroke="none"></circle>
<circle clip-path="url(#clip412)" cx="1553.23" cy="1321.02" r="10.8" fill="#eca25c" fill-rule="evenodd" fill-opacity="1" stroke="none"></circle>
<circle clip-path="url(#clip412)" cx="1512.17" cy="1316.05" r="10.8" fill="#eca25c" fill-rule="evenodd" fill-opacity="1" stroke="none"></circle>
<circle clip-path="url(#clip412)" cx="1471.1" cy="1306.86" r="10.8" fill="#eca25c" fill-rule="evenodd" fill-opacity="1" stroke="none"></circle>
<circle clip-path="url(#clip412)" cx="1430.04" cy="1293.05" r="10.8" fill="#eca25c" fill-rule="evenodd" fill-opacity="1" stroke="none"></circle>
<circle clip-path="url(#clip412)" cx="1388.97" cy="1294.41" r="10.8" fill="#eca25c" fill-rule="evenodd" fill-opacity="1" stroke="none"></circle>
<circle clip-path="url(#clip412)" cx="1347.91" cy="1037.23" r="10.8" fill="#eca25c" fill-rule="evenodd" fill-opacity="1" stroke="none"></circle>
<circle clip-path="url(#clip412)" cx="1306.84" cy="870.91" r="10.8" fill="#eca25c" fill-rule="evenodd" fill-opacity="1" stroke="none"></circle>
<circle clip-path="url(#clip412)" cx="1265.78" cy="426.732" r="10.8" fill="#eca25c" fill-rule="evenodd" fill-opacity="1" stroke="none"></circle>
<circle clip-path="url(#clip412)" cx="1224.71" cy="309.71" r="10.8" fill="#eca25c" fill-rule="evenodd" fill-opacity="1" stroke="none"></circle>
<circle clip-path="url(#clip412)" cx="1183.65" cy="267.71" r="10.8" fill="#eca25c" fill-rule="evenodd" fill-opacity="1" stroke="none"></circle>
<circle clip-path="url(#clip412)" cx="1142.59" cy="240.307" r="10.8" fill="#eca25c" fill-rule="evenodd" fill-opacity="1" stroke="none"></circle>
<circle clip-path="url(#clip412)" cx="1101.52" cy="232.424" r="10.8" fill="#eca25c" fill-rule="evenodd" fill-opacity="1" stroke="none"></circle>
<circle clip-path="url(#clip412)" cx="1060.46" cy="236.311" r="10.8" fill="#eca25c" fill-rule="evenodd" fill-opacity="1" stroke="none"></circle>
<circle clip-path="url(#clip412)" cx="1019.39" cy="221.438" r="10.8" fill="#eca25c" fill-rule="evenodd" fill-opacity="1" stroke="none"></circle>
<circle clip-path="url(#clip412)" cx="978.327" cy="215.354" r="10.8" fill="#eca25c" fill-rule="evenodd" fill-opacity="1" stroke="none"></circle>
<circle clip-path="url(#clip412)" cx="937.263" cy="209.983" r="10.8" fill="#eca25c" fill-rule="evenodd" fill-opacity="1" stroke="none"></circle>
<circle clip-path="url(#clip412)" cx="896.198" cy="205.974" r="10.8" fill="#eca25c" fill-rule="evenodd" fill-opacity="1" stroke="none"></circle>
<circle clip-path="url(#clip412)" cx="855.134" cy="202.155" r="10.8" fill="#eca25c" fill-rule="evenodd" fill-opacity="1" stroke="none"></circle>
<circle clip-path="url(#clip412)" cx="814.069" cy="193.845" r="10.8" fill="#eca25c" fill-rule="evenodd" fill-opacity="1" stroke="none"></circle>
<circle clip-path="url(#clip412)" cx="773.005" cy="191.499" r="10.8" fill="#eca25c" fill-rule="evenodd" fill-opacity="1" stroke="none"></circle>
<circle clip-path="url(#clip412)" cx="731.94" cy="179.861" r="10.8" fill="#eca25c" fill-rule="evenodd" fill-opacity="1" stroke="none"></circle>
<circle clip-path="url(#clip412)" cx="690.876" cy="182.398" r="10.8" fill="#eca25c" fill-rule="evenodd" fill-opacity="1" stroke="none"></circle>
<circle clip-path="url(#clip412)" cx="649.811" cy="170.866" r="10.8" fill="#eca25c" fill-rule="evenodd" fill-opacity="1" stroke="none"></circle>
<circle clip-path="url(#clip412)" cx="608.747" cy="166.961" r="10.8" fill="#eca25c" fill-rule="evenodd" fill-opacity="1" stroke="none"></circle>
<circle clip-path="url(#clip412)" cx="567.683" cy="161.059" r="10.8" fill="#eca25c" fill-rule="evenodd" fill-opacity="1" stroke="none"></circle>
<circle clip-path="url(#clip412)" cx="526.618" cy="155.799" r="10.8" fill="#eca25c" fill-rule="evenodd" fill-opacity="1" stroke="none"></circle>
<circle clip-path="url(#clip412)" cx="485.554" cy="148.96" r="10.8" fill="#eca25c" fill-rule="evenodd" fill-opacity="1" stroke="none"></circle>
<circle clip-path="url(#clip412)" cx="444.489" cy="146.603" r="10.8" fill="#eca25c" fill-rule="evenodd" fill-opacity="1" stroke="none"></circle>
<circle clip-path="url(#clip412)" cx="403.425" cy="140.583" r="10.8" fill="#eca25c" fill-rule="evenodd" fill-opacity="1" stroke="none"></circle>
<circle clip-path="url(#clip412)" cx="362.36" cy="133.303" r="10.8" fill="#eca25c" fill-rule="evenodd" fill-opacity="1" stroke="none"></circle>
<circle clip-path="url(#clip412)" cx="321.296" cy="129.171" r="10.8" fill="#eca25c" fill-rule="evenodd" fill-opacity="1" stroke="none"></circle>
<circle clip-path="url(#clip412)" cx="280.231" cy="123.472" r="10.8" fill="#eca25c" fill-rule="evenodd" fill-opacity="1" stroke="none"></circle>
<polyline clip-path="url(#clip412)" style="stroke:#3f9778; stroke-linecap:round; stroke-linejoin:round; stroke-width:4; stroke-opacity:1; fill:none" points="2292.39,1423.18 2251.33,1417.87 2210.26,1412.57 2169.2,1407.27 2128.13,1401.96 2087.07,1396.66 2046,1391.35 2004.94,1386.05 1963.88,1380.74 1922.81,1375.44 1881.75,1370.13 1840.68,1364.83 1799.62,1359.52 1758.55,1354.22 1717.49,1348.91 1676.42,1343.61 1635.36,1338.3 1594.29,1333 1553.23,1327.69 1512.17,1322.39 1471.1,1317.08 1430.04,1311.78 1388.97,1306.47 1347.91,1301.17 1306.84,1295.86 1265.78,250.79 1224.71,245.486 1183.65,240.181 1142.59,234.876 1101.52,229.571 1060.46,224.266 1019.39,218.961 978.327,213.656 937.263,208.351 896.198,203.046 855.134,197.741 814.069,192.436 773.005,187.131 731.94,181.826 690.876,176.521 649.811,171.216 608.747,165.912 567.683,160.607 526.618,155.302 485.554,149.997 444.489,144.692 403.425,139.387 362.36,134.082 321.296,128.777 280.231,123.472 "></polyline>
<path clip-path="url(#clip410)" d="M1914.11 374.156 L2281.66 374.156 L2281.66 166.796 L1914.11 166.796  Z" fill="#282c34" fill-rule="evenodd" fill-opacity="1"></path>
<polyline clip-path="url(#clip410)" style="stroke:#9eb1be; stroke-linecap:round; stroke-linejoin:round; stroke-width:4; stroke-opacity:1; fill:none" points="1914.11,374.156 2281.66,374.156 2281.66,166.796 1914.11,166.796 1914.11,374.156 "></polyline>
<circle clip-path="url(#clip410)" cx="2008.91" cy="218.636" r="23.04" fill="#fe4365" fill-rule="evenodd" fill-opacity="1" stroke="none"></circle>
<path clip-path="url(#clip410)" d="M2103.7 201.356 L2108.38 201.356 L2108.38 231.981 L2125.21 231.981 L2125.21 235.916 L2103.7 235.916 L2103.7 201.356 Z" fill="#adb2b7" fill-rule="nonzero" fill-opacity="1"></path><path clip-path="url(#clip410)" d="M2130.48 214.388 L2160.16 214.388 L2160.16 218.277 L2130.48 218.277 L2130.48 214.388 M2130.48 223.832 L2160.16 223.832 L2160.16 227.768 L2130.48 227.768 L2130.48 223.832 Z" fill="#adb2b7" fill-rule="nonzero" fill-opacity="1"></path><path clip-path="url(#clip410)" d="M2171.06 231.981 L2178.7 231.981 L2178.7 205.615 L2170.39 207.282 L2170.39 203.022 L2178.66 201.356 L2183.33 201.356 L2183.33 231.981 L2190.97 231.981 L2190.97 235.916 L2171.06 235.916 L2171.06 231.981 Z" fill="#adb2b7" fill-rule="nonzero" fill-opacity="1"></path><path clip-path="url(#clip410)" d="M2210.41 204.434 Q2206.8 204.434 2204.97 207.999 Q2203.17 211.541 2203.17 218.67 Q2203.17 225.777 2204.97 229.342 Q2206.8 232.883 2210.41 232.883 Q2214.05 232.883 2215.85 229.342 Q2217.68 225.777 2217.68 218.67 Q2217.68 211.541 2215.85 207.999 Q2214.05 204.434 2210.41 204.434 M2210.41 200.731 Q2216.22 200.731 2219.28 205.337 Q2222.36 209.92 2222.36 218.67 Q2222.36 227.397 2219.28 232.004 Q2216.22 236.587 2210.41 236.587 Q2204.6 236.587 2201.53 232.004 Q2198.47 227.397 2198.47 218.67 Q2198.47 209.92 2201.53 205.337 Q2204.6 200.731 2210.41 200.731 Z" fill="#adb2b7" fill-rule="nonzero" fill-opacity="1"></path><circle clip-path="url(#clip410)" cx="2008.91" cy="270.476" r="23.04" fill="#eca25c" fill-rule="evenodd" fill-opacity="1" stroke="none"></circle>
<path clip-path="url(#clip410)" d="M2103.7 253.196 L2108.38 253.196 L2108.38 283.821 L2125.21 283.821 L2125.21 287.756 L2103.7 287.756 L2103.7 253.196 Z" fill="#adb2b7" fill-rule="nonzero" fill-opacity="1"></path><path clip-path="url(#clip410)" d="M2130.48 266.228 L2160.16 266.228 L2160.16 270.117 L2130.48 270.117 L2130.48 266.228 M2130.48 275.672 L2160.16 275.672 L2160.16 279.608 L2130.48 279.608 L2130.48 275.672 Z" fill="#adb2b7" fill-rule="nonzero" fill-opacity="1"></path><path clip-path="url(#clip410)" d="M2174.28 283.821 L2190.6 283.821 L2190.6 287.756 L2168.66 287.756 L2168.66 283.821 Q2171.32 281.066 2175.9 276.436 Q2180.51 271.784 2181.69 270.441 Q2183.93 267.918 2184.81 266.182 Q2185.72 264.423 2185.72 262.733 Q2185.72 259.978 2183.77 258.242 Q2181.85 256.506 2178.75 256.506 Q2176.55 256.506 2174.1 257.27 Q2171.66 258.034 2168.89 259.585 L2168.89 254.862 Q2171.71 253.728 2174.16 253.149 Q2176.62 252.571 2178.66 252.571 Q2184.03 252.571 2187.22 255.256 Q2190.41 257.941 2190.41 262.432 Q2190.41 264.561 2189.6 266.483 Q2188.82 268.381 2186.71 270.973 Q2186.13 271.645 2183.03 274.862 Q2179.93 278.057 2174.28 283.821 Z" fill="#adb2b7" fill-rule="nonzero" fill-opacity="1"></path><path clip-path="url(#clip410)" d="M2210.41 256.274 Q2206.8 256.274 2204.97 259.839 Q2203.17 263.381 2203.17 270.51 Q2203.17 277.617 2204.97 281.182 Q2206.8 284.723 2210.41 284.723 Q2214.05 284.723 2215.85 281.182 Q2217.68 277.617 2217.68 270.51 Q2217.68 263.381 2215.85 259.839 Q2214.05 256.274 2210.41 256.274 M2210.41 252.571 Q2216.22 252.571 2219.28 257.177 Q2222.36 261.76 2222.36 270.51 Q2222.36 279.237 2219.28 283.844 Q2216.22 288.427 2210.41 288.427 Q2204.6 288.427 2201.53 283.844 Q2198.47 279.237 2198.47 270.51 Q2198.47 261.76 2201.53 257.177 Q2204.6 252.571 2210.41 252.571 Z" fill="#adb2b7" fill-rule="nonzero" fill-opacity="1"></path><path clip-path="url(#clip410)" d="M2240.58 256.274 Q2236.97 256.274 2235.14 259.839 Q2233.33 263.381 2233.33 270.51 Q2233.33 277.617 2235.14 281.182 Q2236.97 284.723 2240.58 284.723 Q2244.21 284.723 2246.02 281.182 Q2247.85 277.617 2247.85 270.51 Q2247.85 263.381 2246.02 259.839 Q2244.21 256.274 2240.58 256.274 M2240.58 252.571 Q2246.39 252.571 2249.44 257.177 Q2252.52 261.76 2252.52 270.51 Q2252.52 279.237 2249.44 283.844 Q2246.39 288.427 2240.58 288.427 Q2234.77 288.427 2231.69 283.844 Q2228.63 279.237 2228.63 270.51 Q2228.63 261.76 2231.69 257.177 Q2234.77 252.571 2240.58 252.571 Z" fill="#adb2b7" fill-rule="nonzero" fill-opacity="1"></path><polyline clip-path="url(#clip410)" style="stroke:#3f9778; stroke-linecap:round; stroke-linejoin:round; stroke-width:4; stroke-opacity:1; fill:none" points="1937.81,322.316 2080,322.316 "></polyline>
<path clip-path="url(#clip410)" d="M2103.7 305.036 L2108.38 305.036 L2108.38 335.661 L2125.21 335.661 L2125.21 339.596 L2103.7 339.596 L2103.7 305.036 Z" fill="#adb2b7" fill-rule="nonzero" fill-opacity="1"></path><path clip-path="url(#clip410)" d="M2206.18 323.693 L2206.18 325.776 L2197.08 334.874 L2194.3 332.096 L2199.7 326.702 L2143.24 326.702 L2143.24 322.767 L2199.7 322.767 L2194.3 317.374 L2197.08 314.596 L2206.18 323.693 Z" fill="#adb2b7" fill-rule="nonzero" fill-opacity="1"></path><path clip-path="url(#clip410)" d="M2245.16 331.517 Q2244.44 330.684 2243.31 328.739 Q2241.76 331.517 2240.39 332.744 Q2238.68 334.225 2236.02 334.225 Q2232.89 334.225 2230.83 331.887 Q2228.66 329.434 2228.66 325.383 Q2228.66 321.494 2230.83 318.855 Q2232.78 316.517 2236.06 316.517 Q2237.75 316.517 2239 317.212 Q2240.46 317.975 2241.46 319.295 Q2242.38 320.475 2243.31 322.073 Q2244.86 319.295 2246.22 318.068 Q2247.94 316.587 2250.6 316.587 Q2253.72 316.587 2255.78 318.925 Q2257.96 321.378 2257.96 325.429 Q2257.96 329.318 2255.78 331.957 Q2253.84 334.295 2250.55 334.295 Q2248.86 334.295 2247.61 333.6 Q2246.36 332.975 2245.16 331.517 M2235.76 331.193 Q2239.58 331.193 2241.87 325.637 Q2238.93 319.573 2235.76 319.573 Q2233.45 319.573 2232.27 321.239 Q2230.99 323.022 2230.99 325.383 Q2230.99 327.975 2232.27 329.573 Q2233.56 331.193 2235.76 331.193 M2250.85 319.619 Q2247.41 319.619 2244.74 325.174 Q2247.66 331.239 2250.85 331.239 Q2253.17 331.239 2254.35 329.573 Q2255.62 327.79 2255.62 325.429 Q2255.62 322.837 2254.35 321.239 Q2253.05 319.619 2250.85 319.619 Z" fill="#adb2b7" fill-rule="nonzero" fill-opacity="1"></path></svg>