<svg xmlns="http://www.w3.org/2000/svg" xmlns:xlink="http://www.w3.org/1999/xlink" width="600" height="400" viewBox="0 0 2400 1600">
<defs>
  <clipPath id="clip690">
    <rect x="0" y="0" width="2400" height="1600"></rect>
  </clipPath>
</defs>
<path clip-path="url(#clip690)" d="M0 1600 L2400 1600 L2400 0 L0 0  Z" fill="#271924" fill-rule="evenodd" fill-opacity="1"></path>
<defs>
  <clipPath id="clip691">
    <rect x="480" y="0" width="1681" height="1600"></rect>
  </clipPath>
</defs>
<path clip-path="url(#clip690)" d="M280.19 1390.82 L2352.76 1390.82 L2352.76 123.472 L280.19 123.472  Z" fill="#271924" fill-rule="evenodd" fill-opacity="1"></path>
<defs>
  <clipPath id="clip692">
    <rect x="280" y="123" width="2074" height="1268"></rect>
  </clipPath>
</defs>
<polyline clip-path="url(#clip692)" style="stroke:#ebfb73; stroke-linecap:round; stroke-linejoin:round; stroke-width:2; stroke-opacity:0.1; fill:none" points="506.302,1390.82 506.302,123.472 "></polyline>
<polyline clip-path="url(#clip692)" style="stroke:#ebfb73; stroke-linecap:round; stroke-linejoin:round; stroke-width:2; stroke-opacity:0.1; fill:none" points="930.42,1390.82 930.42,123.472 "></polyline>
<polyline clip-path="url(#clip692)" style="stroke:#ebfb73; stroke-linecap:round; stroke-linejoin:round; stroke-width:2; stroke-opacity:0.1; fill:none" points="1354.54,1390.82 1354.54,123.472 "></polyline>
<polyline clip-path="url(#clip692)" style="stroke:#ebfb73; stroke-linecap:round; stroke-linejoin:round; stroke-width:2; stroke-opacity:0.1; fill:none" points="1778.66,1390.82 1778.66,123.472 "></polyline>
<polyline clip-path="url(#clip692)" style="stroke:#ebfb73; stroke-linecap:round; stroke-linejoin:round; stroke-width:2; stroke-opacity:0.1; fill:none" points="2202.77,1390.82 2202.77,123.472 "></polyline>
<polyline clip-path="url(#clip690)" style="stroke:#ebfb73; stroke-linecap:round; stroke-linejoin:round; stroke-width:4; stroke-opacity:1; fill:none" points="280.19,1390.82 2352.76,1390.82 "></polyline>
<polyline clip-path="url(#clip690)" style="stroke:#ebfb73; stroke-linecap:round; stroke-linejoin:round; stroke-width:4; stroke-opacity:1; fill:none" points="506.302,1390.82 506.302,1371.92 "></polyline>
<polyline clip-path="url(#clip690)" style="stroke:#ebfb73; stroke-linecap:round; stroke-linejoin:round; stroke-width:4; stroke-opacity:1; fill:none" points="930.42,1390.82 930.42,1371.92 "></polyline>
<polyline clip-path="url(#clip690)" style="stroke:#ebfb73; stroke-linecap:round; stroke-linejoin:round; stroke-width:4; stroke-opacity:1; fill:none" points="1354.54,1390.82 1354.54,1371.92 "></polyline>
<polyline clip-path="url(#clip690)" style="stroke:#ebfb73; stroke-linecap:round; stroke-linejoin:round; stroke-width:4; stroke-opacity:1; fill:none" points="1778.66,1390.82 1778.66,1371.92 "></polyline>
<polyline clip-path="url(#clip690)" style="stroke:#ebfb73; stroke-linecap:round; stroke-linejoin:round; stroke-width:4; stroke-opacity:1; fill:none" points="2202.77,1390.82 2202.77,1371.92 "></polyline>
<path clip-path="url(#clip690)" d="M496.58 1418.66 L514.936 1418.66 L514.936 1422.59 L500.862 1422.59 L500.862 1431.07 Q501.881 1430.72 502.899 1430.56 Q503.918 1430.37 504.936 1430.37 Q510.723 1430.37 514.103 1433.54 Q517.482 1436.71 517.482 1442.13 Q517.482 1447.71 514.01 1450.81 Q510.538 1453.89 504.219 1453.89 Q502.043 1453.89 499.774 1453.52 Q497.529 1453.15 495.121 1452.41 L495.121 1447.71 Q497.205 1448.84 499.427 1449.4 Q501.649 1449.96 504.126 1449.96 Q508.131 1449.96 510.469 1447.85 Q512.807 1445.74 512.807 1442.13 Q512.807 1438.52 510.469 1436.41 Q508.131 1434.31 504.126 1434.31 Q502.251 1434.31 500.376 1434.72 Q498.524 1435.14 496.58 1436.02 L496.58 1418.66 Z" fill="#80d584" fill-rule="nonzero" fill-opacity="1"></path><path clip-path="url(#clip690)" d="M930.825 1434.08 Q927.677 1434.08 925.825 1436.23 Q923.996 1438.38 923.996 1442.13 Q923.996 1445.86 925.825 1448.03 Q927.677 1450.19 930.825 1450.19 Q933.973 1450.19 935.802 1448.03 Q937.654 1445.86 937.654 1442.13 Q937.654 1438.38 935.802 1436.23 Q933.973 1434.08 930.825 1434.08 M940.107 1419.42 L940.107 1423.68 Q938.348 1422.85 936.543 1422.41 Q934.76 1421.97 933.001 1421.97 Q928.371 1421.97 925.918 1425.09 Q923.487 1428.22 923.14 1434.54 Q924.506 1432.53 926.566 1431.46 Q928.626 1430.37 931.103 1430.37 Q936.311 1430.37 939.32 1433.54 Q942.353 1436.69 942.353 1442.13 Q942.353 1447.46 939.205 1450.67 Q936.057 1453.89 930.825 1453.89 Q924.83 1453.89 921.658 1449.31 Q918.487 1444.7 918.487 1435.97 Q918.487 1427.78 922.376 1422.92 Q926.265 1418.03 932.816 1418.03 Q934.575 1418.03 936.357 1418.38 Q938.163 1418.73 940.107 1419.42 Z" fill="#80d584" fill-rule="nonzero" fill-opacity="1"></path><path clip-path="url(#clip690)" d="M1343.43 1418.66 L1365.65 1418.66 L1365.65 1420.65 L1353.1 1453.22 L1348.22 1453.22 L1360.02 1422.59 L1343.43 1422.59 L1343.43 1418.66 Z" fill="#80d584" fill-rule="nonzero" fill-opacity="1"></path><path clip-path="url(#clip690)" d="M1778.66 1436.81 Q1775.32 1436.81 1773.4 1438.59 Q1771.5 1440.37 1771.5 1443.5 Q1771.5 1446.62 1773.4 1448.4 Q1775.32 1450.19 1778.66 1450.19 Q1781.99 1450.19 1783.91 1448.4 Q1785.83 1446.6 1785.83 1443.5 Q1785.83 1440.37 1783.91 1438.59 Q1782.01 1436.81 1778.66 1436.81 M1773.98 1434.82 Q1770.97 1434.08 1769.28 1432.02 Q1767.61 1429.96 1767.61 1426.99 Q1767.61 1422.85 1770.55 1420.44 Q1773.52 1418.03 1778.66 1418.03 Q1783.82 1418.03 1786.76 1420.44 Q1789.7 1422.85 1789.7 1426.99 Q1789.7 1429.96 1788.01 1432.02 Q1786.34 1434.08 1783.35 1434.82 Q1786.73 1435.6 1788.61 1437.9 Q1790.51 1440.19 1790.51 1443.5 Q1790.51 1448.52 1787.43 1451.21 Q1784.37 1453.89 1778.66 1453.89 Q1772.94 1453.89 1769.86 1451.21 Q1766.8 1448.52 1766.8 1443.5 Q1766.8 1440.19 1768.7 1437.9 Q1770.6 1435.6 1773.98 1434.82 M1772.27 1427.43 Q1772.27 1430.12 1773.93 1431.62 Q1775.62 1433.13 1778.66 1433.13 Q1781.67 1433.13 1783.35 1431.62 Q1785.07 1430.12 1785.07 1427.43 Q1785.07 1424.75 1783.35 1423.24 Q1781.67 1421.74 1778.66 1421.74 Q1775.62 1421.74 1773.93 1423.24 Q1772.27 1424.75 1772.27 1427.43 Z" fill="#80d584" fill-rule="nonzero" fill-opacity="1"></path><path clip-path="url(#clip690)" d="M2193.07 1452.5 L2193.07 1448.24 Q2194.83 1449.08 2196.64 1449.52 Q2198.45 1449.96 2200.18 1449.96 Q2204.81 1449.96 2207.24 1446.85 Q2209.7 1443.73 2210.04 1437.39 Q2208.7 1439.38 2206.64 1440.44 Q2204.58 1441.51 2202.08 1441.51 Q2196.89 1441.51 2193.86 1438.38 Q2190.85 1435.23 2190.85 1429.79 Q2190.85 1424.47 2194 1421.25 Q2197.15 1418.03 2202.38 1418.03 Q2208.38 1418.03 2211.52 1422.64 Q2214.7 1427.22 2214.7 1435.97 Q2214.7 1444.15 2210.81 1449.03 Q2206.94 1453.89 2200.39 1453.89 Q2198.63 1453.89 2196.82 1453.54 Q2195.02 1453.2 2193.07 1452.5 M2202.38 1437.85 Q2205.53 1437.85 2207.36 1435.7 Q2209.21 1433.54 2209.21 1429.79 Q2209.21 1426.07 2207.36 1423.91 Q2205.53 1421.74 2202.38 1421.74 Q2199.23 1421.74 2197.38 1423.91 Q2195.55 1426.07 2195.55 1429.79 Q2195.55 1433.54 2197.38 1435.7 Q2199.23 1437.85 2202.38 1437.85 Z" fill="#80d584" fill-rule="nonzero" fill-opacity="1"></path><path clip-path="url(#clip690)" d="M1217.73 1524.95 Q1218.12 1525.33 1218.12 1525.88 Q1218.12 1526.43 1217.73 1526.81 Q1217.35 1527.2 1216.8 1527.2 L1175.51 1527.2 Q1174.96 1527.2 1174.58 1526.81 Q1174.19 1526.43 1174.19 1525.88 Q1174.19 1525.33 1174.58 1524.95 Q1174.96 1524.56 1175.51 1524.56 L1216.8 1524.56 Q1217.35 1524.56 1217.73 1524.95 Z" fill="#80d584" fill-rule="nonzero" fill-opacity="1"></path><path clip-path="url(#clip690)" d="M1239.11 1497.31 L1229.61 1535.44 Q1229.22 1536.96 1229.22 1538.6 Q1229.22 1541.63 1231.22 1541.63 Q1232.15 1541.63 1232.93 1541.02 Q1233.7 1540.37 1234.28 1539.12 Q1234.89 1537.83 1235.28 1536.6 Q1235.7 1535.38 1236.21 1533.48 Q1236.37 1532.74 1236.53 1532.51 Q1236.69 1532.29 1237.15 1532.29 Q1237.95 1532.29 1237.95 1532.93 Q1237.15 1536.89 1235.95 1539.41 Q1234.21 1543.11 1230.99 1543.11 Q1228.58 1543.11 1226.78 1541.43 Q1225 1539.73 1225 1537.02 Q1225 1535.99 1225.33 1534.77 L1233.64 1501.79 L1233.86 1500.5 Q1233.86 1500.15 1233.73 1499.95 Q1233.6 1499.76 1232.83 1499.57 Q1232.09 1499.37 1230.61 1499.37 Q1230 1499.37 1229.71 1499.34 Q1229.45 1499.31 1229.19 1499.15 Q1228.97 1498.99 1228.97 1498.63 Q1228.97 1498.05 1229.19 1497.73 Q1229.45 1497.41 1229.64 1497.35 Q1229.83 1497.28 1230.22 1497.25 Q1230.77 1497.22 1232.6 1497.06 Q1234.44 1496.86 1236.02 1496.73 Q1237.6 1496.6 1238.27 1496.6 Q1238.66 1496.6 1238.85 1496.8 Q1239.08 1496.96 1239.11 1497.15 L1239.11 1497.31 Z" fill="#80d584" fill-rule="nonzero" fill-opacity="1"></path><path clip-path="url(#clip690)" d="M1280.74 1532.93 Q1280.74 1533.19 1280.45 1534.19 Q1280.16 1535.19 1279.45 1536.73 Q1278.77 1538.28 1277.84 1539.7 Q1276.91 1541.08 1275.36 1542.11 Q1273.85 1543.11 1272.11 1543.11 Q1269.79 1543.11 1268.24 1541.56 Q1266.7 1540.02 1266.7 1537.7 Q1266.7 1536.41 1267.37 1534.64 Q1271.66 1523.21 1271.66 1519.28 Q1271.66 1514.67 1268.08 1514.67 Q1266.31 1514.67 1264.64 1515.35 Q1262.99 1515.99 1261.87 1516.89 Q1260.74 1517.8 1259.71 1519.05 Q1258.71 1520.28 1258.19 1521.11 Q1257.71 1521.92 1257.33 1522.72 L1256.49 1526.01 Q1256.29 1526.91 1255.36 1530.42 L1253.91 1536.38 Q1252.88 1540.82 1252.66 1541.24 Q1252.33 1542.14 1251.62 1542.63 Q1250.92 1543.11 1250.21 1543.11 Q1249.4 1543.11 1248.85 1542.63 Q1248.31 1542.14 1248.31 1541.31 Q1248.31 1541.18 1248.4 1540.69 Q1248.5 1540.21 1248.66 1539.53 Q1248.82 1538.86 1248.89 1538.47 L1252.72 1523.24 Q1253.43 1520.47 1253.59 1519.6 Q1253.78 1518.7 1253.78 1517.7 Q1253.78 1514.67 1251.72 1514.67 Q1250.05 1514.67 1248.95 1516.67 Q1247.86 1518.67 1246.92 1522.53 Q1246.63 1523.59 1246.44 1523.82 Q1246.28 1524.04 1245.8 1524.04 Q1244.99 1524.01 1244.99 1523.37 Q1244.99 1523.21 1245.25 1522.14 Q1245.51 1521.08 1245.99 1519.57 Q1246.5 1518.02 1246.99 1516.99 Q1247.41 1516.22 1247.63 1515.86 Q1247.89 1515.48 1248.5 1514.74 Q1249.14 1513.96 1249.98 1513.61 Q1250.85 1513.22 1251.91 1513.22 Q1254.3 1513.22 1256.04 1514.77 Q1257.78 1516.28 1258 1518.96 Q1262.28 1513.22 1268.28 1513.22 Q1271.82 1513.22 1273.85 1515.09 Q1275.88 1516.96 1275.88 1520.28 Q1275.88 1521.05 1275.71 1522.05 Q1275.59 1523.01 1275.26 1524.24 Q1274.97 1525.46 1274.72 1526.39 Q1274.46 1527.33 1273.94 1528.84 Q1273.43 1530.32 1273.2 1530.97 Q1272.98 1531.61 1272.43 1533.13 Q1271.91 1534.61 1271.85 1534.77 Q1270.66 1537.76 1270.66 1539.47 Q1270.66 1540.6 1271.01 1541.11 Q1271.4 1541.63 1272.24 1541.63 Q1274.49 1541.63 1276.17 1539.41 Q1277.87 1537.15 1278.97 1533.48 Q1279.22 1532.67 1279.35 1532.48 Q1279.51 1532.29 1279.97 1532.29 Q1280.74 1532.29 1280.74 1532.93 Z" fill="#80d584" fill-rule="nonzero" fill-opacity="1"></path><path clip-path="url(#clip690)" d="M1284.16 1526.3 Q1284.16 1505.86 1291.78 1489.38 Q1295.03 1482.47 1299.58 1476.68 Q1304.13 1470.89 1307.14 1468.35 Q1310.15 1465.81 1310.98 1465.81 Q1312.16 1465.81 1312.22 1466.99 Q1312.22 1467.59 1310.62 1469.06 Q1291.13 1488.91 1291.19 1526.3 Q1291.19 1563.81 1310.15 1582.89 Q1312.22 1584.96 1312.22 1585.61 Q1312.22 1586.79 1310.98 1586.79 Q1310.15 1586.79 1307.26 1584.37 Q1304.36 1581.94 1299.87 1576.39 Q1295.38 1570.84 1292.14 1564.05 Q1284.16 1547.57 1284.16 1526.3 Z" fill="#80d584" fill-rule="nonzero" fill-opacity="1"></path><path clip-path="url(#clip690)" d="M1360.73 1472.54 L1360.73 1470.48 Q1368.65 1470.48 1372.75 1466.26 Q1373.87 1466.26 1374.07 1466.52 Q1374.26 1466.78 1374.26 1467.97 L1374.26 1504.98 Q1374.26 1506.94 1375.22 1507.55 Q1376.19 1508.16 1380.41 1508.16 L1382.5 1508.16 L1382.5 1510.19 Q1380.18 1510 1371.81 1510 Q1363.44 1510 1361.15 1510.19 L1361.15 1508.16 L1363.24 1508.16 Q1367.4 1508.16 1368.4 1507.58 Q1369.4 1506.97 1369.4 1504.98 L1369.4 1470.81 Q1365.95 1472.54 1360.73 1472.54 Z" fill="#80d584" fill-rule="nonzero" fill-opacity="1"></path><path clip-path="url(#clip690)" d="M1351.73 1527.79 L1398.23 1527.79 L1398.23 1524.27 L1351.73 1524.27  Z" fill="#80d584" fill-rule="evenodd" fill-opacity="1"></path>
<path clip-path="url(#clip690)" d="M1391.57 1570.2 Q1391.57 1570.4 1391.31 1571.14 L1386.1 1585.37 Q1385.81 1586.21 1385.52 1586.37 Q1385.23 1586.5 1384.03 1586.5 L1353.5 1586.5 Q1352.76 1586.5 1352.47 1586.47 Q1352.18 1586.43 1351.96 1586.27 Q1351.73 1586.11 1351.73 1585.76 Q1351.73 1585.11 1351.96 1584.82 Q1352.22 1584.53 1352.51 1584.5 Q1352.8 1584.47 1353.5 1584.47 Q1355.11 1584.47 1356.08 1584.37 Q1357.05 1584.28 1357.66 1584.15 Q1358.3 1583.99 1358.62 1583.54 Q1358.98 1583.08 1359.14 1582.7 Q1359.3 1582.28 1359.53 1581.35 L1368.35 1545.92 Q1368.61 1544.86 1368.61 1544.69 Q1368.61 1544.08 1368.22 1543.92 Q1367.87 1543.73 1366.84 1543.63 L1364.32 1543.5 Q1363.55 1543.5 1363.23 1543.47 Q1362.94 1543.44 1362.71 1543.28 Q1362.49 1543.12 1362.49 1542.76 Q1362.49 1542.15 1362.71 1541.86 Q1362.97 1541.54 1363.17 1541.51 Q1363.39 1541.44 1363.75 1541.44 L1372.51 1541.64 L1382.26 1541.44 Q1383.33 1541.44 1383.33 1542.25 Q1383.33 1543.15 1382.88 1543.34 Q1382.42 1543.5 1380.81 1543.5 Q1377.72 1543.5 1376.31 1543.83 Q1374.92 1544.15 1374.53 1544.69 Q1374.18 1545.21 1373.83 1546.59 L1364.9 1582.21 Q1364.58 1583.41 1364.58 1583.73 Q1364.58 1584.08 1364.74 1584.21 Q1364.94 1584.31 1365.45 1584.37 Q1366.03 1584.47 1366.9 1584.47 L1373.08 1584.47 Q1374.95 1584.47 1376.6 1584.18 Q1378.24 1583.89 1379.49 1583.47 Q1380.78 1583.05 1381.94 1582.28 Q1383.1 1581.51 1383.91 1580.83 Q1384.74 1580.12 1385.55 1579.03 Q1386.39 1577.9 1386.87 1577.13 Q1387.38 1576.32 1387.96 1575.03 Q1388.54 1573.71 1388.83 1572.97 Q1389.16 1572.2 1389.64 1570.88 Q1389.93 1570.2 1390.03 1570.01 Q1390.12 1569.82 1390.28 1569.65 Q1390.48 1569.49 1390.77 1569.49 Q1391.15 1569.49 1391.35 1569.72 Q1391.57 1569.94 1391.57 1570.2 Z" fill="#80d584" fill-rule="nonzero" fill-opacity="1"></path><path clip-path="url(#clip690)" d="M1412.31 1585.61 Q1412.31 1585.02 1413.84 1583.54 Q1433.33 1563.69 1433.33 1526.3 Q1433.33 1488.79 1414.61 1469.83 Q1412.31 1467.64 1412.31 1466.99 Q1412.31 1465.81 1413.49 1465.81 Q1414.31 1465.81 1417.21 1468.24 Q1420.16 1470.66 1424.59 1476.21 Q1429.08 1481.76 1432.39 1488.56 Q1440.36 1505.04 1440.36 1526.3 Q1440.36 1546.74 1432.74 1563.22 Q1429.49 1570.13 1424.95 1575.92 Q1420.4 1581.71 1417.39 1584.25 Q1414.37 1586.79 1413.49 1586.79 Q1412.31 1586.79 1412.31 1585.61 Z" fill="#80d584" fill-rule="nonzero" fill-opacity="1"></path><polyline clip-path="url(#clip692)" style="stroke:#ebfb73; stroke-linecap:round; stroke-linejoin:round; stroke-width:2; stroke-opacity:0.1; fill:none" points="280.19,1201.89 2352.76,1201.89 "></polyline>
<polyline clip-path="url(#clip692)" style="stroke:#ebfb73; stroke-linecap:round; stroke-linejoin:round; stroke-width:2; stroke-opacity:0.1; fill:none" points="280.19,965.916 2352.76,965.916 "></polyline>
<polyline clip-path="url(#clip692)" style="stroke:#ebfb73; stroke-linecap:round; stroke-linejoin:round; stroke-width:2; stroke-opacity:0.1; fill:none" points="280.19,729.941 2352.76,729.941 "></polyline>
<polyline clip-path="url(#clip692)" style="stroke:#ebfb73; stroke-linecap:round; stroke-linejoin:round; stroke-width:2; stroke-opacity:0.1; fill:none" points="280.19,493.966 2352.76,493.966 "></polyline>
<polyline clip-path="url(#clip692)" style="stroke:#ebfb73; stroke-linecap:round; stroke-linejoin:round; stroke-width:2; stroke-opacity:0.1; fill:none" points="280.19,257.99 2352.76,257.99 "></polyline>
<polyline clip-path="url(#clip690)" style="stroke:#ebfb73; stroke-linecap:round; stroke-linejoin:round; stroke-width:4; stroke-opacity:1; fill:none" points="280.19,1390.82 280.19,123.472 "></polyline>
<polyline clip-path="url(#clip690)" style="stroke:#ebfb73; stroke-linecap:round; stroke-linejoin:round; stroke-width:4; stroke-opacity:1; fill:none" points="280.19,1201.89 299.088,1201.89 "></polyline>
<polyline clip-path="url(#clip690)" style="stroke:#ebfb73; stroke-linecap:round; stroke-linejoin:round; stroke-width:4; stroke-opacity:1; fill:none" points="280.19,965.916 299.088,965.916 "></polyline>
<polyline clip-path="url(#clip690)" style="stroke:#ebfb73; stroke-linecap:round; stroke-linejoin:round; stroke-width:4; stroke-opacity:1; fill:none" points="280.19,729.941 299.088,729.941 "></polyline>
<polyline clip-path="url(#clip690)" style="stroke:#ebfb73; stroke-linecap:round; stroke-linejoin:round; stroke-width:4; stroke-opacity:1; fill:none" points="280.19,493.966 299.088,493.966 "></polyline>
<polyline clip-path="url(#clip690)" style="stroke:#ebfb73; stroke-linecap:round; stroke-linejoin:round; stroke-width:4; stroke-opacity:1; fill:none" points="280.19,257.99 299.088,257.99 "></polyline>
<path clip-path="url(#clip690)" d="M128.288 1187.69 Q124.677 1187.69 122.848 1191.25 Q121.043 1194.8 121.043 1201.93 Q121.043 1209.03 122.848 1212.6 Q124.677 1216.14 128.288 1216.14 Q131.922 1216.14 133.728 1212.6 Q135.556 1209.03 135.556 1201.93 Q135.556 1194.8 133.728 1191.25 Q131.922 1187.69 128.288 1187.69 M128.288 1183.99 Q134.098 1183.99 137.154 1188.59 Q140.232 1193.18 140.232 1201.93 Q140.232 1210.65 137.154 1215.26 Q134.098 1219.84 128.288 1219.84 Q122.478 1219.84 119.399 1215.26 Q116.343 1210.65 116.343 1201.93 Q116.343 1193.18 119.399 1188.59 Q122.478 1183.99 128.288 1183.99 Z" fill="#80d584" fill-rule="nonzero" fill-opacity="1"></path><path clip-path="url(#clip690)" d="M148.45 1213.29 L153.334 1213.29 L153.334 1219.17 L148.45 1219.17 L148.45 1213.29 Z" fill="#80d584" fill-rule="nonzero" fill-opacity="1"></path><path clip-path="url(#clip690)" d="M167.547 1215.24 L183.866 1215.24 L183.866 1219.17 L161.922 1219.17 L161.922 1215.24 Q164.584 1212.48 169.167 1207.85 Q173.774 1203.2 174.954 1201.86 Q177.2 1199.33 178.079 1197.6 Q178.982 1195.84 178.982 1194.15 Q178.982 1191.39 177.038 1189.66 Q175.116 1187.92 172.014 1187.92 Q169.815 1187.92 167.362 1188.69 Q164.931 1189.45 162.153 1191 L162.153 1186.28 Q164.977 1185.14 167.431 1184.57 Q169.885 1183.99 171.922 1183.99 Q177.292 1183.99 180.487 1186.67 Q183.681 1189.36 183.681 1193.85 Q183.681 1195.98 182.871 1197.9 Q182.084 1199.8 179.977 1202.39 Q179.399 1203.06 176.297 1206.28 Q173.195 1209.47 167.547 1215.24 Z" fill="#80d584" fill-rule="nonzero" fill-opacity="1"></path><path clip-path="url(#clip690)" d="M193.727 1184.61 L212.084 1184.61 L212.084 1188.55 L198.01 1188.55 L198.01 1197.02 Q199.028 1196.67 200.047 1196.51 Q201.065 1196.32 202.084 1196.32 Q207.871 1196.32 211.25 1199.5 Q214.63 1202.67 214.63 1208.08 Q214.63 1213.66 211.158 1216.76 Q207.686 1219.84 201.366 1219.84 Q199.19 1219.84 196.922 1219.47 Q194.676 1219.1 192.269 1218.36 L192.269 1213.66 Q194.352 1214.8 196.575 1215.35 Q198.797 1215.91 201.274 1215.91 Q205.278 1215.91 207.616 1213.8 Q209.954 1211.69 209.954 1208.08 Q209.954 1204.47 207.616 1202.37 Q205.278 1200.26 201.274 1200.26 Q199.399 1200.26 197.524 1200.68 Q195.672 1201.09 193.727 1201.97 L193.727 1184.61 Z" fill="#80d584" fill-rule="nonzero" fill-opacity="1"></path><path clip-path="url(#clip690)" d="M227.871 1215.24 L244.19 1215.24 L244.19 1219.17 L222.246 1219.17 L222.246 1215.24 Q224.908 1212.48 229.491 1207.85 Q234.097 1203.2 235.278 1201.86 Q237.523 1199.33 238.403 1197.6 Q239.306 1195.84 239.306 1194.15 Q239.306 1191.39 237.361 1189.66 Q235.44 1187.92 232.338 1187.92 Q230.139 1187.92 227.685 1188.69 Q225.255 1189.45 222.477 1191 L222.477 1186.28 Q225.301 1185.14 227.755 1184.57 Q230.209 1183.99 232.246 1183.99 Q237.616 1183.99 240.81 1186.67 Q244.005 1189.36 244.005 1193.85 Q244.005 1195.98 243.195 1197.9 Q242.408 1199.8 240.301 1202.39 Q239.722 1203.06 236.621 1206.28 Q233.519 1209.47 227.871 1215.24 Z" fill="#80d584" fill-rule="nonzero" fill-opacity="1"></path><path clip-path="url(#clip690)" d="M126.205 951.715 Q122.593 951.715 120.765 955.28 Q118.959 958.821 118.959 965.951 Q118.959 973.057 120.765 976.622 Q122.593 980.164 126.205 980.164 Q129.839 980.164 131.644 976.622 Q133.473 973.057 133.473 965.951 Q133.473 958.821 131.644 955.28 Q129.839 951.715 126.205 951.715 M126.205 948.011 Q132.015 948.011 135.07 952.618 Q138.149 957.201 138.149 965.951 Q138.149 974.678 135.07 979.284 Q132.015 983.867 126.205 983.867 Q120.394 983.867 117.316 979.284 Q114.26 974.678 114.26 965.951 Q114.26 957.201 117.316 952.618 Q120.394 948.011 126.205 948.011 Z" fill="#80d584" fill-rule="nonzero" fill-opacity="1"></path><path clip-path="url(#clip690)" d="M146.366 977.316 L151.251 977.316 L151.251 983.196 L146.366 983.196 L146.366 977.316 Z" fill="#80d584" fill-rule="nonzero" fill-opacity="1"></path><path clip-path="url(#clip690)" d="M165.464 979.261 L181.783 979.261 L181.783 983.196 L159.839 983.196 L159.839 979.261 Q162.501 976.506 167.084 971.877 Q171.69 967.224 172.871 965.881 Q175.116 963.358 175.996 961.622 Q176.899 959.863 176.899 958.173 Q176.899 955.418 174.954 953.682 Q173.033 951.946 169.931 951.946 Q167.732 951.946 165.278 952.71 Q162.848 953.474 160.07 955.025 L160.07 950.303 Q162.894 949.168 165.348 948.59 Q167.802 948.011 169.839 948.011 Q175.209 948.011 178.403 950.696 Q181.598 953.381 181.598 957.872 Q181.598 960.002 180.788 961.923 Q180.001 963.821 177.894 966.414 Q177.315 967.085 174.214 970.303 Q171.112 973.497 165.464 979.261 Z" fill="#80d584" fill-rule="nonzero" fill-opacity="1"></path><path clip-path="url(#clip690)" d="M191.644 948.636 L210 948.636 L210 952.571 L195.926 952.571 L195.926 961.043 Q196.945 960.696 197.963 960.534 Q198.982 960.349 200 960.349 Q205.787 960.349 209.167 963.52 Q212.547 966.692 212.547 972.108 Q212.547 977.687 209.074 980.789 Q205.602 983.867 199.283 983.867 Q197.107 983.867 194.838 983.497 Q192.593 983.127 190.186 982.386 L190.186 977.687 Q192.269 978.821 194.491 979.377 Q196.713 979.932 199.19 979.932 Q203.195 979.932 205.533 977.826 Q207.871 975.719 207.871 972.108 Q207.871 968.497 205.533 966.391 Q203.195 964.284 199.19 964.284 Q197.315 964.284 195.44 964.701 Q193.588 965.117 191.644 965.997 L191.644 948.636 Z" fill="#80d584" fill-rule="nonzero" fill-opacity="1"></path><path clip-path="url(#clip690)" d="M234.607 952.71 L222.801 971.159 L234.607 971.159 L234.607 952.71 M233.38 948.636 L239.259 948.636 L239.259 971.159 L244.19 971.159 L244.19 975.048 L239.259 975.048 L239.259 983.196 L234.607 983.196 L234.607 975.048 L219.005 975.048 L219.005 970.534 L233.38 948.636 Z" fill="#80d584" fill-rule="nonzero" fill-opacity="1"></path><path clip-path="url(#clip690)" d="M126.529 715.739 Q122.918 715.739 121.089 719.304 Q119.283 722.846 119.283 729.976 Q119.283 737.082 121.089 740.647 Q122.918 744.188 126.529 744.188 Q130.163 744.188 131.968 740.647 Q133.797 737.082 133.797 729.976 Q133.797 722.846 131.968 719.304 Q130.163 715.739 126.529 715.739 M126.529 712.036 Q132.339 712.036 135.394 716.642 Q138.473 721.226 138.473 729.976 Q138.473 738.702 135.394 743.309 Q132.339 747.892 126.529 747.892 Q120.718 747.892 117.64 743.309 Q114.584 738.702 114.584 729.976 Q114.584 721.226 117.64 716.642 Q120.718 712.036 126.529 712.036 Z" fill="#80d584" fill-rule="nonzero" fill-opacity="1"></path><path clip-path="url(#clip690)" d="M146.691 741.341 L151.575 741.341 L151.575 747.221 L146.691 747.221 L146.691 741.341 Z" fill="#80d584" fill-rule="nonzero" fill-opacity="1"></path><path clip-path="url(#clip690)" d="M165.788 743.286 L182.107 743.286 L182.107 747.221 L160.163 747.221 L160.163 743.286 Q162.825 740.531 167.408 735.901 Q172.014 731.249 173.195 729.906 Q175.44 727.383 176.32 725.647 Q177.223 723.888 177.223 722.198 Q177.223 719.443 175.278 717.707 Q173.357 715.971 170.255 715.971 Q168.056 715.971 165.602 716.735 Q163.172 717.499 160.394 719.05 L160.394 714.327 Q163.218 713.193 165.672 712.615 Q168.126 712.036 170.163 712.036 Q175.533 712.036 178.727 714.721 Q181.922 717.406 181.922 721.897 Q181.922 724.026 181.112 725.948 Q180.325 727.846 178.218 730.438 Q177.639 731.11 174.538 734.327 Q171.436 737.522 165.788 743.286 Z" fill="#80d584" fill-rule="nonzero" fill-opacity="1"></path><path clip-path="url(#clip690)" d="M191.968 712.661 L210.324 712.661 L210.324 716.596 L196.25 716.596 L196.25 725.068 Q197.269 724.721 198.287 724.559 Q199.306 724.374 200.325 724.374 Q206.112 724.374 209.491 727.545 Q212.871 730.716 212.871 736.133 Q212.871 741.712 209.399 744.813 Q205.926 747.892 199.607 747.892 Q197.431 747.892 195.163 747.522 Q192.917 747.151 190.51 746.411 L190.51 741.712 Q192.593 742.846 194.815 743.401 Q197.037 743.957 199.514 743.957 Q203.519 743.957 205.857 741.85 Q208.195 739.744 208.195 736.133 Q208.195 732.522 205.857 730.415 Q203.519 728.309 199.514 728.309 Q197.639 728.309 195.764 728.726 Q193.913 729.142 191.968 730.022 L191.968 712.661 Z" fill="#80d584" fill-rule="nonzero" fill-opacity="1"></path><path clip-path="url(#clip690)" d="M232.662 728.077 Q229.514 728.077 227.662 730.23 Q225.834 732.383 225.834 736.133 Q225.834 739.86 227.662 742.036 Q229.514 744.188 232.662 744.188 Q235.81 744.188 237.639 742.036 Q239.491 739.86 239.491 736.133 Q239.491 732.383 237.639 730.23 Q235.81 728.077 232.662 728.077 M241.945 713.425 L241.945 717.684 Q240.185 716.851 238.38 716.411 Q236.597 715.971 234.838 715.971 Q230.209 715.971 227.755 719.096 Q225.324 722.221 224.977 728.54 Q226.343 726.526 228.403 725.462 Q230.463 724.374 232.94 724.374 Q238.148 724.374 241.158 727.545 Q244.19 730.693 244.19 736.133 Q244.19 741.457 241.042 744.675 Q237.894 747.892 232.662 747.892 Q226.667 747.892 223.496 743.309 Q220.324 738.702 220.324 729.976 Q220.324 721.781 224.213 716.92 Q228.102 712.036 234.653 712.036 Q236.412 712.036 238.195 712.383 Q240 712.73 241.945 713.425 Z" fill="#80d584" fill-rule="nonzero" fill-opacity="1"></path><path clip-path="url(#clip690)" d="M126.783 479.764 Q123.172 479.764 121.343 483.329 Q119.538 486.871 119.538 494 Q119.538 501.107 121.343 504.672 Q123.172 508.213 126.783 508.213 Q130.417 508.213 132.223 504.672 Q134.052 501.107 134.052 494 Q134.052 486.871 132.223 483.329 Q130.417 479.764 126.783 479.764 M126.783 476.061 Q132.593 476.061 135.649 480.667 Q138.728 485.25 138.728 494 Q138.728 502.727 135.649 507.334 Q132.593 511.917 126.783 511.917 Q120.973 511.917 117.894 507.334 Q114.839 502.727 114.839 494 Q114.839 485.25 117.894 480.667 Q120.973 476.061 126.783 476.061 Z" fill="#80d584" fill-rule="nonzero" fill-opacity="1"></path><path clip-path="url(#clip690)" d="M146.945 505.366 L151.829 505.366 L151.829 511.246 L146.945 511.246 L146.945 505.366 Z" fill="#80d584" fill-rule="nonzero" fill-opacity="1"></path><path clip-path="url(#clip690)" d="M166.042 507.31 L182.362 507.31 L182.362 511.246 L160.417 511.246 L160.417 507.31 Q163.079 504.556 167.663 499.926 Q172.269 495.273 173.45 493.931 Q175.695 491.408 176.575 489.672 Q177.477 487.912 177.477 486.223 Q177.477 483.468 175.533 481.732 Q173.612 479.996 170.51 479.996 Q168.311 479.996 165.857 480.76 Q163.427 481.524 160.649 483.074 L160.649 478.352 Q163.473 477.218 165.927 476.639 Q168.38 476.061 170.417 476.061 Q175.788 476.061 178.982 478.746 Q182.176 481.431 182.176 485.922 Q182.176 488.051 181.366 489.973 Q180.579 491.871 178.473 494.463 Q177.894 495.135 174.792 498.352 Q171.69 501.547 166.042 507.31 Z" fill="#80d584" fill-rule="nonzero" fill-opacity="1"></path><path clip-path="url(#clip690)" d="M192.223 476.686 L210.579 476.686 L210.579 480.621 L196.505 480.621 L196.505 489.093 Q197.524 488.746 198.542 488.584 Q199.561 488.398 200.579 488.398 Q206.366 488.398 209.746 491.57 Q213.125 494.741 213.125 500.158 Q213.125 505.736 209.653 508.838 Q206.181 511.917 199.862 511.917 Q197.686 511.917 195.417 511.546 Q193.172 511.176 190.764 510.435 L190.764 505.736 Q192.848 506.871 195.07 507.426 Q197.292 507.982 199.769 507.982 Q203.774 507.982 206.112 505.875 Q208.449 503.769 208.449 500.158 Q208.449 496.547 206.112 494.44 Q203.774 492.334 199.769 492.334 Q197.894 492.334 196.019 492.75 Q194.167 493.167 192.223 494.047 L192.223 476.686 Z" fill="#80d584" fill-rule="nonzero" fill-opacity="1"></path><path clip-path="url(#clip690)" d="M232.338 494.834 Q229.005 494.834 227.084 496.616 Q225.185 498.398 225.185 501.523 Q225.185 504.648 227.084 506.431 Q229.005 508.213 232.338 508.213 Q235.672 508.213 237.593 506.431 Q239.514 504.625 239.514 501.523 Q239.514 498.398 237.593 496.616 Q235.695 494.834 232.338 494.834 M227.662 492.843 Q224.653 492.102 222.963 490.042 Q221.297 487.982 221.297 485.019 Q221.297 480.875 224.236 478.468 Q227.199 476.061 232.338 476.061 Q237.5 476.061 240.44 478.468 Q243.38 480.875 243.38 485.019 Q243.38 487.982 241.69 490.042 Q240.023 492.102 237.037 492.843 Q240.417 493.63 242.292 495.922 Q244.19 498.213 244.19 501.523 Q244.19 506.547 241.111 509.232 Q238.056 511.917 232.338 511.917 Q226.621 511.917 223.542 509.232 Q220.486 506.547 220.486 501.523 Q220.486 498.213 222.385 495.922 Q224.283 493.63 227.662 492.843 M225.949 485.459 Q225.949 488.144 227.616 489.648 Q229.306 491.153 232.338 491.153 Q235.347 491.153 237.037 489.648 Q238.75 488.144 238.75 485.459 Q238.75 482.773 237.037 481.269 Q235.347 479.764 232.338 479.764 Q229.306 479.764 227.616 481.269 Q225.949 482.773 225.949 485.459 Z" fill="#80d584" fill-rule="nonzero" fill-opacity="1"></path><path clip-path="url(#clip690)" d="M126.691 243.789 Q123.08 243.789 121.251 247.354 Q119.445 250.895 119.445 258.025 Q119.445 265.131 121.251 268.696 Q123.08 272.238 126.691 272.238 Q130.325 272.238 132.13 268.696 Q133.959 265.131 133.959 258.025 Q133.959 250.895 132.13 247.354 Q130.325 243.789 126.691 243.789 M126.691 240.085 Q132.501 240.085 135.556 244.692 Q138.635 249.275 138.635 258.025 Q138.635 266.752 135.556 271.358 Q132.501 275.942 126.691 275.942 Q120.88 275.942 117.802 271.358 Q114.746 266.752 114.746 258.025 Q114.746 249.275 117.802 244.692 Q120.88 240.085 126.691 240.085 Z" fill="#80d584" fill-rule="nonzero" fill-opacity="1"></path><path clip-path="url(#clip690)" d="M146.853 269.391 L151.737 269.391 L151.737 275.27 L146.853 275.27 L146.853 269.391 Z" fill="#80d584" fill-rule="nonzero" fill-opacity="1"></path><path clip-path="url(#clip690)" d="M165.95 271.335 L182.269 271.335 L182.269 275.27 L160.325 275.27 L160.325 271.335 Q162.987 268.581 167.57 263.951 Q172.177 259.298 173.357 257.956 Q175.602 255.432 176.482 253.696 Q177.385 251.937 177.385 250.247 Q177.385 247.493 175.44 245.757 Q173.519 244.02 170.417 244.02 Q168.218 244.02 165.765 244.784 Q163.334 245.548 160.556 247.099 L160.556 242.377 Q163.38 241.243 165.834 240.664 Q168.288 240.085 170.325 240.085 Q175.695 240.085 178.889 242.77 Q182.084 245.456 182.084 249.946 Q182.084 252.076 181.274 253.997 Q180.487 255.895 178.38 258.488 Q177.801 259.159 174.7 262.377 Q171.598 265.571 165.95 271.335 Z" fill="#80d584" fill-rule="nonzero" fill-opacity="1"></path><path clip-path="url(#clip690)" d="M202.662 256.127 Q199.514 256.127 197.662 258.28 Q195.834 260.432 195.834 264.182 Q195.834 267.909 197.662 270.085 Q199.514 272.238 202.662 272.238 Q205.811 272.238 207.639 270.085 Q209.491 267.909 209.491 264.182 Q209.491 260.432 207.639 258.28 Q205.811 256.127 202.662 256.127 M211.945 241.474 L211.945 245.733 Q210.186 244.9 208.38 244.46 Q206.598 244.02 204.838 244.02 Q200.209 244.02 197.755 247.145 Q195.325 250.27 194.977 256.59 Q196.343 254.576 198.403 253.511 Q200.463 252.423 202.94 252.423 Q208.149 252.423 211.158 255.595 Q214.19 258.743 214.19 264.182 Q214.19 269.506 211.042 272.724 Q207.894 275.942 202.662 275.942 Q196.667 275.942 193.496 271.358 Q190.325 266.752 190.325 258.025 Q190.325 249.831 194.213 244.97 Q198.102 240.085 204.653 240.085 Q206.412 240.085 208.195 240.433 Q210 240.78 211.945 241.474 Z" fill="#80d584" fill-rule="nonzero" fill-opacity="1"></path><path clip-path="url(#clip690)" d="M232.246 243.789 Q228.635 243.789 226.806 247.354 Q225 250.895 225 258.025 Q225 265.131 226.806 268.696 Q228.635 272.238 232.246 272.238 Q235.88 272.238 237.685 268.696 Q239.514 265.131 239.514 258.025 Q239.514 250.895 237.685 247.354 Q235.88 243.789 232.246 243.789 M232.246 240.085 Q238.056 240.085 241.111 244.692 Q244.19 249.275 244.19 258.025 Q244.19 266.752 241.111 271.358 Q238.056 275.942 232.246 275.942 Q226.435 275.942 223.357 271.358 Q220.301 266.752 220.301 258.025 Q220.301 249.275 223.357 244.692 Q226.435 240.085 232.246 240.085 Z" fill="#80d584" fill-rule="nonzero" fill-opacity="1"></path><path clip-path="url(#clip690)" d="M81.2531 784.5 Q81.8006 784.5 82.187 784.886 Q82.5735 785.273 82.5735 785.82 Q82.5735 786.754 81.7039 787.076 L50.0456 799.347 Q49.9168 799.411 49.5947 799.411 Q49.2726 799.411 49.1438 799.347 L17.4855 787.076 Q16.6159 786.754 16.6159 785.82 Q16.6159 785.273 17.0024 784.886 Q17.3888 784.5 17.9363 784.5 Q18.2584 784.5 18.3872 784.564 L49.5947 796.706 L80.8022 784.564 Q80.931 784.5 81.2531 784.5 Z" fill="#80d584" fill-rule="nonzero" fill-opacity="1"></path><path clip-path="url(#clip690)" d="M47.6945 742.877 Q52.461 742.877 56.9376 745.325 Q61.4142 747.74 64.1195 751.54 Q66.8248 755.308 66.8248 759.109 Q66.8248 763.392 62.3804 765.614 Q78.5156 769.64 78.9342 769.866 Q80.3191 770.799 80.3191 772.152 Q80.3191 772.989 79.8038 773.505 Q79.3207 774.02 78.5478 774.02 Q78.2901 773.988 77.485 773.795 L51.5593 767.353 Q45.5368 765.872 41.2534 761.395 Q36.9378 756.887 36.9378 752.056 Q36.9378 748.223 39.8041 745.55 Q42.6704 742.877 47.6945 742.877 M44.8604 747.611 Q41.6398 747.611 40.0296 748.9 Q38.3871 750.188 38.3871 752.185 Q38.3871 754.02 39.8685 756.242 Q41.35 758.432 44.635 760.365 Q46.5351 761.395 48.8862 762.136 Q51.2372 762.877 57.0342 764.326 Q59.3531 764.841 59.4819 764.841 Q59.7395 764.841 60.3192 764.713 Q60.899 764.552 61.8007 764.165 Q62.6703 763.746 63.4432 763.167 Q64.2162 762.587 64.7959 761.524 Q65.3434 760.461 65.3434 759.173 Q65.3434 757.176 63.7331 755.051 Q62.0906 752.893 59.0954 751.315 Q56.68 749.995 52.139 748.803 Q47.5657 747.611 44.8604 747.611 Z" fill="#80d584" fill-rule="nonzero" fill-opacity="1"></path><path clip-path="url(#clip690)" d="M49.1438 725.457 Q49.2726 725.392 49.5947 725.392 Q49.9168 725.392 50.0456 725.457 L81.7039 737.727 Q82.5735 738.049 82.5735 738.951 Q82.5735 739.499 82.187 739.885 Q81.8006 740.271 81.2531 740.271 Q80.931 740.271 80.8022 740.207 L49.5947 728.098 L18.3872 740.207 Q18.2584 740.271 17.9363 740.271 Q17.3888 740.271 17.0024 739.885 Q16.6159 739.499 16.6159 738.951 Q16.6159 738.049 17.4855 737.727 L49.1438 725.457 Z" fill="#80d584" fill-rule="nonzero" fill-opacity="1"></path><path clip-path="url(#clip690)" d="M676.491 12.096 L711.248 12.096 L711.248 18.9825 L684.674 18.9825 L684.674 36.8065 L708.655 36.8065 L708.655 43.6931 L684.674 43.6931 L684.674 72.576 L676.491 72.576 L676.491 12.096 Z" fill="#ebfb73" fill-rule="nonzero" fill-opacity="1"></path><path clip-path="url(#clip690)" d="M717.851 27.2059 L725.304 27.2059 L725.304 72.576 L717.851 72.576 L717.851 27.2059 M717.851 9.54393 L725.304 9.54393 L725.304 18.9825 L717.851 18.9825 L717.851 9.54393 Z" fill="#ebfb73" fill-rule="nonzero" fill-opacity="1"></path><path clip-path="url(#clip690)" d="M778.614 45.1919 L778.614 72.576 L771.16 72.576 L771.16 45.4349 Q771.16 38.994 768.649 35.7938 Q766.137 32.5936 761.114 32.5936 Q755.078 32.5936 751.595 36.4419 Q748.111 40.2903 748.111 46.9338 L748.111 72.576 L740.617 72.576 L740.617 27.2059 L748.111 27.2059 L748.111 34.2544 Q750.784 30.163 754.39 28.1376 Q758.036 26.1121 762.775 26.1121 Q770.593 26.1121 774.604 30.9732 Q778.614 35.7938 778.614 45.1919 Z" fill="#ebfb73" fill-rule="nonzero" fill-opacity="1"></path><path clip-path="url(#clip690)" d="M793.481 27.2059 L800.935 27.2059 L800.935 72.576 L793.481 72.576 L793.481 27.2059 M793.481 9.54393 L800.935 9.54393 L800.935 18.9825 L793.481 18.9825 L793.481 9.54393 Z" fill="#ebfb73" fill-rule="nonzero" fill-opacity="1"></path><path clip-path="url(#clip690)" d="M823.903 14.324 L823.903 27.2059 L839.256 27.2059 L839.256 32.9987 L823.903 32.9987 L823.903 57.6282 Q823.903 63.1779 825.402 64.7578 Q826.941 66.3376 831.6 66.3376 L839.256 66.3376 L839.256 72.576 L831.6 72.576 Q822.972 72.576 819.69 69.3758 Q816.409 66.1351 816.409 57.6282 L816.409 32.9987 L810.94 32.9987 L810.94 27.2059 L816.409 27.2059 L816.409 14.324 L823.903 14.324 Z" fill="#ebfb73" fill-rule="nonzero" fill-opacity="1"></path><path clip-path="url(#clip690)" d="M887.867 48.0275 L887.867 51.6733 L853.596 51.6733 Q854.082 59.3701 858.214 63.421 Q862.387 67.4314 869.8 67.4314 Q874.094 67.4314 878.104 66.3781 Q882.155 65.3249 886.125 63.2184 L886.125 70.267 Q882.115 71.9684 877.902 72.8596 Q873.689 73.7508 869.354 73.7508 Q858.498 73.7508 852.138 67.4314 Q845.819 61.1119 845.819 50.3365 Q845.819 39.1965 851.814 32.6746 Q857.85 26.1121 868.058 26.1121 Q877.213 26.1121 882.52 32.0264 Q887.867 37.9003 887.867 48.0275 M880.413 45.84 Q880.332 39.7232 876.97 36.0774 Q873.648 32.4315 868.139 32.4315 Q861.901 32.4315 858.133 35.9558 Q854.407 39.4801 853.839 45.8805 L880.413 45.84 Z" fill="#ebfb73" fill-rule="nonzero" fill-opacity="1"></path><path clip-path="url(#clip690)" d="M955.396 28.5427 L955.396 35.5912 Q952.236 33.9709 948.833 33.1607 Q945.43 32.3505 941.785 32.3505 Q936.235 32.3505 933.44 34.0519 Q930.685 35.7533 930.685 39.156 Q930.685 41.7486 932.67 43.2475 Q934.655 44.7058 940.65 46.0426 L943.202 46.6097 Q951.142 48.3111 954.464 51.4303 Q957.826 54.509 957.826 60.0587 Q957.826 66.3781 952.803 70.0644 Q947.82 73.7508 939.07 73.7508 Q935.425 73.7508 931.455 73.0216 Q927.525 72.3329 923.15 70.9151 L923.15 63.2184 Q927.282 65.3654 931.293 66.4591 Q935.303 67.5124 939.233 67.5124 Q944.499 67.5124 947.334 65.73 Q950.17 63.9071 950.17 60.6258 Q950.17 57.5877 948.104 55.9673 Q946.079 54.3469 939.151 52.8481 L936.559 52.2405 Q929.632 50.7821 926.553 47.7845 Q923.474 44.7463 923.474 39.4801 Q923.474 33.0797 928.012 29.5959 Q932.549 26.1121 940.893 26.1121 Q945.025 26.1121 948.671 26.7198 Q952.317 27.3274 955.396 28.5427 Z" fill="#ebfb73" fill-rule="nonzero" fill-opacity="1"></path><path clip-path="url(#clip690)" d="M1002.35 28.9478 L1002.35 35.9153 Q999.186 34.1734 995.986 33.3227 Q992.826 32.4315 989.585 32.4315 Q982.334 32.4315 978.324 37.0496 Q974.313 41.6271 974.313 49.9314 Q974.313 58.2358 978.324 62.8538 Q982.334 67.4314 989.585 67.4314 Q992.826 67.4314 995.986 66.5807 Q999.186 65.6895 1002.35 63.9476 L1002.35 70.8341 Q999.226 72.2924 995.864 73.0216 Q992.542 73.7508 988.775 73.7508 Q978.526 73.7508 972.49 67.3098 Q966.455 60.8689 966.455 49.9314 Q966.455 38.832 972.531 32.472 Q978.648 26.1121 989.261 26.1121 Q992.704 26.1121 995.986 26.8413 Q999.267 27.5299 1002.35 28.9478 Z" fill="#ebfb73" fill-rule="nonzero" fill-opacity="1"></path><path clip-path="url(#clip690)" d="M1035.93 49.7694 Q1026.89 49.7694 1023.41 51.8354 Q1019.93 53.9013 1019.93 58.8839 Q1019.93 62.8538 1022.52 65.2034 Q1025.15 67.5124 1029.65 67.5124 Q1035.85 67.5124 1039.57 63.1374 Q1043.34 58.7219 1043.34 51.4303 L1043.34 49.7694 L1035.93 49.7694 M1050.79 46.6907 L1050.79 72.576 L1043.34 72.576 L1043.34 65.6895 Q1040.79 69.8214 1036.98 71.8063 Q1033.17 73.7508 1027.66 73.7508 Q1020.7 73.7508 1016.56 69.8619 Q1012.47 65.9325 1012.47 59.3701 Q1012.47 51.7138 1017.58 47.825 Q1022.72 43.9361 1032.89 43.9361 L1043.34 43.9361 L1043.34 43.2069 Q1043.34 38.0623 1039.94 35.2672 Q1036.58 32.4315 1030.46 32.4315 Q1026.57 32.4315 1022.88 33.3632 Q1019.2 34.295 1015.79 36.1584 L1015.79 29.2718 Q1019.89 27.692 1023.73 26.9223 Q1027.58 26.1121 1031.23 26.1121 Q1041.07 26.1121 1045.93 31.2163 Q1050.79 36.3204 1050.79 46.6907 Z" fill="#ebfb73" fill-rule="nonzero" fill-opacity="1"></path><path clip-path="url(#clip690)" d="M1066.15 9.54393 L1073.6 9.54393 L1073.6 72.576 L1066.15 72.576 L1066.15 9.54393 Z" fill="#ebfb73" fill-rule="nonzero" fill-opacity="1"></path><path clip-path="url(#clip690)" d="M1089.2 27.2059 L1096.65 27.2059 L1096.65 72.576 L1089.2 72.576 L1089.2 27.2059 M1089.2 9.54393 L1096.65 9.54393 L1096.65 18.9825 L1089.2 18.9825 L1089.2 9.54393 Z" fill="#ebfb73" fill-rule="nonzero" fill-opacity="1"></path><path clip-path="url(#clip690)" d="M1149.96 45.1919 L1149.96 72.576 L1142.51 72.576 L1142.51 45.4349 Q1142.51 38.994 1140 35.7938 Q1137.48 32.5936 1132.46 32.5936 Q1126.42 32.5936 1122.94 36.4419 Q1119.46 40.2903 1119.46 46.9338 L1119.46 72.576 L1111.96 72.576 L1111.96 27.2059 L1119.46 27.2059 L1119.46 34.2544 Q1122.13 30.163 1125.74 28.1376 Q1129.38 26.1121 1134.12 26.1121 Q1141.94 26.1121 1145.95 30.9732 Q1149.96 35.7938 1149.96 45.1919 Z" fill="#ebfb73" fill-rule="nonzero" fill-opacity="1"></path><path clip-path="url(#clip690)" d="M1194.68 49.3643 Q1194.68 41.2625 1191.32 36.8065 Q1188 32.3505 1181.96 32.3505 Q1175.97 32.3505 1172.61 36.8065 Q1169.28 41.2625 1169.28 49.3643 Q1169.28 57.4256 1172.61 61.8816 Q1175.97 66.3376 1181.96 66.3376 Q1188 66.3376 1191.32 61.8816 Q1194.68 57.4256 1194.68 49.3643 M1202.14 66.9452 Q1202.14 78.5308 1196.99 84.1616 Q1191.85 89.8329 1181.23 89.8329 Q1177.3 89.8329 1173.82 89.2252 Q1170.34 88.6581 1167.06 87.4428 L1167.06 80.1917 Q1170.34 81.9741 1173.54 82.8248 Q1176.74 83.6755 1180.06 83.6755 Q1187.39 83.6755 1191.04 79.8271 Q1194.68 76.0193 1194.68 68.282 L1194.68 64.5957 Q1192.37 68.6061 1188.77 70.5911 Q1185.16 72.576 1180.14 72.576 Q1171.79 72.576 1166.69 66.2161 Q1161.59 59.8562 1161.59 49.3643 Q1161.59 38.832 1166.69 32.472 Q1171.79 26.1121 1180.14 26.1121 Q1185.16 26.1121 1188.77 28.0971 Q1192.37 30.082 1194.68 34.0924 L1194.68 27.2059 L1202.14 27.2059 L1202.14 66.9452 Z" fill="#ebfb73" fill-rule="nonzero" fill-opacity="1"></path><path clip-path="url(#clip690)" d="M1239.53 27.2059 L1246.98 27.2059 L1256.3 62.6108 L1265.57 27.2059 L1274.36 27.2059 L1283.68 62.6108 L1292.96 27.2059 L1300.41 27.2059 L1288.54 72.576 L1279.75 72.576 L1269.99 35.3887 L1260.19 72.576 L1251.4 72.576 L1239.53 27.2059 Z" fill="#ebfb73" fill-rule="nonzero" fill-opacity="1"></path><path clip-path="url(#clip690)" d="M1311.71 27.2059 L1319.17 27.2059 L1319.17 72.576 L1311.71 72.576 L1311.71 27.2059 M1311.71 9.54393 L1319.17 9.54393 L1319.17 18.9825 L1311.71 18.9825 L1311.71 9.54393 Z" fill="#ebfb73" fill-rule="nonzero" fill-opacity="1"></path><path clip-path="url(#clip690)" d="M1342.14 14.324 L1342.14 27.2059 L1357.49 27.2059 L1357.49 32.9987 L1342.14 32.9987 L1342.14 57.6282 Q1342.14 63.1779 1343.63 64.7578 Q1345.17 66.3376 1349.83 66.3376 L1357.49 66.3376 L1357.49 72.576 L1349.83 72.576 Q1341.2 72.576 1337.92 69.3758 Q1334.64 66.1351 1334.64 57.6282 L1334.64 32.9987 L1329.17 32.9987 L1329.17 27.2059 L1334.64 27.2059 L1334.64 14.324 L1342.14 14.324 Z" fill="#ebfb73" fill-rule="nonzero" fill-opacity="1"></path><path clip-path="url(#clip690)" d="M1405.01 45.1919 L1405.01 72.576 L1397.55 72.576 L1397.55 45.4349 Q1397.55 38.994 1395.04 35.7938 Q1392.53 32.5936 1387.51 32.5936 Q1381.47 32.5936 1377.99 36.4419 Q1374.5 40.2903 1374.5 46.9338 L1374.5 72.576 L1367.01 72.576 L1367.01 9.54393 L1374.5 9.54393 L1374.5 34.2544 Q1377.18 30.163 1380.78 28.1376 Q1384.43 26.1121 1389.17 26.1121 Q1396.98 26.1121 1401 30.9732 Q1405.01 35.7938 1405.01 45.1919 Z" fill="#ebfb73" fill-rule="nonzero" fill-opacity="1"></path><path clip-path="url(#clip690)" d="M1446.24 9.54393 L1453.7 9.54393 L1453.7 72.576 L1446.24 72.576 L1446.24 9.54393 Z" fill="#ebfb73" fill-rule="nonzero" fill-opacity="1"></path><path clip-path="url(#clip690)" d="M1489.91 49.7694 Q1480.88 49.7694 1477.4 51.8354 Q1473.91 53.9013 1473.91 58.8839 Q1473.91 62.8538 1476.5 65.2034 Q1479.14 67.5124 1483.63 67.5124 Q1489.83 67.5124 1493.56 63.1374 Q1497.33 58.7219 1497.33 51.4303 L1497.33 49.7694 L1489.91 49.7694 M1504.78 46.6907 L1504.78 72.576 L1497.33 72.576 L1497.33 65.6895 Q1494.77 69.8214 1490.97 71.8063 Q1487.16 73.7508 1481.65 73.7508 Q1474.68 73.7508 1470.55 69.8619 Q1466.46 65.9325 1466.46 59.3701 Q1466.46 51.7138 1471.56 47.825 Q1476.71 43.9361 1486.87 43.9361 L1497.33 43.9361 L1497.33 43.2069 Q1497.33 38.0623 1493.92 35.2672 Q1490.56 32.4315 1484.44 32.4315 Q1480.55 32.4315 1476.87 33.3632 Q1473.18 34.295 1469.78 36.1584 L1469.78 29.2718 Q1473.87 27.692 1477.72 26.9223 Q1481.57 26.1121 1485.21 26.1121 Q1495.06 26.1121 1499.92 31.2163 Q1504.78 36.3204 1504.78 46.6907 Z" fill="#ebfb73" fill-rule="nonzero" fill-opacity="1"></path><path clip-path="url(#clip690)" d="M1527.5 14.324 L1527.5 27.2059 L1542.86 27.2059 L1542.86 32.9987 L1527.5 32.9987 L1527.5 57.6282 Q1527.5 63.1779 1529 64.7578 Q1530.54 66.3376 1535.2 66.3376 L1542.86 66.3376 L1542.86 72.576 L1535.2 72.576 Q1526.57 72.576 1523.29 69.3758 Q1520.01 66.1351 1520.01 57.6282 L1520.01 32.9987 L1514.54 32.9987 L1514.54 27.2059 L1520.01 27.2059 L1520.01 14.324 L1527.5 14.324 Z" fill="#ebfb73" fill-rule="nonzero" fill-opacity="1"></path><path clip-path="url(#clip690)" d="M1560.03 14.324 L1560.03 27.2059 L1575.39 27.2059 L1575.39 32.9987 L1560.03 32.9987 L1560.03 57.6282 Q1560.03 63.1779 1561.53 64.7578 Q1563.07 66.3376 1567.73 66.3376 L1575.39 66.3376 L1575.39 72.576 L1567.73 72.576 Q1559.1 72.576 1555.82 69.3758 Q1552.54 66.1351 1552.54 57.6282 L1552.54 32.9987 L1547.07 32.9987 L1547.07 27.2059 L1552.54 27.2059 L1552.54 14.324 L1560.03 14.324 Z" fill="#ebfb73" fill-rule="nonzero" fill-opacity="1"></path><path clip-path="url(#clip690)" d="M1585.19 27.2059 L1592.64 27.2059 L1592.64 72.576 L1585.19 72.576 L1585.19 27.2059 M1585.19 9.54393 L1592.64 9.54393 L1592.64 18.9825 L1585.19 18.9825 L1585.19 9.54393 Z" fill="#ebfb73" fill-rule="nonzero" fill-opacity="1"></path><path clip-path="url(#clip690)" d="M1640.89 28.9478 L1640.89 35.9153 Q1637.73 34.1734 1634.53 33.3227 Q1631.37 32.4315 1628.13 32.4315 Q1620.88 32.4315 1616.87 37.0496 Q1612.86 41.6271 1612.86 49.9314 Q1612.86 58.2358 1616.87 62.8538 Q1620.88 67.4314 1628.13 67.4314 Q1631.37 67.4314 1634.53 66.5807 Q1637.73 65.6895 1640.89 63.9476 L1640.89 70.8341 Q1637.77 72.2924 1634.41 73.0216 Q1631.09 73.7508 1627.32 73.7508 Q1617.07 73.7508 1611.03 67.3098 Q1605 60.8689 1605 49.9314 Q1605 38.832 1611.07 32.472 Q1617.19 26.1121 1627.81 26.1121 Q1631.25 26.1121 1634.53 26.8413 Q1637.81 27.5299 1640.89 28.9478 Z" fill="#ebfb73" fill-rule="nonzero" fill-opacity="1"></path><path clip-path="url(#clip690)" d="M1692.66 48.0275 L1692.66 51.6733 L1658.39 51.6733 Q1658.88 59.3701 1663.01 63.421 Q1667.18 67.4314 1674.59 67.4314 Q1678.89 67.4314 1682.9 66.3781 Q1686.95 65.3249 1690.92 63.2184 L1690.92 70.267 Q1686.91 71.9684 1682.69 72.8596 Q1678.48 73.7508 1674.15 73.7508 Q1663.29 73.7508 1656.93 67.4314 Q1650.61 61.1119 1650.61 50.3365 Q1650.61 39.1965 1656.61 32.6746 Q1662.64 26.1121 1672.85 26.1121 Q1682.01 26.1121 1687.31 32.0264 Q1692.66 37.9003 1692.66 48.0275 M1685.21 45.84 Q1685.13 39.7232 1681.76 36.0774 Q1678.44 32.4315 1672.93 32.4315 Q1666.69 32.4315 1662.93 35.9558 Q1659.2 39.4801 1658.63 45.8805 L1685.21 45.84 Z" fill="#ebfb73" fill-rule="nonzero" fill-opacity="1"></path><path clip-path="url(#clip690)" d="M1760.19 28.5427 L1760.19 35.5912 Q1757.03 33.9709 1753.63 33.1607 Q1750.22 32.3505 1746.58 32.3505 Q1741.03 32.3505 1738.23 34.0519 Q1735.48 35.7533 1735.48 39.156 Q1735.48 41.7486 1737.46 43.2475 Q1739.45 44.7058 1745.44 46.0426 L1748 46.6097 Q1755.94 48.3111 1759.26 51.4303 Q1762.62 54.509 1762.62 60.0587 Q1762.62 66.3781 1757.6 70.0644 Q1752.61 73.7508 1743.86 73.7508 Q1740.22 73.7508 1736.25 73.0216 Q1732.32 72.3329 1727.94 70.9151 L1727.94 63.2184 Q1732.08 65.3654 1736.09 66.4591 Q1740.1 67.5124 1744.03 67.5124 Q1749.29 67.5124 1752.13 65.73 Q1754.96 63.9071 1754.96 60.6258 Q1754.96 57.5877 1752.9 55.9673 Q1750.87 54.3469 1743.94 52.8481 L1741.35 52.2405 Q1734.43 50.7821 1731.35 47.7845 Q1728.27 44.7463 1728.27 39.4801 Q1728.27 33.0797 1732.8 29.5959 Q1737.34 26.1121 1745.69 26.1121 Q1749.82 26.1121 1753.46 26.7198 Q1757.11 27.3274 1760.19 28.5427 Z" fill="#ebfb73" fill-rule="nonzero" fill-opacity="1"></path><path clip-path="url(#clip690)" d="M1774.49 27.2059 L1781.94 27.2059 L1781.94 72.576 L1774.49 72.576 L1774.49 27.2059 M1774.49 9.54393 L1781.94 9.54393 L1781.94 18.9825 L1774.49 18.9825 L1774.49 9.54393 Z" fill="#ebfb73" fill-rule="nonzero" fill-opacity="1"></path><path clip-path="url(#clip690)" d="M1794.3 27.2059 L1829.7 27.2059 L1829.7 34.0114 L1801.67 66.6212 L1829.7 66.6212 L1829.7 72.576 L1793.28 72.576 L1793.28 65.7705 L1821.32 33.1607 L1794.3 33.1607 L1794.3 27.2059 Z" fill="#ebfb73" fill-rule="nonzero" fill-opacity="1"></path><path clip-path="url(#clip690)" d="M1879.89 48.0275 L1879.89 51.6733 L1845.62 51.6733 Q1846.11 59.3701 1850.24 63.421 Q1854.41 67.4314 1861.83 67.4314 Q1866.12 67.4314 1870.13 66.3781 Q1874.18 65.3249 1878.15 63.2184 L1878.15 70.267 Q1874.14 71.9684 1869.93 72.8596 Q1865.71 73.7508 1861.38 73.7508 Q1850.52 73.7508 1844.16 67.4314 Q1837.84 61.1119 1837.84 50.3365 Q1837.84 39.1965 1843.84 32.6746 Q1849.88 26.1121 1860.08 26.1121 Q1869.24 26.1121 1874.55 32.0264 Q1879.89 37.9003 1879.89 48.0275 M1872.44 45.84 Q1872.36 39.7232 1869 36.0774 Q1865.67 32.4315 1860.17 32.4315 Q1853.93 32.4315 1850.16 35.9558 Q1846.43 39.4801 1845.87 45.8805 L1872.44 45.84 Z" fill="#ebfb73" fill-rule="nonzero" fill-opacity="1"></path><path clip-path="url(#clip690)" d="M1918.82 12.096 L1927 12.096 L1927 65.6895 L1956.46 65.6895 L1956.46 72.576 L1918.82 72.576 L1918.82 12.096 Z" fill="#ebfb73" fill-rule="nonzero" fill-opacity="1"></path><circle clip-path="url(#clip692)" cx="338.848" cy="467.884" r="3.6" fill="#ebfb73" fill-rule="evenodd" fill-opacity="1" stroke="none"></circle>
<circle clip-path="url(#clip692)" cx="510.813" cy="966.156" r="3.6" fill="#ebfb73" fill-rule="evenodd" fill-opacity="1" stroke="none"></circle>
<circle clip-path="url(#clip692)" cx="632.824" cy="946.422" r="3.6" fill="#ebfb73" fill-rule="evenodd" fill-opacity="1" stroke="none"></circle>
<circle clip-path="url(#clip692)" cx="727.463" cy="604.916" r="3.6" fill="#ebfb73" fill-rule="evenodd" fill-opacity="1" stroke="none"></circle>
<circle clip-path="url(#clip692)" cx="804.789" cy="784.993" r="3.6" fill="#ebfb73" fill-rule="evenodd" fill-opacity="1" stroke="none"></circle>
<circle clip-path="url(#clip692)" cx="870.167" cy="1011.5" r="3.6" fill="#ebfb73" fill-rule="evenodd" fill-opacity="1" stroke="none"></circle>
<circle clip-path="url(#clip692)" cx="926.8" cy="537.987" r="3.6" fill="#ebfb73" fill-rule="evenodd" fill-opacity="1" stroke="none"></circle>
<circle clip-path="url(#clip692)" cx="976.754" cy="858.594" r="3.6" fill="#ebfb73" fill-rule="evenodd" fill-opacity="1" stroke="none"></circle>
<circle clip-path="url(#clip692)" cx="1021.44" cy="754.696" r="3.6" fill="#ebfb73" fill-rule="evenodd" fill-opacity="1" stroke="none"></circle>
<circle clip-path="url(#clip692)" cx="1061.86" cy="393.783" r="3.6" fill="#ebfb73" fill-rule="evenodd" fill-opacity="1" stroke="none"></circle>
<circle clip-path="url(#clip692)" cx="1098.76" cy="788.638" r="3.6" fill="#ebfb73" fill-rule="evenodd" fill-opacity="1" stroke="none"></circle>
<circle clip-path="url(#clip692)" cx="1132.71" cy="1180.82" r="3.6" fill="#ebfb73" fill-rule="evenodd" fill-opacity="1" stroke="none"></circle>
<circle clip-path="url(#clip692)" cx="1164.14" cy="955.085" r="3.6" fill="#ebfb73" fill-rule="evenodd" fill-opacity="1" stroke="none"></circle>
<circle clip-path="url(#clip692)" cx="1193.4" cy="869.55" r="3.6" fill="#ebfb73" fill-rule="evenodd" fill-opacity="1" stroke="none"></circle>
<circle clip-path="url(#clip692)" cx="1220.78" cy="415.792" r="3.6" fill="#ebfb73" fill-rule="evenodd" fill-opacity="1" stroke="none"></circle>
<circle clip-path="url(#clip692)" cx="1246.49" cy="805.071" r="3.6" fill="#ebfb73" fill-rule="evenodd" fill-opacity="1" stroke="none"></circle>
<circle clip-path="url(#clip692)" cx="1270.73" cy="794.986" r="3.6" fill="#ebfb73" fill-rule="evenodd" fill-opacity="1" stroke="none"></circle>
<circle clip-path="url(#clip692)" cx="1293.66" cy="883.197" r="3.6" fill="#ebfb73" fill-rule="evenodd" fill-opacity="1" stroke="none"></circle>
<circle clip-path="url(#clip692)" cx="1315.42" cy="1171.48" r="3.6" fill="#ebfb73" fill-rule="evenodd" fill-opacity="1" stroke="none"></circle>
<circle clip-path="url(#clip692)" cx="1336.11" cy="1114.07" r="3.6" fill="#ebfb73" fill-rule="evenodd" fill-opacity="1" stroke="none"></circle>
<circle clip-path="url(#clip692)" cx="1355.84" cy="673.355" r="3.6" fill="#ebfb73" fill-rule="evenodd" fill-opacity="1" stroke="none"></circle>
<circle clip-path="url(#clip692)" cx="1374.69" cy="553.787" r="3.6" fill="#ebfb73" fill-rule="evenodd" fill-opacity="1" stroke="none"></circle>
<circle clip-path="url(#clip692)" cx="1392.74" cy="739.215" r="3.6" fill="#ebfb73" fill-rule="evenodd" fill-opacity="1" stroke="none"></circle>
<circle clip-path="url(#clip692)" cx="1410.05" cy="622.651" r="3.6" fill="#ebfb73" fill-rule="evenodd" fill-opacity="1" stroke="none"></circle>
<circle clip-path="url(#clip692)" cx="1426.69" cy="642.351" r="3.6" fill="#ebfb73" fill-rule="evenodd" fill-opacity="1" stroke="none"></circle>
<circle clip-path="url(#clip692)" cx="1442.7" cy="1089.99" r="3.6" fill="#ebfb73" fill-rule="evenodd" fill-opacity="1" stroke="none"></circle>
<circle clip-path="url(#clip692)" cx="1458.12" cy="865.072" r="3.6" fill="#ebfb73" fill-rule="evenodd" fill-opacity="1" stroke="none"></circle>
<circle clip-path="url(#clip692)" cx="1473" cy="990.784" r="3.6" fill="#ebfb73" fill-rule="evenodd" fill-opacity="1" stroke="none"></circle>
<circle clip-path="url(#clip692)" cx="1487.38" cy="858.646" r="3.6" fill="#ebfb73" fill-rule="evenodd" fill-opacity="1" stroke="none"></circle>
<circle clip-path="url(#clip692)" cx="1501.29" cy="901.008" r="3.6" fill="#ebfb73" fill-rule="evenodd" fill-opacity="1" stroke="none"></circle>
<circle clip-path="url(#clip692)" cx="1514.75" cy="713.505" r="3.6" fill="#ebfb73" fill-rule="evenodd" fill-opacity="1" stroke="none"></circle>
<circle clip-path="url(#clip692)" cx="1527.8" cy="999.12" r="3.6" fill="#ebfb73" fill-rule="evenodd" fill-opacity="1" stroke="none"></circle>
<circle clip-path="url(#clip692)" cx="1540.46" cy="750.351" r="3.6" fill="#ebfb73" fill-rule="evenodd" fill-opacity="1" stroke="none"></circle>
<circle clip-path="url(#clip692)" cx="1552.76" cy="683.335" r="3.6" fill="#ebfb73" fill-rule="evenodd" fill-opacity="1" stroke="none"></circle>
<circle clip-path="url(#clip692)" cx="1564.71" cy="823.33" r="3.6" fill="#ebfb73" fill-rule="evenodd" fill-opacity="1" stroke="none"></circle>
<circle clip-path="url(#clip692)" cx="1576.33" cy="1066.3" r="3.6" fill="#ebfb73" fill-rule="evenodd" fill-opacity="1" stroke="none"></circle>
<circle clip-path="url(#clip692)" cx="1587.64" cy="834.563" r="3.6" fill="#ebfb73" fill-rule="evenodd" fill-opacity="1" stroke="none"></circle>
<circle clip-path="url(#clip692)" cx="1598.65" cy="991.734" r="3.6" fill="#ebfb73" fill-rule="evenodd" fill-opacity="1" stroke="none"></circle>
<circle clip-path="url(#clip692)" cx="1609.39" cy="542.81" r="3.6" fill="#ebfb73" fill-rule="evenodd" fill-opacity="1" stroke="none"></circle>
<circle clip-path="url(#clip692)" cx="1619.86" cy="791.839" r="3.6" fill="#ebfb73" fill-rule="evenodd" fill-opacity="1" stroke="none"></circle>
<circle clip-path="url(#clip692)" cx="1630.08" cy="855.73" r="3.6" fill="#ebfb73" fill-rule="evenodd" fill-opacity="1" stroke="none"></circle>
<circle clip-path="url(#clip692)" cx="1640.06" cy="1127.92" r="3.6" fill="#ebfb73" fill-rule="evenodd" fill-opacity="1" stroke="none"></circle>
<circle clip-path="url(#clip692)" cx="1649.81" cy="806.396" r="3.6" fill="#ebfb73" fill-rule="evenodd" fill-opacity="1" stroke="none"></circle>
<circle clip-path="url(#clip692)" cx="1659.35" cy="639.056" r="3.6" fill="#ebfb73" fill-rule="evenodd" fill-opacity="1" stroke="none"></circle>
<circle clip-path="url(#clip692)" cx="1668.67" cy="1100.89" r="3.6" fill="#ebfb73" fill-rule="evenodd" fill-opacity="1" stroke="none"></circle>
<circle clip-path="url(#clip692)" cx="1677.79" cy="825.478" r="3.6" fill="#ebfb73" fill-rule="evenodd" fill-opacity="1" stroke="none"></circle>
<circle clip-path="url(#clip692)" cx="1686.72" cy="823.252" r="3.6" fill="#ebfb73" fill-rule="evenodd" fill-opacity="1" stroke="none"></circle>
<circle clip-path="url(#clip692)" cx="1695.46" cy="485.073" r="3.6" fill="#ebfb73" fill-rule="evenodd" fill-opacity="1" stroke="none"></circle>
<circle clip-path="url(#clip692)" cx="1704.03" cy="949.934" r="3.6" fill="#ebfb73" fill-rule="evenodd" fill-opacity="1" stroke="none"></circle>
<circle clip-path="url(#clip692)" cx="1712.43" cy="443.378" r="3.6" fill="#ebfb73" fill-rule="evenodd" fill-opacity="1" stroke="none"></circle>
<circle clip-path="url(#clip692)" cx="1720.66" cy="1347.06" r="3.6" fill="#ebfb73" fill-rule="evenodd" fill-opacity="1" stroke="none"></circle>
<circle clip-path="url(#clip692)" cx="1728.74" cy="692.1" r="3.6" fill="#ebfb73" fill-rule="evenodd" fill-opacity="1" stroke="none"></circle>
<circle clip-path="url(#clip692)" cx="1736.67" cy="802.56" r="3.6" fill="#ebfb73" fill-rule="evenodd" fill-opacity="1" stroke="none"></circle>
<circle clip-path="url(#clip692)" cx="1744.45" cy="789.029" r="3.6" fill="#ebfb73" fill-rule="evenodd" fill-opacity="1" stroke="none"></circle>
<circle clip-path="url(#clip692)" cx="1752.1" cy="714.946" r="3.6" fill="#ebfb73" fill-rule="evenodd" fill-opacity="1" stroke="none"></circle>
<circle clip-path="url(#clip692)" cx="1759.6" cy="948.079" r="3.6" fill="#ebfb73" fill-rule="evenodd" fill-opacity="1" stroke="none"></circle>
<circle clip-path="url(#clip692)" cx="1766.98" cy="892.66" r="3.6" fill="#ebfb73" fill-rule="evenodd" fill-opacity="1" stroke="none"></circle>
<circle clip-path="url(#clip692)" cx="1774.23" cy="765.12" r="3.6" fill="#ebfb73" fill-rule="evenodd" fill-opacity="1" stroke="none"></circle>
<circle clip-path="url(#clip692)" cx="1781.36" cy="330.245" r="3.6" fill="#ebfb73" fill-rule="evenodd" fill-opacity="1" stroke="none"></circle>
<circle clip-path="url(#clip692)" cx="1788.37" cy="630.72" r="3.6" fill="#ebfb73" fill-rule="evenodd" fill-opacity="1" stroke="none"></circle>
<circle clip-path="url(#clip692)" cx="1795.26" cy="773.351" r="3.6" fill="#ebfb73" fill-rule="evenodd" fill-opacity="1" stroke="none"></circle>
<circle clip-path="url(#clip692)" cx="1802.05" cy="785.198" r="3.6" fill="#ebfb73" fill-rule="evenodd" fill-opacity="1" stroke="none"></circle>
<circle clip-path="url(#clip692)" cx="1808.73" cy="839.091" r="3.6" fill="#ebfb73" fill-rule="evenodd" fill-opacity="1" stroke="none"></circle>
<circle clip-path="url(#clip692)" cx="1815.3" cy="890.839" r="3.6" fill="#ebfb73" fill-rule="evenodd" fill-opacity="1" stroke="none"></circle>
<circle clip-path="url(#clip692)" cx="1821.78" cy="593.795" r="3.6" fill="#ebfb73" fill-rule="evenodd" fill-opacity="1" stroke="none"></circle>
<circle clip-path="url(#clip692)" cx="1828.16" cy="914.62" r="3.6" fill="#ebfb73" fill-rule="evenodd" fill-opacity="1" stroke="none"></circle>
<circle clip-path="url(#clip692)" cx="1834.44" cy="1011.37" r="3.6" fill="#ebfb73" fill-rule="evenodd" fill-opacity="1" stroke="none"></circle>
<circle clip-path="url(#clip692)" cx="1840.63" cy="620.853" r="3.6" fill="#ebfb73" fill-rule="evenodd" fill-opacity="1" stroke="none"></circle>
<circle clip-path="url(#clip692)" cx="1846.73" cy="1164.13" r="3.6" fill="#ebfb73" fill-rule="evenodd" fill-opacity="1" stroke="none"></circle>
<circle clip-path="url(#clip692)" cx="1852.75" cy="754.385" r="3.6" fill="#ebfb73" fill-rule="evenodd" fill-opacity="1" stroke="none"></circle>
<circle clip-path="url(#clip692)" cx="1858.68" cy="882.416" r="3.6" fill="#ebfb73" fill-rule="evenodd" fill-opacity="1" stroke="none"></circle>
<circle clip-path="url(#clip692)" cx="1864.53" cy="760.847" r="3.6" fill="#ebfb73" fill-rule="evenodd" fill-opacity="1" stroke="none"></circle>
<circle clip-path="url(#clip692)" cx="1870.3" cy="969.081" r="3.6" fill="#ebfb73" fill-rule="evenodd" fill-opacity="1" stroke="none"></circle>
<circle clip-path="url(#clip692)" cx="1876" cy="594.345" r="3.6" fill="#ebfb73" fill-rule="evenodd" fill-opacity="1" stroke="none"></circle>
<circle clip-path="url(#clip692)" cx="1881.61" cy="583.123" r="3.6" fill="#ebfb73" fill-rule="evenodd" fill-opacity="1" stroke="none"></circle>
<circle clip-path="url(#clip692)" cx="1887.16" cy="725.365" r="3.6" fill="#ebfb73" fill-rule="evenodd" fill-opacity="1" stroke="none"></circle>
<circle clip-path="url(#clip692)" cx="1892.63" cy="893.774" r="3.6" fill="#ebfb73" fill-rule="evenodd" fill-opacity="1" stroke="none"></circle>
<circle clip-path="url(#clip692)" cx="1898.03" cy="1209.53" r="3.6" fill="#ebfb73" fill-rule="evenodd" fill-opacity="1" stroke="none"></circle>
<circle clip-path="url(#clip692)" cx="1903.37" cy="612.839" r="3.6" fill="#ebfb73" fill-rule="evenodd" fill-opacity="1" stroke="none"></circle>
<circle clip-path="url(#clip692)" cx="1908.64" cy="929.948" r="3.6" fill="#ebfb73" fill-rule="evenodd" fill-opacity="1" stroke="none"></circle>
<circle clip-path="url(#clip692)" cx="1913.84" cy="1065.03" r="3.6" fill="#ebfb73" fill-rule="evenodd" fill-opacity="1" stroke="none"></circle>
<circle clip-path="url(#clip692)" cx="1918.98" cy="676.153" r="3.6" fill="#ebfb73" fill-rule="evenodd" fill-opacity="1" stroke="none"></circle>
<circle clip-path="url(#clip692)" cx="1924.06" cy="1030.97" r="3.6" fill="#ebfb73" fill-rule="evenodd" fill-opacity="1" stroke="none"></circle>
<circle clip-path="url(#clip692)" cx="1929.08" cy="683.666" r="3.6" fill="#ebfb73" fill-rule="evenodd" fill-opacity="1" stroke="none"></circle>
<circle clip-path="url(#clip692)" cx="1934.04" cy="923.733" r="3.6" fill="#ebfb73" fill-rule="evenodd" fill-opacity="1" stroke="none"></circle>
<circle clip-path="url(#clip692)" cx="1938.94" cy="682.928" r="3.6" fill="#ebfb73" fill-rule="evenodd" fill-opacity="1" stroke="none"></circle>
<circle clip-path="url(#clip692)" cx="1943.79" cy="963.383" r="3.6" fill="#ebfb73" fill-rule="evenodd" fill-opacity="1" stroke="none"></circle>
<circle clip-path="url(#clip692)" cx="1948.58" cy="879.567" r="3.6" fill="#ebfb73" fill-rule="evenodd" fill-opacity="1" stroke="none"></circle>
<circle clip-path="url(#clip692)" cx="1953.32" cy="536.651" r="3.6" fill="#ebfb73" fill-rule="evenodd" fill-opacity="1" stroke="none"></circle>
<circle clip-path="url(#clip692)" cx="1958.01" cy="1204.38" r="3.6" fill="#ebfb73" fill-rule="evenodd" fill-opacity="1" stroke="none"></circle>
<circle clip-path="url(#clip692)" cx="1962.64" cy="1057.52" r="3.6" fill="#ebfb73" fill-rule="evenodd" fill-opacity="1" stroke="none"></circle>
<circle clip-path="url(#clip692)" cx="1967.23" cy="929.683" r="3.6" fill="#ebfb73" fill-rule="evenodd" fill-opacity="1" stroke="none"></circle>
<circle clip-path="url(#clip692)" cx="1971.76" cy="800.319" r="3.6" fill="#ebfb73" fill-rule="evenodd" fill-opacity="1" stroke="none"></circle>
<circle clip-path="url(#clip692)" cx="1976.25" cy="701.62" r="3.6" fill="#ebfb73" fill-rule="evenodd" fill-opacity="1" stroke="none"></circle>
<circle clip-path="url(#clip692)" cx="1980.69" cy="804.456" r="3.6" fill="#ebfb73" fill-rule="evenodd" fill-opacity="1" stroke="none"></circle>
<circle clip-path="url(#clip692)" cx="1985.09" cy="1138.45" r="3.6" fill="#ebfb73" fill-rule="evenodd" fill-opacity="1" stroke="none"></circle>
<circle clip-path="url(#clip692)" cx="1989.44" cy="694.55" r="3.6" fill="#ebfb73" fill-rule="evenodd" fill-opacity="1" stroke="none"></circle>
<circle clip-path="url(#clip692)" cx="1993.74" cy="896.899" r="3.6" fill="#ebfb73" fill-rule="evenodd" fill-opacity="1" stroke="none"></circle>
<circle clip-path="url(#clip692)" cx="1998.01" cy="928.479" r="3.6" fill="#ebfb73" fill-rule="evenodd" fill-opacity="1" stroke="none"></circle>
<circle clip-path="url(#clip692)" cx="2002.23" cy="774.938" r="3.6" fill="#ebfb73" fill-rule="evenodd" fill-opacity="1" stroke="none"></circle>
<circle clip-path="url(#clip692)" cx="2006.41" cy="972.276" r="3.6" fill="#ebfb73" fill-rule="evenodd" fill-opacity="1" stroke="none"></circle>
<circle clip-path="url(#clip692)" cx="2010.54" cy="657.345" r="3.6" fill="#ebfb73" fill-rule="evenodd" fill-opacity="1" stroke="none"></circle>
<circle clip-path="url(#clip692)" cx="2014.64" cy="1013.06" r="3.6" fill="#ebfb73" fill-rule="evenodd" fill-opacity="1" stroke="none"></circle>
<circle clip-path="url(#clip692)" cx="2018.7" cy="1151.33" r="3.6" fill="#ebfb73" fill-rule="evenodd" fill-opacity="1" stroke="none"></circle>
<circle clip-path="url(#clip692)" cx="2022.72" cy="816.441" r="3.6" fill="#ebfb73" fill-rule="evenodd" fill-opacity="1" stroke="none"></circle>
<circle clip-path="url(#clip692)" cx="2026.7" cy="1064.41" r="3.6" fill="#ebfb73" fill-rule="evenodd" fill-opacity="1" stroke="none"></circle>
<circle clip-path="url(#clip692)" cx="2030.65" cy="756.632" r="3.6" fill="#ebfb73" fill-rule="evenodd" fill-opacity="1" stroke="none"></circle>
<circle clip-path="url(#clip692)" cx="2034.56" cy="575.397" r="3.6" fill="#ebfb73" fill-rule="evenodd" fill-opacity="1" stroke="none"></circle>
<circle clip-path="url(#clip692)" cx="2038.43" cy="460.635" r="3.6" fill="#ebfb73" fill-rule="evenodd" fill-opacity="1" stroke="none"></circle>
<circle clip-path="url(#clip692)" cx="2042.27" cy="1166.92" r="3.6" fill="#ebfb73" fill-rule="evenodd" fill-opacity="1" stroke="none"></circle>
<circle clip-path="url(#clip692)" cx="2046.07" cy="702.763" r="3.6" fill="#ebfb73" fill-rule="evenodd" fill-opacity="1" stroke="none"></circle>
<circle clip-path="url(#clip692)" cx="2049.84" cy="830.101" r="3.6" fill="#ebfb73" fill-rule="evenodd" fill-opacity="1" stroke="none"></circle>
<circle clip-path="url(#clip692)" cx="2053.58" cy="965.653" r="3.6" fill="#ebfb73" fill-rule="evenodd" fill-opacity="1" stroke="none"></circle>
<circle clip-path="url(#clip692)" cx="2057.28" cy="1354.95" r="3.6" fill="#ebfb73" fill-rule="evenodd" fill-opacity="1" stroke="none"></circle>
<circle clip-path="url(#clip692)" cx="2060.95" cy="611.25" r="3.6" fill="#ebfb73" fill-rule="evenodd" fill-opacity="1" stroke="none"></circle>
<circle clip-path="url(#clip692)" cx="2064.59" cy="649.787" r="3.6" fill="#ebfb73" fill-rule="evenodd" fill-opacity="1" stroke="none"></circle>
<circle clip-path="url(#clip692)" cx="2068.2" cy="728.277" r="3.6" fill="#ebfb73" fill-rule="evenodd" fill-opacity="1" stroke="none"></circle>
<circle clip-path="url(#clip692)" cx="2071.78" cy="669.317" r="3.6" fill="#ebfb73" fill-rule="evenodd" fill-opacity="1" stroke="none"></circle>
<circle clip-path="url(#clip692)" cx="2075.33" cy="558.526" r="3.6" fill="#ebfb73" fill-rule="evenodd" fill-opacity="1" stroke="none"></circle>
<circle clip-path="url(#clip692)" cx="2078.85" cy="876.491" r="3.6" fill="#ebfb73" fill-rule="evenodd" fill-opacity="1" stroke="none"></circle>
<circle clip-path="url(#clip692)" cx="2082.34" cy="560.063" r="3.6" fill="#ebfb73" fill-rule="evenodd" fill-opacity="1" stroke="none"></circle>
<circle clip-path="url(#clip692)" cx="2085.81" cy="996.101" r="3.6" fill="#ebfb73" fill-rule="evenodd" fill-opacity="1" stroke="none"></circle>
<circle clip-path="url(#clip692)" cx="2089.24" cy="785.065" r="3.6" fill="#ebfb73" fill-rule="evenodd" fill-opacity="1" stroke="none"></circle>
<circle clip-path="url(#clip692)" cx="2092.65" cy="498.483" r="3.6" fill="#ebfb73" fill-rule="evenodd" fill-opacity="1" stroke="none"></circle>
<circle clip-path="url(#clip692)" cx="2096.03" cy="823.521" r="3.6" fill="#ebfb73" fill-rule="evenodd" fill-opacity="1" stroke="none"></circle>
<circle clip-path="url(#clip692)" cx="2099.38" cy="442.601" r="3.6" fill="#ebfb73" fill-rule="evenodd" fill-opacity="1" stroke="none"></circle>
<circle clip-path="url(#clip692)" cx="2102.7" cy="687.024" r="3.6" fill="#ebfb73" fill-rule="evenodd" fill-opacity="1" stroke="none"></circle>
<circle clip-path="url(#clip692)" cx="2106.01" cy="687.591" r="3.6" fill="#ebfb73" fill-rule="evenodd" fill-opacity="1" stroke="none"></circle>
<circle clip-path="url(#clip692)" cx="2109.28" cy="1000.08" r="3.6" fill="#ebfb73" fill-rule="evenodd" fill-opacity="1" stroke="none"></circle>
<circle clip-path="url(#clip692)" cx="2112.53" cy="992.361" r="3.6" fill="#ebfb73" fill-rule="evenodd" fill-opacity="1" stroke="none"></circle>
<circle clip-path="url(#clip692)" cx="2115.76" cy="1048.85" r="3.6" fill="#ebfb73" fill-rule="evenodd" fill-opacity="1" stroke="none"></circle>
<circle clip-path="url(#clip692)" cx="2118.96" cy="585.62" r="3.6" fill="#ebfb73" fill-rule="evenodd" fill-opacity="1" stroke="none"></circle>
<circle clip-path="url(#clip692)" cx="2122.13" cy="637.442" r="3.6" fill="#ebfb73" fill-rule="evenodd" fill-opacity="1" stroke="none"></circle>
<circle clip-path="url(#clip692)" cx="2125.29" cy="797.404" r="3.6" fill="#ebfb73" fill-rule="evenodd" fill-opacity="1" stroke="none"></circle>
<circle clip-path="url(#clip692)" cx="2128.42" cy="424.548" r="3.6" fill="#ebfb73" fill-rule="evenodd" fill-opacity="1" stroke="none"></circle>
<circle clip-path="url(#clip692)" cx="2131.52" cy="457.574" r="3.6" fill="#ebfb73" fill-rule="evenodd" fill-opacity="1" stroke="none"></circle>
<circle clip-path="url(#clip692)" cx="2134.61" cy="1007.26" r="3.6" fill="#ebfb73" fill-rule="evenodd" fill-opacity="1" stroke="none"></circle>
<circle clip-path="url(#clip692)" cx="2137.67" cy="1004.27" r="3.6" fill="#ebfb73" fill-rule="evenodd" fill-opacity="1" stroke="none"></circle>
<circle clip-path="url(#clip692)" cx="2140.71" cy="987.491" r="3.6" fill="#ebfb73" fill-rule="evenodd" fill-opacity="1" stroke="none"></circle>
<circle clip-path="url(#clip692)" cx="2143.73" cy="682.146" r="3.6" fill="#ebfb73" fill-rule="evenodd" fill-opacity="1" stroke="none"></circle>
<circle clip-path="url(#clip692)" cx="2146.73" cy="590.413" r="3.6" fill="#ebfb73" fill-rule="evenodd" fill-opacity="1" stroke="none"></circle>
<circle clip-path="url(#clip692)" cx="2149.7" cy="607.39" r="3.6" fill="#ebfb73" fill-rule="evenodd" fill-opacity="1" stroke="none"></circle>
<circle clip-path="url(#clip692)" cx="2152.66" cy="439.33" r="3.6" fill="#ebfb73" fill-rule="evenodd" fill-opacity="1" stroke="none"></circle>
<circle clip-path="url(#clip692)" cx="2155.59" cy="786.447" r="3.6" fill="#ebfb73" fill-rule="evenodd" fill-opacity="1" stroke="none"></circle>
<circle clip-path="url(#clip692)" cx="2158.51" cy="874.371" r="3.6" fill="#ebfb73" fill-rule="evenodd" fill-opacity="1" stroke="none"></circle>
<circle clip-path="url(#clip692)" cx="2161.4" cy="995.83" r="3.6" fill="#ebfb73" fill-rule="evenodd" fill-opacity="1" stroke="none"></circle>
<circle clip-path="url(#clip692)" cx="2164.28" cy="714.299" r="3.6" fill="#ebfb73" fill-rule="evenodd" fill-opacity="1" stroke="none"></circle>
<circle clip-path="url(#clip692)" cx="2167.14" cy="159.34" r="3.6" fill="#ebfb73" fill-rule="evenodd" fill-opacity="1" stroke="none"></circle>
<circle clip-path="url(#clip692)" cx="2169.97" cy="422.461" r="3.6" fill="#ebfb73" fill-rule="evenodd" fill-opacity="1" stroke="none"></circle>
<circle clip-path="url(#clip692)" cx="2172.79" cy="682.102" r="3.6" fill="#ebfb73" fill-rule="evenodd" fill-opacity="1" stroke="none"></circle>
<circle clip-path="url(#clip692)" cx="2175.59" cy="1024.31" r="3.6" fill="#ebfb73" fill-rule="evenodd" fill-opacity="1" stroke="none"></circle>
<circle clip-path="url(#clip692)" cx="2178.37" cy="1113.2" r="3.6" fill="#ebfb73" fill-rule="evenodd" fill-opacity="1" stroke="none"></circle>
<circle clip-path="url(#clip692)" cx="2181.13" cy="741.38" r="3.6" fill="#ebfb73" fill-rule="evenodd" fill-opacity="1" stroke="none"></circle>
<circle clip-path="url(#clip692)" cx="2183.88" cy="385.144" r="3.6" fill="#ebfb73" fill-rule="evenodd" fill-opacity="1" stroke="none"></circle>
<circle clip-path="url(#clip692)" cx="2186.61" cy="715.856" r="3.6" fill="#ebfb73" fill-rule="evenodd" fill-opacity="1" stroke="none"></circle>
<circle clip-path="url(#clip692)" cx="2189.32" cy="1032.69" r="3.6" fill="#ebfb73" fill-rule="evenodd" fill-opacity="1" stroke="none"></circle>
<circle clip-path="url(#clip692)" cx="2192.01" cy="291.345" r="3.6" fill="#ebfb73" fill-rule="evenodd" fill-opacity="1" stroke="none"></circle>
<circle clip-path="url(#clip692)" cx="2194.68" cy="1037.89" r="3.6" fill="#ebfb73" fill-rule="evenodd" fill-opacity="1" stroke="none"></circle>
<circle clip-path="url(#clip692)" cx="2197.34" cy="991.937" r="3.6" fill="#ebfb73" fill-rule="evenodd" fill-opacity="1" stroke="none"></circle>
<circle clip-path="url(#clip692)" cx="2199.99" cy="585.532" r="3.6" fill="#ebfb73" fill-rule="evenodd" fill-opacity="1" stroke="none"></circle>
<circle clip-path="url(#clip692)" cx="2202.61" cy="995.622" r="3.6" fill="#ebfb73" fill-rule="evenodd" fill-opacity="1" stroke="none"></circle>
<circle clip-path="url(#clip692)" cx="2205.22" cy="893.164" r="3.6" fill="#ebfb73" fill-rule="evenodd" fill-opacity="1" stroke="none"></circle>
<circle clip-path="url(#clip692)" cx="2207.82" cy="500.122" r="3.6" fill="#ebfb73" fill-rule="evenodd" fill-opacity="1" stroke="none"></circle>
<circle clip-path="url(#clip692)" cx="2210.39" cy="309.856" r="3.6" fill="#ebfb73" fill-rule="evenodd" fill-opacity="1" stroke="none"></circle>
<circle clip-path="url(#clip692)" cx="2212.96" cy="764.019" r="3.6" fill="#ebfb73" fill-rule="evenodd" fill-opacity="1" stroke="none"></circle>
<circle clip-path="url(#clip692)" cx="2215.5" cy="517.031" r="3.6" fill="#ebfb73" fill-rule="evenodd" fill-opacity="1" stroke="none"></circle>
<circle clip-path="url(#clip692)" cx="2218.04" cy="1028.99" r="3.6" fill="#ebfb73" fill-rule="evenodd" fill-opacity="1" stroke="none"></circle>
<circle clip-path="url(#clip692)" cx="2220.55" cy="753.269" r="3.6" fill="#ebfb73" fill-rule="evenodd" fill-opacity="1" stroke="none"></circle>
<circle clip-path="url(#clip692)" cx="2223.06" cy="1351.25" r="3.6" fill="#ebfb73" fill-rule="evenodd" fill-opacity="1" stroke="none"></circle>
<circle clip-path="url(#clip692)" cx="2225.54" cy="725.621" r="3.6" fill="#ebfb73" fill-rule="evenodd" fill-opacity="1" stroke="none"></circle>
<circle clip-path="url(#clip692)" cx="2228.02" cy="742.228" r="3.6" fill="#ebfb73" fill-rule="evenodd" fill-opacity="1" stroke="none"></circle>
<circle clip-path="url(#clip692)" cx="2230.48" cy="896.407" r="3.6" fill="#ebfb73" fill-rule="evenodd" fill-opacity="1" stroke="none"></circle>
<circle clip-path="url(#clip692)" cx="2232.92" cy="1011.85" r="3.6" fill="#ebfb73" fill-rule="evenodd" fill-opacity="1" stroke="none"></circle>
<circle clip-path="url(#clip692)" cx="2235.35" cy="815.734" r="3.6" fill="#ebfb73" fill-rule="evenodd" fill-opacity="1" stroke="none"></circle>
<circle clip-path="url(#clip692)" cx="2237.77" cy="492.595" r="3.6" fill="#ebfb73" fill-rule="evenodd" fill-opacity="1" stroke="none"></circle>
<circle clip-path="url(#clip692)" cx="2240.17" cy="763.594" r="3.6" fill="#ebfb73" fill-rule="evenodd" fill-opacity="1" stroke="none"></circle>
<circle clip-path="url(#clip692)" cx="2242.56" cy="945.538" r="3.6" fill="#ebfb73" fill-rule="evenodd" fill-opacity="1" stroke="none"></circle>
<circle clip-path="url(#clip692)" cx="2244.94" cy="490.848" r="3.6" fill="#ebfb73" fill-rule="evenodd" fill-opacity="1" stroke="none"></circle>
<circle clip-path="url(#clip692)" cx="2247.3" cy="1135.5" r="3.6" fill="#ebfb73" fill-rule="evenodd" fill-opacity="1" stroke="none"></circle>
<circle clip-path="url(#clip692)" cx="2249.65" cy="773.888" r="3.6" fill="#ebfb73" fill-rule="evenodd" fill-opacity="1" stroke="none"></circle>
<circle clip-path="url(#clip692)" cx="2251.98" cy="776.853" r="3.6" fill="#ebfb73" fill-rule="evenodd" fill-opacity="1" stroke="none"></circle>
<circle clip-path="url(#clip692)" cx="2254.31" cy="850.924" r="3.6" fill="#ebfb73" fill-rule="evenodd" fill-opacity="1" stroke="none"></circle>
<circle clip-path="url(#clip692)" cx="2256.62" cy="588.018" r="3.6" fill="#ebfb73" fill-rule="evenodd" fill-opacity="1" stroke="none"></circle>
<circle clip-path="url(#clip692)" cx="2258.92" cy="773.467" r="3.6" fill="#ebfb73" fill-rule="evenodd" fill-opacity="1" stroke="none"></circle>
<circle clip-path="url(#clip692)" cx="2261.2" cy="494.068" r="3.6" fill="#ebfb73" fill-rule="evenodd" fill-opacity="1" stroke="none"></circle>
<circle clip-path="url(#clip692)" cx="2263.48" cy="687.772" r="3.6" fill="#ebfb73" fill-rule="evenodd" fill-opacity="1" stroke="none"></circle>
<circle clip-path="url(#clip692)" cx="2265.74" cy="784.484" r="3.6" fill="#ebfb73" fill-rule="evenodd" fill-opacity="1" stroke="none"></circle>
<circle clip-path="url(#clip692)" cx="2267.99" cy="828.888" r="3.6" fill="#ebfb73" fill-rule="evenodd" fill-opacity="1" stroke="none"></circle>
<circle clip-path="url(#clip692)" cx="2270.23" cy="334.54" r="3.6" fill="#ebfb73" fill-rule="evenodd" fill-opacity="1" stroke="none"></circle>
<circle clip-path="url(#clip692)" cx="2272.46" cy="766.969" r="3.6" fill="#ebfb73" fill-rule="evenodd" fill-opacity="1" stroke="none"></circle>
<circle clip-path="url(#clip692)" cx="2274.67" cy="703.784" r="3.6" fill="#ebfb73" fill-rule="evenodd" fill-opacity="1" stroke="none"></circle>
<circle clip-path="url(#clip692)" cx="2276.87" cy="374.019" r="3.6" fill="#ebfb73" fill-rule="evenodd" fill-opacity="1" stroke="none"></circle>
<circle clip-path="url(#clip692)" cx="2279.06" cy="857.716" r="3.6" fill="#ebfb73" fill-rule="evenodd" fill-opacity="1" stroke="none"></circle>
<circle clip-path="url(#clip692)" cx="2281.25" cy="890.409" r="3.6" fill="#ebfb73" fill-rule="evenodd" fill-opacity="1" stroke="none"></circle>
<circle clip-path="url(#clip692)" cx="2283.41" cy="1021.28" r="3.6" fill="#ebfb73" fill-rule="evenodd" fill-opacity="1" stroke="none"></circle>
<circle clip-path="url(#clip692)" cx="2285.57" cy="737.451" r="3.6" fill="#ebfb73" fill-rule="evenodd" fill-opacity="1" stroke="none"></circle>
<circle clip-path="url(#clip692)" cx="2287.72" cy="668.598" r="3.6" fill="#ebfb73" fill-rule="evenodd" fill-opacity="1" stroke="none"></circle>
<circle clip-path="url(#clip692)" cx="2289.86" cy="677.235" r="3.6" fill="#ebfb73" fill-rule="evenodd" fill-opacity="1" stroke="none"></circle>
<circle clip-path="url(#clip692)" cx="2291.98" cy="772.671" r="3.6" fill="#ebfb73" fill-rule="evenodd" fill-opacity="1" stroke="none"></circle>
<circle clip-path="url(#clip692)" cx="2294.1" cy="1240.04" r="3.6" fill="#ebfb73" fill-rule="evenodd" fill-opacity="1" stroke="none"></circle>
<path clip-path="url(#clip690)" d="M349.276 269.397 L981.97 269.397 L981.97 165.717 L349.276 165.717  Z" fill="#271924" fill-rule="evenodd" fill-opacity="1"></path>
<polyline clip-path="url(#clip690)" style="stroke:#80d584; stroke-linecap:round; stroke-linejoin:round; stroke-width:4; stroke-opacity:1; fill:none" points="349.276,269.397 981.97,269.397 981.97,165.717 349.276,165.717 349.276,269.397 "></polyline>
<circle clip-path="url(#clip690)" cx="441.39" cy="217.557" r="15.36" fill="#ebfb73" fill-rule="evenodd" fill-opacity="1" stroke="none"></circle>
<path clip-path="url(#clip690)" d="M552.416 212.846 L552.416 198.819 L556.675 198.819 L556.675 234.837 L552.416 234.837 L552.416 230.948 Q551.073 233.263 549.013 234.397 Q546.976 235.508 544.105 235.508 Q539.406 235.508 536.443 231.758 Q533.504 228.008 533.504 221.897 Q533.504 215.786 536.443 212.036 Q539.406 208.286 544.105 208.286 Q546.976 208.286 549.013 209.421 Q551.073 210.532 552.416 212.846 M537.902 221.897 Q537.902 226.596 539.823 229.282 Q541.767 231.944 545.147 231.944 Q548.527 231.944 550.471 229.282 Q552.416 226.596 552.416 221.897 Q552.416 217.198 550.471 214.536 Q548.527 211.851 545.147 211.851 Q541.767 211.851 539.823 214.536 Q537.902 217.198 537.902 221.897 Z" fill="#ebfb73" fill-rule="nonzero" fill-opacity="1"></path><path clip-path="url(#clip690)" d="M587.624 220.809 L587.624 222.893 L568.04 222.893 Q568.318 227.291 570.679 229.606 Q573.064 231.897 577.3 231.897 Q579.753 231.897 582.045 231.295 Q584.36 230.694 586.628 229.49 L586.628 233.518 Q584.337 234.49 581.929 234.999 Q579.522 235.508 577.045 235.508 Q570.841 235.508 567.207 231.897 Q563.596 228.286 563.596 222.129 Q563.596 215.763 567.022 212.036 Q570.471 208.286 576.304 208.286 Q581.536 208.286 584.568 211.666 Q587.624 215.022 587.624 220.809 M583.364 219.559 Q583.318 216.064 581.397 213.981 Q579.499 211.897 576.351 211.897 Q572.786 211.897 570.633 213.911 Q568.503 215.925 568.179 219.582 L583.364 219.559 Z" fill="#ebfb73" fill-rule="nonzero" fill-opacity="1"></path><path clip-path="url(#clip690)" d="M616.165 219.189 L616.165 234.837 L611.906 234.837 L611.906 219.328 Q611.906 215.647 610.471 213.819 Q609.036 211.99 606.165 211.99 Q602.716 211.99 600.725 214.189 Q598.735 216.388 598.735 220.184 L598.735 234.837 L594.452 234.837 L594.452 208.911 L598.735 208.911 L598.735 212.939 Q600.263 210.601 602.323 209.444 Q604.406 208.286 607.114 208.286 Q611.582 208.286 613.874 211.064 Q616.165 213.819 616.165 219.189 Z" fill="#ebfb73" fill-rule="nonzero" fill-opacity="1"></path><path clip-path="url(#clip690)" d="M641.188 209.675 L641.188 213.703 Q639.383 212.777 637.438 212.314 Q635.494 211.851 633.41 211.851 Q630.239 211.851 628.642 212.823 Q627.068 213.795 627.068 215.74 Q627.068 217.221 628.202 218.078 Q629.336 218.911 632.762 219.675 L634.221 219.999 Q638.758 220.971 640.656 222.754 Q642.577 224.513 642.577 227.684 Q642.577 231.295 639.707 233.402 Q636.86 235.508 631.86 235.508 Q629.776 235.508 627.508 235.092 Q625.262 234.698 622.762 233.888 L622.762 229.49 Q625.124 230.717 627.415 231.342 Q629.707 231.944 631.952 231.944 Q634.961 231.944 636.582 230.925 Q638.202 229.883 638.202 228.008 Q638.202 226.272 637.022 225.346 Q635.864 224.42 631.906 223.564 L630.424 223.217 Q626.466 222.383 624.707 220.67 Q622.948 218.934 622.948 215.925 Q622.948 212.268 625.54 210.277 Q628.133 208.286 632.901 208.286 Q635.262 208.286 637.346 208.633 Q639.429 208.981 641.188 209.675 Z" fill="#ebfb73" fill-rule="nonzero" fill-opacity="1"></path><path clip-path="url(#clip690)" d="M649.359 208.911 L653.619 208.911 L653.619 234.837 L649.359 234.837 L649.359 208.911 M649.359 198.819 L653.619 198.819 L653.619 204.212 L649.359 204.212 L649.359 198.819 Z" fill="#ebfb73" fill-rule="nonzero" fill-opacity="1"></path><path clip-path="url(#clip690)" d="M666.744 201.55 L666.744 208.911 L675.517 208.911 L675.517 212.221 L666.744 212.221 L666.744 226.295 Q666.744 229.467 667.6 230.369 Q668.48 231.272 671.142 231.272 L675.517 231.272 L675.517 234.837 L671.142 234.837 Q666.211 234.837 664.336 233.008 Q662.461 231.157 662.461 226.295 L662.461 212.221 L659.336 212.221 L659.336 208.911 L662.461 208.911 L662.461 201.55 L666.744 201.55 Z" fill="#ebfb73" fill-rule="nonzero" fill-opacity="1"></path><path clip-path="url(#clip690)" d="M691.906 237.244 Q690.1 241.874 688.387 243.286 Q686.674 244.698 683.804 244.698 L680.401 244.698 L680.401 241.133 L682.901 241.133 Q684.66 241.133 685.632 240.3 Q686.605 239.467 687.785 236.365 L688.549 234.42 L678.063 208.911 L682.577 208.911 L690.679 229.189 L698.781 208.911 L703.294 208.911 L691.906 237.244 Z" fill="#ebfb73" fill-rule="nonzero" fill-opacity="1"></path><path clip-path="url(#clip690)" d="M737.368 198.819 L737.368 202.36 L733.294 202.36 Q731.003 202.36 730.1 203.286 Q729.22 204.212 729.22 206.62 L729.22 208.911 L736.234 208.911 L736.234 212.221 L729.22 212.221 L729.22 234.837 L724.938 234.837 L724.938 212.221 L720.864 212.221 L720.864 208.911 L724.938 208.911 L724.938 207.106 Q724.938 202.777 726.952 200.809 Q728.966 198.819 733.341 198.819 L737.368 198.819 Z" fill="#ebfb73" fill-rule="nonzero" fill-opacity="1"></path><path clip-path="url(#clip690)" d="M750.979 211.897 Q747.553 211.897 745.563 214.583 Q743.572 217.245 743.572 221.897 Q743.572 226.55 745.54 229.235 Q747.53 231.897 750.979 231.897 Q754.382 231.897 756.373 229.212 Q758.364 226.527 758.364 221.897 Q758.364 217.291 756.373 214.606 Q754.382 211.897 750.979 211.897 M750.979 208.286 Q756.535 208.286 759.706 211.897 Q762.877 215.508 762.877 221.897 Q762.877 228.263 759.706 231.897 Q756.535 235.508 750.979 235.508 Q745.401 235.508 742.229 231.897 Q739.081 228.263 739.081 221.897 Q739.081 215.508 742.229 211.897 Q745.401 208.286 750.979 208.286 Z" fill="#ebfb73" fill-rule="nonzero" fill-opacity="1"></path><path clip-path="url(#clip690)" d="M784.961 212.893 Q784.243 212.476 783.387 212.291 Q782.553 212.083 781.535 212.083 Q777.924 212.083 775.979 214.444 Q774.058 216.782 774.058 221.18 L774.058 234.837 L769.776 234.837 L769.776 208.911 L774.058 208.911 L774.058 212.939 Q775.4 210.578 777.553 209.444 Q779.706 208.286 782.785 208.286 Q783.225 208.286 783.757 208.356 Q784.289 208.402 784.937 208.518 L784.961 212.893 Z" fill="#ebfb73" fill-rule="nonzero" fill-opacity="1"></path><path clip-path="url(#clip690)" d="M804.683 200.277 L809.359 200.277 L809.359 230.902 L826.187 230.902 L826.187 234.837 L804.683 234.837 L804.683 200.277 Z" fill="#ebfb73" fill-rule="nonzero" fill-opacity="1"></path><path clip-path="url(#clip690)" d="M907.159 218.934 L907.159 221.018 L898.062 230.115 L895.284 227.337 L900.678 221.944 L844.22 221.944 L844.22 218.008 L900.678 218.008 L895.284 212.615 L898.062 209.837 L907.159 218.934 Z" fill="#ebfb73" fill-rule="nonzero" fill-opacity="1"></path><path clip-path="url(#clip690)" d="M946.14 226.758 Q945.423 225.925 944.288 223.981 Q942.738 226.758 941.372 227.985 Q939.659 229.467 936.997 229.467 Q933.872 229.467 931.812 227.129 Q929.636 224.675 929.636 220.624 Q929.636 216.735 931.812 214.096 Q933.756 211.758 937.043 211.758 Q938.733 211.758 939.983 212.453 Q941.441 213.217 942.437 214.536 Q943.363 215.717 944.288 217.314 Q945.839 214.536 947.205 213.309 Q948.918 211.828 951.58 211.828 Q954.705 211.828 956.765 214.166 Q958.941 216.62 958.941 220.67 Q958.941 224.559 956.765 227.198 Q954.821 229.536 951.534 229.536 Q949.844 229.536 948.594 228.842 Q947.344 228.217 946.14 226.758 M936.742 226.434 Q940.562 226.434 942.853 220.879 Q939.913 214.814 936.742 214.814 Q934.427 214.814 933.247 216.481 Q931.974 218.263 931.974 220.624 Q931.974 223.217 933.247 224.814 Q934.543 226.434 936.742 226.434 M951.835 214.86 Q948.386 214.86 945.724 220.416 Q948.64 226.481 951.835 226.481 Q954.15 226.481 955.33 224.814 Q956.603 223.032 956.603 220.67 Q956.603 218.078 955.33 216.481 Q954.034 214.86 951.835 214.86 Z" fill="#ebfb73" fill-rule="nonzero" fill-opacity="1"></path></svg>