<svg xmlns="http://www.w3.org/2000/svg" xmlns:xlink="http://www.w3.org/1999/xlink" width="600" height="400" viewBox="0 0 2400 1600">
<defs>
  <clipPath id="clip990">
    <rect x="0" y="0" width="2400" height="1600"></rect>
  </clipPath>
</defs>
<path clip-path="url(#clip990)" d="M0 1600 L2400 1600 L2400 0 L0 0  Z" fill="#ffffff" fill-rule="evenodd" fill-opacity="1"></path>
<defs>
  <clipPath id="clip991">
    <rect x="480" y="0" width="1681" height="1600"></rect>
  </clipPath>
</defs>
<path clip-path="url(#clip990)" d="M293.879 1390.82 L2352.76 1390.82 L2352.76 123.472 L293.879 123.472  Z" fill="#ffffff" fill-rule="evenodd" fill-opacity="1"></path>
<defs>
  <clipPath id="clip992">
    <rect x="293" y="123" width="2060" height="1268"></rect>
  </clipPath>
</defs>
<polyline clip-path="url(#clip992)" style="stroke:#000000; stroke-linecap:round; stroke-linejoin:round; stroke-width:2; stroke-opacity:0.1; fill:none" points="658.834,1390.82 658.834,123.472 "></polyline>
<polyline clip-path="url(#clip992)" style="stroke:#000000; stroke-linecap:round; stroke-linejoin:round; stroke-width:2; stroke-opacity:0.1; fill:none" points="1067.75,1390.82 1067.75,123.472 "></polyline>
<polyline clip-path="url(#clip992)" style="stroke:#000000; stroke-linecap:round; stroke-linejoin:round; stroke-width:2; stroke-opacity:0.1; fill:none" points="1476.66,1390.82 1476.66,123.472 "></polyline>
<polyline clip-path="url(#clip992)" style="stroke:#000000; stroke-linecap:round; stroke-linejoin:round; stroke-width:2; stroke-opacity:0.1; fill:none" points="1885.57,1390.82 1885.57,123.472 "></polyline>
<polyline clip-path="url(#clip992)" style="stroke:#000000; stroke-linecap:round; stroke-linejoin:round; stroke-width:2; stroke-opacity:0.1; fill:none" points="2294.49,1390.82 2294.49,123.472 "></polyline>
<polyline clip-path="url(#clip990)" style="stroke:#000000; stroke-linecap:round; stroke-linejoin:round; stroke-width:4; stroke-opacity:1; fill:none" points="293.879,1390.82 2352.76,1390.82 "></polyline>
<polyline clip-path="url(#clip990)" style="stroke:#000000; stroke-linecap:round; stroke-linejoin:round; stroke-width:4; stroke-opacity:1; fill:none" points="658.834,1390.82 658.834,1371.92 "></polyline>
<polyline clip-path="url(#clip990)" style="stroke:#000000; stroke-linecap:round; stroke-linejoin:round; stroke-width:4; stroke-opacity:1; fill:none" points="1067.75,1390.82 1067.75,1371.92 "></polyline>
<polyline clip-path="url(#clip990)" style="stroke:#000000; stroke-linecap:round; stroke-linejoin:round; stroke-width:4; stroke-opacity:1; fill:none" points="1476.66,1390.82 1476.66,1371.92 "></polyline>
<polyline clip-path="url(#clip990)" style="stroke:#000000; stroke-linecap:round; stroke-linejoin:round; stroke-width:4; stroke-opacity:1; fill:none" points="1885.57,1390.82 1885.57,1371.92 "></polyline>
<polyline clip-path="url(#clip990)" style="stroke:#000000; stroke-linecap:round; stroke-linejoin:round; stroke-width:4; stroke-opacity:1; fill:none" points="2294.49,1390.82 2294.49,1371.92 "></polyline>
<path clip-path="url(#clip990)" d="M606.67 1421.74 Q603.059 1421.74 601.23 1425.3 Q599.424 1428.84 599.424 1435.97 Q599.424 1443.08 601.23 1446.65 Q603.059 1450.19 606.67 1450.19 Q610.304 1450.19 612.11 1446.65 Q613.938 1443.08 613.938 1435.97 Q613.938 1428.84 612.11 1425.3 Q610.304 1421.74 606.67 1421.74 M606.67 1418.03 Q612.48 1418.03 615.535 1422.64 Q618.614 1427.22 618.614 1435.97 Q618.614 1444.7 615.535 1449.31 Q612.48 1453.89 606.67 1453.89 Q600.86 1453.89 597.781 1449.31 Q594.725 1444.7 594.725 1435.97 Q594.725 1427.22 597.781 1422.64 Q600.86 1418.03 606.67 1418.03 Z" fill="#000000" fill-rule="nonzero" fill-opacity="1"></path><path clip-path="url(#clip990)" d="M626.832 1447.34 L631.716 1447.34 L631.716 1453.22 L626.832 1453.22 L626.832 1447.34 Z" fill="#000000" fill-rule="nonzero" fill-opacity="1"></path><path clip-path="url(#clip990)" d="M651.901 1421.74 Q648.29 1421.74 646.461 1425.3 Q644.656 1428.84 644.656 1435.97 Q644.656 1443.08 646.461 1446.65 Q648.29 1450.19 651.901 1450.19 Q655.535 1450.19 657.341 1446.65 Q659.169 1443.08 659.169 1435.97 Q659.169 1428.84 657.341 1425.3 Q655.535 1421.74 651.901 1421.74 M651.901 1418.03 Q657.711 1418.03 660.767 1422.64 Q663.845 1427.22 663.845 1435.97 Q663.845 1444.7 660.767 1449.31 Q657.711 1453.89 651.901 1453.89 Q646.091 1453.89 643.012 1449.31 Q639.957 1444.7 639.957 1435.97 Q639.957 1427.22 643.012 1422.64 Q646.091 1418.03 651.901 1418.03 Z" fill="#000000" fill-rule="nonzero" fill-opacity="1"></path><path clip-path="url(#clip990)" d="M682.063 1421.74 Q678.452 1421.74 676.623 1425.3 Q674.818 1428.84 674.818 1435.97 Q674.818 1443.08 676.623 1446.65 Q678.452 1450.19 682.063 1450.19 Q685.697 1450.19 687.503 1446.65 Q689.331 1443.08 689.331 1435.97 Q689.331 1428.84 687.503 1425.3 Q685.697 1421.74 682.063 1421.74 M682.063 1418.03 Q687.873 1418.03 690.929 1422.64 Q694.007 1427.22 694.007 1435.97 Q694.007 1444.7 690.929 1449.31 Q687.873 1453.89 682.063 1453.89 Q676.253 1453.89 673.174 1449.31 Q670.118 1444.7 670.118 1435.97 Q670.118 1427.22 673.174 1422.64 Q676.253 1418.03 682.063 1418.03 Z" fill="#000000" fill-rule="nonzero" fill-opacity="1"></path><path clip-path="url(#clip990)" d="M703.035 1449.28 L710.674 1449.28 L710.674 1422.92 L702.364 1424.59 L702.364 1420.33 L710.628 1418.66 L715.303 1418.66 L715.303 1449.28 L722.942 1449.28 L722.942 1453.22 L703.035 1453.22 L703.035 1449.28 Z" fill="#000000" fill-rule="nonzero" fill-opacity="1"></path><path clip-path="url(#clip990)" d="M1015.77 1421.74 Q1012.16 1421.74 1010.33 1425.3 Q1008.52 1428.84 1008.52 1435.97 Q1008.52 1443.08 1010.33 1446.65 Q1012.16 1450.19 1015.77 1450.19 Q1019.4 1450.19 1021.21 1446.65 Q1023.04 1443.08 1023.04 1435.97 Q1023.04 1428.84 1021.21 1425.3 Q1019.4 1421.74 1015.77 1421.74 M1015.77 1418.03 Q1021.58 1418.03 1024.63 1422.64 Q1027.71 1427.22 1027.71 1435.97 Q1027.71 1444.7 1024.63 1449.31 Q1021.58 1453.89 1015.77 1453.89 Q1009.96 1453.89 1006.88 1449.31 Q1003.82 1444.7 1003.82 1435.97 Q1003.82 1427.22 1006.88 1422.64 Q1009.96 1418.03 1015.77 1418.03 Z" fill="#000000" fill-rule="nonzero" fill-opacity="1"></path><path clip-path="url(#clip990)" d="M1035.93 1447.34 L1040.81 1447.34 L1040.81 1453.22 L1035.93 1453.22 L1035.93 1447.34 Z" fill="#000000" fill-rule="nonzero" fill-opacity="1"></path><path clip-path="url(#clip990)" d="M1061 1421.74 Q1057.39 1421.74 1055.56 1425.3 Q1053.75 1428.84 1053.75 1435.97 Q1053.75 1443.08 1055.56 1446.65 Q1057.39 1450.19 1061 1450.19 Q1064.63 1450.19 1066.44 1446.65 Q1068.27 1443.08 1068.27 1435.97 Q1068.27 1428.84 1066.44 1425.3 Q1064.63 1421.74 1061 1421.74 M1061 1418.03 Q1066.81 1418.03 1069.86 1422.64 Q1072.94 1427.22 1072.94 1435.97 Q1072.94 1444.7 1069.86 1449.31 Q1066.81 1453.89 1061 1453.89 Q1055.19 1453.89 1052.11 1449.31 Q1049.05 1444.7 1049.05 1435.97 Q1049.05 1427.22 1052.11 1422.64 Q1055.19 1418.03 1061 1418.03 Z" fill="#000000" fill-rule="nonzero" fill-opacity="1"></path><path clip-path="url(#clip990)" d="M1091.16 1421.74 Q1087.55 1421.74 1085.72 1425.3 Q1083.92 1428.84 1083.92 1435.97 Q1083.92 1443.08 1085.72 1446.65 Q1087.55 1450.19 1091.16 1450.19 Q1094.8 1450.19 1096.6 1446.65 Q1098.43 1443.08 1098.43 1435.97 Q1098.43 1428.84 1096.6 1425.3 Q1094.8 1421.74 1091.16 1421.74 M1091.16 1418.03 Q1096.97 1418.03 1100.03 1422.64 Q1103.11 1427.22 1103.11 1435.97 Q1103.11 1444.7 1100.03 1449.31 Q1096.97 1453.89 1091.16 1453.89 Q1085.35 1453.89 1082.27 1449.31 Q1079.22 1444.7 1079.22 1435.97 Q1079.22 1427.22 1082.27 1422.64 Q1085.35 1418.03 1091.16 1418.03 Z" fill="#000000" fill-rule="nonzero" fill-opacity="1"></path><path clip-path="url(#clip990)" d="M1115.35 1449.28 L1131.67 1449.28 L1131.67 1453.22 L1109.73 1453.22 L1109.73 1449.28 Q1112.39 1446.53 1116.97 1441.9 Q1121.58 1437.25 1122.76 1435.9 Q1125 1433.38 1125.88 1431.65 Q1126.79 1429.89 1126.79 1428.2 Q1126.79 1425.44 1124.84 1423.71 Q1122.92 1421.97 1119.82 1421.97 Q1117.62 1421.97 1115.17 1422.73 Q1112.74 1423.5 1109.96 1425.05 L1109.96 1420.33 Q1112.78 1419.19 1115.23 1418.61 Q1117.69 1418.03 1119.73 1418.03 Q1125.1 1418.03 1128.29 1420.72 Q1131.48 1423.4 1131.48 1427.9 Q1131.48 1430.03 1130.67 1431.95 Q1129.89 1433.84 1127.78 1436.44 Q1127.2 1437.11 1124.1 1440.33 Q1121 1443.52 1115.35 1449.28 Z" fill="#000000" fill-rule="nonzero" fill-opacity="1"></path><path clip-path="url(#clip990)" d="M1424.21 1421.74 Q1420.6 1421.74 1418.77 1425.3 Q1416.96 1428.84 1416.96 1435.97 Q1416.96 1443.08 1418.77 1446.65 Q1420.6 1450.19 1424.21 1450.19 Q1427.84 1450.19 1429.65 1446.65 Q1431.47 1443.08 1431.47 1435.97 Q1431.47 1428.84 1429.65 1425.3 Q1427.84 1421.74 1424.21 1421.74 M1424.21 1418.03 Q1430.02 1418.03 1433.07 1422.64 Q1436.15 1427.22 1436.15 1435.97 Q1436.15 1444.7 1433.07 1449.31 Q1430.02 1453.89 1424.21 1453.89 Q1418.4 1453.89 1415.32 1449.31 Q1412.26 1444.7 1412.26 1435.97 Q1412.26 1427.22 1415.32 1422.64 Q1418.4 1418.03 1424.21 1418.03 Z" fill="#000000" fill-rule="nonzero" fill-opacity="1"></path><path clip-path="url(#clip990)" d="M1444.37 1447.34 L1449.25 1447.34 L1449.25 1453.22 L1444.37 1453.22 L1444.37 1447.34 Z" fill="#000000" fill-rule="nonzero" fill-opacity="1"></path><path clip-path="url(#clip990)" d="M1469.44 1421.74 Q1465.83 1421.74 1464 1425.3 Q1462.19 1428.84 1462.19 1435.97 Q1462.19 1443.08 1464 1446.65 Q1465.83 1450.19 1469.44 1450.19 Q1473.07 1450.19 1474.88 1446.65 Q1476.71 1443.08 1476.71 1435.97 Q1476.71 1428.84 1474.88 1425.3 Q1473.07 1421.74 1469.44 1421.74 M1469.44 1418.03 Q1475.25 1418.03 1478.3 1422.64 Q1481.38 1427.22 1481.38 1435.97 Q1481.38 1444.7 1478.3 1449.31 Q1475.25 1453.89 1469.44 1453.89 Q1463.63 1453.89 1460.55 1449.31 Q1457.49 1444.7 1457.49 1435.97 Q1457.49 1427.22 1460.55 1422.64 Q1463.63 1418.03 1469.44 1418.03 Z" fill="#000000" fill-rule="nonzero" fill-opacity="1"></path><path clip-path="url(#clip990)" d="M1499.6 1421.74 Q1495.99 1421.74 1494.16 1425.3 Q1492.35 1428.84 1492.35 1435.97 Q1492.35 1443.08 1494.16 1446.65 Q1495.99 1450.19 1499.6 1450.19 Q1503.23 1450.19 1505.04 1446.65 Q1506.87 1443.08 1506.87 1435.97 Q1506.87 1428.84 1505.04 1425.3 Q1503.23 1421.74 1499.6 1421.74 M1499.6 1418.03 Q1505.41 1418.03 1508.47 1422.64 Q1511.54 1427.22 1511.54 1435.97 Q1511.54 1444.7 1508.47 1449.31 Q1505.41 1453.89 1499.6 1453.89 Q1493.79 1453.89 1490.71 1449.31 Q1487.66 1444.7 1487.66 1435.97 Q1487.66 1427.22 1490.71 1422.64 Q1493.79 1418.03 1499.6 1418.03 Z" fill="#000000" fill-rule="nonzero" fill-opacity="1"></path><path clip-path="url(#clip990)" d="M1533.93 1434.59 Q1537.28 1435.3 1539.16 1437.57 Q1541.06 1439.84 1541.06 1443.17 Q1541.06 1448.29 1537.54 1451.09 Q1534.02 1453.89 1527.54 1453.89 Q1525.36 1453.89 1523.05 1453.45 Q1520.76 1453.03 1518.3 1452.18 L1518.3 1447.66 Q1520.25 1448.8 1522.56 1449.38 Q1524.88 1449.96 1527.4 1449.96 Q1531.8 1449.96 1534.09 1448.22 Q1536.4 1446.48 1536.4 1443.17 Q1536.4 1440.12 1534.25 1438.4 Q1532.12 1436.67 1528.3 1436.67 L1524.28 1436.67 L1524.28 1432.83 L1528.49 1432.83 Q1531.94 1432.83 1533.77 1431.46 Q1535.59 1430.07 1535.59 1427.48 Q1535.59 1424.82 1533.7 1423.4 Q1531.82 1421.97 1528.3 1421.97 Q1526.38 1421.97 1524.18 1422.39 Q1521.98 1422.8 1519.34 1423.68 L1519.34 1419.52 Q1522.01 1418.78 1524.32 1418.4 Q1526.66 1418.03 1528.72 1418.03 Q1534.04 1418.03 1537.15 1420.46 Q1540.25 1422.87 1540.25 1426.99 Q1540.25 1429.86 1538.6 1431.85 Q1536.96 1433.82 1533.93 1434.59 Z" fill="#000000" fill-rule="nonzero" fill-opacity="1"></path><path clip-path="url(#clip990)" d="M1832.55 1421.74 Q1828.94 1421.74 1827.11 1425.3 Q1825.31 1428.84 1825.31 1435.97 Q1825.31 1443.08 1827.11 1446.65 Q1828.94 1450.19 1832.55 1450.19 Q1836.19 1450.19 1837.99 1446.65 Q1839.82 1443.08 1839.82 1435.97 Q1839.82 1428.84 1837.99 1425.3 Q1836.19 1421.74 1832.55 1421.74 M1832.55 1418.03 Q1838.36 1418.03 1841.42 1422.64 Q1844.5 1427.22 1844.5 1435.97 Q1844.5 1444.7 1841.42 1449.31 Q1838.36 1453.89 1832.55 1453.89 Q1826.74 1453.89 1823.66 1449.31 Q1820.61 1444.7 1820.61 1435.97 Q1820.61 1427.22 1823.66 1422.64 Q1826.74 1418.03 1832.55 1418.03 Z" fill="#000000" fill-rule="nonzero" fill-opacity="1"></path><path clip-path="url(#clip990)" d="M1852.71 1447.34 L1857.6 1447.34 L1857.6 1453.22 L1852.71 1453.22 L1852.71 1447.34 Z" fill="#000000" fill-rule="nonzero" fill-opacity="1"></path><path clip-path="url(#clip990)" d="M1877.78 1421.74 Q1874.17 1421.74 1872.34 1425.3 Q1870.54 1428.84 1870.54 1435.97 Q1870.54 1443.08 1872.34 1446.65 Q1874.17 1450.19 1877.78 1450.19 Q1881.42 1450.19 1883.22 1446.65 Q1885.05 1443.08 1885.05 1435.97 Q1885.05 1428.84 1883.22 1425.3 Q1881.42 1421.74 1877.78 1421.74 M1877.78 1418.03 Q1883.59 1418.03 1886.65 1422.64 Q1889.73 1427.22 1889.73 1435.97 Q1889.73 1444.7 1886.65 1449.31 Q1883.59 1453.89 1877.78 1453.89 Q1871.97 1453.89 1868.89 1449.31 Q1865.84 1444.7 1865.84 1435.97 Q1865.84 1427.22 1868.89 1422.64 Q1871.97 1418.03 1877.78 1418.03 Z" fill="#000000" fill-rule="nonzero" fill-opacity="1"></path><path clip-path="url(#clip990)" d="M1907.95 1421.74 Q1904.33 1421.74 1902.51 1425.3 Q1900.7 1428.84 1900.7 1435.97 Q1900.7 1443.08 1902.51 1446.65 Q1904.33 1450.19 1907.95 1450.19 Q1911.58 1450.19 1913.39 1446.65 Q1915.21 1443.08 1915.21 1435.97 Q1915.21 1428.84 1913.39 1425.3 Q1911.58 1421.74 1907.95 1421.74 M1907.95 1418.03 Q1913.76 1418.03 1916.81 1422.64 Q1919.89 1427.22 1919.89 1435.97 Q1919.89 1444.7 1916.81 1449.31 Q1913.76 1453.89 1907.95 1453.89 Q1902.14 1453.89 1899.06 1449.31 Q1896 1444.7 1896 1435.97 Q1896 1427.22 1899.06 1422.64 Q1902.14 1418.03 1907.95 1418.03 Z" fill="#000000" fill-rule="nonzero" fill-opacity="1"></path><path clip-path="url(#clip990)" d="M1940.95 1422.73 L1929.15 1441.18 L1940.95 1441.18 L1940.95 1422.73 M1939.73 1418.66 L1945.61 1418.66 L1945.61 1441.18 L1950.54 1441.18 L1950.54 1445.07 L1945.61 1445.07 L1945.61 1453.22 L1940.95 1453.22 L1940.95 1445.07 L1925.35 1445.07 L1925.35 1440.56 L1939.73 1418.66 Z" fill="#000000" fill-rule="nonzero" fill-opacity="1"></path><path clip-path="url(#clip990)" d="M2242.21 1421.74 Q2238.59 1421.74 2236.77 1425.3 Q2234.96 1428.84 2234.96 1435.97 Q2234.96 1443.08 2236.77 1446.65 Q2238.59 1450.19 2242.21 1450.19 Q2245.84 1450.19 2247.65 1446.65 Q2249.47 1443.08 2249.47 1435.97 Q2249.47 1428.84 2247.65 1425.3 Q2245.84 1421.74 2242.21 1421.74 M2242.21 1418.03 Q2248.02 1418.03 2251.07 1422.64 Q2254.15 1427.22 2254.15 1435.97 Q2254.15 1444.7 2251.07 1449.31 Q2248.02 1453.89 2242.21 1453.89 Q2236.4 1453.89 2233.32 1449.31 Q2230.26 1444.7 2230.26 1435.97 Q2230.26 1427.22 2233.32 1422.64 Q2236.4 1418.03 2242.21 1418.03 Z" fill="#000000" fill-rule="nonzero" fill-opacity="1"></path><path clip-path="url(#clip990)" d="M2262.37 1447.34 L2267.25 1447.34 L2267.25 1453.22 L2262.37 1453.22 L2262.37 1447.34 Z" fill="#000000" fill-rule="nonzero" fill-opacity="1"></path><path clip-path="url(#clip990)" d="M2287.44 1421.74 Q2283.83 1421.74 2282 1425.3 Q2280.19 1428.84 2280.19 1435.97 Q2280.19 1443.08 2282 1446.65 Q2283.83 1450.19 2287.44 1450.19 Q2291.07 1450.19 2292.88 1446.65 Q2294.71 1443.08 2294.71 1435.97 Q2294.71 1428.84 2292.88 1425.3 Q2291.07 1421.74 2287.44 1421.74 M2287.44 1418.03 Q2293.25 1418.03 2296.3 1422.64 Q2299.38 1427.22 2299.38 1435.97 Q2299.38 1444.7 2296.3 1449.31 Q2293.25 1453.89 2287.44 1453.89 Q2281.63 1453.89 2278.55 1449.31 Q2275.49 1444.7 2275.49 1435.97 Q2275.49 1427.22 2278.55 1422.64 Q2281.63 1418.03 2287.44 1418.03 Z" fill="#000000" fill-rule="nonzero" fill-opacity="1"></path><path clip-path="url(#clip990)" d="M2317.6 1421.74 Q2313.99 1421.74 2312.16 1425.3 Q2310.35 1428.84 2310.35 1435.97 Q2310.35 1443.08 2312.16 1446.65 Q2313.99 1450.19 2317.6 1450.19 Q2321.23 1450.19 2323.04 1446.65 Q2324.87 1443.08 2324.87 1435.97 Q2324.87 1428.84 2323.04 1425.3 Q2321.23 1421.74 2317.6 1421.74 M2317.6 1418.03 Q2323.41 1418.03 2326.46 1422.64 Q2329.54 1427.22 2329.54 1435.97 Q2329.54 1444.7 2326.46 1449.31 Q2323.41 1453.89 2317.6 1453.89 Q2311.79 1453.89 2308.71 1449.31 Q2305.65 1444.7 2305.65 1435.97 Q2305.65 1427.22 2308.71 1422.64 Q2311.79 1418.03 2317.6 1418.03 Z" fill="#000000" fill-rule="nonzero" fill-opacity="1"></path><path clip-path="url(#clip990)" d="M2337.81 1418.66 L2356.16 1418.66 L2356.16 1422.59 L2342.09 1422.59 L2342.09 1431.07 Q2343.11 1430.72 2344.13 1430.56 Q2345.15 1430.37 2346.16 1430.37 Q2351.95 1430.37 2355.33 1433.54 Q2358.71 1436.71 2358.71 1442.13 Q2358.71 1447.71 2355.24 1450.81 Q2351.77 1453.89 2345.45 1453.89 Q2343.27 1453.89 2341 1453.52 Q2338.76 1453.15 2336.35 1452.41 L2336.35 1447.71 Q2338.43 1448.84 2340.65 1449.4 Q2342.88 1449.96 2345.35 1449.96 Q2349.36 1449.96 2351.7 1447.85 Q2354.03 1445.74 2354.03 1442.13 Q2354.03 1438.52 2351.7 1436.41 Q2349.36 1434.31 2345.35 1434.31 Q2343.48 1434.31 2341.6 1434.72 Q2339.75 1435.14 2337.81 1436.02 L2337.81 1418.66 Z" fill="#000000" fill-rule="nonzero" fill-opacity="1"></path><path clip-path="url(#clip990)" d="M1312.59 1472.54 L1312.59 1470.48 Q1320.51 1470.48 1324.6 1466.26 Q1325.73 1466.26 1325.92 1466.52 Q1326.12 1466.78 1326.12 1467.97 L1326.12 1504.98 Q1326.12 1506.94 1327.08 1507.55 Q1328.05 1508.16 1332.27 1508.16 L1334.36 1508.16 L1334.36 1510.19 Q1332.04 1510 1323.67 1510 Q1315.3 1510 1313.01 1510.19 L1313.01 1508.16 L1315.1 1508.16 Q1319.26 1508.16 1320.26 1507.58 Q1321.25 1506.97 1321.25 1504.98 L1321.25 1470.81 Q1317.81 1472.54 1312.59 1472.54 Z" fill="#000000" fill-rule="nonzero" fill-opacity="1"></path><path clip-path="url(#clip990)" d="M1303.59 1527.79 L1350.08 1527.79 L1350.08 1524.27 L1303.59 1524.27  Z" fill="#000000" fill-rule="evenodd" fill-opacity="1"></path>
<path clip-path="url(#clip990)" d="M1343.43 1570.2 Q1343.43 1570.4 1343.17 1571.14 L1337.95 1585.37 Q1337.66 1586.21 1337.37 1586.37 Q1337.08 1586.5 1335.89 1586.5 L1305.36 1586.5 Q1304.62 1586.5 1304.33 1586.47 Q1304.04 1586.43 1303.82 1586.27 Q1303.59 1586.11 1303.59 1585.76 Q1303.59 1585.11 1303.82 1584.82 Q1304.07 1584.53 1304.36 1584.5 Q1304.65 1584.47 1305.36 1584.47 Q1306.97 1584.47 1307.94 1584.37 Q1308.9 1584.28 1309.52 1584.15 Q1310.16 1583.99 1310.48 1583.54 Q1310.84 1583.08 1311 1582.7 Q1311.16 1582.28 1311.38 1581.35 L1320.21 1545.92 Q1320.47 1544.86 1320.47 1544.69 Q1320.47 1544.08 1320.08 1543.92 Q1319.73 1543.73 1318.7 1543.63 L1316.18 1543.5 Q1315.41 1543.5 1315.09 1543.47 Q1314.8 1543.44 1314.57 1543.28 Q1314.35 1543.12 1314.35 1542.76 Q1314.35 1542.15 1314.57 1541.86 Q1314.83 1541.54 1315.02 1541.51 Q1315.25 1541.44 1315.6 1541.44 L1324.36 1541.64 L1334.12 1541.44 Q1335.18 1541.44 1335.18 1542.25 Q1335.18 1543.15 1334.73 1543.34 Q1334.28 1543.5 1332.67 1543.5 Q1329.58 1543.5 1328.16 1543.83 Q1326.78 1544.15 1326.39 1544.69 Q1326.04 1545.21 1325.68 1546.59 L1316.76 1582.21 Q1316.44 1583.41 1316.44 1583.73 Q1316.44 1584.08 1316.6 1584.21 Q1316.8 1584.31 1317.31 1584.37 Q1317.89 1584.47 1318.76 1584.47 L1324.94 1584.47 Q1326.81 1584.47 1328.45 1584.18 Q1330.1 1583.89 1331.35 1583.47 Q1332.64 1583.05 1333.8 1582.28 Q1334.96 1581.51 1335.76 1580.83 Q1336.6 1580.12 1337.41 1579.03 Q1338.24 1577.9 1338.73 1577.13 Q1339.24 1576.32 1339.82 1575.03 Q1340.4 1573.71 1340.69 1572.97 Q1341.01 1572.2 1341.5 1570.88 Q1341.79 1570.2 1341.88 1570.01 Q1341.98 1569.82 1342.14 1569.65 Q1342.33 1569.49 1342.62 1569.49 Q1343.01 1569.49 1343.2 1569.72 Q1343.43 1569.94 1343.43 1570.2 Z" fill="#000000" fill-rule="nonzero" fill-opacity="1"></path><polyline clip-path="url(#clip992)" style="stroke:#000000; stroke-linecap:round; stroke-linejoin:round; stroke-width:2; stroke-opacity:0.1; fill:none" points="293.879,1232.15 2352.76,1232.15 "></polyline>
<polyline clip-path="url(#clip992)" style="stroke:#000000; stroke-linecap:round; stroke-linejoin:round; stroke-width:2; stroke-opacity:0.1; fill:none" points="293.879,1036.94 2352.76,1036.94 "></polyline>
<polyline clip-path="url(#clip992)" style="stroke:#000000; stroke-linecap:round; stroke-linejoin:round; stroke-width:2; stroke-opacity:0.1; fill:none" points="293.879,841.728 2352.76,841.728 "></polyline>
<polyline clip-path="url(#clip992)" style="stroke:#000000; stroke-linecap:round; stroke-linejoin:round; stroke-width:2; stroke-opacity:0.1; fill:none" points="293.879,646.516 2352.76,646.516 "></polyline>
<polyline clip-path="url(#clip992)" style="stroke:#000000; stroke-linecap:round; stroke-linejoin:round; stroke-width:2; stroke-opacity:0.1; fill:none" points="293.879,451.303 2352.76,451.303 "></polyline>
<polyline clip-path="url(#clip992)" style="stroke:#000000; stroke-linecap:round; stroke-linejoin:round; stroke-width:2; stroke-opacity:0.1; fill:none" points="293.879,256.091 2352.76,256.091 "></polyline>
<polyline clip-path="url(#clip990)" style="stroke:#000000; stroke-linecap:round; stroke-linejoin:round; stroke-width:4; stroke-opacity:1; fill:none" points="293.879,1390.82 293.879,123.472 "></polyline>
<polyline clip-path="url(#clip990)" style="stroke:#000000; stroke-linecap:round; stroke-linejoin:round; stroke-width:4; stroke-opacity:1; fill:none" points="293.879,1232.15 312.777,1232.15 "></polyline>
<polyline clip-path="url(#clip990)" style="stroke:#000000; stroke-linecap:round; stroke-linejoin:round; stroke-width:4; stroke-opacity:1; fill:none" points="293.879,1036.94 312.777,1036.94 "></polyline>
<polyline clip-path="url(#clip990)" style="stroke:#000000; stroke-linecap:round; stroke-linejoin:round; stroke-width:4; stroke-opacity:1; fill:none" points="293.879,841.728 312.777,841.728 "></polyline>
<polyline clip-path="url(#clip990)" style="stroke:#000000; stroke-linecap:round; stroke-linejoin:round; stroke-width:4; stroke-opacity:1; fill:none" points="293.879,646.516 312.777,646.516 "></polyline>
<polyline clip-path="url(#clip990)" style="stroke:#000000; stroke-linecap:round; stroke-linejoin:round; stroke-width:4; stroke-opacity:1; fill:none" points="293.879,451.303 312.777,451.303 "></polyline>
<polyline clip-path="url(#clip990)" style="stroke:#000000; stroke-linecap:round; stroke-linejoin:round; stroke-width:4; stroke-opacity:1; fill:none" points="293.879,256.091 312.777,256.091 "></polyline>
<path clip-path="url(#clip990)" d="M139.893 1217.95 Q136.282 1217.95 134.454 1221.52 Q132.648 1225.06 132.648 1232.19 Q132.648 1239.29 134.454 1242.86 Q136.282 1246.4 139.893 1246.4 Q143.528 1246.4 145.333 1242.86 Q147.162 1239.29 147.162 1232.19 Q147.162 1225.06 145.333 1221.52 Q143.528 1217.95 139.893 1217.95 M139.893 1214.25 Q145.704 1214.25 148.759 1218.85 Q151.838 1223.44 151.838 1232.19 Q151.838 1240.91 148.759 1245.52 Q145.704 1250.1 139.893 1250.1 Q134.083 1250.1 131.005 1245.52 Q127.949 1240.91 127.949 1232.19 Q127.949 1223.44 131.005 1218.85 Q134.083 1214.25 139.893 1214.25 Z" fill="#000000" fill-rule="nonzero" fill-opacity="1"></path><path clip-path="url(#clip990)" d="M160.055 1243.55 L164.94 1243.55 L164.94 1249.43 L160.055 1249.43 L160.055 1243.55 Z" fill="#000000" fill-rule="nonzero" fill-opacity="1"></path><path clip-path="url(#clip990)" d="M185.125 1217.95 Q181.514 1217.95 179.685 1221.52 Q177.879 1225.06 177.879 1232.19 Q177.879 1239.29 179.685 1242.86 Q181.514 1246.4 185.125 1246.4 Q188.759 1246.4 190.565 1242.86 Q192.393 1239.29 192.393 1232.19 Q192.393 1225.06 190.565 1221.52 Q188.759 1217.95 185.125 1217.95 M185.125 1214.25 Q190.935 1214.25 193.99 1218.85 Q197.069 1223.44 197.069 1232.19 Q197.069 1240.91 193.99 1245.52 Q190.935 1250.1 185.125 1250.1 Q179.315 1250.1 176.236 1245.52 Q173.18 1240.91 173.18 1232.19 Q173.18 1223.44 176.236 1218.85 Q179.315 1214.25 185.125 1214.25 Z" fill="#000000" fill-rule="nonzero" fill-opacity="1"></path><path clip-path="url(#clip990)" d="M209.314 1245.5 L225.634 1245.5 L225.634 1249.43 L203.689 1249.43 L203.689 1245.5 Q206.351 1242.74 210.935 1238.11 Q215.541 1233.46 216.722 1232.12 Q218.967 1229.59 219.847 1227.86 Q220.75 1226.1 220.75 1224.41 Q220.75 1221.66 218.805 1219.92 Q216.884 1218.18 213.782 1218.18 Q211.583 1218.18 209.129 1218.95 Q206.699 1219.71 203.921 1221.26 L203.921 1216.54 Q206.745 1215.41 209.199 1214.83 Q211.652 1214.25 213.689 1214.25 Q219.06 1214.25 222.254 1216.93 Q225.449 1219.62 225.449 1224.11 Q225.449 1226.24 224.638 1228.16 Q223.851 1230.06 221.745 1232.65 Q221.166 1233.32 218.064 1236.54 Q214.963 1239.73 209.314 1245.5 Z" fill="#000000" fill-rule="nonzero" fill-opacity="1"></path><path clip-path="url(#clip990)" d="M248.296 1218.95 L236.49 1237.4 L248.296 1237.4 L248.296 1218.95 M247.069 1214.87 L252.948 1214.87 L252.948 1237.4 L257.879 1237.4 L257.879 1241.28 L252.948 1241.28 L252.948 1249.43 L248.296 1249.43 L248.296 1241.28 L232.694 1241.28 L232.694 1236.77 L247.069 1214.87 Z" fill="#000000" fill-rule="nonzero" fill-opacity="1"></path><path clip-path="url(#clip990)" d="M140.218 1022.74 Q136.606 1022.74 134.778 1026.3 Q132.972 1029.85 132.972 1036.98 Q132.972 1044.08 134.778 1047.65 Q136.606 1051.19 140.218 1051.19 Q143.852 1051.19 145.657 1047.65 Q147.486 1044.08 147.486 1036.98 Q147.486 1029.85 145.657 1026.3 Q143.852 1022.74 140.218 1022.74 M140.218 1019.04 Q146.028 1019.04 149.083 1023.64 Q152.162 1028.23 152.162 1036.98 Q152.162 1045.7 149.083 1050.31 Q146.028 1054.89 140.218 1054.89 Q134.407 1054.89 131.329 1050.31 Q128.273 1045.7 128.273 1036.98 Q128.273 1028.23 131.329 1023.64 Q134.407 1019.04 140.218 1019.04 Z" fill="#000000" fill-rule="nonzero" fill-opacity="1"></path><path clip-path="url(#clip990)" d="M160.379 1048.34 L165.264 1048.34 L165.264 1054.22 L160.379 1054.22 L160.379 1048.34 Z" fill="#000000" fill-rule="nonzero" fill-opacity="1"></path><path clip-path="url(#clip990)" d="M185.449 1022.74 Q181.838 1022.74 180.009 1026.3 Q178.203 1029.85 178.203 1036.98 Q178.203 1044.08 180.009 1047.65 Q181.838 1051.19 185.449 1051.19 Q189.083 1051.19 190.889 1047.65 Q192.717 1044.08 192.717 1036.98 Q192.717 1029.85 190.889 1026.3 Q189.083 1022.74 185.449 1022.74 M185.449 1019.04 Q191.259 1019.04 194.315 1023.64 Q197.393 1028.23 197.393 1036.98 Q197.393 1045.7 194.315 1050.31 Q191.259 1054.89 185.449 1054.89 Q179.639 1054.89 176.56 1050.31 Q173.504 1045.7 173.504 1036.98 Q173.504 1028.23 176.56 1023.64 Q179.639 1019.04 185.449 1019.04 Z" fill="#000000" fill-rule="nonzero" fill-opacity="1"></path><path clip-path="url(#clip990)" d="M209.638 1050.29 L225.958 1050.29 L225.958 1054.22 L204.014 1054.22 L204.014 1050.29 Q206.676 1047.53 211.259 1042.9 Q215.865 1038.25 217.046 1036.91 Q219.291 1034.38 220.171 1032.65 Q221.074 1030.89 221.074 1029.2 Q221.074 1026.44 219.129 1024.71 Q217.208 1022.97 214.106 1022.97 Q211.907 1022.97 209.453 1023.73 Q207.023 1024.5 204.245 1026.05 L204.245 1021.33 Q207.069 1020.19 209.523 1019.61 Q211.976 1019.04 214.013 1019.04 Q219.384 1019.04 222.578 1021.72 Q225.773 1024.41 225.773 1028.9 Q225.773 1031.03 224.962 1032.95 Q224.175 1034.85 222.069 1037.44 Q221.49 1038.11 218.388 1041.33 Q215.287 1044.52 209.638 1050.29 Z" fill="#000000" fill-rule="nonzero" fill-opacity="1"></path><path clip-path="url(#clip990)" d="M246.351 1035.08 Q243.203 1035.08 241.351 1037.23 Q239.523 1039.38 239.523 1043.13 Q239.523 1046.86 241.351 1049.04 Q243.203 1051.19 246.351 1051.19 Q249.499 1051.19 251.328 1049.04 Q253.18 1046.86 253.18 1043.13 Q253.18 1039.38 251.328 1037.23 Q249.499 1035.08 246.351 1035.08 M255.634 1020.42 L255.634 1024.68 Q253.874 1023.85 252.069 1023.41 Q250.286 1022.97 248.527 1022.97 Q243.898 1022.97 241.444 1026.1 Q239.013 1029.22 238.666 1035.54 Q240.032 1033.53 242.092 1032.46 Q244.152 1031.37 246.629 1031.37 Q251.837 1031.37 254.847 1034.54 Q257.879 1037.69 257.879 1043.13 Q257.879 1048.46 254.731 1051.67 Q251.583 1054.89 246.351 1054.89 Q240.356 1054.89 237.185 1050.31 Q234.013 1045.7 234.013 1036.98 Q234.013 1028.78 237.902 1023.92 Q241.791 1019.04 248.342 1019.04 Q250.101 1019.04 251.884 1019.38 Q253.689 1019.73 255.634 1020.42 Z" fill="#000000" fill-rule="nonzero" fill-opacity="1"></path><path clip-path="url(#clip990)" d="M140.472 827.527 Q136.861 827.527 135.032 831.092 Q133.227 834.633 133.227 841.763 Q133.227 848.869 135.032 852.434 Q136.861 855.976 140.472 855.976 Q144.106 855.976 145.912 852.434 Q147.741 848.869 147.741 841.763 Q147.741 834.633 145.912 831.092 Q144.106 827.527 140.472 827.527 M140.472 823.823 Q146.282 823.823 149.338 828.43 Q152.417 833.013 152.417 841.763 Q152.417 850.49 149.338 855.096 Q146.282 859.679 140.472 859.679 Q134.662 859.679 131.583 855.096 Q128.528 850.49 128.528 841.763 Q128.528 833.013 131.583 828.43 Q134.662 823.823 140.472 823.823 Z" fill="#000000" fill-rule="nonzero" fill-opacity="1"></path><path clip-path="url(#clip990)" d="M160.634 853.129 L165.518 853.129 L165.518 859.008 L160.634 859.008 L160.634 853.129 Z" fill="#000000" fill-rule="nonzero" fill-opacity="1"></path><path clip-path="url(#clip990)" d="M185.703 827.527 Q182.092 827.527 180.264 831.092 Q178.458 834.633 178.458 841.763 Q178.458 848.869 180.264 852.434 Q182.092 855.976 185.703 855.976 Q189.338 855.976 191.143 852.434 Q192.972 848.869 192.972 841.763 Q192.972 834.633 191.143 831.092 Q189.338 827.527 185.703 827.527 M185.703 823.823 Q191.514 823.823 194.569 828.43 Q197.648 833.013 197.648 841.763 Q197.648 850.49 194.569 855.096 Q191.514 859.679 185.703 859.679 Q179.893 859.679 176.815 855.096 Q173.759 850.49 173.759 841.763 Q173.759 833.013 176.815 828.43 Q179.893 823.823 185.703 823.823 Z" fill="#000000" fill-rule="nonzero" fill-opacity="1"></path><path clip-path="url(#clip990)" d="M209.893 855.073 L226.212 855.073 L226.212 859.008 L204.268 859.008 L204.268 855.073 Q206.93 852.318 211.513 847.689 Q216.12 843.036 217.3 841.693 Q219.546 839.17 220.425 837.434 Q221.328 835.675 221.328 833.985 Q221.328 831.23 219.384 829.494 Q217.463 827.758 214.361 827.758 Q212.162 827.758 209.708 828.522 Q207.277 829.286 204.5 830.837 L204.5 826.115 Q207.324 824.981 209.777 824.402 Q212.231 823.823 214.268 823.823 Q219.638 823.823 222.833 826.508 Q226.027 829.193 226.027 833.684 Q226.027 835.814 225.217 837.735 Q224.43 839.633 222.324 842.226 Q221.745 842.897 218.643 846.115 Q215.541 849.309 209.893 855.073 Z" fill="#000000" fill-rule="nonzero" fill-opacity="1"></path><path clip-path="url(#clip990)" d="M246.027 842.596 Q242.694 842.596 240.773 844.379 Q238.874 846.161 238.874 849.286 Q238.874 852.411 240.773 854.193 Q242.694 855.976 246.027 855.976 Q249.361 855.976 251.282 854.193 Q253.203 852.388 253.203 849.286 Q253.203 846.161 251.282 844.379 Q249.384 842.596 246.027 842.596 M241.351 840.605 Q238.342 839.865 236.652 837.805 Q234.986 835.744 234.986 832.781 Q234.986 828.638 237.925 826.231 Q240.888 823.823 246.027 823.823 Q251.189 823.823 254.129 826.231 Q257.069 828.638 257.069 832.781 Q257.069 835.744 255.379 837.805 Q253.712 839.865 250.726 840.605 Q254.106 841.392 255.981 843.684 Q257.879 845.976 257.879 849.286 Q257.879 854.309 254.8 856.994 Q251.745 859.679 246.027 859.679 Q240.31 859.679 237.231 856.994 Q234.175 854.309 234.175 849.286 Q234.175 845.976 236.074 843.684 Q237.972 841.392 241.351 840.605 M239.638 833.221 Q239.638 835.906 241.305 837.411 Q242.995 838.916 246.027 838.916 Q249.036 838.916 250.726 837.411 Q252.439 835.906 252.439 833.221 Q252.439 830.536 250.726 829.031 Q249.036 827.527 246.027 827.527 Q242.995 827.527 241.305 829.031 Q239.638 830.536 239.638 833.221 Z" fill="#000000" fill-rule="nonzero" fill-opacity="1"></path><path clip-path="url(#clip990)" d="M140.38 632.314 Q136.769 632.314 134.94 635.879 Q133.134 639.421 133.134 646.55 Q133.134 653.657 134.94 657.222 Q136.769 660.763 140.38 660.763 Q144.014 660.763 145.819 657.222 Q147.648 653.657 147.648 646.55 Q147.648 639.421 145.819 635.879 Q144.014 632.314 140.38 632.314 M140.38 628.611 Q146.19 628.611 149.245 633.217 Q152.324 637.801 152.324 646.55 Q152.324 655.277 149.245 659.884 Q146.19 664.467 140.38 664.467 Q134.569 664.467 131.491 659.884 Q128.435 655.277 128.435 646.55 Q128.435 637.801 131.491 633.217 Q134.569 628.611 140.38 628.611 Z" fill="#000000" fill-rule="nonzero" fill-opacity="1"></path><path clip-path="url(#clip990)" d="M160.542 657.916 L165.426 657.916 L165.426 663.796 L160.542 663.796 L160.542 657.916 Z" fill="#000000" fill-rule="nonzero" fill-opacity="1"></path><path clip-path="url(#clip990)" d="M185.611 632.314 Q182 632.314 180.171 635.879 Q178.366 639.421 178.366 646.55 Q178.366 653.657 180.171 657.222 Q182 660.763 185.611 660.763 Q189.245 660.763 191.051 657.222 Q192.879 653.657 192.879 646.55 Q192.879 639.421 191.051 635.879 Q189.245 632.314 185.611 632.314 M185.611 628.611 Q191.421 628.611 194.477 633.217 Q197.555 637.801 197.555 646.55 Q197.555 655.277 194.477 659.884 Q191.421 664.467 185.611 664.467 Q179.801 664.467 176.722 659.884 Q173.666 655.277 173.666 646.55 Q173.666 637.801 176.722 633.217 Q179.801 628.611 185.611 628.611 Z" fill="#000000" fill-rule="nonzero" fill-opacity="1"></path><path clip-path="url(#clip990)" d="M219.939 645.162 Q223.296 645.879 225.171 648.148 Q227.069 650.416 227.069 653.75 Q227.069 658.865 223.55 661.666 Q220.032 664.467 213.551 664.467 Q211.375 664.467 209.06 664.027 Q206.768 663.611 204.314 662.754 L204.314 658.24 Q206.259 659.374 208.574 659.953 Q210.888 660.532 213.412 660.532 Q217.81 660.532 220.101 658.796 Q222.416 657.06 222.416 653.75 Q222.416 650.694 220.263 648.981 Q218.134 647.245 214.314 647.245 L210.287 647.245 L210.287 643.402 L214.5 643.402 Q217.949 643.402 219.777 642.037 Q221.606 640.648 221.606 638.055 Q221.606 635.393 219.708 633.981 Q217.833 632.546 214.314 632.546 Q212.393 632.546 210.194 632.963 Q207.995 633.379 205.356 634.259 L205.356 630.092 Q208.018 629.352 210.333 628.981 Q212.671 628.611 214.731 628.611 Q220.055 628.611 223.157 631.041 Q226.259 633.449 226.259 637.569 Q226.259 640.439 224.615 642.43 Q222.972 644.398 219.939 645.162 Z" fill="#000000" fill-rule="nonzero" fill-opacity="1"></path><path clip-path="url(#clip990)" d="M245.935 632.314 Q242.324 632.314 240.495 635.879 Q238.689 639.421 238.689 646.55 Q238.689 653.657 240.495 657.222 Q242.324 660.763 245.935 660.763 Q249.569 660.763 251.374 657.222 Q253.203 653.657 253.203 646.55 Q253.203 639.421 251.374 635.879 Q249.569 632.314 245.935 632.314 M245.935 628.611 Q251.745 628.611 254.8 633.217 Q257.879 637.801 257.879 646.55 Q257.879 655.277 254.8 659.884 Q251.745 664.467 245.935 664.467 Q240.124 664.467 237.046 659.884 Q233.99 655.277 233.99 646.55 Q233.99 637.801 237.046 633.217 Q240.124 628.611 245.935 628.611 Z" fill="#000000" fill-rule="nonzero" fill-opacity="1"></path><path clip-path="url(#clip990)" d="M141.977 437.102 Q138.366 437.102 136.537 440.667 Q134.731 444.209 134.731 451.338 Q134.731 458.445 136.537 462.009 Q138.366 465.551 141.977 465.551 Q145.611 465.551 147.417 462.009 Q149.245 458.445 149.245 451.338 Q149.245 444.209 147.417 440.667 Q145.611 437.102 141.977 437.102 M141.977 433.398 Q147.787 433.398 150.843 438.005 Q153.921 442.588 153.921 451.338 Q153.921 460.065 150.843 464.671 Q147.787 469.255 141.977 469.255 Q136.167 469.255 133.088 464.671 Q130.032 460.065 130.032 451.338 Q130.032 442.588 133.088 438.005 Q136.167 433.398 141.977 433.398 Z" fill="#000000" fill-rule="nonzero" fill-opacity="1"></path><path clip-path="url(#clip990)" d="M162.139 462.704 L167.023 462.704 L167.023 468.583 L162.139 468.583 L162.139 462.704 Z" fill="#000000" fill-rule="nonzero" fill-opacity="1"></path><path clip-path="url(#clip990)" d="M187.208 437.102 Q183.597 437.102 181.768 440.667 Q179.963 444.209 179.963 451.338 Q179.963 458.445 181.768 462.009 Q183.597 465.551 187.208 465.551 Q190.842 465.551 192.648 462.009 Q194.477 458.445 194.477 451.338 Q194.477 444.209 192.648 440.667 Q190.842 437.102 187.208 437.102 M187.208 433.398 Q193.018 433.398 196.074 438.005 Q199.152 442.588 199.152 451.338 Q199.152 460.065 196.074 464.671 Q193.018 469.255 187.208 469.255 Q181.398 469.255 178.319 464.671 Q175.264 460.065 175.264 451.338 Q175.264 442.588 178.319 438.005 Q181.398 433.398 187.208 433.398 Z" fill="#000000" fill-rule="nonzero" fill-opacity="1"></path><path clip-path="url(#clip990)" d="M221.537 449.949 Q224.893 450.667 226.768 452.935 Q228.666 455.204 228.666 458.537 Q228.666 463.653 225.148 466.454 Q221.629 469.255 215.148 469.255 Q212.972 469.255 210.657 468.815 Q208.365 468.398 205.912 467.542 L205.912 463.028 Q207.856 464.162 210.171 464.741 Q212.486 465.32 215.009 465.32 Q219.407 465.32 221.699 463.583 Q224.013 461.847 224.013 458.537 Q224.013 455.482 221.861 453.769 Q219.731 452.033 215.912 452.033 L211.884 452.033 L211.884 448.19 L216.097 448.19 Q219.546 448.19 221.375 446.824 Q223.203 445.435 223.203 442.843 Q223.203 440.181 221.305 438.769 Q219.43 437.334 215.912 437.334 Q213.99 437.334 211.791 437.75 Q209.592 438.167 206.953 439.047 L206.953 434.88 Q209.615 434.139 211.93 433.769 Q214.268 433.398 216.328 433.398 Q221.652 433.398 224.754 435.829 Q227.856 438.236 227.856 442.357 Q227.856 445.227 226.212 447.218 Q224.569 449.185 221.537 449.949 Z" fill="#000000" fill-rule="nonzero" fill-opacity="1"></path><path clip-path="url(#clip990)" d="M241.56 464.648 L257.879 464.648 L257.879 468.583 L235.935 468.583 L235.935 464.648 Q238.597 461.894 243.18 457.264 Q247.786 452.611 248.967 451.269 Q251.212 448.746 252.092 447.009 Q252.995 445.25 252.995 443.56 Q252.995 440.806 251.05 439.07 Q249.129 437.334 246.027 437.334 Q243.828 437.334 241.374 438.097 Q238.944 438.861 236.166 440.412 L236.166 435.69 Q238.99 434.556 241.444 433.977 Q243.898 433.398 245.935 433.398 Q251.305 433.398 254.499 436.084 Q257.694 438.769 257.694 443.259 Q257.694 445.389 256.884 447.31 Q256.097 449.209 253.99 451.801 Q253.411 452.472 250.31 455.69 Q247.208 458.884 241.56 464.648 Z" fill="#000000" fill-rule="nonzero" fill-opacity="1"></path><path clip-path="url(#clip990)" d="M139.893 241.89 Q136.282 241.89 134.454 245.455 Q132.648 248.996 132.648 256.126 Q132.648 263.232 134.454 266.797 Q136.282 270.339 139.893 270.339 Q143.528 270.339 145.333 266.797 Q147.162 263.232 147.162 256.126 Q147.162 248.996 145.333 245.455 Q143.528 241.89 139.893 241.89 M139.893 238.186 Q145.704 238.186 148.759 242.793 Q151.838 247.376 151.838 256.126 Q151.838 264.853 148.759 269.459 Q145.704 274.042 139.893 274.042 Q134.083 274.042 131.005 269.459 Q127.949 264.853 127.949 256.126 Q127.949 247.376 131.005 242.793 Q134.083 238.186 139.893 238.186 Z" fill="#000000" fill-rule="nonzero" fill-opacity="1"></path><path clip-path="url(#clip990)" d="M160.055 267.491 L164.94 267.491 L164.94 273.371 L160.055 273.371 L160.055 267.491 Z" fill="#000000" fill-rule="nonzero" fill-opacity="1"></path><path clip-path="url(#clip990)" d="M185.125 241.89 Q181.514 241.89 179.685 245.455 Q177.879 248.996 177.879 256.126 Q177.879 263.232 179.685 266.797 Q181.514 270.339 185.125 270.339 Q188.759 270.339 190.565 266.797 Q192.393 263.232 192.393 256.126 Q192.393 248.996 190.565 245.455 Q188.759 241.89 185.125 241.89 M185.125 238.186 Q190.935 238.186 193.99 242.793 Q197.069 247.376 197.069 256.126 Q197.069 264.853 193.99 269.459 Q190.935 274.042 185.125 274.042 Q179.315 274.042 176.236 269.459 Q173.18 264.853 173.18 256.126 Q173.18 247.376 176.236 242.793 Q179.315 238.186 185.125 238.186 Z" fill="#000000" fill-rule="nonzero" fill-opacity="1"></path><path clip-path="url(#clip990)" d="M219.453 254.737 Q222.81 255.455 224.685 257.723 Q226.583 259.992 226.583 263.325 Q226.583 268.441 223.064 271.241 Q219.546 274.042 213.064 274.042 Q210.888 274.042 208.574 273.603 Q206.282 273.186 203.828 272.329 L203.828 267.816 Q205.773 268.95 208.088 269.529 Q210.402 270.107 212.926 270.107 Q217.324 270.107 219.615 268.371 Q221.93 266.635 221.93 263.325 Q221.93 260.269 219.777 258.556 Q217.648 256.82 213.828 256.82 L209.801 256.82 L209.801 252.978 L214.013 252.978 Q217.463 252.978 219.291 251.612 Q221.12 250.223 221.12 247.63 Q221.12 244.968 219.222 243.556 Q217.347 242.121 213.828 242.121 Q211.907 242.121 209.708 242.538 Q207.509 242.955 204.87 243.834 L204.87 239.668 Q207.532 238.927 209.847 238.556 Q212.185 238.186 214.245 238.186 Q219.569 238.186 222.671 240.617 Q225.773 243.024 225.773 247.144 Q225.773 250.015 224.129 252.005 Q222.486 253.973 219.453 254.737 Z" fill="#000000" fill-rule="nonzero" fill-opacity="1"></path><path clip-path="url(#clip990)" d="M248.296 242.885 L236.49 261.334 L248.296 261.334 L248.296 242.885 M247.069 238.811 L252.948 238.811 L252.948 261.334 L257.879 261.334 L257.879 265.223 L252.948 265.223 L252.948 273.371 L248.296 273.371 L248.296 265.223 L232.694 265.223 L232.694 260.709 L247.069 238.811 Z" fill="#000000" fill-rule="nonzero" fill-opacity="1"></path><path clip-path="url(#clip990)" d="M39.9275 997.386 Q44.6939 997.386 49.1706 999.833 Q53.6472 1002.25 56.3525 1006.05 Q59.0578 1009.82 59.0578 1013.62 Q59.0578 1017.9 54.6133 1020.12 Q70.7485 1024.15 71.1672 1024.37 Q72.552 1025.31 72.552 1026.66 Q72.552 1027.5 72.0367 1028.01 Q71.5536 1028.53 70.7807 1028.53 Q70.523 1028.5 69.7179 1028.3 L43.7922 1021.86 Q37.7697 1020.38 33.4863 1015.9 Q29.1707 1011.4 29.1707 1006.56 Q29.1707 1002.73 32.037 1000.06 Q34.9034 997.386 39.9275 997.386 M37.0934 1002.12 Q33.8728 1002.12 32.2625 1003.41 Q30.62 1004.7 30.62 1006.69 Q30.62 1008.53 32.1015 1010.75 Q33.5829 1012.94 36.8679 1014.87 Q38.7681 1015.9 41.1191 1016.64 Q43.4701 1017.39 49.2672 1018.83 Q51.586 1019.35 51.7148 1019.35 Q51.9725 1019.35 52.5522 1019.22 Q53.1319 1019.06 54.0336 1018.67 Q54.9032 1018.25 55.6761 1017.68 Q56.4491 1017.1 57.0288 1016.03 Q57.5763 1014.97 57.5763 1013.68 Q57.5763 1011.68 55.966 1009.56 Q54.3235 1007.4 51.3284 1005.82 Q48.9129 1004.5 44.3719 1003.31 Q39.7987 1002.12 37.0934 1002.12 Z" fill="#000000" fill-rule="nonzero" fill-opacity="1"></path><path clip-path="url(#clip990)" d="M60.2178 980.771 L86.91 987.421 Q87.9696 987.692 89.1194 987.692 Q91.2385 987.692 91.2385 986.294 Q91.2385 985.64 90.8102 985.099 Q90.3593 984.558 89.4801 984.152 Q88.5783 983.724 87.7216 983.453 Q86.865 983.16 85.5348 982.799 Q85.0163 982.687 84.8585 982.574 Q84.7007 982.461 84.7007 982.146 Q84.7007 981.582 85.1516 981.582 Q87.9245 982.146 89.683 982.98 Q92.2755 984.197 92.2755 986.452 Q92.2755 988.142 91.1032 989.405 Q89.9084 990.645 88.0147 990.645 Q87.2933 990.645 86.4366 990.419 L63.3515 984.603 L62.4497 984.445 Q62.2017 984.445 62.0664 984.535 Q61.9312 984.626 61.7959 985.167 Q61.6606 985.685 61.6606 986.722 Q61.6606 987.15 61.6381 987.353 Q61.6156 987.534 61.5028 987.714 Q61.3901 987.872 61.1421 987.872 Q60.7363 987.872 60.5109 987.714 Q60.2855 987.534 60.2404 987.398 Q60.1953 987.263 60.1727 986.993 Q60.1502 986.609 60.0375 985.324 Q59.9022 984.039 59.812 982.935 Q59.7219 981.83 59.7219 981.357 Q59.7219 981.086 59.8571 980.951 Q59.9698 980.793 60.1051 980.771 L60.2178 980.771 Z" fill="#000000" fill-rule="nonzero" fill-opacity="1"></path><path clip-path="url(#clip990)" d="M86.4141 958.908 Q86.617 958.728 86.8199 958.728 Q87.0228 958.728 87.6089 959.178 Q88.1951 959.607 88.9841 960.531 Q89.7731 961.455 90.5171 962.65 Q91.2611 963.845 91.757 965.604 Q92.2755 967.362 92.2755 969.211 Q92.2755 972.525 89.9084 974.508 Q87.5413 976.47 83.9117 976.47 Q81.5896 976.47 79.5381 975.703 Q77.4641 974.937 75.9987 973.697 Q74.5333 972.434 73.4738 970.856 Q72.3916 969.256 71.8731 967.587 Q71.3546 965.919 71.3546 964.364 Q71.3546 962.087 72.5044 960.757 Q73.6541 959.426 75.2773 959.426 Q75.6605 959.426 76.134 959.539 Q76.6074 959.629 77.3513 959.945 Q78.0953 960.238 78.8393 961.005 Q79.5607 961.771 80.0341 962.898 Q81.0937 965.401 81.0937 969.955 L81.0937 972.412 Q84.0019 973.133 85.8956 973.133 Q86.6395 973.133 87.406 972.998 Q88.15 972.863 89.0968 972.502 Q90.0437 972.119 90.6524 971.262 Q91.2385 970.383 91.2385 969.12 Q91.2385 968.715 91.216 968.286 Q91.1934 967.835 90.9454 966.708 Q90.6974 965.558 90.2691 964.544 Q89.8408 963.529 88.9165 962.244 Q87.9696 960.937 86.6846 959.9 Q86.2112 959.539 86.2112 959.291 Q86.2112 959.088 86.4141 958.908 M75.2773 960.959 Q74.0374 960.959 73.2032 961.884 Q72.3691 962.786 72.3691 964.364 Q72.3691 964.86 72.4818 965.468 Q72.5945 966.077 73.068 967.091 Q73.5414 968.083 74.3304 968.963 Q75.0969 969.842 76.6074 970.721 Q78.0953 971.6 80.0792 972.119 L80.0792 970.225 Q80.0792 969.571 80.0792 969.098 Q80.0566 968.624 79.9665 967.587 Q79.8763 966.528 79.7185 965.761 Q79.5381 964.995 79.1774 964.025 Q78.8167 963.056 78.3433 962.447 Q77.8473 961.816 77.0583 961.388 Q76.2692 960.959 75.2773 960.959 Z" fill="#000000" fill-rule="nonzero" fill-opacity="1"></path><path clip-path="url(#clip990)" d="M62.3821 932.15 Q63.622 932.15 64.3885 932.939 Q65.155 933.706 65.155 934.675 Q65.155 935.374 64.7266 935.893 Q64.2983 936.389 63.5543 936.389 Q62.7878 936.389 61.9763 935.803 Q61.1647 935.216 61.052 933.886 Q60.2178 934.766 60.2178 936.163 Q60.2178 936.862 60.6687 937.448 Q61.097 938.012 61.7959 938.328 Q62.5173 938.666 66.5978 939.432 Q67.9279 939.68 69.2129 939.906 Q70.4979 940.131 71.8506 940.402 L71.8506 936.569 Q71.8506 936.073 71.8731 935.87 Q71.8957 935.667 72.0084 935.509 Q72.1211 935.329 72.3691 935.329 Q73.0003 935.329 73.1581 935.622 Q73.2934 935.893 73.2934 936.704 L73.2934 940.672 L87.9245 943.445 Q88.3529 943.513 89.7055 943.806 Q91.0356 944.076 93.2224 944.73 Q95.4317 945.384 96.7393 946.038 Q97.4832 946.398 98.1821 946.872 Q98.9035 947.323 99.6249 947.976 Q100.346 948.63 100.775 949.487 Q101.226 950.344 101.226 951.245 Q101.226 952.778 100.369 953.973 Q99.5122 955.168 98.0468 955.168 Q96.8069 955.168 96.0404 954.401 Q95.2739 953.612 95.2739 952.643 Q95.2739 951.944 95.7022 951.448 Q96.1306 950.93 96.8745 950.93 Q97.1902 950.93 97.5509 951.042 Q97.9116 951.155 98.3174 951.403 Q98.7457 951.651 99.0388 952.192 Q99.3318 952.733 99.3769 953.477 Q100.211 952.598 100.211 951.245 Q100.211 950.817 100.031 950.434 Q99.8729 950.05 99.4671 949.735 Q99.0613 949.397 98.6555 949.149 Q98.2723 948.901 97.5283 948.653 Q96.8069 948.405 96.2658 948.247 Q95.7248 948.089 94.7554 947.886 Q93.786 947.661 93.1998 947.548 Q92.6362 947.435 91.5316 947.232 L73.2934 943.783 L73.2934 946.827 Q73.2934 947.368 73.2709 947.593 Q73.2483 947.796 73.1356 947.954 Q73.0003 948.112 72.7298 948.112 Q72.3015 948.112 72.1211 947.931 Q71.9182 947.728 71.8957 947.503 Q71.8506 947.278 71.8506 946.736 L71.8506 943.535 Q66.1469 942.453 64.6139 942.025 Q62.9907 941.529 61.8635 940.762 Q60.7138 939.996 60.1727 939.139 Q59.6317 938.282 59.4288 937.584 Q59.2033 936.862 59.2033 936.163 Q59.2033 934.585 60.06 933.368 Q60.8941 932.15 62.3821 932.15 Z" fill="#000000" fill-rule="nonzero" fill-opacity="1"></path><path clip-path="url(#clip990)" d="M72.3691 914.604 Q73.0003 914.604 73.1581 914.897 Q73.2934 915.19 73.2934 916.002 L73.2934 920.33 L86.91 923.757 Q88.1049 924.027 89.1194 924.027 Q90.2466 924.027 90.7425 923.689 Q91.2385 923.328 91.2385 922.584 Q91.2385 921.119 89.9084 919.541 Q88.5783 917.94 85.332 916.588 Q84.9036 916.407 84.8134 916.317 Q84.7007 916.205 84.7007 915.911 Q84.7007 915.348 85.1516 915.348 Q85.3094 915.348 86.0308 915.663 Q86.7522 915.957 87.8118 916.61 Q88.8714 917.242 89.8633 918.076 Q90.8553 918.887 91.5767 920.127 Q92.2755 921.367 92.2755 922.697 Q92.2755 924.568 91.0807 925.763 Q89.8859 926.936 88.0147 926.936 Q87.406 926.936 85.4672 926.462 Q83.5059 925.989 73.2934 923.419 L73.2934 927.499 Q73.2934 928.063 73.2709 928.288 Q73.2483 928.491 73.1356 928.649 Q73.0003 928.784 72.7298 928.784 Q72.3015 928.784 72.1211 928.604 Q71.9182 928.423 71.8957 928.198 Q71.8506 927.95 71.8506 927.386 L71.8506 923.058 L64.5237 921.254 Q63.8023 921.074 63.3965 920.623 Q62.9682 920.15 62.9231 919.879 Q62.8555 919.609 62.8555 919.406 Q62.8555 918.797 63.1936 918.436 Q63.5093 918.076 64.0954 918.076 Q64.411 918.076 71.8506 919.969 L71.8506 915.911 Q71.8506 915.393 71.8731 915.19 Q71.8957 914.965 72.0084 914.784 Q72.1211 914.604 72.3691 914.604 Z" fill="#000000" fill-rule="nonzero" fill-opacity="1"></path><path clip-path="url(#clip990)" d="M91.0131 911.629 Q90.2691 912.283 89.2997 912.283 Q88.3303 912.283 87.6089 911.652 Q86.865 910.998 86.865 909.826 Q86.865 908.451 88.1951 907.661 Q89.5026 906.872 91.7119 906.872 Q94.1016 906.872 96.3109 907.842 Q98.5428 908.811 99.6024 909.758 Q100.662 910.705 100.662 911.088 Q100.662 911.539 100.166 911.539 Q99.9856 911.539 99.6475 911.223 Q96.0855 907.909 91.7119 907.887 Q91.0131 907.887 91.0131 907.977 L91.1032 908.09 Q91.757 908.879 91.757 909.826 Q91.757 910.975 91.0131 911.629 Z" fill="#000000" fill-rule="nonzero" fill-opacity="1"></path><path clip-path="url(#clip990)" d="M85.1516 871.155 Q88.0598 871.764 89.7281 872.553 Q92.2755 873.815 92.2755 875.957 Q92.2755 877.58 91.2836 878.73 Q90.2917 879.88 88.8037 880.15 Q92.2755 883.103 92.2755 886.169 Q92.2755 888.875 90.224 890.588 Q88.15 892.301 84.8811 892.301 Q81.5896 892.301 78.4335 890.678 Q75.2773 889.033 73.3159 886.44 Q71.3546 883.847 71.3546 881.187 Q71.3546 878.369 74.3079 876.926 Q73.4963 876.814 72.8876 876.295 Q72.2789 875.777 72.2789 874.988 Q72.2789 874.379 72.6171 874.018 Q72.9327 873.658 73.5188 873.658 Q73.8119 873.658 75.0969 873.973 L81.5445 875.641 L85.7152 876.656 Q87.2482 877.039 87.8118 877.152 Q88.3754 877.242 89.1194 877.242 Q91.2385 877.242 91.2385 875.867 Q91.2385 875.191 90.8102 874.649 Q90.3818 874.108 89.4801 873.68 Q88.5783 873.252 87.7442 872.981 Q86.8875 872.711 85.5348 872.35 Q84.9938 872.237 84.8585 872.147 Q84.7007 872.034 84.7007 871.719 Q84.7007 871.155 85.1516 871.155 M76.427 877.49 Q76.2241 877.49 75.6605 877.648 Q75.0969 877.806 74.3079 878.166 Q73.5188 878.527 72.9552 879.316 Q72.3691 880.083 72.3691 881.12 Q72.3691 882.517 73.5639 883.983 Q74.7588 885.426 76.7877 886.485 Q78.4109 887.297 81.8151 888.176 Q85.2192 889.033 86.91 889.033 Q87.9471 889.033 88.8714 888.807 Q89.7731 888.559 90.5171 887.86 Q91.2385 887.161 91.2385 886.079 Q91.2385 883.442 87.9696 880.849 Q87.406 880.353 87.1806 880.24 Q86.9326 880.105 86.2563 879.925 L77.2161 877.625 Q76.5398 877.49 76.427 877.49 Z" fill="#000000" fill-rule="nonzero" fill-opacity="1"></path><path clip-path="url(#clip990)" d="M78.7265 847.693 Q82.018 847.693 85.1967 849.361 Q88.3754 851.007 90.3367 853.6 Q92.2755 856.192 92.2755 858.83 Q92.2755 860.408 91.4189 861.467 Q90.5396 862.505 89.2997 863.068 Q90.8327 863.496 94.5074 864.421 Q98.1821 865.345 98.5428 865.345 Q98.7457 865.345 98.8359 865.3 Q98.926 865.255 99.0388 865.052 Q99.174 864.849 99.2191 864.353 Q99.2868 863.857 99.2868 863.023 Q99.2868 862.595 99.2868 862.437 Q99.3093 862.257 99.422 862.099 Q99.5347 861.918 99.7827 861.918 Q100.707 861.918 100.707 862.753 Q100.707 863.496 100.639 865.029 Q100.572 866.562 100.572 867.329 Q100.572 867.983 100.639 869.29 Q100.707 870.598 100.707 871.207 Q100.707 871.815 100.166 871.815 Q99.8504 871.815 99.6475 871.725 Q99.4671 871.657 99.3769 871.477 Q99.3093 871.297 99.2868 871.139 Q99.2868 871.004 99.2868 870.733 Q99.2868 869.696 99.1064 869.245 Q98.9486 868.794 98.6104 868.637 Q98.2948 868.456 97.393 868.253 L76.8328 863.068 Q75.4576 862.753 74.4882 862.753 Q73.2709 862.753 72.82 863.136 Q72.3691 863.519 72.3691 864.195 Q72.3691 865.368 73.7668 866.134 Q75.1646 866.901 77.8699 867.554 Q78.6138 867.757 78.7716 867.893 Q78.9294 868.005 78.9294 868.343 Q78.9069 868.907 78.456 868.907 Q78.3433 868.907 77.6219 868.727 Q76.8779 868.546 75.7958 868.208 Q74.6911 867.847 73.9923 867.464 Q73.5188 867.239 73.2032 867.036 Q72.8876 866.833 72.3916 866.427 Q71.8957 865.999 71.6251 865.39 Q71.3546 864.781 71.3546 864.038 Q71.3546 862.595 72.2113 861.4 Q73.068 860.205 74.8039 859.889 Q73.2934 858.604 72.324 857.026 Q71.3546 855.448 71.3546 853.848 Q71.3546 851.187 73.4287 849.451 Q75.4802 847.693 78.7265 847.693 M76.6976 851.03 Q74.646 851.03 73.5188 851.819 Q72.3691 852.585 72.3691 853.983 Q72.3691 855.719 74.1275 857.725 Q75.7958 859.709 77.3513 860.115 L86.3915 862.392 L87.1355 862.527 Q87.2707 862.527 87.6765 862.459 Q88.0598 862.369 88.691 862.121 Q89.3223 861.851 89.8859 861.49 Q90.4269 861.107 90.8327 860.43 Q91.2385 859.732 91.2385 858.875 Q91.2385 857.5 90.0211 856.012 Q88.8037 854.501 86.5042 853.374 Q85.0163 852.675 81.8151 851.864 Q78.5913 851.03 76.6976 851.03 Z" fill="#000000" fill-rule="nonzero" fill-opacity="1"></path><path clip-path="url(#clip990)" d="M78.7265 824.509 Q82.018 824.509 85.1967 826.178 Q88.3754 827.823 90.3367 830.416 Q92.2755 833.009 92.2755 835.646 Q92.2755 837.224 91.4189 838.284 Q90.5396 839.321 89.2997 839.885 Q90.8327 840.313 94.5074 841.237 Q98.1821 842.161 98.5428 842.161 Q98.7457 842.161 98.8359 842.116 Q98.926 842.071 99.0388 841.868 Q99.174 841.665 99.2191 841.17 Q99.2868 840.674 99.2868 839.839 Q99.2868 839.411 99.2868 839.253 Q99.3093 839.073 99.422 838.915 Q99.5347 838.735 99.7827 838.735 Q100.707 838.735 100.707 839.569 Q100.707 840.313 100.639 841.846 Q100.572 843.379 100.572 844.145 Q100.572 844.799 100.639 846.107 Q100.707 847.414 100.707 848.023 Q100.707 848.632 100.166 848.632 Q99.8504 848.632 99.6475 848.541 Q99.4671 848.474 99.3769 848.293 Q99.3093 848.113 99.2868 847.955 Q99.2868 847.82 99.2868 847.55 Q99.2868 846.512 99.1064 846.062 Q98.9486 845.611 98.6104 845.453 Q98.2948 845.273 97.393 845.07 L76.8328 839.885 Q75.4576 839.569 74.4882 839.569 Q73.2709 839.569 72.82 839.952 Q72.3691 840.335 72.3691 841.012 Q72.3691 842.184 73.7668 842.951 Q75.1646 843.717 77.8699 844.371 Q78.6138 844.574 78.7716 844.709 Q78.9294 844.822 78.9294 845.16 Q78.9069 845.723 78.456 845.723 Q78.3433 845.723 77.6219 845.543 Q76.8779 845.363 75.7958 845.025 Q74.6911 844.664 73.9923 844.281 Q73.5188 844.055 73.2032 843.852 Q72.8876 843.649 72.3916 843.244 Q71.8957 842.815 71.6251 842.207 Q71.3546 841.598 71.3546 840.854 Q71.3546 839.411 72.2113 838.216 Q73.068 837.021 74.8039 836.706 Q73.2934 835.421 72.324 833.843 Q71.3546 832.265 71.3546 830.664 Q71.3546 828.004 73.4287 826.268 Q75.4802 824.509 78.7265 824.509 M76.6976 827.846 Q74.646 827.846 73.5188 828.635 Q72.3691 829.402 72.3691 830.799 Q72.3691 832.535 74.1275 834.542 Q75.7958 836.525 77.3513 836.931 L86.3915 839.208 L87.1355 839.343 Q87.2707 839.343 87.6765 839.276 Q88.0598 839.186 88.691 838.938 Q89.3223 838.667 89.8859 838.306 Q90.4269 837.923 90.8327 837.247 Q91.2385 836.548 91.2385 835.691 Q91.2385 834.316 90.0211 832.828 Q88.8037 831.318 86.5042 830.191 Q85.0163 829.492 81.8151 828.68 Q78.5913 827.846 76.6976 827.846 Z" fill="#000000" fill-rule="nonzero" fill-opacity="1"></path><path clip-path="url(#clip990)" d="M74.353 804.059 Q75.5478 804.059 76.3143 804.848 Q77.0808 805.615 77.0808 806.607 Q77.0808 807.463 76.5848 807.914 Q76.0889 808.365 75.4576 808.365 Q74.5559 808.365 73.8119 807.666 Q73.068 806.967 72.9102 805.953 Q72.3691 806.697 72.3691 807.892 Q72.3691 809.853 73.8795 811.589 Q74.5784 812.355 75.8634 813.189 Q77.1259 814.024 77.667 814.181 L83.6862 815.647 Q84.3626 815.782 87.6089 816.616 Q90.8327 817.428 90.968 817.495 Q91.5992 817.721 91.9374 818.217 Q92.2755 818.713 92.2755 819.209 Q92.2755 819.772 91.9374 820.156 Q91.5992 820.539 91.0131 820.539 Q90.9229 820.539 90.5847 820.471 Q90.2466 820.403 89.7731 820.291 Q89.2997 820.178 89.0292 820.133 L78.3658 817.45 Q76.427 816.954 75.8183 816.842 Q75.1871 816.706 74.4882 816.706 Q73.2709 816.706 72.82 817.09 Q72.3691 817.473 72.3691 818.149 Q72.3691 819.321 73.7668 820.088 Q75.1646 820.854 77.8699 821.508 Q78.6138 821.711 78.7716 821.846 Q78.9294 821.959 78.9294 822.297 Q78.9069 822.861 78.456 822.861 Q78.3433 822.861 77.6219 822.68 Q76.8779 822.5 75.7958 822.162 Q74.6911 821.801 73.9923 821.418 Q73.5188 821.193 73.2032 820.99 Q72.8876 820.787 72.3916 820.381 Q71.8957 819.975 71.6251 819.366 Q71.3546 818.758 71.3546 818.014 Q71.3546 816.391 72.3465 815.241 Q73.3385 814.069 74.894 813.798 Q74.0824 813.234 73.3836 812.536 Q72.6622 811.837 72.0084 810.552 Q71.3546 809.267 71.3546 807.892 Q71.3546 806.178 72.2338 805.119 Q73.0905 804.059 74.353 804.059 Z" fill="#000000" fill-rule="nonzero" fill-opacity="1"></path><path clip-path="url(#clip990)" d="M79.1549 780.865 Q81.6122 780.865 84.0469 781.947 Q86.4592 783.029 88.2627 784.765 Q90.0437 786.479 91.1709 788.733 Q92.2755 790.987 92.2755 793.242 Q92.2755 796.466 90.0888 798.562 Q87.8794 800.636 84.4527 800.636 Q81.2515 800.636 78.208 798.855 Q75.142 797.052 73.2483 794.166 Q71.3546 791.28 71.3546 788.26 Q71.3546 785.081 73.4963 782.984 Q75.638 780.865 79.1549 780.865 M77.3513 784.247 Q75.1646 784.247 73.7668 785.306 Q72.3691 786.366 72.3691 788.305 Q72.3691 788.868 72.5494 789.522 Q72.7073 790.176 73.1356 791.032 Q73.5639 791.867 74.4657 792.813 Q75.3449 793.738 76.6074 794.549 Q78.2756 795.609 81.3416 796.421 Q84.3851 797.21 86.2112 797.21 Q88.7361 797.21 89.9986 796.037 Q91.2385 794.865 91.2385 793.197 Q91.2385 791.574 90.1113 789.86 Q88.9616 788.124 87.0002 786.929 Q84.9712 785.735 81.9954 784.991 Q78.9971 784.247 77.3513 784.247 Z" fill="#000000" fill-rule="nonzero" fill-opacity="1"></path><path clip-path="url(#clip990)" d="M74.3981 757.443 Q75.6605 757.443 76.3819 758.232 Q77.0808 759.021 77.0808 759.923 Q77.0808 760.779 76.5848 761.23 Q76.0889 761.681 75.4576 761.681 Q74.601 761.681 73.857 761.05 Q73.113 760.418 72.9552 759.472 Q72.3691 760.396 72.3691 761.771 Q72.3691 762.673 72.8425 763.462 Q73.3159 764.228 73.9246 764.702 Q74.5333 765.153 75.4125 765.559 Q76.2692 765.942 76.7877 766.1 Q77.2837 766.235 77.8248 766.348 L84.1371 767.926 Q87.1355 768.692 88.1951 768.692 Q89.5026 768.692 90.3818 768.061 Q91.2385 767.43 91.2385 766.167 Q91.2385 765.671 91.1032 765.108 Q90.9454 764.544 90.5396 763.823 Q90.1113 763.079 89.4801 762.425 Q88.8263 761.749 87.7216 761.095 Q86.617 760.441 85.1967 760.013 Q84.7007 759.877 84.7007 759.427 Q84.7007 758.863 85.1516 758.863 Q85.5348 758.863 86.3464 759.179 Q87.1355 759.472 88.1725 760.125 Q89.187 760.757 90.1113 761.591 Q91.0131 762.425 91.6443 763.665 Q92.2755 764.905 92.2755 766.257 Q92.2755 768.196 91.2385 769.481 Q90.2015 770.766 88.7587 771.24 Q88.9616 771.352 89.2321 771.51 Q89.5026 771.668 90.1113 772.141 Q90.6974 772.592 91.1483 773.111 Q91.5767 773.629 91.9148 774.441 Q92.2755 775.23 92.2755 776.087 Q92.2755 777.169 91.9599 778.138 Q91.6443 779.085 90.9229 779.761 Q90.2015 780.438 89.2095 780.438 Q88.1049 780.438 87.3384 779.694 Q86.5493 778.927 86.5493 777.89 Q86.5493 777.236 86.9326 776.718 Q87.3158 776.177 88.15 776.177 Q89.0743 776.177 89.7731 776.808 Q90.472 777.439 90.6524 778.341 Q91.2385 777.417 91.2385 776.042 Q91.2385 774.554 89.9309 773.381 Q88.6234 772.209 86.4366 771.645 Q81.1838 770.248 78.8393 769.707 Q76.4721 769.166 75.4576 769.166 Q74.5108 769.166 73.857 769.414 Q73.2032 769.662 72.9102 770.09 Q72.5945 770.496 72.4818 770.879 Q72.3691 771.24 72.3691 771.645 Q72.3691 772.322 72.6396 773.088 Q72.9102 773.832 73.5414 774.734 Q74.1501 775.613 75.4125 776.447 Q76.675 777.281 78.4109 777.845 Q78.9294 777.958 78.9294 778.454 Q78.9069 778.995 78.456 778.995 Q78.0728 778.995 77.2837 778.702 Q76.4721 778.386 75.4576 777.755 Q74.4432 777.101 73.5414 776.267 Q72.6171 775.41 71.9858 774.17 Q71.3546 772.908 71.3546 771.555 Q71.3546 770.947 71.4899 770.36 Q71.6026 769.752 71.9408 769.03 Q72.2789 768.286 73.0229 767.633 Q73.7668 766.979 74.8489 766.573 Q74.3304 766.302 73.8345 765.942 Q73.3385 765.559 72.7298 764.972 Q72.0986 764.364 71.7379 763.53 Q71.3546 762.673 71.3546 761.726 Q71.3546 760.802 71.6026 759.9 Q71.828 758.998 72.572 758.232 Q73.2934 757.443 74.3981 757.443 Z" fill="#000000" fill-rule="nonzero" fill-opacity="1"></path><path clip-path="url(#clip990)" d="M40.8937 685.406 Q41.2801 685.019 41.8276 685.019 Q42.3751 685.019 42.7616 685.406 Q43.1481 685.792 43.1481 686.339 L43.1481 727.627 Q43.1481 728.175 42.7616 728.561 Q42.3751 728.948 41.8276 728.948 Q41.2801 728.948 40.8937 728.561 Q40.5072 728.175 40.5072 727.627 L40.5072 686.339 Q40.5072 685.792 40.8937 685.406 Z" fill="#000000" fill-rule="nonzero" fill-opacity="1"></path><path clip-path="url(#clip990)" d="M73.486 644.92 Q74.0335 644.92 74.42 645.306 Q74.8064 645.693 74.8064 646.24 Q74.8064 647.174 73.9369 647.496 L42.2785 659.767 Q42.1497 659.831 41.8276 659.831 Q41.5056 659.831 41.3767 659.767 L9.71838 647.496 Q8.84882 647.174 8.84882 646.24 Q8.84882 645.693 9.23529 645.306 Q9.62176 644.92 10.1693 644.92 Q10.4913 644.92 10.6201 644.984 L41.8276 657.126 L73.0351 644.984 Q73.1639 644.92 73.486 644.92 Z" fill="#000000" fill-rule="nonzero" fill-opacity="1"></path><path clip-path="url(#clip990)" d="M39.9275 603.297 Q44.6939 603.297 49.1706 605.744 Q53.6472 608.16 56.3525 611.96 Q59.0578 615.728 59.0578 619.528 Q59.0578 623.812 54.6133 626.034 Q70.7485 630.06 71.1672 630.285 Q72.552 631.219 72.552 632.572 Q72.552 633.409 72.0367 633.924 Q71.5536 634.44 70.7807 634.44 Q70.523 634.408 69.7179 634.214 L43.7922 627.773 Q37.7697 626.292 33.4863 621.815 Q29.1707 617.306 29.1707 612.475 Q29.1707 608.643 32.037 605.97 Q34.9034 603.297 39.9275 603.297 M37.0934 608.031 Q33.8728 608.031 32.2625 609.319 Q30.62 610.607 30.62 612.604 Q30.62 614.44 32.1015 616.662 Q33.5829 618.852 36.8679 620.784 Q38.7681 621.815 41.1191 622.556 Q43.4701 623.296 49.2672 624.746 Q51.586 625.261 51.7148 625.261 Q51.9725 625.261 52.5522 625.132 Q53.1319 624.971 54.0336 624.585 Q54.9032 624.166 55.6761 623.586 Q56.4491 623.007 57.0288 621.944 Q57.5763 620.881 57.5763 619.593 Q57.5763 617.596 55.966 615.47 Q54.3235 613.313 51.3284 611.735 Q48.9129 610.414 44.3719 609.223 Q39.7987 608.031 37.0934 608.031 Z" fill="#000000" fill-rule="nonzero" fill-opacity="1"></path><path clip-path="url(#clip990)" d="M60.2178 586.682 L86.91 593.332 Q87.9696 593.603 89.1194 593.603 Q91.2385 593.603 91.2385 592.205 Q91.2385 591.551 90.8102 591.01 Q90.3593 590.469 89.4801 590.063 Q88.5783 589.635 87.7216 589.364 Q86.865 589.071 85.5348 588.711 Q85.0163 588.598 84.8585 588.485 Q84.7007 588.372 84.7007 588.057 Q84.7007 587.493 85.1516 587.493 Q87.9245 588.057 89.683 588.891 Q92.2755 590.108 92.2755 592.363 Q92.2755 594.054 91.1032 595.316 Q89.9084 596.556 88.0147 596.556 Q87.2933 596.556 86.4366 596.331 L63.3515 590.514 L62.4497 590.356 Q62.2017 590.356 62.0664 590.447 Q61.9312 590.537 61.7959 591.078 Q61.6606 591.596 61.6606 592.633 Q61.6606 593.062 61.6381 593.265 Q61.6156 593.445 61.5028 593.625 Q61.3901 593.783 61.1421 593.783 Q60.7363 593.783 60.5109 593.625 Q60.2855 593.445 60.2404 593.31 Q60.1953 593.174 60.1727 592.904 Q60.1502 592.521 60.0375 591.236 Q59.9022 589.951 59.812 588.846 Q59.7219 587.741 59.7219 587.268 Q59.7219 586.997 59.8571 586.862 Q59.9698 586.704 60.1051 586.682 L60.2178 586.682 Z" fill="#000000" fill-rule="nonzero" fill-opacity="1"></path><path clip-path="url(#clip990)" d="M86.4141 564.819 Q86.617 564.639 86.8199 564.639 Q87.0228 564.639 87.6089 565.09 Q88.1951 565.518 88.9841 566.442 Q89.7731 567.367 90.5171 568.561 Q91.2611 569.756 91.757 571.515 Q92.2755 573.273 92.2755 575.122 Q92.2755 578.436 89.9084 580.42 Q87.5413 582.381 83.9117 582.381 Q81.5896 582.381 79.5381 581.614 Q77.4641 580.848 75.9987 579.608 Q74.5333 578.346 73.4738 576.767 Q72.3916 575.167 71.8731 573.499 Q71.3546 571.83 71.3546 570.275 Q71.3546 567.998 72.5044 566.668 Q73.6541 565.338 75.2773 565.338 Q75.6605 565.338 76.134 565.45 Q76.6074 565.54 77.3513 565.856 Q78.0953 566.149 78.8393 566.916 Q79.5607 567.682 80.0341 568.809 Q81.0937 571.312 81.0937 575.866 L81.0937 578.323 Q84.0019 579.044 85.8956 579.044 Q86.6395 579.044 87.406 578.909 Q88.15 578.774 89.0968 578.413 Q90.0437 578.03 90.6524 577.173 Q91.2385 576.294 91.2385 575.032 Q91.2385 574.626 91.216 574.197 Q91.1934 573.747 90.9454 572.619 Q90.6974 571.47 90.2691 570.455 Q89.8408 569.441 88.9165 568.156 Q87.9696 566.848 86.6846 565.811 Q86.2112 565.45 86.2112 565.202 Q86.2112 564.999 86.4141 564.819 M75.2773 566.871 Q74.0374 566.871 73.2032 567.795 Q72.3691 568.697 72.3691 570.275 Q72.3691 570.771 72.4818 571.379 Q72.5945 571.988 73.068 573.003 Q73.5414 573.995 74.3304 574.874 Q75.0969 575.753 76.6074 576.632 Q78.0953 577.511 80.0792 578.03 L80.0792 576.136 Q80.0792 575.482 80.0792 575.009 Q80.0566 574.536 79.9665 573.499 Q79.8763 572.439 79.7185 571.672 Q79.5381 570.906 79.1774 569.937 Q78.8167 568.967 78.3433 568.358 Q77.8473 567.727 77.0583 567.299 Q76.2692 566.871 75.2773 566.871 Z" fill="#000000" fill-rule="nonzero" fill-opacity="1"></path><path clip-path="url(#clip990)" d="M62.3821 538.062 Q63.622 538.062 64.3885 538.851 Q65.155 539.617 65.155 540.587 Q65.155 541.285 64.7266 541.804 Q64.2983 542.3 63.5543 542.3 Q62.7878 542.3 61.9763 541.714 Q61.1647 541.128 61.052 539.797 Q60.2178 540.677 60.2178 542.074 Q60.2178 542.773 60.6687 543.359 Q61.097 543.923 61.7959 544.239 Q62.5173 544.577 66.5978 545.343 Q67.9279 545.591 69.2129 545.817 Q70.4979 546.042 71.8506 546.313 L71.8506 542.48 Q71.8506 541.984 71.8731 541.781 Q71.8957 541.578 72.0084 541.421 Q72.1211 541.24 72.3691 541.24 Q73.0003 541.24 73.1581 541.533 Q73.2934 541.804 73.2934 542.615 L73.2934 546.583 L87.9245 549.356 Q88.3529 549.424 89.7055 549.717 Q91.0356 549.987 93.2224 550.641 Q95.4317 551.295 96.7393 551.949 Q97.4832 552.309 98.1821 552.783 Q98.9035 553.234 99.6249 553.888 Q100.346 554.541 100.775 555.398 Q101.226 556.255 101.226 557.156 Q101.226 558.689 100.369 559.884 Q99.5122 561.079 98.0468 561.079 Q96.8069 561.079 96.0404 560.313 Q95.2739 559.524 95.2739 558.554 Q95.2739 557.855 95.7022 557.359 Q96.1306 556.841 96.8745 556.841 Q97.1902 556.841 97.5509 556.954 Q97.9116 557.066 98.3174 557.314 Q98.7457 557.562 99.0388 558.103 Q99.3318 558.644 99.3769 559.388 Q100.211 558.509 100.211 557.156 Q100.211 556.728 100.031 556.345 Q99.8729 555.962 99.4671 555.646 Q99.0613 555.308 98.6555 555.06 Q98.2723 554.812 97.5283 554.564 Q96.8069 554.316 96.2658 554.158 Q95.7248 554 94.7554 553.797 Q93.786 553.572 93.1998 553.459 Q92.6362 553.346 91.5316 553.144 L73.2934 549.694 L73.2934 552.738 Q73.2934 553.279 73.2709 553.504 Q73.2483 553.707 73.1356 553.865 Q73.0003 554.023 72.7298 554.023 Q72.3015 554.023 72.1211 553.842 Q71.9182 553.64 71.8957 553.414 Q71.8506 553.189 71.8506 552.648 L71.8506 549.446 Q66.1469 548.364 64.6139 547.936 Q62.9907 547.44 61.8635 546.673 Q60.7138 545.907 60.1727 545.05 Q59.6317 544.194 59.4288 543.495 Q59.2033 542.773 59.2033 542.074 Q59.2033 540.496 60.06 539.279 Q60.8941 538.062 62.3821 538.062 Z" fill="#000000" fill-rule="nonzero" fill-opacity="1"></path><path clip-path="url(#clip990)" d="M72.3691 520.515 Q73.0003 520.515 73.1581 520.808 Q73.2934 521.101 73.2934 521.913 L73.2934 526.241 L86.91 529.668 Q88.1049 529.938 89.1194 529.938 Q90.2466 529.938 90.7425 529.6 Q91.2385 529.24 91.2385 528.496 Q91.2385 527.03 89.9084 525.452 Q88.5783 523.852 85.332 522.499 Q84.9036 522.319 84.8134 522.228 Q84.7007 522.116 84.7007 521.823 Q84.7007 521.259 85.1516 521.259 Q85.3094 521.259 86.0308 521.575 Q86.7522 521.868 87.8118 522.521 Q88.8714 523.153 89.8633 523.987 Q90.8553 524.798 91.5767 526.038 Q92.2755 527.278 92.2755 528.608 Q92.2755 530.48 91.0807 531.674 Q89.8859 532.847 88.0147 532.847 Q87.406 532.847 85.4672 532.373 Q83.5059 531.9 73.2934 529.33 L73.2934 533.41 Q73.2934 533.974 73.2709 534.199 Q73.2483 534.402 73.1356 534.56 Q73.0003 534.695 72.7298 534.695 Q72.3015 534.695 72.1211 534.515 Q71.9182 534.335 71.8957 534.109 Q71.8506 533.861 71.8506 533.298 L71.8506 528.969 L64.5237 527.166 Q63.8023 526.985 63.3965 526.534 Q62.9682 526.061 62.9231 525.79 Q62.8555 525.52 62.8555 525.317 Q62.8555 524.708 63.1936 524.348 Q63.5093 523.987 64.0954 523.987 Q64.411 523.987 71.8506 525.881 L71.8506 521.823 Q71.8506 521.304 71.8731 521.101 Q71.8957 520.876 72.0084 520.695 Q72.1211 520.515 72.3691 520.515 Z" fill="#000000" fill-rule="nonzero" fill-opacity="1"></path><path clip-path="url(#clip990)" d="M41.3767 496.339 Q41.5056 496.275 41.8276 496.275 Q42.1497 496.275 42.2785 496.339 L73.9369 508.61 Q74.8064 508.932 74.8064 509.834 Q74.8064 510.381 74.42 510.768 Q74.0335 511.154 73.486 511.154 Q73.1639 511.154 73.0351 511.09 L41.8276 498.98 L10.6201 511.09 Q10.4913 511.154 10.1693 511.154 Q9.62176 511.154 9.23529 510.768 Q8.84882 510.381 8.84882 509.834 Q8.84882 508.932 9.71838 508.61 L41.3767 496.339 Z" fill="#000000" fill-rule="nonzero" fill-opacity="1"></path><path clip-path="url(#clip990)" d="M768.708 18.8205 L768.708 65.8515 L778.592 65.8515 Q791.11 65.8515 796.902 60.1802 Q802.736 54.509 802.736 42.2752 Q802.736 30.1225 796.902 24.4918 Q791.11 18.8205 778.592 18.8205 L768.708 18.8205 M760.525 12.096 L777.337 12.096 Q794.917 12.096 803.141 19.4281 Q811.364 26.7198 811.364 42.2752 Q811.364 57.9117 803.1 65.2439 Q794.836 72.576 777.337 72.576 L760.525 72.576 L760.525 12.096 Z" fill="#000000" fill-rule="nonzero" fill-opacity="1"></path><path clip-path="url(#clip990)" d="M862.892 48.0275 L862.892 51.6733 L828.621 51.6733 Q829.107 59.3701 833.239 63.421 Q837.411 67.4314 844.825 67.4314 Q849.119 67.4314 853.129 66.3781 Q857.18 65.3249 861.15 63.2184 L861.15 70.267 Q857.139 71.9684 852.926 72.8596 Q848.714 73.7508 844.379 73.7508 Q833.523 73.7508 827.163 67.4314 Q820.843 61.1119 820.843 50.3365 Q820.843 39.1965 826.839 32.6746 Q832.874 26.1121 843.083 26.1121 Q852.238 26.1121 857.544 32.0264 Q862.892 37.9003 862.892 48.0275 M855.438 45.84 Q855.357 39.7232 851.995 36.0774 Q848.673 32.4315 843.164 32.4315 Q836.925 32.4315 833.158 35.9558 Q829.431 39.4801 828.864 45.8805 L855.438 45.84 Z" fill="#000000" fill-rule="nonzero" fill-opacity="1"></path><path clip-path="url(#clip990)" d="M869.778 27.2059 L877.677 27.2059 L891.856 65.2844 L906.034 27.2059 L913.933 27.2059 L896.919 72.576 L886.792 72.576 L869.778 27.2059 Z" fill="#000000" fill-rule="nonzero" fill-opacity="1"></path><path clip-path="url(#clip990)" d="M924.222 27.2059 L931.676 27.2059 L931.676 72.576 L924.222 72.576 L924.222 27.2059 M924.222 9.54393 L931.676 9.54393 L931.676 18.9825 L924.222 18.9825 L924.222 9.54393 Z" fill="#000000" fill-rule="nonzero" fill-opacity="1"></path><path clip-path="url(#clip990)" d="M967.891 49.7694 Q958.858 49.7694 955.374 51.8354 Q951.89 53.9013 951.89 58.8839 Q951.89 62.8538 954.483 65.2034 Q957.116 67.5124 961.612 67.5124 Q967.81 67.5124 971.537 63.1374 Q975.304 58.7219 975.304 51.4303 L975.304 49.7694 L967.891 49.7694 M982.758 46.6907 L982.758 72.576 L975.304 72.576 L975.304 65.6895 Q972.752 69.8214 968.944 71.8063 Q965.136 73.7508 959.627 73.7508 Q952.66 73.7508 948.528 69.8619 Q944.436 65.9325 944.436 59.3701 Q944.436 51.7138 949.541 47.825 Q954.685 43.9361 964.853 43.9361 L975.304 43.9361 L975.304 43.2069 Q975.304 38.0623 971.901 35.2672 Q968.539 32.4315 962.422 32.4315 Q958.534 32.4315 954.847 33.3632 Q951.161 34.295 947.758 36.1584 L947.758 29.2718 Q951.85 27.692 955.698 26.9223 Q959.546 26.1121 963.192 26.1121 Q973.036 26.1121 977.897 31.2163 Q982.758 36.3204 982.758 46.6907 Z" fill="#000000" fill-rule="nonzero" fill-opacity="1"></path><path clip-path="url(#clip990)" d="M1005.48 14.324 L1005.48 27.2059 L1020.84 27.2059 L1020.84 32.9987 L1005.48 32.9987 L1005.48 57.6282 Q1005.48 63.1779 1006.98 64.7578 Q1008.52 66.3376 1013.18 66.3376 L1020.84 66.3376 L1020.84 72.576 L1013.18 72.576 Q1004.55 72.576 1001.27 69.3758 Q997.989 66.1351 997.989 57.6282 L997.989 32.9987 L992.521 32.9987 L992.521 27.2059 L997.989 27.2059 L997.989 14.324 L1005.48 14.324 Z" fill="#000000" fill-rule="nonzero" fill-opacity="1"></path><path clip-path="url(#clip990)" d="M1030.64 27.2059 L1038.09 27.2059 L1038.09 72.576 L1030.64 72.576 L1030.64 27.2059 M1030.64 9.54393 L1038.09 9.54393 L1038.09 18.9825 L1030.64 18.9825 L1030.64 9.54393 Z" fill="#000000" fill-rule="nonzero" fill-opacity="1"></path><path clip-path="url(#clip990)" d="M1071.27 32.4315 Q1065.27 32.4315 1061.79 37.1306 Q1058.31 41.7891 1058.31 49.9314 Q1058.31 58.0738 1061.75 62.7728 Q1065.23 67.4314 1071.27 67.4314 Q1077.23 67.4314 1080.71 62.7323 Q1084.19 58.0333 1084.19 49.9314 Q1084.19 41.8701 1080.71 37.1711 Q1077.23 32.4315 1071.27 32.4315 M1071.27 26.1121 Q1080.99 26.1121 1086.54 32.4315 Q1092.09 38.7509 1092.09 49.9314 Q1092.09 61.0714 1086.54 67.4314 Q1080.99 73.7508 1071.27 73.7508 Q1061.51 73.7508 1055.96 67.4314 Q1050.45 61.0714 1050.45 49.9314 Q1050.45 38.7509 1055.96 32.4315 Q1061.51 26.1121 1071.27 26.1121 Z" fill="#000000" fill-rule="nonzero" fill-opacity="1"></path><path clip-path="url(#clip990)" d="M1142.16 45.1919 L1142.16 72.576 L1134.71 72.576 L1134.71 45.4349 Q1134.71 38.994 1132.2 35.7938 Q1129.68 32.5936 1124.66 32.5936 Q1118.63 32.5936 1115.14 36.4419 Q1111.66 40.2903 1111.66 46.9338 L1111.66 72.576 L1104.16 72.576 L1104.16 27.2059 L1111.66 27.2059 L1111.66 34.2544 Q1114.33 30.163 1117.94 28.1376 Q1121.58 26.1121 1126.32 26.1121 Q1134.14 26.1121 1138.15 30.9732 Q1142.16 35.7938 1142.16 45.1919 Z" fill="#000000" fill-rule="nonzero" fill-opacity="1"></path><path clip-path="url(#clip990)" d="M1183.4 27.2059 L1190.85 27.2059 L1190.85 72.576 L1183.4 72.576 L1183.4 27.2059 M1183.4 9.54393 L1190.85 9.54393 L1190.85 18.9825 L1183.4 18.9825 L1183.4 9.54393 Z" fill="#000000" fill-rule="nonzero" fill-opacity="1"></path><path clip-path="url(#clip990)" d="M1244.16 45.1919 L1244.16 72.576 L1236.71 72.576 L1236.71 45.4349 Q1236.71 38.994 1234.2 35.7938 Q1231.69 32.5936 1226.66 32.5936 Q1220.63 32.5936 1217.14 36.4419 Q1213.66 40.2903 1213.66 46.9338 L1213.66 72.576 L1206.17 72.576 L1206.17 27.2059 L1213.66 27.2059 L1213.66 34.2544 Q1216.33 30.163 1219.94 28.1376 Q1223.58 26.1121 1228.32 26.1121 Q1236.14 26.1121 1240.15 30.9732 Q1244.16 35.7938 1244.16 45.1919 Z" fill="#000000" fill-rule="nonzero" fill-opacity="1"></path><path clip-path="url(#clip990)" d="M1285.73 12.096 L1297.92 12.096 L1313.35 53.2532 L1328.87 12.096 L1341.06 12.096 L1341.06 72.576 L1333.08 72.576 L1333.08 19.4686 L1317.48 60.9499 L1309.26 60.9499 L1293.66 19.4686 L1293.66 72.576 L1285.73 72.576 L1285.73 12.096 Z" fill="#000000" fill-rule="nonzero" fill-opacity="1"></path><path clip-path="url(#clip990)" d="M1402.59 16.7545 L1402.59 25.383 Q1398.46 21.5346 1393.76 19.6307 Q1389.1 17.7268 1383.84 17.7268 Q1373.47 17.7268 1367.96 24.0867 Q1362.45 30.4061 1362.45 42.3968 Q1362.45 54.3469 1367.96 60.7069 Q1373.47 67.0263 1383.84 67.0263 Q1389.1 67.0263 1393.76 65.1223 Q1398.46 63.2184 1402.59 59.3701 L1402.59 67.9175 Q1398.3 70.8341 1393.48 72.2924 Q1388.7 73.7508 1383.35 73.7508 Q1369.62 73.7508 1361.72 65.3654 Q1353.82 56.9395 1353.82 42.3968 Q1353.82 27.8135 1361.72 19.4281 Q1369.62 11.0023 1383.35 11.0023 Q1388.78 11.0023 1393.56 12.4606 Q1398.38 13.8784 1402.59 16.7545 Z" fill="#000000" fill-rule="nonzero" fill-opacity="1"></path><path clip-path="url(#clip990)" d="M1448.49 65.7705 L1448.49 89.8329 L1441 89.8329 L1441 27.2059 L1448.49 27.2059 L1448.49 34.0924 Q1450.84 30.0415 1454.4 28.0971 Q1458.01 26.1121 1462.99 26.1121 Q1471.26 26.1121 1476.4 32.6746 Q1481.59 39.2371 1481.59 49.9314 Q1481.59 60.6258 1476.4 67.1883 Q1471.26 73.7508 1462.99 73.7508 Q1458.01 73.7508 1454.4 71.8063 Q1450.84 69.8214 1448.49 65.7705 M1473.85 49.9314 Q1473.85 41.7081 1470.45 37.0496 Q1467.08 32.3505 1461.17 32.3505 Q1455.26 32.3505 1451.85 37.0496 Q1448.49 41.7081 1448.49 49.9314 Q1448.49 58.1548 1451.85 62.8538 Q1455.26 67.5124 1461.17 67.5124 Q1467.08 67.5124 1470.45 62.8538 Q1473.85 58.1548 1473.85 49.9314 Z" fill="#000000" fill-rule="nonzero" fill-opacity="1"></path><path clip-path="url(#clip990)" d="M1531.66 45.1919 L1531.66 72.576 L1524.2 72.576 L1524.2 45.4349 Q1524.2 38.994 1521.69 35.7938 Q1519.18 32.5936 1514.16 32.5936 Q1508.12 32.5936 1504.64 36.4419 Q1501.15 40.2903 1501.15 46.9338 L1501.15 72.576 L1493.66 72.576 L1493.66 9.54393 L1501.15 9.54393 L1501.15 34.2544 Q1503.83 30.163 1507.43 28.1376 Q1511.08 26.1121 1515.82 26.1121 Q1523.63 26.1121 1527.65 30.9732 Q1531.66 35.7938 1531.66 45.1919 Z" fill="#000000" fill-rule="nonzero" fill-opacity="1"></path><path clip-path="url(#clip990)" d="M1567.14 49.7694 Q1558.11 49.7694 1554.62 51.8354 Q1551.14 53.9013 1551.14 58.8839 Q1551.14 62.8538 1553.73 65.2034 Q1556.37 67.5124 1560.86 67.5124 Q1567.06 67.5124 1570.79 63.1374 Q1574.55 58.7219 1574.55 51.4303 L1574.55 49.7694 L1567.14 49.7694 M1582.01 46.6907 L1582.01 72.576 L1574.55 72.576 L1574.55 65.6895 Q1572 69.8214 1568.19 71.8063 Q1564.39 73.7508 1558.88 73.7508 Q1551.91 73.7508 1547.78 69.8619 Q1543.69 65.9325 1543.69 59.3701 Q1543.69 51.7138 1548.79 47.825 Q1553.94 43.9361 1564.1 43.9361 L1574.55 43.9361 L1574.55 43.2069 Q1574.55 38.0623 1571.15 35.2672 Q1567.79 32.4315 1561.67 32.4315 Q1557.78 32.4315 1554.1 33.3632 Q1550.41 34.295 1547.01 36.1584 L1547.01 29.2718 Q1551.1 27.692 1554.95 26.9223 Q1558.8 26.1121 1562.44 26.1121 Q1572.29 26.1121 1577.15 31.2163 Q1582.01 36.3204 1582.01 46.6907 Z" fill="#000000" fill-rule="nonzero" fill-opacity="1"></path><path clip-path="url(#clip990)" d="M1626.28 28.5427 L1626.28 35.5912 Q1623.12 33.9709 1619.72 33.1607 Q1616.32 32.3505 1612.67 32.3505 Q1607.12 32.3505 1604.33 34.0519 Q1601.57 35.7533 1601.57 39.156 Q1601.57 41.7486 1603.56 43.2475 Q1605.54 44.7058 1611.54 46.0426 L1614.09 46.6097 Q1622.03 48.3111 1625.35 51.4303 Q1628.72 54.509 1628.72 60.0587 Q1628.72 66.3781 1623.69 70.0644 Q1618.71 73.7508 1609.96 73.7508 Q1606.31 73.7508 1602.34 73.0216 Q1598.41 72.3329 1594.04 70.9151 L1594.04 63.2184 Q1598.17 65.3654 1602.18 66.4591 Q1606.19 67.5124 1610.12 67.5124 Q1615.39 67.5124 1618.22 65.73 Q1621.06 63.9071 1621.06 60.6258 Q1621.06 57.5877 1618.99 55.9673 Q1616.97 54.3469 1610.04 52.8481 L1607.45 52.2405 Q1600.52 50.7821 1597.44 47.7845 Q1594.36 44.7463 1594.36 39.4801 Q1594.36 33.0797 1598.9 29.5959 Q1603.44 26.1121 1611.78 26.1121 Q1615.91 26.1121 1619.56 26.7198 Q1623.21 27.3274 1626.28 28.5427 Z" fill="#000000" fill-rule="nonzero" fill-opacity="1"></path><path clip-path="url(#clip990)" d="M1679.39 48.0275 L1679.39 51.6733 L1645.12 51.6733 Q1645.61 59.3701 1649.74 63.421 Q1653.91 67.4314 1661.32 67.4314 Q1665.62 67.4314 1669.63 66.3781 Q1673.68 65.3249 1677.65 63.2184 L1677.65 70.267 Q1673.64 71.9684 1669.43 72.8596 Q1665.21 73.7508 1660.88 73.7508 Q1650.02 73.7508 1643.66 67.4314 Q1637.34 61.1119 1637.34 50.3365 Q1637.34 39.1965 1643.34 32.6746 Q1649.37 26.1121 1659.58 26.1121 Q1668.74 26.1121 1674.04 32.0264 Q1679.39 37.9003 1679.39 48.0275 M1671.94 45.84 Q1671.86 39.7232 1668.49 36.0774 Q1665.17 32.4315 1659.66 32.4315 Q1653.43 32.4315 1649.66 35.9558 Q1645.93 39.4801 1645.36 45.8805 L1671.94 45.84 Z" fill="#000000" fill-rule="nonzero" fill-opacity="1"></path><path clip-path="url(#clip990)" d="M1718.32 12.096 L1726.5 12.096 L1726.5 65.6895 L1755.95 65.6895 L1755.95 72.576 L1718.32 72.576 L1718.32 12.096 Z" fill="#000000" fill-rule="nonzero" fill-opacity="1"></path><path clip-path="url(#clip990)" d="M1821.86 44.7463 L1821.86 48.3921 L1805.94 64.3122 L1801.08 59.4511 L1810.52 50.0125 L1761.14 50.0125 L1761.14 43.1259 L1810.52 43.1259 L1801.08 33.6873 L1805.94 28.8262 L1821.86 44.7463 Z" fill="#000000" fill-rule="nonzero" fill-opacity="1"></path><path clip-path="url(#clip990)" d="M1863.71 58.4383 Q1862.45 56.98 1860.47 53.5773 Q1857.75 58.4383 1855.36 60.5853 Q1852.37 63.1779 1847.71 63.1779 Q1842.24 63.1779 1838.63 59.0865 Q1834.83 54.7925 1834.83 47.7034 Q1834.83 40.8979 1838.63 36.2799 Q1842.04 32.1885 1847.79 32.1885 Q1850.75 32.1885 1852.93 33.4038 Q1855.48 34.7406 1857.23 37.0496 Q1858.85 39.1155 1860.47 41.9107 Q1863.18 37.0496 1865.57 34.9026 Q1868.57 32.31 1873.23 32.31 Q1878.7 32.31 1882.3 36.4014 Q1886.11 40.6954 1886.11 47.7845 Q1886.11 54.59 1882.3 59.208 Q1878.9 63.2994 1873.15 63.2994 Q1870.19 63.2994 1868 62.0842 Q1865.81 60.9904 1863.71 58.4383 M1847.26 57.8712 Q1853.95 57.8712 1857.96 48.149 Q1852.81 37.5357 1847.26 37.5357 Q1843.21 37.5357 1841.14 40.4523 Q1838.92 43.5715 1838.92 47.7034 Q1838.92 52.2405 1841.14 55.0356 Q1843.41 57.8712 1847.26 57.8712 M1873.67 37.6167 Q1867.64 37.6167 1862.98 47.3389 Q1868.08 57.9522 1873.67 57.9522 Q1877.72 57.9522 1879.79 55.0356 Q1882.02 51.9164 1882.02 47.7845 Q1882.02 43.2475 1879.79 40.4523 Q1877.52 37.6167 1873.67 37.6167 Z" fill="#000000" fill-rule="nonzero" fill-opacity="1"></path><circle clip-path="url(#clip992)" cx="2294.49" cy="1065.14" r="14.4" fill="#009af9" fill-rule="evenodd" fill-opacity="1" stroke="#000000" stroke-opacity="1" stroke-width="3.2"></circle>
<circle clip-path="url(#clip992)" cx="1720.83" cy="750.886" r="14.4" fill="#009af9" fill-rule="evenodd" fill-opacity="1" stroke="#000000" stroke-opacity="1" stroke-width="3.2"></circle>
<circle clip-path="url(#clip992)" cx="1398.55" cy="997.667" r="14.4" fill="#009af9" fill-rule="evenodd" fill-opacity="1" stroke="#000000" stroke-opacity="1" stroke-width="3.2"></circle>
<circle clip-path="url(#clip992)" cx="1196.48" cy="993.284" r="14.4" fill="#009af9" fill-rule="evenodd" fill-opacity="1" stroke="#000000" stroke-opacity="1" stroke-width="3.2"></circle>
<circle clip-path="url(#clip992)" cx="1051.71" cy="1091.45" r="14.4" fill="#009af9" fill-rule="evenodd" fill-opacity="1" stroke="#000000" stroke-opacity="1" stroke-width="3.2"></circle>
<circle clip-path="url(#clip992)" cx="945.351" cy="1233.87" r="14.4" fill="#009af9" fill-rule="evenodd" fill-opacity="1" stroke="#000000" stroke-opacity="1" stroke-width="3.2"></circle>
<circle clip-path="url(#clip992)" cx="863.904" cy="840.954" r="14.4" fill="#009af9" fill-rule="evenodd" fill-opacity="1" stroke="#000000" stroke-opacity="1" stroke-width="3.2"></circle>
<circle clip-path="url(#clip992)" cx="801.017" cy="1092.56" r="14.4" fill="#009af9" fill-rule="evenodd" fill-opacity="1" stroke="#000000" stroke-opacity="1" stroke-width="3.2"></circle>
<circle clip-path="url(#clip992)" cx="748.595" cy="366.98" r="14.4" fill="#009af9" fill-rule="evenodd" fill-opacity="1" stroke="#000000" stroke-opacity="1" stroke-width="3.2"></circle>
<circle clip-path="url(#clip992)" cx="705.281" cy="859.784" r="14.4" fill="#009af9" fill-rule="evenodd" fill-opacity="1" stroke="#000000" stroke-opacity="1" stroke-width="3.2"></circle>
<circle clip-path="url(#clip992)" cx="668.889" cy="1313.03" r="14.4" fill="#009af9" fill-rule="evenodd" fill-opacity="1" stroke="#000000" stroke-opacity="1" stroke-width="3.2"></circle>
<circle clip-path="url(#clip992)" cx="637.884" cy="334.349" r="14.4" fill="#009af9" fill-rule="evenodd" fill-opacity="1" stroke="#000000" stroke-opacity="1" stroke-width="3.2"></circle>
<circle clip-path="url(#clip992)" cx="611.791" cy="988.185" r="14.4" fill="#009af9" fill-rule="evenodd" fill-opacity="1" stroke="#000000" stroke-opacity="1" stroke-width="3.2"></circle>
<circle clip-path="url(#clip992)" cx="588.425" cy="843.004" r="14.4" fill="#009af9" fill-rule="evenodd" fill-opacity="1" stroke="#000000" stroke-opacity="1" stroke-width="3.2"></circle>
<circle clip-path="url(#clip992)" cx="567.894" cy="1223.2" r="14.4" fill="#009af9" fill-rule="evenodd" fill-opacity="1" stroke="#000000" stroke-opacity="1" stroke-width="3.2"></circle>
<circle clip-path="url(#clip992)" cx="549.71" cy="1016.19" r="14.4" fill="#009af9" fill-rule="evenodd" fill-opacity="1" stroke="#000000" stroke-opacity="1" stroke-width="3.2"></circle>
<circle clip-path="url(#clip992)" cx="533.888" cy="867.367" r="14.4" fill="#009af9" fill-rule="evenodd" fill-opacity="1" stroke="#000000" stroke-opacity="1" stroke-width="3.2"></circle>
<circle clip-path="url(#clip992)" cx="519.297" cy="692.11" r="14.4" fill="#009af9" fill-rule="evenodd" fill-opacity="1" stroke="#000000" stroke-opacity="1" stroke-width="3.2"></circle>
<circle clip-path="url(#clip992)" cx="506.132" cy="1226.03" r="14.4" fill="#009af9" fill-rule="evenodd" fill-opacity="1" stroke="#000000" stroke-opacity="1" stroke-width="3.2"></circle>
<circle clip-path="url(#clip992)" cx="494.194" cy="651.44" r="14.4" fill="#009af9" fill-rule="evenodd" fill-opacity="1" stroke="#000000" stroke-opacity="1" stroke-width="3.2"></circle>
<circle clip-path="url(#clip992)" cx="483.319" cy="184.4" r="14.4" fill="#009af9" fill-rule="evenodd" fill-opacity="1" stroke="#000000" stroke-opacity="1" stroke-width="3.2"></circle>
<circle clip-path="url(#clip992)" cx="473.615" cy="899.29" r="14.4" fill="#009af9" fill-rule="evenodd" fill-opacity="1" stroke="#000000" stroke-opacity="1" stroke-width="3.2"></circle>
<circle clip-path="url(#clip992)" cx="464.461" cy="1354.95" r="14.4" fill="#009af9" fill-rule="evenodd" fill-opacity="1" stroke="#000000" stroke-opacity="1" stroke-width="3.2"></circle>
<circle clip-path="url(#clip992)" cx="456.026" cy="1221.85" r="14.4" fill="#009af9" fill-rule="evenodd" fill-opacity="1" stroke="#000000" stroke-opacity="1" stroke-width="3.2"></circle>
<circle clip-path="url(#clip992)" cx="448.23" cy="938.284" r="14.4" fill="#009af9" fill-rule="evenodd" fill-opacity="1" stroke="#000000" stroke-opacity="1" stroke-width="3.2"></circle>
<circle clip-path="url(#clip992)" cx="441.18" cy="1295.73" r="14.4" fill="#009af9" fill-rule="evenodd" fill-opacity="1" stroke="#000000" stroke-opacity="1" stroke-width="3.2"></circle>
<circle clip-path="url(#clip992)" cx="434.448" cy="1228.65" r="14.4" fill="#009af9" fill-rule="evenodd" fill-opacity="1" stroke="#000000" stroke-opacity="1" stroke-width="3.2"></circle>
<circle clip-path="url(#clip992)" cx="428.174" cy="1061.13" r="14.4" fill="#009af9" fill-rule="evenodd" fill-opacity="1" stroke="#000000" stroke-opacity="1" stroke-width="3.2"></circle>
<circle clip-path="url(#clip992)" cx="422.312" cy="849.104" r="14.4" fill="#009af9" fill-rule="evenodd" fill-opacity="1" stroke="#000000" stroke-opacity="1" stroke-width="3.2"></circle>
<circle clip-path="url(#clip992)" cx="416.96" cy="893.695" r="14.4" fill="#009af9" fill-rule="evenodd" fill-opacity="1" stroke="#000000" stroke-opacity="1" stroke-width="3.2"></circle>
<circle clip-path="url(#clip992)" cx="411.802" cy="654.604" r="14.4" fill="#009af9" fill-rule="evenodd" fill-opacity="1" stroke="#000000" stroke-opacity="1" stroke-width="3.2"></circle>
<circle clip-path="url(#clip992)" cx="406.953" cy="970.435" r="14.4" fill="#009af9" fill-rule="evenodd" fill-opacity="1" stroke="#000000" stroke-opacity="1" stroke-width="3.2"></circle>
<circle clip-path="url(#clip992)" cx="402.387" cy="378.956" r="14.4" fill="#009af9" fill-rule="evenodd" fill-opacity="1" stroke="#000000" stroke-opacity="1" stroke-width="3.2"></circle>
<circle clip-path="url(#clip992)" cx="398.078" cy="1011.41" r="14.4" fill="#009af9" fill-rule="evenodd" fill-opacity="1" stroke="#000000" stroke-opacity="1" stroke-width="3.2"></circle>
<circle clip-path="url(#clip992)" cx="394.107" cy="389.933" r="14.4" fill="#009af9" fill-rule="evenodd" fill-opacity="1" stroke="#000000" stroke-opacity="1" stroke-width="3.2"></circle>
<circle clip-path="url(#clip992)" cx="390.248" cy="974.424" r="14.4" fill="#009af9" fill-rule="evenodd" fill-opacity="1" stroke="#000000" stroke-opacity="1" stroke-width="3.2"></circle>
<circle clip-path="url(#clip992)" cx="386.59" cy="1112.66" r="14.4" fill="#009af9" fill-rule="evenodd" fill-opacity="1" stroke="#000000" stroke-opacity="1" stroke-width="3.2"></circle>
<circle clip-path="url(#clip992)" cx="383.117" cy="725.99" r="14.4" fill="#009af9" fill-rule="evenodd" fill-opacity="1" stroke="#000000" stroke-opacity="1" stroke-width="3.2"></circle>
<circle clip-path="url(#clip992)" cx="379.9" cy="906.193" r="14.4" fill="#009af9" fill-rule="evenodd" fill-opacity="1" stroke="#000000" stroke-opacity="1" stroke-width="3.2"></circle>
<circle clip-path="url(#clip992)" cx="376.755" cy="753.881" r="14.4" fill="#009af9" fill-rule="evenodd" fill-opacity="1" stroke="#000000" stroke-opacity="1" stroke-width="3.2"></circle>
<circle clip-path="url(#clip992)" cx="373.759" cy="977.337" r="14.4" fill="#009af9" fill-rule="evenodd" fill-opacity="1" stroke="#000000" stroke-opacity="1" stroke-width="3.2"></circle>
<circle clip-path="url(#clip992)" cx="370.901" cy="984.503" r="14.4" fill="#009af9" fill-rule="evenodd" fill-opacity="1" stroke="#000000" stroke-opacity="1" stroke-width="3.2"></circle>
<circle clip-path="url(#clip992)" cx="368.172" cy="511.654" r="14.4" fill="#009af9" fill-rule="evenodd" fill-opacity="1" stroke="#000000" stroke-opacity="1" stroke-width="3.2"></circle>
<circle clip-path="url(#clip992)" cx="365.629" cy="998.857" r="14.4" fill="#009af9" fill-rule="evenodd" fill-opacity="1" stroke="#000000" stroke-opacity="1" stroke-width="3.2"></circle>
<circle clip-path="url(#clip992)" cx="363.13" cy="159.34" r="14.4" fill="#009af9" fill-rule="evenodd" fill-opacity="1" stroke="#000000" stroke-opacity="1" stroke-width="3.2"></circle>
<circle clip-path="url(#clip992)" cx="360.737" cy="498.129" r="14.4" fill="#009af9" fill-rule="evenodd" fill-opacity="1" stroke="#000000" stroke-opacity="1" stroke-width="3.2"></circle>
<circle clip-path="url(#clip992)" cx="358.443" cy="800.817" r="14.4" fill="#009af9" fill-rule="evenodd" fill-opacity="1" stroke="#000000" stroke-opacity="1" stroke-width="3.2"></circle>
<circle clip-path="url(#clip992)" cx="356.298" cy="842.217" r="14.4" fill="#009af9" fill-rule="evenodd" fill-opacity="1" stroke="#000000" stroke-opacity="1" stroke-width="3.2"></circle>
<circle clip-path="url(#clip992)" cx="354.182" cy="1003.73" r="14.4" fill="#009af9" fill-rule="evenodd" fill-opacity="1" stroke="#000000" stroke-opacity="1" stroke-width="3.2"></circle>
<circle clip-path="url(#clip992)" cx="352.149" cy="473.023" r="14.4" fill="#009af9" fill-rule="evenodd" fill-opacity="1" stroke="#000000" stroke-opacity="1" stroke-width="3.2"></circle>
<path clip-path="url(#clip990)" d="M1557.27 269.397 L2284.13 269.397 L2284.13 165.717 L1557.27 165.717  Z" fill="#ffffff" fill-rule="evenodd" fill-opacity="1"></path>
<polyline clip-path="url(#clip990)" style="stroke:#000000; stroke-linecap:round; stroke-linejoin:round; stroke-width:4; stroke-opacity:1; fill:none" points="1557.27,269.397 2284.13,269.397 2284.13,165.717 1557.27,165.717 1557.27,269.397 "></polyline>
<circle clip-path="url(#clip990)" cx="1648.78" cy="217.557" r="20.48" fill="#009af9" fill-rule="evenodd" fill-opacity="1" stroke="#000000" stroke-opacity="1" stroke-width="4.55111"></circle>
<path clip-path="url(#clip990)" d="M1757.25 222.777 L1756.23 217.43 Q1755.19 211.944 1751.07 211.944 Q1747.97 211.944 1746.55 214.49 Q1744.77 217.684 1744.77 221.897 Q1744.77 226.99 1746.51 229.42 Q1748.27 231.897 1751.07 231.897 Q1754.17 231.897 1755.84 226.967 L1757.25 222.777 M1759.63 215.694 L1761.92 208.911 L1765.72 208.911 L1760.98 222.962 L1761.9 228.032 Q1762.11 229.166 1762.92 230.115 Q1763.87 231.226 1764.61 231.226 L1766.65 231.226 L1766.65 234.837 L1764.1 234.837 Q1761.92 234.837 1759.98 232.893 Q1759.03 231.92 1758.64 229.883 Q1757.57 232.453 1755.4 234.467 Q1754.38 235.416 1751.07 235.416 Q1745.63 235.416 1742.99 231.897 Q1740.28 228.263 1740.28 221.897 Q1740.28 215.092 1743.22 211.897 Q1746.48 208.333 1751.07 208.333 Q1758.27 208.333 1759.63 215.694 Z" fill="#000000" fill-rule="nonzero" fill-opacity="1"></path><path clip-path="url(#clip990)" d="M1773.94 213.309 L1803.61 213.309 L1803.61 217.198 L1773.94 217.198 L1773.94 213.309 M1773.94 222.754 L1803.61 222.754 L1803.61 226.689 L1773.94 226.689 L1773.94 222.754 Z" fill="#000000" fill-rule="nonzero" fill-opacity="1"></path><path clip-path="url(#clip990)" d="M1823.71 203.356 Q1820.1 203.356 1818.27 206.921 Q1816.46 210.462 1816.46 217.592 Q1816.46 224.698 1818.27 228.263 Q1820.1 231.805 1823.71 231.805 Q1827.34 231.805 1829.15 228.263 Q1830.97 224.698 1830.97 217.592 Q1830.97 210.462 1829.15 206.921 Q1827.34 203.356 1823.71 203.356 M1823.71 199.652 Q1829.52 199.652 1832.57 204.258 Q1835.65 208.842 1835.65 217.592 Q1835.65 226.319 1832.57 230.925 Q1829.52 235.508 1823.71 235.508 Q1817.9 235.508 1814.82 230.925 Q1811.76 226.319 1811.76 217.592 Q1811.76 208.842 1814.82 204.258 Q1817.9 199.652 1823.71 199.652 Z" fill="#000000" fill-rule="nonzero" fill-opacity="1"></path><path clip-path="url(#clip990)" d="M1843.87 228.957 L1848.75 228.957 L1848.75 234.837 L1843.87 234.837 L1843.87 228.957 Z" fill="#000000" fill-rule="nonzero" fill-opacity="1"></path><path clip-path="url(#clip990)" d="M1868.94 218.425 Q1865.6 218.425 1863.68 220.207 Q1861.78 221.99 1861.78 225.115 Q1861.78 228.24 1863.68 230.022 Q1865.6 231.805 1868.94 231.805 Q1872.27 231.805 1874.19 230.022 Q1876.11 228.217 1876.11 225.115 Q1876.11 221.99 1874.19 220.207 Q1872.29 218.425 1868.94 218.425 M1864.26 216.434 Q1861.25 215.694 1859.56 213.633 Q1857.9 211.573 1857.9 208.61 Q1857.9 204.467 1860.84 202.059 Q1863.8 199.652 1868.94 199.652 Q1874.1 199.652 1877.04 202.059 Q1879.98 204.467 1879.98 208.61 Q1879.98 211.573 1878.29 213.633 Q1876.62 215.694 1873.64 216.434 Q1877.02 217.221 1878.89 219.513 Q1880.79 221.805 1880.79 225.115 Q1880.79 230.138 1877.71 232.823 Q1874.66 235.508 1868.94 235.508 Q1863.22 235.508 1860.14 232.823 Q1857.09 230.138 1857.09 225.115 Q1857.09 221.805 1858.98 219.513 Q1860.88 217.221 1864.26 216.434 M1862.55 209.05 Q1862.55 211.735 1864.22 213.24 Q1865.91 214.745 1868.94 214.745 Q1871.95 214.745 1873.64 213.24 Q1875.35 211.735 1875.35 209.05 Q1875.35 206.365 1873.64 204.86 Q1871.95 203.356 1868.94 203.356 Q1865.91 203.356 1864.22 204.86 Q1862.55 206.365 1862.55 209.05 Z" fill="#000000" fill-rule="nonzero" fill-opacity="1"></path><path clip-path="url(#clip990)" d="M1889.59 228.957 L1894.47 228.957 L1894.47 232.939 L1890.67 240.346 L1887.69 240.346 L1889.59 232.939 L1889.59 228.957 Z" fill="#000000" fill-rule="nonzero" fill-opacity="1"></path><path clip-path="url(#clip990)" d="M1922.9 233.24 L1922.9 244.698 L1918.61 244.698 L1918.61 209.073 Q1918.61 198.518 1928.47 198.518 Q1938.52 198.518 1938.52 207.43 Q1938.52 213.772 1934.54 216.087 Q1941.02 218.17 1941.02 224.351 Q1941.02 235.323 1929.86 235.323 Q1924.96 235.323 1922.9 233.24 M1922.9 227.684 Q1925.47 231.689 1930.03 231.689 Q1936.69 231.689 1936.69 224.42 Q1936.69 217.893 1925.95 218.402 L1925.95 214.467 Q1934.35 214.467 1934.35 207.059 Q1934.35 201.99 1928.94 201.99 Q1922.9 201.99 1922.9 209.212 L1922.9 227.684 Z" fill="#000000" fill-rule="nonzero" fill-opacity="1"></path><path clip-path="url(#clip990)" d="M1949.45 213.309 L1979.12 213.309 L1979.12 217.198 L1949.45 217.198 L1949.45 213.309 M1949.45 222.754 L1979.12 222.754 L1979.12 226.689 L1949.45 226.689 L1949.45 222.754 Z" fill="#000000" fill-rule="nonzero" fill-opacity="1"></path><path clip-path="url(#clip990)" d="M1999.21 203.356 Q1995.6 203.356 1993.77 206.921 Q1991.97 210.462 1991.97 217.592 Q1991.97 224.698 1993.77 228.263 Q1995.6 231.805 1999.21 231.805 Q2002.85 231.805 2004.65 228.263 Q2006.48 224.698 2006.48 217.592 Q2006.48 210.462 2004.65 206.921 Q2002.85 203.356 1999.21 203.356 M1999.21 199.652 Q2005.02 199.652 2008.08 204.258 Q2011.16 208.842 2011.16 217.592 Q2011.16 226.319 2008.08 230.925 Q2005.02 235.508 1999.21 235.508 Q1993.4 235.508 1990.33 230.925 Q1987.27 226.319 1987.27 217.592 Q1987.27 208.842 1990.33 204.258 Q1993.4 199.652 1999.21 199.652 Z" fill="#000000" fill-rule="nonzero" fill-opacity="1"></path><path clip-path="url(#clip990)" d="M2019.38 228.957 L2024.26 228.957 L2024.26 234.837 L2019.38 234.837 L2019.38 228.957 Z" fill="#000000" fill-rule="nonzero" fill-opacity="1"></path><path clip-path="url(#clip990)" d="M2044.45 218.425 Q2041.11 218.425 2039.19 220.207 Q2037.29 221.99 2037.29 225.115 Q2037.29 228.24 2039.19 230.022 Q2041.11 231.805 2044.45 231.805 Q2047.78 231.805 2049.7 230.022 Q2051.62 228.217 2051.62 225.115 Q2051.62 221.99 2049.7 220.207 Q2047.8 218.425 2044.45 218.425 M2039.77 216.434 Q2036.76 215.694 2035.07 213.633 Q2033.4 211.573 2033.4 208.61 Q2033.4 204.467 2036.34 202.059 Q2039.31 199.652 2044.45 199.652 Q2049.61 199.652 2052.55 202.059 Q2055.49 204.467 2055.49 208.61 Q2055.49 211.573 2053.8 213.633 Q2052.13 215.694 2049.14 216.434 Q2052.52 217.221 2054.4 219.513 Q2056.3 221.805 2056.3 225.115 Q2056.3 230.138 2053.22 232.823 Q2050.16 235.508 2044.45 235.508 Q2038.73 235.508 2035.65 232.823 Q2032.59 230.138 2032.59 225.115 Q2032.59 221.805 2034.49 219.513 Q2036.39 217.221 2039.77 216.434 M2038.06 209.05 Q2038.06 211.735 2039.72 213.24 Q2041.41 214.745 2044.45 214.745 Q2047.46 214.745 2049.14 213.24 Q2050.86 211.735 2050.86 209.05 Q2050.86 206.365 2049.14 204.86 Q2047.46 203.356 2044.45 203.356 Q2041.41 203.356 2039.72 204.86 Q2038.06 206.365 2038.06 209.05 Z" fill="#000000" fill-rule="nonzero" fill-opacity="1"></path><path clip-path="url(#clip990)" d="M2065.09 228.957 L2069.98 228.957 L2069.98 232.939 L2066.18 240.346 L2063.2 240.346 L2065.09 232.939 L2065.09 228.957 Z" fill="#000000" fill-rule="nonzero" fill-opacity="1"></path><path clip-path="url(#clip990)" d="M2098.27 230.948 L2098.27 244.698 L2093.98 244.698 L2093.98 208.911 L2098.27 208.911 L2098.27 212.846 Q2099.61 210.532 2101.64 209.421 Q2103.7 208.286 2106.55 208.286 Q2111.27 208.286 2114.21 212.036 Q2117.18 215.786 2117.18 221.897 Q2117.18 228.008 2114.21 231.758 Q2111.27 235.508 2106.55 235.508 Q2103.7 235.508 2101.64 234.397 Q2099.61 233.263 2098.27 230.948 M2112.76 221.897 Q2112.76 217.198 2110.81 214.536 Q2108.89 211.851 2105.51 211.851 Q2102.13 211.851 2100.19 214.536 Q2098.27 217.198 2098.27 221.897 Q2098.27 226.596 2100.19 229.282 Q2102.13 231.944 2105.51 231.944 Q2108.89 231.944 2110.81 229.282 Q2112.76 226.596 2112.76 221.897 Z" fill="#000000" fill-rule="nonzero" fill-opacity="1"></path><path clip-path="url(#clip990)" d="M2128.87 230.902 L2145.19 230.902 L2145.19 234.837 L2123.24 234.837 L2123.24 230.902 Q2125.9 228.147 2130.49 223.518 Q2135.09 218.865 2136.27 217.522 Q2138.52 214.999 2139.4 213.263 Q2140.3 211.504 2140.3 209.814 Q2140.3 207.059 2138.36 205.323 Q2136.44 203.587 2133.33 203.587 Q2131.14 203.587 2128.68 204.351 Q2126.25 205.115 2123.47 206.666 L2123.47 201.944 Q2126.3 200.809 2128.75 200.231 Q2131.2 199.652 2133.24 199.652 Q2138.61 199.652 2141.81 202.337 Q2145 205.022 2145 209.513 Q2145 211.643 2144.19 213.564 Q2143.4 215.462 2141.3 218.055 Q2140.72 218.726 2137.62 221.944 Q2134.51 225.138 2128.87 230.902 Z" fill="#000000" fill-rule="nonzero" fill-opacity="1"></path><path clip-path="url(#clip990)" d="M2154.95 213.309 L2184.63 213.309 L2184.63 217.198 L2154.95 217.198 L2154.95 213.309 M2154.95 222.754 L2184.63 222.754 L2184.63 226.689 L2154.95 226.689 L2154.95 222.754 Z" fill="#000000" fill-rule="nonzero" fill-opacity="1"></path><path clip-path="url(#clip990)" d="M2204.72 203.356 Q2201.11 203.356 2199.28 206.921 Q2197.48 210.462 2197.48 217.592 Q2197.48 224.698 2199.28 228.263 Q2201.11 231.805 2204.72 231.805 Q2208.36 231.805 2210.16 228.263 Q2211.99 224.698 2211.99 217.592 Q2211.99 210.462 2210.16 206.921 Q2208.36 203.356 2204.72 203.356 M2204.72 199.652 Q2210.53 199.652 2213.59 204.258 Q2216.67 208.842 2216.67 217.592 Q2216.67 226.319 2213.59 230.925 Q2210.53 235.508 2204.72 235.508 Q2198.91 235.508 2195.83 230.925 Q2192.78 226.319 2192.78 217.592 Q2192.78 208.842 2195.83 204.258 Q2198.91 199.652 2204.72 199.652 Z" fill="#000000" fill-rule="nonzero" fill-opacity="1"></path><path clip-path="url(#clip990)" d="M2224.88 228.957 L2229.77 228.957 L2229.77 234.837 L2224.88 234.837 L2224.88 228.957 Z" fill="#000000" fill-rule="nonzero" fill-opacity="1"></path><path clip-path="url(#clip990)" d="M2254.12 216.203 Q2257.48 216.92 2259.35 219.189 Q2261.25 221.457 2261.25 224.791 Q2261.25 229.907 2257.73 232.707 Q2254.21 235.508 2247.73 235.508 Q2245.56 235.508 2243.24 235.069 Q2240.95 234.652 2238.5 233.795 L2238.5 229.282 Q2240.44 230.416 2242.75 230.994 Q2245.07 231.573 2247.59 231.573 Q2251.99 231.573 2254.28 229.837 Q2256.6 228.101 2256.6 224.791 Q2256.6 221.735 2254.44 220.022 Q2252.32 218.286 2248.5 218.286 L2244.47 218.286 L2244.47 214.444 L2248.68 214.444 Q2252.13 214.444 2253.96 213.078 Q2255.79 211.689 2255.79 209.096 Q2255.79 206.434 2253.89 205.022 Q2252.01 203.587 2248.5 203.587 Q2246.57 203.587 2244.38 204.004 Q2242.18 204.421 2239.54 205.3 L2239.54 201.134 Q2242.2 200.393 2244.51 200.022 Q2246.85 199.652 2248.91 199.652 Q2254.24 199.652 2257.34 202.083 Q2260.44 204.49 2260.44 208.61 Q2260.44 211.481 2258.8 213.471 Q2257.15 215.439 2254.12 216.203 Z" fill="#000000" fill-rule="nonzero" fill-opacity="1"></path></svg>