<svg xmlns="http://www.w3.org/2000/svg" xmlns:xlink="http://www.w3.org/1999/xlink" width="600" height="400" viewBox="0 0 2400 1600">
<defs>
  <clipPath id="clip070">
    <rect x="0" y="0" width="2400" height="1600"></rect>
  </clipPath>
</defs>
<path clip-path="url(#clip070)" d="M0 1600 L2400 1600 L2400 0 L0 0  Z" fill="#271924" fill-rule="evenodd" fill-opacity="1"></path>
<defs>
  <clipPath id="clip071">
    <rect x="480" y="0" width="1681" height="1600"></rect>
  </clipPath>
</defs>
<path clip-path="url(#clip070)" d="M279.704 1423.18 L2352.76 1423.18 L2352.76 123.472 L279.704 123.472  Z" fill="#271924" fill-rule="evenodd" fill-opacity="1"></path>
<defs>
  <clipPath id="clip072">
    <rect x="279" y="123" width="2074" height="1301"></rect>
  </clipPath>
</defs>
<polyline clip-path="url(#clip072)" style="stroke:#ebfb73; stroke-linecap:round; stroke-linejoin:round; stroke-width:2; stroke-opacity:0.1; fill:none" points="338.375,1423.18 338.375,123.472 "></polyline>
<polyline clip-path="url(#clip072)" style="stroke:#ebfb73; stroke-linecap:round; stroke-linejoin:round; stroke-width:2; stroke-opacity:0.1; fill:none" points="729.517,1423.18 729.517,123.472 "></polyline>
<polyline clip-path="url(#clip072)" style="stroke:#ebfb73; stroke-linecap:round; stroke-linejoin:round; stroke-width:2; stroke-opacity:0.1; fill:none" points="1120.66,1423.18 1120.66,123.472 "></polyline>
<polyline clip-path="url(#clip072)" style="stroke:#ebfb73; stroke-linecap:round; stroke-linejoin:round; stroke-width:2; stroke-opacity:0.1; fill:none" points="1511.8,1423.18 1511.8,123.472 "></polyline>
<polyline clip-path="url(#clip072)" style="stroke:#ebfb73; stroke-linecap:round; stroke-linejoin:round; stroke-width:2; stroke-opacity:0.1; fill:none" points="1902.94,1423.18 1902.94,123.472 "></polyline>
<polyline clip-path="url(#clip072)" style="stroke:#ebfb73; stroke-linecap:round; stroke-linejoin:round; stroke-width:2; stroke-opacity:0.1; fill:none" points="2294.08,1423.18 2294.08,123.472 "></polyline>
<polyline clip-path="url(#clip070)" style="stroke:#ebfb73; stroke-linecap:round; stroke-linejoin:round; stroke-width:4; stroke-opacity:1; fill:none" points="279.704,1423.18 2352.76,1423.18 "></polyline>
<polyline clip-path="url(#clip070)" style="stroke:#ebfb73; stroke-linecap:round; stroke-linejoin:round; stroke-width:4; stroke-opacity:1; fill:none" points="338.375,1423.18 338.375,1404.28 "></polyline>
<polyline clip-path="url(#clip070)" style="stroke:#ebfb73; stroke-linecap:round; stroke-linejoin:round; stroke-width:4; stroke-opacity:1; fill:none" points="729.517,1423.18 729.517,1404.28 "></polyline>
<polyline clip-path="url(#clip070)" style="stroke:#ebfb73; stroke-linecap:round; stroke-linejoin:round; stroke-width:4; stroke-opacity:1; fill:none" points="1120.66,1423.18 1120.66,1404.28 "></polyline>
<polyline clip-path="url(#clip070)" style="stroke:#ebfb73; stroke-linecap:round; stroke-linejoin:round; stroke-width:4; stroke-opacity:1; fill:none" points="1511.8,1423.18 1511.8,1404.28 "></polyline>
<polyline clip-path="url(#clip070)" style="stroke:#ebfb73; stroke-linecap:round; stroke-linejoin:round; stroke-width:4; stroke-opacity:1; fill:none" points="1902.94,1423.18 1902.94,1404.28 "></polyline>
<polyline clip-path="url(#clip070)" style="stroke:#ebfb73; stroke-linecap:round; stroke-linejoin:round; stroke-width:4; stroke-opacity:1; fill:none" points="2294.08,1423.18 2294.08,1404.28 "></polyline>
<path clip-path="url(#clip070)" d="M301.176 1454.1 Q297.565 1454.1 295.737 1457.66 Q293.931 1461.2 293.931 1468.33 Q293.931 1475.44 295.737 1479.01 Q297.565 1482.55 301.176 1482.55 Q304.811 1482.55 306.616 1479.01 Q308.445 1475.44 308.445 1468.33 Q308.445 1461.2 306.616 1457.66 Q304.811 1454.1 301.176 1454.1 M301.176 1450.39 Q306.986 1450.39 310.042 1455 Q313.121 1459.58 313.121 1468.33 Q313.121 1477.06 310.042 1481.67 Q306.986 1486.25 301.176 1486.25 Q295.366 1486.25 292.287 1481.67 Q289.232 1477.06 289.232 1468.33 Q289.232 1459.58 292.287 1455 Q295.366 1450.39 301.176 1450.39 Z" fill="#80d584" fill-rule="nonzero" fill-opacity="1"></path><path clip-path="url(#clip070)" d="M321.338 1479.7 L326.222 1479.7 L326.222 1485.58 L321.338 1485.58 L321.338 1479.7 Z" fill="#80d584" fill-rule="nonzero" fill-opacity="1"></path><path clip-path="url(#clip070)" d="M335.227 1451.02 L357.449 1451.02 L357.449 1453.01 L344.903 1485.58 L340.019 1485.58 L351.824 1454.96 L335.227 1454.96 L335.227 1451.02 Z" fill="#80d584" fill-rule="nonzero" fill-opacity="1"></path><path clip-path="url(#clip070)" d="M366.616 1451.02 L384.972 1451.02 L384.972 1454.96 L370.898 1454.96 L370.898 1463.43 Q371.917 1463.08 372.935 1462.92 Q373.954 1462.73 374.972 1462.73 Q380.759 1462.73 384.139 1465.9 Q387.518 1469.08 387.518 1474.49 Q387.518 1480.07 384.046 1483.17 Q380.574 1486.25 374.255 1486.25 Q372.079 1486.25 369.81 1485.88 Q367.565 1485.51 365.157 1484.77 L365.157 1480.07 Q367.241 1481.2 369.463 1481.76 Q371.685 1482.32 374.162 1482.32 Q378.167 1482.32 380.505 1480.21 Q382.843 1478.1 382.843 1474.49 Q382.843 1470.88 380.505 1468.77 Q378.167 1466.67 374.162 1466.67 Q372.287 1466.67 370.412 1467.08 Q368.56 1467.5 366.616 1468.38 L366.616 1451.02 Z" fill="#80d584" fill-rule="nonzero" fill-opacity="1"></path><path clip-path="url(#clip070)" d="M691.821 1454.1 Q688.209 1454.1 686.381 1457.66 Q684.575 1461.2 684.575 1468.33 Q684.575 1475.44 686.381 1479.01 Q688.209 1482.55 691.821 1482.55 Q695.455 1482.55 697.26 1479.01 Q699.089 1475.44 699.089 1468.33 Q699.089 1461.2 697.26 1457.66 Q695.455 1454.1 691.821 1454.1 M691.821 1450.39 Q697.631 1450.39 700.686 1455 Q703.765 1459.58 703.765 1468.33 Q703.765 1477.06 700.686 1481.67 Q697.631 1486.25 691.821 1486.25 Q686.01 1486.25 682.932 1481.67 Q679.876 1477.06 679.876 1468.33 Q679.876 1459.58 682.932 1455 Q686.01 1450.39 691.821 1450.39 Z" fill="#80d584" fill-rule="nonzero" fill-opacity="1"></path><path clip-path="url(#clip070)" d="M711.982 1479.7 L716.867 1479.7 L716.867 1485.58 L711.982 1485.58 L711.982 1479.7 Z" fill="#80d584" fill-rule="nonzero" fill-opacity="1"></path><path clip-path="url(#clip070)" d="M737.052 1469.17 Q733.718 1469.17 731.797 1470.95 Q729.899 1472.73 729.899 1475.86 Q729.899 1478.98 731.797 1480.77 Q733.718 1482.55 737.052 1482.55 Q740.385 1482.55 742.306 1480.77 Q744.228 1478.96 744.228 1475.86 Q744.228 1472.73 742.306 1470.95 Q740.408 1469.17 737.052 1469.17 M732.376 1467.18 Q729.367 1466.44 727.677 1464.38 Q726.01 1462.32 726.01 1459.35 Q726.01 1455.21 728.95 1452.8 Q731.913 1450.39 737.052 1450.39 Q742.214 1450.39 745.154 1452.8 Q748.093 1455.21 748.093 1459.35 Q748.093 1462.32 746.404 1464.38 Q744.737 1466.44 741.751 1467.18 Q745.13 1467.96 747.005 1470.26 Q748.904 1472.55 748.904 1475.86 Q748.904 1480.88 745.825 1483.57 Q742.769 1486.25 737.052 1486.25 Q731.334 1486.25 728.256 1483.57 Q725.2 1480.88 725.2 1475.86 Q725.2 1472.55 727.098 1470.26 Q728.996 1467.96 732.376 1467.18 M730.663 1459.79 Q730.663 1462.48 732.33 1463.98 Q734.019 1465.49 737.052 1465.49 Q740.061 1465.49 741.751 1463.98 Q743.464 1462.48 743.464 1459.79 Q743.464 1457.11 741.751 1455.6 Q740.061 1454.1 737.052 1454.1 Q734.019 1454.1 732.33 1455.6 Q730.663 1457.11 730.663 1459.79 Z" fill="#80d584" fill-rule="nonzero" fill-opacity="1"></path><path clip-path="url(#clip070)" d="M767.214 1454.1 Q763.603 1454.1 761.774 1457.66 Q759.968 1461.2 759.968 1468.33 Q759.968 1475.44 761.774 1479.01 Q763.603 1482.55 767.214 1482.55 Q770.848 1482.55 772.653 1479.01 Q774.482 1475.44 774.482 1468.33 Q774.482 1461.2 772.653 1457.66 Q770.848 1454.1 767.214 1454.1 M767.214 1450.39 Q773.024 1450.39 776.079 1455 Q779.158 1459.58 779.158 1468.33 Q779.158 1477.06 776.079 1481.67 Q773.024 1486.25 767.214 1486.25 Q761.403 1486.25 758.325 1481.67 Q755.269 1477.06 755.269 1468.33 Q755.269 1459.58 758.325 1455 Q761.403 1450.39 767.214 1450.39 Z" fill="#80d584" fill-rule="nonzero" fill-opacity="1"></path><path clip-path="url(#clip070)" d="M1083.46 1454.1 Q1079.85 1454.1 1078.02 1457.66 Q1076.21 1461.2 1076.21 1468.33 Q1076.21 1475.44 1078.02 1479.01 Q1079.85 1482.55 1083.46 1482.55 Q1087.09 1482.55 1088.9 1479.01 Q1090.73 1475.44 1090.73 1468.33 Q1090.73 1461.2 1088.9 1457.66 Q1087.09 1454.1 1083.46 1454.1 M1083.46 1450.39 Q1089.27 1450.39 1092.33 1455 Q1095.4 1459.58 1095.4 1468.33 Q1095.4 1477.06 1092.33 1481.67 Q1089.27 1486.25 1083.46 1486.25 Q1077.65 1486.25 1074.57 1481.67 Q1071.52 1477.06 1071.52 1468.33 Q1071.52 1459.58 1074.57 1455 Q1077.65 1450.39 1083.46 1450.39 Z" fill="#80d584" fill-rule="nonzero" fill-opacity="1"></path><path clip-path="url(#clip070)" d="M1103.62 1479.7 L1108.51 1479.7 L1108.51 1485.58 L1103.62 1485.58 L1103.62 1479.7 Z" fill="#80d584" fill-rule="nonzero" fill-opacity="1"></path><path clip-path="url(#clip070)" d="M1128.69 1469.17 Q1125.36 1469.17 1123.44 1470.95 Q1121.54 1472.73 1121.54 1475.86 Q1121.54 1478.98 1123.44 1480.77 Q1125.36 1482.55 1128.69 1482.55 Q1132.02 1482.55 1133.95 1480.77 Q1135.87 1478.96 1135.87 1475.86 Q1135.87 1472.73 1133.95 1470.95 Q1132.05 1469.17 1128.69 1469.17 M1124.02 1467.18 Q1121.01 1466.44 1119.32 1464.38 Q1117.65 1462.32 1117.65 1459.35 Q1117.65 1455.21 1120.59 1452.8 Q1123.55 1450.39 1128.69 1450.39 Q1133.85 1450.39 1136.79 1452.8 Q1139.73 1455.21 1139.73 1459.35 Q1139.73 1462.32 1138.04 1464.38 Q1136.38 1466.44 1133.39 1467.18 Q1136.77 1467.96 1138.64 1470.26 Q1140.54 1472.55 1140.54 1475.86 Q1140.54 1480.88 1137.46 1483.57 Q1134.41 1486.25 1128.69 1486.25 Q1122.97 1486.25 1119.9 1483.57 Q1116.84 1480.88 1116.84 1475.86 Q1116.84 1472.55 1118.74 1470.26 Q1120.64 1467.96 1124.02 1467.18 M1122.3 1459.79 Q1122.3 1462.48 1123.97 1463.98 Q1125.66 1465.49 1128.69 1465.49 Q1131.7 1465.49 1133.39 1463.98 Q1135.1 1462.48 1135.1 1459.79 Q1135.1 1457.11 1133.39 1455.6 Q1131.7 1454.1 1128.69 1454.1 Q1125.66 1454.1 1123.97 1455.6 Q1122.3 1457.11 1122.3 1459.79 Z" fill="#80d584" fill-rule="nonzero" fill-opacity="1"></path><path clip-path="url(#clip070)" d="M1148.9 1451.02 L1167.26 1451.02 L1167.26 1454.96 L1153.18 1454.96 L1153.18 1463.43 Q1154.2 1463.08 1155.22 1462.92 Q1156.24 1462.73 1157.26 1462.73 Q1163.04 1462.73 1166.42 1465.9 Q1169.8 1469.08 1169.8 1474.49 Q1169.8 1480.07 1166.33 1483.17 Q1162.86 1486.25 1156.54 1486.25 Q1154.36 1486.25 1152.09 1485.88 Q1149.85 1485.51 1147.44 1484.77 L1147.44 1480.07 Q1149.52 1481.2 1151.75 1481.76 Q1153.97 1482.32 1156.45 1482.32 Q1160.45 1482.32 1162.79 1480.21 Q1165.13 1478.1 1165.13 1474.49 Q1165.13 1470.88 1162.79 1468.77 Q1160.45 1466.67 1156.45 1466.67 Q1154.57 1466.67 1152.7 1467.08 Q1150.84 1467.5 1148.9 1468.38 L1148.9 1451.02 Z" fill="#80d584" fill-rule="nonzero" fill-opacity="1"></path><path clip-path="url(#clip070)" d="M1474.1 1454.1 Q1470.49 1454.1 1468.66 1457.66 Q1466.86 1461.2 1466.86 1468.33 Q1466.86 1475.44 1468.66 1479.01 Q1470.49 1482.55 1474.1 1482.55 Q1477.74 1482.55 1479.54 1479.01 Q1481.37 1475.44 1481.37 1468.33 Q1481.37 1461.2 1479.54 1457.66 Q1477.74 1454.1 1474.1 1454.1 M1474.1 1450.39 Q1479.91 1450.39 1482.97 1455 Q1486.05 1459.58 1486.05 1468.33 Q1486.05 1477.06 1482.97 1481.67 Q1479.91 1486.25 1474.1 1486.25 Q1468.29 1486.25 1465.22 1481.67 Q1462.16 1477.06 1462.16 1468.33 Q1462.16 1459.58 1465.22 1455 Q1468.29 1450.39 1474.1 1450.39 Z" fill="#80d584" fill-rule="nonzero" fill-opacity="1"></path><path clip-path="url(#clip070)" d="M1494.27 1479.7 L1499.15 1479.7 L1499.15 1485.58 L1494.27 1485.58 L1494.27 1479.7 Z" fill="#80d584" fill-rule="nonzero" fill-opacity="1"></path><path clip-path="url(#clip070)" d="M1509.47 1484.86 L1509.47 1480.6 Q1511.23 1481.44 1513.04 1481.88 Q1514.84 1482.32 1516.58 1482.32 Q1521.21 1482.32 1523.64 1479.21 Q1526.09 1476.09 1526.44 1469.75 Q1525.1 1471.74 1523.04 1472.8 Q1520.98 1473.87 1518.48 1473.87 Q1513.29 1473.87 1510.26 1470.74 Q1507.25 1467.59 1507.25 1462.15 Q1507.25 1456.83 1510.4 1453.61 Q1513.55 1450.39 1518.78 1450.39 Q1524.78 1450.39 1527.92 1455 Q1531.09 1459.58 1531.09 1468.33 Q1531.09 1476.51 1527.21 1481.39 Q1523.34 1486.25 1516.79 1486.25 Q1515.03 1486.25 1513.22 1485.9 Q1511.42 1485.56 1509.47 1484.86 M1518.78 1470.21 Q1521.93 1470.21 1523.76 1468.06 Q1525.61 1465.9 1525.61 1462.15 Q1525.61 1458.43 1523.76 1456.27 Q1521.93 1454.1 1518.78 1454.1 Q1515.63 1454.1 1513.78 1456.27 Q1511.95 1458.43 1511.95 1462.15 Q1511.95 1465.9 1513.78 1468.06 Q1515.63 1470.21 1518.78 1470.21 Z" fill="#80d584" fill-rule="nonzero" fill-opacity="1"></path><path clip-path="url(#clip070)" d="M1549.5 1454.1 Q1545.89 1454.1 1544.06 1457.66 Q1542.25 1461.2 1542.25 1468.33 Q1542.25 1475.44 1544.06 1479.01 Q1545.89 1482.55 1549.5 1482.55 Q1553.13 1482.55 1554.94 1479.01 Q1556.77 1475.44 1556.77 1468.33 Q1556.77 1461.2 1554.94 1457.66 Q1553.13 1454.1 1549.5 1454.1 M1549.5 1450.39 Q1555.31 1450.39 1558.36 1455 Q1561.44 1459.58 1561.44 1468.33 Q1561.44 1477.06 1558.36 1481.67 Q1555.31 1486.25 1549.5 1486.25 Q1543.69 1486.25 1540.61 1481.67 Q1537.55 1477.06 1537.55 1468.33 Q1537.55 1459.58 1540.61 1455 Q1543.69 1450.39 1549.5 1450.39 Z" fill="#80d584" fill-rule="nonzero" fill-opacity="1"></path><path clip-path="url(#clip070)" d="M1865.74 1454.1 Q1862.13 1454.1 1860.3 1457.66 Q1858.5 1461.2 1858.5 1468.33 Q1858.5 1475.44 1860.3 1479.01 Q1862.13 1482.55 1865.74 1482.55 Q1869.38 1482.55 1871.18 1479.01 Q1873.01 1475.44 1873.01 1468.33 Q1873.01 1461.2 1871.18 1457.66 Q1869.38 1454.1 1865.74 1454.1 M1865.74 1450.39 Q1871.55 1450.39 1874.61 1455 Q1877.69 1459.58 1877.69 1468.33 Q1877.69 1477.06 1874.61 1481.67 Q1871.55 1486.25 1865.74 1486.25 Q1859.93 1486.25 1856.86 1481.67 Q1853.8 1477.06 1853.8 1468.33 Q1853.8 1459.58 1856.86 1455 Q1859.93 1450.39 1865.74 1450.39 Z" fill="#80d584" fill-rule="nonzero" fill-opacity="1"></path><path clip-path="url(#clip070)" d="M1885.91 1479.7 L1890.79 1479.7 L1890.79 1485.58 L1885.91 1485.58 L1885.91 1479.7 Z" fill="#80d584" fill-rule="nonzero" fill-opacity="1"></path><path clip-path="url(#clip070)" d="M1901.11 1484.86 L1901.11 1480.6 Q1902.87 1481.44 1904.68 1481.88 Q1906.48 1482.32 1908.22 1482.32 Q1912.85 1482.32 1915.28 1479.21 Q1917.73 1476.09 1918.08 1469.75 Q1916.74 1471.74 1914.68 1472.8 Q1912.62 1473.87 1910.12 1473.87 Q1904.93 1473.87 1901.9 1470.74 Q1898.89 1467.59 1898.89 1462.15 Q1898.89 1456.83 1902.04 1453.61 Q1905.19 1450.39 1910.42 1450.39 Q1916.41 1450.39 1919.56 1455 Q1922.73 1459.58 1922.73 1468.33 Q1922.73 1476.51 1918.85 1481.39 Q1914.98 1486.25 1908.43 1486.25 Q1906.67 1486.25 1904.86 1485.9 Q1903.06 1485.56 1901.11 1484.86 M1910.42 1470.21 Q1913.57 1470.21 1915.4 1468.06 Q1917.25 1465.9 1917.25 1462.15 Q1917.25 1458.43 1915.4 1456.27 Q1913.57 1454.1 1910.42 1454.1 Q1907.27 1454.1 1905.42 1456.27 Q1903.59 1458.43 1903.59 1462.15 Q1903.59 1465.9 1905.42 1468.06 Q1907.27 1470.21 1910.42 1470.21 Z" fill="#80d584" fill-rule="nonzero" fill-opacity="1"></path><path clip-path="url(#clip070)" d="M1931.18 1451.02 L1949.54 1451.02 L1949.54 1454.96 L1935.47 1454.96 L1935.47 1463.43 Q1936.48 1463.08 1937.5 1462.92 Q1938.52 1462.73 1939.54 1462.73 Q1945.33 1462.73 1948.71 1465.9 Q1952.09 1469.08 1952.09 1474.49 Q1952.09 1480.07 1948.61 1483.17 Q1945.14 1486.25 1938.82 1486.25 Q1936.65 1486.25 1934.38 1485.88 Q1932.13 1485.51 1929.73 1484.77 L1929.73 1480.07 Q1931.81 1481.2 1934.03 1481.76 Q1936.25 1482.32 1938.73 1482.32 Q1942.73 1482.32 1945.07 1480.21 Q1947.41 1478.1 1947.41 1474.49 Q1947.41 1470.88 1945.07 1468.77 Q1942.73 1466.67 1938.73 1466.67 Q1936.85 1466.67 1934.98 1467.08 Q1933.13 1467.5 1931.18 1468.38 L1931.18 1451.02 Z" fill="#80d584" fill-rule="nonzero" fill-opacity="1"></path><path clip-path="url(#clip070)" d="M2246.16 1481.64 L2253.8 1481.64 L2253.8 1455.28 L2245.49 1456.95 L2245.49 1452.69 L2253.75 1451.02 L2258.43 1451.02 L2258.43 1481.64 L2266.06 1481.64 L2266.06 1485.58 L2246.16 1485.58 L2246.16 1481.64 Z" fill="#80d584" fill-rule="nonzero" fill-opacity="1"></path><path clip-path="url(#clip070)" d="M2275.51 1479.7 L2280.39 1479.7 L2280.39 1485.58 L2275.51 1485.58 L2275.51 1479.7 Z" fill="#80d584" fill-rule="nonzero" fill-opacity="1"></path><path clip-path="url(#clip070)" d="M2300.58 1454.1 Q2296.97 1454.1 2295.14 1457.66 Q2293.33 1461.2 2293.33 1468.33 Q2293.33 1475.44 2295.14 1479.01 Q2296.97 1482.55 2300.58 1482.55 Q2304.21 1482.55 2306.02 1479.01 Q2307.85 1475.44 2307.85 1468.33 Q2307.85 1461.2 2306.02 1457.66 Q2304.21 1454.1 2300.58 1454.1 M2300.58 1450.39 Q2306.39 1450.39 2309.44 1455 Q2312.52 1459.58 2312.52 1468.33 Q2312.52 1477.06 2309.44 1481.67 Q2306.39 1486.25 2300.58 1486.25 Q2294.77 1486.25 2291.69 1481.67 Q2288.63 1477.06 2288.63 1468.33 Q2288.63 1459.58 2291.69 1455 Q2294.77 1450.39 2300.58 1450.39 Z" fill="#80d584" fill-rule="nonzero" fill-opacity="1"></path><path clip-path="url(#clip070)" d="M2330.74 1454.1 Q2327.13 1454.1 2325.3 1457.66 Q2323.49 1461.2 2323.49 1468.33 Q2323.49 1475.44 2325.3 1479.01 Q2327.13 1482.55 2330.74 1482.55 Q2334.37 1482.55 2336.18 1479.01 Q2338.01 1475.44 2338.01 1468.33 Q2338.01 1461.2 2336.18 1457.66 Q2334.37 1454.1 2330.74 1454.1 M2330.74 1450.39 Q2336.55 1450.39 2339.61 1455 Q2342.68 1459.58 2342.68 1468.33 Q2342.68 1477.06 2339.61 1481.67 Q2336.55 1486.25 2330.74 1486.25 Q2324.93 1486.25 2321.85 1481.67 Q2318.8 1477.06 2318.8 1468.33 Q2318.8 1459.58 2321.85 1455 Q2324.93 1450.39 2330.74 1450.39 Z" fill="#80d584" fill-rule="nonzero" fill-opacity="1"></path><path clip-path="url(#clip070)" d="M1148.46 1520.52 L1154.89 1520.52 L1154.89 1540 L1178.25 1540 L1178.25 1520.52 L1184.68 1520.52 L1184.68 1568.04 L1178.25 1568.04 L1178.25 1545.41 L1154.89 1545.41 L1154.89 1568.04 L1148.46 1568.04 L1148.46 1520.52 Z" fill="#80d584" fill-rule="nonzero" fill-opacity="1"></path><path clip-path="url(#clip070)" d="M1211.04 1536.5 Q1206.33 1536.5 1203.59 1540.19 Q1200.85 1543.85 1200.85 1550.25 Q1200.85 1556.65 1203.56 1560.34 Q1206.29 1564 1211.04 1564 Q1215.72 1564 1218.45 1560.31 Q1221.19 1556.62 1221.19 1550.25 Q1221.19 1543.92 1218.45 1540.23 Q1215.72 1536.5 1211.04 1536.5 M1211.04 1531.54 Q1218.68 1531.54 1223.04 1536.5 Q1227.4 1541.47 1227.4 1550.25 Q1227.4 1559 1223.04 1564 Q1218.68 1568.97 1211.04 1568.97 Q1203.37 1568.97 1199.01 1564 Q1194.68 1559 1194.68 1550.25 Q1194.68 1541.47 1199.01 1536.5 Q1203.37 1531.54 1211.04 1531.54 Z" fill="#80d584" fill-rule="nonzero" fill-opacity="1"></path><path clip-path="url(#clip070)" d="M1242.77 1562.7 L1242.77 1581.6 L1236.88 1581.6 L1236.88 1532.4 L1242.77 1532.4 L1242.77 1537.81 Q1244.62 1534.62 1247.42 1533.1 Q1250.25 1531.54 1254.16 1531.54 Q1260.66 1531.54 1264.7 1536.69 Q1268.77 1541.85 1268.77 1550.25 Q1268.77 1558.65 1264.7 1563.81 Q1260.66 1568.97 1254.16 1568.97 Q1250.25 1568.97 1247.42 1567.44 Q1244.62 1565.88 1242.77 1562.7 M1262.69 1550.25 Q1262.69 1543.79 1260.02 1540.13 Q1257.38 1536.44 1252.73 1536.44 Q1248.09 1536.44 1245.41 1540.13 Q1242.77 1543.79 1242.77 1550.25 Q1242.77 1556.71 1245.41 1560.4 Q1248.09 1564.07 1252.73 1564.07 Q1257.38 1564.07 1260.02 1560.4 Q1262.69 1556.71 1262.69 1550.25 Z" fill="#80d584" fill-rule="nonzero" fill-opacity="1"></path><path clip-path="url(#clip070)" d="M1319.86 1537.87 Q1318.87 1537.3 1317.69 1537.04 Q1316.55 1536.76 1315.15 1536.76 Q1310.18 1536.76 1307.51 1540 Q1304.87 1543.22 1304.87 1549.27 L1304.87 1568.04 L1298.98 1568.04 L1298.98 1532.4 L1304.87 1532.4 L1304.87 1537.93 Q1306.71 1534.69 1309.67 1533.13 Q1312.63 1531.54 1316.87 1531.54 Q1317.47 1531.54 1318.2 1531.63 Q1318.94 1531.7 1319.83 1531.85 L1319.86 1537.87 Z" fill="#80d584" fill-rule="nonzero" fill-opacity="1"></path><path clip-path="url(#clip070)" d="M1342.2 1550.12 Q1335.1 1550.12 1332.37 1551.75 Q1329.63 1553.37 1329.63 1557.29 Q1329.63 1560.4 1331.67 1562.25 Q1333.74 1564.07 1337.27 1564.07 Q1342.14 1564.07 1345.07 1560.63 Q1348.03 1557.16 1348.03 1551.43 L1348.03 1550.12 L1342.2 1550.12 M1353.88 1547.71 L1353.88 1568.04 L1348.03 1568.04 L1348.03 1562.63 Q1346.02 1565.88 1343.03 1567.44 Q1340.04 1568.97 1335.71 1568.97 Q1330.23 1568.97 1326.99 1565.91 Q1323.77 1562.82 1323.77 1557.67 Q1323.77 1551.65 1327.78 1548.6 Q1331.83 1545.54 1339.81 1545.54 L1348.03 1545.54 L1348.03 1544.97 Q1348.03 1540.93 1345.35 1538.73 Q1342.71 1536.5 1337.91 1536.5 Q1334.85 1536.5 1331.95 1537.23 Q1329.06 1537.97 1326.38 1539.43 L1326.38 1534.02 Q1329.6 1532.78 1332.62 1532.17 Q1335.65 1531.54 1338.51 1531.54 Q1346.24 1531.54 1350.06 1535.55 Q1353.88 1539.56 1353.88 1547.71 Z" fill="#80d584" fill-rule="nonzero" fill-opacity="1"></path><path clip-path="url(#clip070)" d="M1371.74 1522.27 L1371.74 1532.4 L1383.8 1532.4 L1383.8 1536.95 L1371.74 1536.95 L1371.74 1556.3 Q1371.74 1560.66 1372.92 1561.9 Q1374.13 1563.14 1377.79 1563.14 L1383.8 1563.14 L1383.8 1568.04 L1377.79 1568.04 Q1371.01 1568.04 1368.43 1565.53 Q1365.85 1562.98 1365.85 1556.3 L1365.85 1536.95 L1361.55 1536.95 L1361.55 1532.4 L1365.85 1532.4 L1365.85 1522.27 L1371.74 1522.27 Z" fill="#80d584" fill-rule="nonzero" fill-opacity="1"></path><path clip-path="url(#clip070)" d="M1422 1548.76 L1422 1551.62 L1395.07 1551.62 Q1395.45 1557.67 1398.7 1560.85 Q1401.98 1564 1407.8 1564 Q1411.17 1564 1414.33 1563.17 Q1417.51 1562.35 1420.63 1560.69 L1420.63 1566.23 Q1417.48 1567.57 1414.17 1568.27 Q1410.86 1568.97 1407.45 1568.97 Q1398.92 1568.97 1393.92 1564 Q1388.96 1559.04 1388.96 1550.57 Q1388.96 1541.82 1393.67 1536.69 Q1398.41 1531.54 1406.43 1531.54 Q1413.63 1531.54 1417.79 1536.18 Q1422 1540.8 1422 1548.76 M1416.14 1547.04 Q1416.08 1542.23 1413.43 1539.37 Q1410.82 1536.5 1406.5 1536.5 Q1401.59 1536.5 1398.63 1539.27 Q1395.71 1542.04 1395.26 1547.07 L1416.14 1547.04 Z" fill="#80d584" fill-rule="nonzero" fill-opacity="1"></path><path clip-path="url(#clip070)" d="M1457.99 1562.7 L1457.99 1581.6 L1452.11 1581.6 L1452.11 1532.4 L1457.99 1532.4 L1457.99 1537.81 Q1459.84 1534.62 1462.64 1533.1 Q1465.47 1531.54 1469.39 1531.54 Q1475.88 1531.54 1479.92 1536.69 Q1484 1541.85 1484 1550.25 Q1484 1558.65 1479.92 1563.81 Q1475.88 1568.97 1469.39 1568.97 Q1465.47 1568.97 1462.64 1567.44 Q1459.84 1565.88 1457.99 1562.7 M1477.92 1550.25 Q1477.92 1543.79 1475.25 1540.13 Q1472.6 1536.44 1467.96 1536.44 Q1463.31 1536.44 1460.64 1540.13 Q1457.99 1543.79 1457.99 1550.25 Q1457.99 1556.71 1460.64 1560.4 Q1463.31 1564.07 1467.96 1564.07 Q1472.6 1564.07 1475.25 1560.4 Q1477.92 1556.71 1477.92 1550.25 Z" fill="#80d584" fill-rule="nonzero" fill-opacity="1"></path><polyline clip-path="url(#clip072)" style="stroke:#ebfb73; stroke-linecap:round; stroke-linejoin:round; stroke-width:2; stroke-opacity:0.1; fill:none" points="279.704,1290.95 2352.76,1290.95 "></polyline>
<polyline clip-path="url(#clip072)" style="stroke:#ebfb73; stroke-linecap:round; stroke-linejoin:round; stroke-width:2; stroke-opacity:0.1; fill:none" points="279.704,1107.39 2352.76,1107.39 "></polyline>
<polyline clip-path="url(#clip072)" style="stroke:#ebfb73; stroke-linecap:round; stroke-linejoin:round; stroke-width:2; stroke-opacity:0.1; fill:none" points="279.704,923.84 2352.76,923.84 "></polyline>
<polyline clip-path="url(#clip072)" style="stroke:#ebfb73; stroke-linecap:round; stroke-linejoin:round; stroke-width:2; stroke-opacity:0.1; fill:none" points="279.704,740.286 2352.76,740.286 "></polyline>
<polyline clip-path="url(#clip072)" style="stroke:#ebfb73; stroke-linecap:round; stroke-linejoin:round; stroke-width:2; stroke-opacity:0.1; fill:none" points="279.704,556.733 2352.76,556.733 "></polyline>
<polyline clip-path="url(#clip072)" style="stroke:#ebfb73; stroke-linecap:round; stroke-linejoin:round; stroke-width:2; stroke-opacity:0.1; fill:none" points="279.704,373.179 2352.76,373.179 "></polyline>
<polyline clip-path="url(#clip072)" style="stroke:#ebfb73; stroke-linecap:round; stroke-linejoin:round; stroke-width:2; stroke-opacity:0.1; fill:none" points="279.704,189.625 2352.76,189.625 "></polyline>
<polyline clip-path="url(#clip070)" style="stroke:#ebfb73; stroke-linecap:round; stroke-linejoin:round; stroke-width:4; stroke-opacity:1; fill:none" points="279.704,1423.18 279.704,123.472 "></polyline>
<polyline clip-path="url(#clip070)" style="stroke:#ebfb73; stroke-linecap:round; stroke-linejoin:round; stroke-width:4; stroke-opacity:1; fill:none" points="279.704,1290.95 298.602,1290.95 "></polyline>
<polyline clip-path="url(#clip070)" style="stroke:#ebfb73; stroke-linecap:round; stroke-linejoin:round; stroke-width:4; stroke-opacity:1; fill:none" points="279.704,1107.39 298.602,1107.39 "></polyline>
<polyline clip-path="url(#clip070)" style="stroke:#ebfb73; stroke-linecap:round; stroke-linejoin:round; stroke-width:4; stroke-opacity:1; fill:none" points="279.704,923.84 298.602,923.84 "></polyline>
<polyline clip-path="url(#clip070)" style="stroke:#ebfb73; stroke-linecap:round; stroke-linejoin:round; stroke-width:4; stroke-opacity:1; fill:none" points="279.704,740.286 298.602,740.286 "></polyline>
<polyline clip-path="url(#clip070)" style="stroke:#ebfb73; stroke-linecap:round; stroke-linejoin:round; stroke-width:4; stroke-opacity:1; fill:none" points="279.704,556.733 298.602,556.733 "></polyline>
<polyline clip-path="url(#clip070)" style="stroke:#ebfb73; stroke-linecap:round; stroke-linejoin:round; stroke-width:4; stroke-opacity:1; fill:none" points="279.704,373.179 298.602,373.179 "></polyline>
<polyline clip-path="url(#clip070)" style="stroke:#ebfb73; stroke-linecap:round; stroke-linejoin:round; stroke-width:4; stroke-opacity:1; fill:none" points="279.704,189.625 298.602,189.625 "></polyline>
<path clip-path="url(#clip070)" d="M127.2 1276.75 Q123.589 1276.75 121.76 1280.31 Q119.955 1283.85 119.955 1290.98 Q119.955 1298.09 121.76 1301.65 Q123.589 1305.2 127.2 1305.2 Q130.834 1305.2 132.64 1301.65 Q134.468 1298.09 134.468 1290.98 Q134.468 1283.85 132.64 1280.31 Q130.834 1276.75 127.2 1276.75 M127.2 1273.04 Q133.01 1273.04 136.066 1277.65 Q139.144 1282.23 139.144 1290.98 Q139.144 1299.71 136.066 1304.32 Q133.01 1308.9 127.2 1308.9 Q121.39 1308.9 118.311 1304.32 Q115.256 1299.71 115.256 1290.98 Q115.256 1282.23 118.311 1277.65 Q121.39 1273.04 127.2 1273.04 Z" fill="#80d584" fill-rule="nonzero" fill-opacity="1"></path><path clip-path="url(#clip070)" d="M147.362 1302.35 L152.246 1302.35 L152.246 1308.23 L147.362 1308.23 L147.362 1302.35 Z" fill="#80d584" fill-rule="nonzero" fill-opacity="1"></path><path clip-path="url(#clip070)" d="M166.459 1304.29 L182.778 1304.29 L182.778 1308.23 L160.834 1308.23 L160.834 1304.29 Q163.496 1301.54 168.079 1296.91 Q172.686 1292.26 173.866 1290.91 Q176.112 1288.39 176.991 1286.65 Q177.894 1284.89 177.894 1283.2 Q177.894 1280.45 175.95 1278.71 Q174.028 1276.98 170.927 1276.98 Q168.727 1276.98 166.274 1277.74 Q163.843 1278.51 161.065 1280.06 L161.065 1275.33 Q163.89 1274.2 166.343 1273.62 Q168.797 1273.04 170.834 1273.04 Q176.204 1273.04 179.399 1275.73 Q182.593 1278.41 182.593 1282.9 Q182.593 1285.03 181.783 1286.95 Q180.996 1288.85 178.889 1291.45 Q178.311 1292.12 175.209 1295.33 Q172.107 1298.53 166.459 1304.29 Z" fill="#80d584" fill-rule="nonzero" fill-opacity="1"></path><path clip-path="url(#clip070)" d="M191.413 1273.67 L213.635 1273.67 L213.635 1275.66 L201.088 1308.23 L196.204 1308.23 L208.01 1277.6 L191.413 1277.6 L191.413 1273.67 Z" fill="#80d584" fill-rule="nonzero" fill-opacity="1"></path><path clip-path="url(#clip070)" d="M222.801 1273.67 L241.158 1273.67 L241.158 1277.6 L227.084 1277.6 L227.084 1286.08 Q228.102 1285.73 229.121 1285.57 Q230.139 1285.38 231.158 1285.38 Q236.945 1285.38 240.324 1288.55 Q243.704 1291.72 243.704 1297.14 Q243.704 1302.72 240.232 1305.82 Q236.76 1308.9 230.44 1308.9 Q228.264 1308.9 225.996 1308.53 Q223.75 1308.16 221.343 1307.42 L221.343 1302.72 Q223.426 1303.85 225.648 1304.41 Q227.871 1304.96 230.347 1304.96 Q234.352 1304.96 236.69 1302.86 Q239.028 1300.75 239.028 1297.14 Q239.028 1293.53 236.69 1291.42 Q234.352 1289.32 230.347 1289.32 Q228.473 1289.32 226.598 1289.73 Q224.746 1290.15 222.801 1291.03 L222.801 1273.67 Z" fill="#80d584" fill-rule="nonzero" fill-opacity="1"></path><path clip-path="url(#clip070)" d="M126.205 1093.19 Q122.593 1093.19 120.765 1096.76 Q118.959 1100.3 118.959 1107.43 Q118.959 1114.54 120.765 1118.1 Q122.593 1121.64 126.205 1121.64 Q129.839 1121.64 131.644 1118.1 Q133.473 1114.54 133.473 1107.43 Q133.473 1100.3 131.644 1096.76 Q129.839 1093.19 126.205 1093.19 M126.205 1089.49 Q132.015 1089.49 135.07 1094.1 Q138.149 1098.68 138.149 1107.43 Q138.149 1116.16 135.07 1120.76 Q132.015 1125.35 126.205 1125.35 Q120.394 1125.35 117.316 1120.76 Q114.26 1116.16 114.26 1107.43 Q114.26 1098.68 117.316 1094.1 Q120.394 1089.49 126.205 1089.49 Z" fill="#80d584" fill-rule="nonzero" fill-opacity="1"></path><path clip-path="url(#clip070)" d="M146.366 1118.79 L151.251 1118.79 L151.251 1124.67 L146.366 1124.67 L146.366 1118.79 Z" fill="#80d584" fill-rule="nonzero" fill-opacity="1"></path><path clip-path="url(#clip070)" d="M175.602 1106.04 Q178.959 1106.76 180.834 1109.03 Q182.732 1111.29 182.732 1114.63 Q182.732 1119.74 179.214 1122.54 Q175.695 1125.35 169.214 1125.35 Q167.038 1125.35 164.723 1124.91 Q162.431 1124.49 159.978 1123.63 L159.978 1119.12 Q161.922 1120.25 164.237 1120.83 Q166.552 1121.41 169.075 1121.41 Q173.473 1121.41 175.764 1119.67 Q178.079 1117.94 178.079 1114.63 Q178.079 1111.57 175.926 1109.86 Q173.797 1108.12 169.977 1108.12 L165.95 1108.12 L165.95 1104.28 L170.163 1104.28 Q173.612 1104.28 175.44 1102.91 Q177.269 1101.53 177.269 1098.93 Q177.269 1096.27 175.371 1094.86 Q173.496 1093.42 169.977 1093.42 Q168.056 1093.42 165.857 1093.84 Q163.658 1094.26 161.019 1095.14 L161.019 1090.97 Q163.681 1090.23 165.996 1089.86 Q168.334 1089.49 170.394 1089.49 Q175.718 1089.49 178.82 1091.92 Q181.922 1094.33 181.922 1098.45 Q181.922 1101.32 180.278 1103.31 Q178.635 1105.28 175.602 1106.04 Z" fill="#80d584" fill-rule="nonzero" fill-opacity="1"></path><path clip-path="url(#clip070)" d="M201.598 1093.19 Q197.987 1093.19 196.158 1096.76 Q194.352 1100.3 194.352 1107.43 Q194.352 1114.54 196.158 1118.1 Q197.987 1121.64 201.598 1121.64 Q205.232 1121.64 207.037 1118.1 Q208.866 1114.54 208.866 1107.43 Q208.866 1100.3 207.037 1096.76 Q205.232 1093.19 201.598 1093.19 M201.598 1089.49 Q207.408 1089.49 210.463 1094.1 Q213.542 1098.68 213.542 1107.43 Q213.542 1116.16 210.463 1120.76 Q207.408 1125.35 201.598 1125.35 Q195.787 1125.35 192.709 1120.76 Q189.653 1116.16 189.653 1107.43 Q189.653 1098.68 192.709 1094.1 Q195.787 1089.49 201.598 1089.49 Z" fill="#80d584" fill-rule="nonzero" fill-opacity="1"></path><path clip-path="url(#clip070)" d="M231.76 1093.19 Q228.148 1093.19 226.32 1096.76 Q224.514 1100.3 224.514 1107.43 Q224.514 1114.54 226.32 1118.1 Q228.148 1121.64 231.76 1121.64 Q235.394 1121.64 237.199 1118.1 Q239.028 1114.54 239.028 1107.43 Q239.028 1100.3 237.199 1096.76 Q235.394 1093.19 231.76 1093.19 M231.76 1089.49 Q237.57 1089.49 240.625 1094.1 Q243.704 1098.68 243.704 1107.43 Q243.704 1116.16 240.625 1120.76 Q237.57 1125.35 231.76 1125.35 Q225.949 1125.35 222.871 1120.76 Q219.815 1116.16 219.815 1107.43 Q219.815 1098.68 222.871 1094.1 Q225.949 1089.49 231.76 1089.49 Z" fill="#80d584" fill-rule="nonzero" fill-opacity="1"></path><path clip-path="url(#clip070)" d="M127.2 909.639 Q123.589 909.639 121.76 913.204 Q119.955 916.745 119.955 923.875 Q119.955 930.981 121.76 934.546 Q123.589 938.088 127.2 938.088 Q130.834 938.088 132.64 934.546 Q134.468 930.981 134.468 923.875 Q134.468 916.745 132.64 913.204 Q130.834 909.639 127.2 909.639 M127.2 905.935 Q133.01 905.935 136.066 910.542 Q139.144 915.125 139.144 923.875 Q139.144 932.602 136.066 937.208 Q133.01 941.791 127.2 941.791 Q121.39 941.791 118.311 937.208 Q115.256 932.602 115.256 923.875 Q115.256 915.125 118.311 910.542 Q121.39 905.935 127.2 905.935 Z" fill="#80d584" fill-rule="nonzero" fill-opacity="1"></path><path clip-path="url(#clip070)" d="M147.362 935.24 L152.246 935.24 L152.246 941.12 L147.362 941.12 L147.362 935.24 Z" fill="#80d584" fill-rule="nonzero" fill-opacity="1"></path><path clip-path="url(#clip070)" d="M176.598 922.486 Q179.954 923.204 181.829 925.472 Q183.727 927.741 183.727 931.074 Q183.727 936.19 180.209 938.99 Q176.69 941.791 170.209 941.791 Q168.033 941.791 165.718 941.352 Q163.427 940.935 160.973 940.078 L160.973 935.565 Q162.917 936.699 165.232 937.278 Q167.547 937.856 170.07 937.856 Q174.468 937.856 176.76 936.12 Q179.075 934.384 179.075 931.074 Q179.075 928.018 176.922 926.305 Q174.792 924.569 170.973 924.569 L166.945 924.569 L166.945 920.727 L171.158 920.727 Q174.607 920.727 176.436 919.361 Q178.264 917.972 178.264 915.379 Q178.264 912.717 176.366 911.305 Q174.491 909.87 170.973 909.87 Q169.052 909.87 166.852 910.287 Q164.653 910.704 162.015 911.583 L162.015 907.417 Q164.677 906.676 166.991 906.305 Q169.329 905.935 171.389 905.935 Q176.714 905.935 179.815 908.366 Q182.917 910.773 182.917 914.893 Q182.917 917.764 181.274 919.754 Q179.63 921.722 176.598 922.486 Z" fill="#80d584" fill-rule="nonzero" fill-opacity="1"></path><path clip-path="url(#clip070)" d="M196.621 937.185 L212.94 937.185 L212.94 941.12 L190.996 941.12 L190.996 937.185 Q193.658 934.43 198.241 929.801 Q202.848 925.148 204.028 923.805 Q206.274 921.282 207.153 919.546 Q208.056 917.787 208.056 916.097 Q208.056 913.342 206.112 911.606 Q204.19 909.87 201.088 909.87 Q198.889 909.87 196.436 910.634 Q194.005 911.398 191.227 912.949 L191.227 908.227 Q194.051 907.093 196.505 906.514 Q198.959 905.935 200.996 905.935 Q206.366 905.935 209.561 908.62 Q212.755 911.305 212.755 915.796 Q212.755 917.926 211.945 919.847 Q211.158 921.745 209.051 924.338 Q208.473 925.009 205.371 928.227 Q202.269 931.421 196.621 937.185 Z" fill="#80d584" fill-rule="nonzero" fill-opacity="1"></path><path clip-path="url(#clip070)" d="M222.801 906.56 L241.158 906.56 L241.158 910.495 L227.084 910.495 L227.084 918.967 Q228.102 918.62 229.121 918.458 Q230.139 918.273 231.158 918.273 Q236.945 918.273 240.324 921.444 Q243.704 924.616 243.704 930.032 Q243.704 935.611 240.232 938.713 Q236.76 941.791 230.44 941.791 Q228.264 941.791 225.996 941.421 Q223.75 941.051 221.343 940.31 L221.343 935.611 Q223.426 936.745 225.648 937.301 Q227.871 937.856 230.347 937.856 Q234.352 937.856 236.69 935.75 Q239.028 933.643 239.028 930.032 Q239.028 926.421 236.69 924.315 Q234.352 922.208 230.347 922.208 Q228.473 922.208 226.598 922.625 Q224.746 923.041 222.801 923.921 L222.801 906.56 Z" fill="#80d584" fill-rule="nonzero" fill-opacity="1"></path><path clip-path="url(#clip070)" d="M126.205 726.085 Q122.593 726.085 120.765 729.65 Q118.959 733.191 118.959 740.321 Q118.959 747.427 120.765 750.992 Q122.593 754.534 126.205 754.534 Q129.839 754.534 131.644 750.992 Q133.473 747.427 133.473 740.321 Q133.473 733.191 131.644 729.65 Q129.839 726.085 126.205 726.085 M126.205 722.381 Q132.015 722.381 135.07 726.988 Q138.149 731.571 138.149 740.321 Q138.149 749.048 135.07 753.654 Q132.015 758.238 126.205 758.238 Q120.394 758.238 117.316 753.654 Q114.26 749.048 114.26 740.321 Q114.26 731.571 117.316 726.988 Q120.394 722.381 126.205 722.381 Z" fill="#80d584" fill-rule="nonzero" fill-opacity="1"></path><path clip-path="url(#clip070)" d="M146.366 751.687 L151.251 751.687 L151.251 757.566 L146.366 757.566 L146.366 751.687 Z" fill="#80d584" fill-rule="nonzero" fill-opacity="1"></path><path clip-path="url(#clip070)" d="M175.602 738.932 Q178.959 739.65 180.834 741.918 Q182.732 744.187 182.732 747.52 Q182.732 752.636 179.214 755.437 Q175.695 758.238 169.214 758.238 Q167.038 758.238 164.723 757.798 Q162.431 757.381 159.978 756.525 L159.978 752.011 Q161.922 753.145 164.237 753.724 Q166.552 754.302 169.075 754.302 Q173.473 754.302 175.764 752.566 Q178.079 750.83 178.079 747.52 Q178.079 744.465 175.926 742.752 Q173.797 741.015 169.977 741.015 L165.95 741.015 L165.95 737.173 L170.163 737.173 Q173.612 737.173 175.44 735.807 Q177.269 734.418 177.269 731.826 Q177.269 729.164 175.371 727.752 Q173.496 726.316 169.977 726.316 Q168.056 726.316 165.857 726.733 Q163.658 727.15 161.019 728.029 L161.019 723.863 Q163.681 723.122 165.996 722.752 Q168.334 722.381 170.394 722.381 Q175.718 722.381 178.82 724.812 Q181.922 727.219 181.922 731.34 Q181.922 734.21 180.278 736.201 Q178.635 738.168 175.602 738.932 Z" fill="#80d584" fill-rule="nonzero" fill-opacity="1"></path><path clip-path="url(#clip070)" d="M191.644 723.006 L210 723.006 L210 726.941 L195.926 726.941 L195.926 735.414 Q196.945 735.066 197.963 734.904 Q198.982 734.719 200 734.719 Q205.787 734.719 209.167 737.89 Q212.547 741.062 212.547 746.478 Q212.547 752.057 209.074 755.159 Q205.602 758.238 199.283 758.238 Q197.107 758.238 194.838 757.867 Q192.593 757.497 190.186 756.756 L190.186 752.057 Q192.269 753.191 194.491 753.747 Q196.713 754.302 199.19 754.302 Q203.195 754.302 205.533 752.196 Q207.871 750.089 207.871 746.478 Q207.871 742.867 205.533 740.761 Q203.195 738.654 199.19 738.654 Q197.315 738.654 195.44 739.071 Q193.588 739.488 191.644 740.367 L191.644 723.006 Z" fill="#80d584" fill-rule="nonzero" fill-opacity="1"></path><path clip-path="url(#clip070)" d="M231.76 726.085 Q228.148 726.085 226.32 729.65 Q224.514 733.191 224.514 740.321 Q224.514 747.427 226.32 750.992 Q228.148 754.534 231.76 754.534 Q235.394 754.534 237.199 750.992 Q239.028 747.427 239.028 740.321 Q239.028 733.191 237.199 729.65 Q235.394 726.085 231.76 726.085 M231.76 722.381 Q237.57 722.381 240.625 726.988 Q243.704 731.571 243.704 740.321 Q243.704 749.048 240.625 753.654 Q237.57 758.238 231.76 758.238 Q225.949 758.238 222.871 753.654 Q219.815 749.048 219.815 740.321 Q219.815 731.571 222.871 726.988 Q225.949 722.381 231.76 722.381 Z" fill="#80d584" fill-rule="nonzero" fill-opacity="1"></path><path clip-path="url(#clip070)" d="M127.2 542.531 Q123.589 542.531 121.76 546.096 Q119.955 549.638 119.955 556.767 Q119.955 563.874 121.76 567.438 Q123.589 570.98 127.2 570.98 Q130.834 570.98 132.64 567.438 Q134.468 563.874 134.468 556.767 Q134.468 549.638 132.64 546.096 Q130.834 542.531 127.2 542.531 M127.2 538.828 Q133.01 538.828 136.066 543.434 Q139.144 548.017 139.144 556.767 Q139.144 565.494 136.066 570.1 Q133.01 574.684 127.2 574.684 Q121.39 574.684 118.311 570.1 Q115.256 565.494 115.256 556.767 Q115.256 548.017 118.311 543.434 Q121.39 538.828 127.2 538.828 Z" fill="#80d584" fill-rule="nonzero" fill-opacity="1"></path><path clip-path="url(#clip070)" d="M147.362 568.133 L152.246 568.133 L152.246 574.013 L147.362 574.013 L147.362 568.133 Z" fill="#80d584" fill-rule="nonzero" fill-opacity="1"></path><path clip-path="url(#clip070)" d="M176.598 555.378 Q179.954 556.096 181.829 558.364 Q183.727 560.633 183.727 563.966 Q183.727 569.082 180.209 571.883 Q176.69 574.684 170.209 574.684 Q168.033 574.684 165.718 574.244 Q163.427 573.827 160.973 572.971 L160.973 568.457 Q162.917 569.591 165.232 570.17 Q167.547 570.749 170.07 570.749 Q174.468 570.749 176.76 569.013 Q179.075 567.276 179.075 563.966 Q179.075 560.911 176.922 559.198 Q174.792 557.462 170.973 557.462 L166.945 557.462 L166.945 553.619 L171.158 553.619 Q174.607 553.619 176.436 552.253 Q178.264 550.864 178.264 548.272 Q178.264 545.61 176.366 544.198 Q174.491 542.763 170.973 542.763 Q169.052 542.763 166.852 543.179 Q164.653 543.596 162.015 544.476 L162.015 540.309 Q164.677 539.568 166.991 539.198 Q169.329 538.828 171.389 538.828 Q176.714 538.828 179.815 541.258 Q182.917 543.665 182.917 547.786 Q182.917 550.656 181.274 552.647 Q179.63 554.614 176.598 555.378 Z" fill="#80d584" fill-rule="nonzero" fill-opacity="1"></path><path clip-path="url(#clip070)" d="M191.413 539.453 L213.635 539.453 L213.635 541.443 L201.088 574.013 L196.204 574.013 L208.01 543.388 L191.413 543.388 L191.413 539.453 Z" fill="#80d584" fill-rule="nonzero" fill-opacity="1"></path><path clip-path="url(#clip070)" d="M222.801 539.453 L241.158 539.453 L241.158 543.388 L227.084 543.388 L227.084 551.86 Q228.102 551.513 229.121 551.351 Q230.139 551.165 231.158 551.165 Q236.945 551.165 240.324 554.337 Q243.704 557.508 243.704 562.925 Q243.704 568.503 240.232 571.605 Q236.76 574.684 230.44 574.684 Q228.264 574.684 225.996 574.313 Q223.75 573.943 221.343 573.202 L221.343 568.503 Q223.426 569.638 225.648 570.193 Q227.871 570.749 230.347 570.749 Q234.352 570.749 236.69 568.642 Q239.028 566.536 239.028 562.925 Q239.028 559.314 236.69 557.207 Q234.352 555.101 230.347 555.101 Q228.473 555.101 226.598 555.517 Q224.746 555.934 222.801 556.814 L222.801 539.453 Z" fill="#80d584" fill-rule="nonzero" fill-opacity="1"></path><path clip-path="url(#clip070)" d="M126.205 358.977 Q122.593 358.977 120.765 362.542 Q118.959 366.084 118.959 373.213 Q118.959 380.32 120.765 383.885 Q122.593 387.426 126.205 387.426 Q129.839 387.426 131.644 383.885 Q133.473 380.32 133.473 373.213 Q133.473 366.084 131.644 362.542 Q129.839 358.977 126.205 358.977 M126.205 355.274 Q132.015 355.274 135.07 359.88 Q138.149 364.463 138.149 373.213 Q138.149 381.94 135.07 386.547 Q132.015 391.13 126.205 391.13 Q120.394 391.13 117.316 386.547 Q114.26 381.94 114.26 373.213 Q114.26 364.463 117.316 359.88 Q120.394 355.274 126.205 355.274 Z" fill="#80d584" fill-rule="nonzero" fill-opacity="1"></path><path clip-path="url(#clip070)" d="M146.366 384.579 L151.251 384.579 L151.251 390.459 L146.366 390.459 L146.366 384.579 Z" fill="#80d584" fill-rule="nonzero" fill-opacity="1"></path><path clip-path="url(#clip070)" d="M174.283 359.973 L162.477 378.422 L174.283 378.422 L174.283 359.973 M173.056 355.899 L178.936 355.899 L178.936 378.422 L183.866 378.422 L183.866 382.311 L178.936 382.311 L178.936 390.459 L174.283 390.459 L174.283 382.311 L158.681 382.311 L158.681 377.797 L173.056 355.899 Z" fill="#80d584" fill-rule="nonzero" fill-opacity="1"></path><path clip-path="url(#clip070)" d="M201.598 358.977 Q197.987 358.977 196.158 362.542 Q194.352 366.084 194.352 373.213 Q194.352 380.32 196.158 383.885 Q197.987 387.426 201.598 387.426 Q205.232 387.426 207.037 383.885 Q208.866 380.32 208.866 373.213 Q208.866 366.084 207.037 362.542 Q205.232 358.977 201.598 358.977 M201.598 355.274 Q207.408 355.274 210.463 359.88 Q213.542 364.463 213.542 373.213 Q213.542 381.94 210.463 386.547 Q207.408 391.13 201.598 391.13 Q195.787 391.13 192.709 386.547 Q189.653 381.94 189.653 373.213 Q189.653 364.463 192.709 359.88 Q195.787 355.274 201.598 355.274 Z" fill="#80d584" fill-rule="nonzero" fill-opacity="1"></path><path clip-path="url(#clip070)" d="M231.76 358.977 Q228.148 358.977 226.32 362.542 Q224.514 366.084 224.514 373.213 Q224.514 380.32 226.32 383.885 Q228.148 387.426 231.76 387.426 Q235.394 387.426 237.199 383.885 Q239.028 380.32 239.028 373.213 Q239.028 366.084 237.199 362.542 Q235.394 358.977 231.76 358.977 M231.76 355.274 Q237.57 355.274 240.625 359.88 Q243.704 364.463 243.704 373.213 Q243.704 381.94 240.625 386.547 Q237.57 391.13 231.76 391.13 Q225.949 391.13 222.871 386.547 Q219.815 381.94 219.815 373.213 Q219.815 364.463 222.871 359.88 Q225.949 355.274 231.76 355.274 Z" fill="#80d584" fill-rule="nonzero" fill-opacity="1"></path><path clip-path="url(#clip070)" d="M127.2 175.424 Q123.589 175.424 121.76 178.988 Q119.955 182.53 119.955 189.66 Q119.955 196.766 121.76 200.331 Q123.589 203.873 127.2 203.873 Q130.834 203.873 132.64 200.331 Q134.468 196.766 134.468 189.66 Q134.468 182.53 132.64 178.988 Q130.834 175.424 127.2 175.424 M127.2 171.72 Q133.01 171.72 136.066 176.326 Q139.144 180.91 139.144 189.66 Q139.144 198.386 136.066 202.993 Q133.01 207.576 127.2 207.576 Q121.39 207.576 118.311 202.993 Q115.256 198.386 115.256 189.66 Q115.256 180.91 118.311 176.326 Q121.39 171.72 127.2 171.72 Z" fill="#80d584" fill-rule="nonzero" fill-opacity="1"></path><path clip-path="url(#clip070)" d="M147.362 201.025 L152.246 201.025 L152.246 206.905 L147.362 206.905 L147.362 201.025 Z" fill="#80d584" fill-rule="nonzero" fill-opacity="1"></path><path clip-path="url(#clip070)" d="M175.278 176.419 L163.473 194.868 L175.278 194.868 L175.278 176.419 M174.052 172.345 L179.931 172.345 L179.931 194.868 L184.862 194.868 L184.862 198.757 L179.931 198.757 L179.931 206.905 L175.278 206.905 L175.278 198.757 L159.677 198.757 L159.677 194.243 L174.052 172.345 Z" fill="#80d584" fill-rule="nonzero" fill-opacity="1"></path><path clip-path="url(#clip070)" d="M196.621 202.97 L212.94 202.97 L212.94 206.905 L190.996 206.905 L190.996 202.97 Q193.658 200.215 198.241 195.586 Q202.848 190.933 204.028 189.59 Q206.274 187.067 207.153 185.331 Q208.056 183.572 208.056 181.882 Q208.056 179.127 206.112 177.391 Q204.19 175.655 201.088 175.655 Q198.889 175.655 196.436 176.419 Q194.005 177.183 191.227 178.734 L191.227 174.012 Q194.051 172.877 196.505 172.299 Q198.959 171.72 200.996 171.72 Q206.366 171.72 209.561 174.405 Q212.755 177.09 212.755 181.581 Q212.755 183.711 211.945 185.632 Q211.158 187.53 209.051 190.123 Q208.473 190.794 205.371 194.011 Q202.269 197.206 196.621 202.97 Z" fill="#80d584" fill-rule="nonzero" fill-opacity="1"></path><path clip-path="url(#clip070)" d="M222.801 172.345 L241.158 172.345 L241.158 176.28 L227.084 176.28 L227.084 184.752 Q228.102 184.405 229.121 184.243 Q230.139 184.058 231.158 184.058 Q236.945 184.058 240.324 187.229 Q243.704 190.4 243.704 195.817 Q243.704 201.396 240.232 204.498 Q236.76 207.576 230.44 207.576 Q228.264 207.576 225.996 207.206 Q223.75 206.835 221.343 206.095 L221.343 201.396 Q223.426 202.53 225.648 203.085 Q227.871 203.641 230.347 203.641 Q234.352 203.641 236.69 201.535 Q239.028 199.428 239.028 195.817 Q239.028 192.206 236.69 190.099 Q234.352 187.993 230.347 187.993 Q228.473 187.993 226.598 188.41 Q224.746 188.826 222.801 189.706 L222.801 172.345 Z" fill="#80d584" fill-rule="nonzero" fill-opacity="1"></path><path clip-path="url(#clip070)" d="M16.5884 1016.02 L16.5884 1006.44 L48.9262 994.317 L16.5884 982.126 L16.5884 972.546 L64.1084 972.546 L64.1084 978.816 L22.3812 978.816 L54.9736 991.07 L54.9736 997.531 L22.3812 1009.79 L64.1084 1009.79 L64.1084 1016.02 L16.5884 1016.02 Z" fill="#80d584" fill-rule="nonzero" fill-opacity="1"></path><path clip-path="url(#clip070)" d="M44.8203 929.546 L47.6849 929.546 L47.6849 956.473 Q53.7323 956.091 56.9151 952.844 Q60.0662 949.566 60.0662 943.741 Q60.0662 940.367 59.2386 937.216 Q58.4111 934.033 56.756 930.914 L62.2942 930.914 Q63.631 934.065 64.3312 937.375 Q65.0314 940.686 65.0314 944.091 Q65.0314 952.621 60.0662 957.618 Q55.1009 962.584 46.6345 962.584 Q37.8817 962.584 32.7573 957.873 Q27.6011 953.131 27.6011 945.11 Q27.6011 937.917 32.248 933.747 Q36.8632 929.546 44.8203 929.546 M43.1016 935.402 Q38.2954 935.466 35.4309 938.107 Q32.5663 940.717 32.5663 945.046 Q32.5663 949.948 35.3354 952.908 Q38.1045 955.836 43.1334 956.282 L43.1016 935.402 Z" fill="#80d584" fill-rule="nonzero" fill-opacity="1"></path><path clip-path="url(#clip070)" d="M46.1889 903.733 Q46.1889 910.83 47.8122 913.568 Q49.4354 916.305 53.3503 916.305 Q56.4695 916.305 58.3156 914.268 Q60.1298 912.199 60.1298 908.666 Q60.1298 903.796 56.6923 900.868 Q53.223 897.908 47.4939 897.908 L46.1889 897.908 L46.1889 903.733 M43.7699 892.052 L64.1084 892.052 L64.1084 897.908 L58.6975 897.908 Q61.944 899.913 63.5036 902.905 Q65.0314 905.897 65.0314 910.226 Q65.0314 915.7 61.9759 918.947 Q58.8885 922.161 53.7323 922.161 Q47.7167 922.161 44.6611 918.151 Q41.6056 914.109 41.6056 906.12 L41.6056 897.908 L41.0327 897.908 Q36.9905 897.908 34.7943 900.582 Q32.5663 903.223 32.5663 908.03 Q32.5663 911.085 33.2984 913.981 Q34.0304 916.878 35.4945 919.551 L30.0837 919.551 Q28.8424 916.337 28.2376 913.313 Q27.6011 910.289 27.6011 907.425 Q27.6011 899.69 31.6115 895.871 Q35.6218 892.052 43.7699 892.052 Z" fill="#80d584" fill-rule="nonzero" fill-opacity="1"></path><path clip-path="url(#clip070)" d="M42.5923 850.356 L64.1084 850.356 L64.1084 856.213 L42.7833 856.213 Q37.7225 856.213 35.2081 858.186 Q32.6936 860.159 32.6936 864.106 Q32.6936 868.849 35.7173 871.586 Q38.741 874.323 43.9609 874.323 L64.1084 874.323 L64.1084 880.211 L28.4604 880.211 L28.4604 874.323 L33.9986 874.323 Q30.7839 872.222 29.1925 869.39 Q27.6011 866.525 27.6011 862.801 Q27.6011 856.658 31.4205 853.507 Q35.2081 850.356 42.5923 850.356 Z" fill="#80d584" fill-rule="nonzero" fill-opacity="1"></path><path clip-path="url(#clip070)" d="M33.8713 794.497 L14.5832 794.497 L14.5832 788.641 L64.1084 788.641 L64.1084 794.497 L58.7612 794.497 Q61.944 796.343 63.5036 799.176 Q65.0314 801.977 65.0314 805.924 Q65.0314 812.385 59.8752 816.459 Q54.719 820.501 46.3162 820.501 Q37.9135 820.501 32.7573 816.459 Q27.6011 812.385 27.6011 805.924 Q27.6011 801.977 29.1607 799.176 Q30.6884 796.343 33.8713 794.497 M46.3162 814.454 Q52.7774 814.454 56.4695 811.812 Q60.1298 809.138 60.1298 804.491 Q60.1298 799.844 56.4695 797.171 Q52.7774 794.497 46.3162 794.497 Q39.855 794.497 36.1948 797.171 Q32.5026 799.844 32.5026 804.491 Q32.5026 809.138 36.1948 811.812 Q39.855 814.454 46.3162 814.454 Z" fill="#80d584" fill-rule="nonzero" fill-opacity="1"></path><path clip-path="url(#clip070)" d="M44.8203 746.086 L47.6849 746.086 L47.6849 773.013 Q53.7323 772.631 56.9151 769.384 Q60.0662 766.106 60.0662 760.281 Q60.0662 756.908 59.2386 753.757 Q58.4111 750.574 56.756 747.455 L62.2942 747.455 Q63.631 750.606 64.3312 753.916 Q65.0314 757.226 65.0314 760.632 Q65.0314 769.162 60.0662 774.159 Q55.1009 779.124 46.6345 779.124 Q37.8817 779.124 32.7573 774.413 Q27.6011 769.671 27.6011 761.65 Q27.6011 754.457 32.248 750.287 Q36.8632 746.086 44.8203 746.086 M43.1016 751.942 Q38.2954 752.006 35.4309 754.648 Q32.5663 757.258 32.5663 761.586 Q32.5663 766.488 35.3354 769.448 Q38.1045 772.376 43.1334 772.822 L43.1016 751.942 Z" fill="#80d584" fill-rule="nonzero" fill-opacity="1"></path><path clip-path="url(#clip070)" d="M42.5923 706.841 L64.1084 706.841 L64.1084 712.698 L42.7833 712.698 Q37.7225 712.698 35.2081 714.671 Q32.6936 716.645 32.6936 720.591 Q32.6936 725.334 35.7173 728.071 Q38.741 730.808 43.9609 730.808 L64.1084 730.808 L64.1084 736.697 L28.4604 736.697 L28.4604 730.808 L33.9986 730.808 Q30.7839 728.708 29.1925 725.875 Q27.6011 723.01 27.6011 719.286 Q27.6011 713.143 31.4205 709.992 Q35.2081 706.841 42.5923 706.841 Z" fill="#80d584" fill-rule="nonzero" fill-opacity="1"></path><path clip-path="url(#clip070)" d="M29.5108 672.435 L35.0489 672.435 Q33.7758 674.917 33.1392 677.591 Q32.5026 680.265 32.5026 683.129 Q32.5026 687.49 33.8394 689.686 Q35.1762 691.85 37.8498 691.85 Q39.8869 691.85 41.0645 690.291 Q42.2104 688.731 43.2607 684.02 L43.7063 682.015 Q45.0431 675.777 47.4939 673.167 Q49.9129 670.525 54.2734 670.525 Q59.2386 670.525 62.135 674.472 Q65.0314 678.387 65.0314 685.262 Q65.0314 688.126 64.4585 691.245 Q63.9174 694.333 62.8034 697.77 L56.756 697.77 Q58.4429 694.524 59.3023 691.373 Q60.1298 688.222 60.1298 685.134 Q60.1298 680.997 58.7294 678.769 Q57.2971 676.541 54.719 676.541 Q52.3318 676.541 51.0587 678.164 Q49.7855 679.755 48.6079 685.198 L48.1305 687.235 Q46.9846 692.678 44.6293 695.097 Q42.2422 697.516 38.1045 697.516 Q33.0756 697.516 30.3383 693.951 Q27.6011 690.386 27.6011 683.829 Q27.6011 680.583 28.0785 677.718 Q28.5559 674.854 29.5108 672.435 Z" fill="#80d584" fill-rule="nonzero" fill-opacity="1"></path><path clip-path="url(#clip070)" d="M28.4604 661.199 L28.4604 655.343 L64.1084 655.343 L64.1084 661.199 L28.4604 661.199 M14.5832 661.199 L14.5832 655.343 L21.9992 655.343 L21.9992 661.199 L14.5832 661.199 Z" fill="#80d584" fill-rule="nonzero" fill-opacity="1"></path><path clip-path="url(#clip070)" d="M18.339 637.296 L28.4604 637.296 L28.4604 625.233 L33.0119 625.233 L33.0119 637.296 L52.3637 637.296 Q56.7242 637.296 57.9655 636.118 Q59.2068 634.909 59.2068 631.249 L59.2068 625.233 L64.1084 625.233 L64.1084 631.249 Q64.1084 638.028 61.5939 640.606 Q59.0476 643.184 52.3637 643.184 L33.0119 643.184 L33.0119 647.481 L28.4604 647.481 L28.4604 643.184 L18.339 643.184 L18.339 637.296 Z" fill="#80d584" fill-rule="nonzero" fill-opacity="1"></path><path clip-path="url(#clip070)" d="M67.4185 602.698 Q73.7843 605.181 75.7258 607.536 Q77.6673 609.892 77.6673 613.838 L77.6673 618.517 L72.7657 618.517 L72.7657 615.08 Q72.7657 612.661 71.6199 611.324 Q70.4741 609.987 66.2091 608.364 L63.5355 607.314 L28.4604 621.732 L28.4604 615.525 L56.3422 604.385 L28.4604 593.245 L28.4604 587.039 L67.4185 602.698 Z" fill="#80d584" fill-rule="nonzero" fill-opacity="1"></path><path clip-path="url(#clip070)" d="M24.8142 564.377 L24.8142 530.628 L21.2942 530.628 L21.2942 564.377  Z" fill="#80d584" fill-rule="evenodd" fill-opacity="1"></path>
<path clip-path="url(#clip070)" d="M45.2996 533.234 Q50.0661 533.234 54.5427 535.681 Q59.0193 538.097 61.7246 541.897 Q64.4299 545.665 64.4299 549.466 Q64.4299 553.749 59.9855 555.971 Q76.1206 559.997 76.5393 560.222 Q77.9242 561.156 77.9242 562.509 Q77.9242 563.346 77.4089 563.862 Q76.9258 564.377 76.1529 564.377 Q75.8952 564.345 75.0901 564.151 L49.1643 557.71 Q43.1418 556.229 38.8585 551.752 Q34.5429 547.243 34.5429 542.412 Q34.5429 538.58 37.4092 535.907 Q40.2755 533.234 45.2996 533.234 M42.4655 537.968 Q39.2449 537.968 37.6346 539.256 Q35.9921 540.545 35.9921 542.541 Q35.9921 544.377 37.4736 546.599 Q38.9551 548.789 42.2401 550.722 Q44.1402 551.752 46.4913 552.493 Q48.8423 553.234 54.6393 554.683 Q56.9582 555.198 57.087 555.198 Q57.3446 555.198 57.9243 555.069 Q58.504 554.908 59.4058 554.522 Q60.2754 554.103 61.0483 553.523 Q61.8212 552.944 62.4009 551.881 Q62.9484 550.818 62.9484 549.53 Q62.9484 547.533 61.3382 545.408 Q59.6957 543.25 56.7005 541.672 Q54.2851 540.351 49.744 539.16 Q45.1708 537.968 42.4655 537.968 Z" fill="#80d584" fill-rule="nonzero" fill-opacity="1"></path><path clip-path="url(#clip070)" d="M1061.39 25.2259 L1104.34 25.2259 L1104.34 20.7459 L1061.39 20.7459  Z" fill="#ebfb73" fill-rule="evenodd" fill-opacity="1"></path>
<path clip-path="url(#clip070)" d="M1101.03 51.5554 Q1101.03 57.6218 1097.91 63.3193 Q1094.84 69.0168 1090 72.4599 Q1085.2 75.903 1080.37 75.903 Q1074.92 75.903 1072.09 70.2465 Q1066.96 90.7821 1066.68 91.315 Q1065.49 93.0775 1063.77 93.0775 Q1062.7 93.0775 1062.04 92.4217 Q1061.39 91.8069 1061.39 90.8231 Q1061.43 90.4952 1061.68 89.4705 L1069.87 56.4741 Q1071.76 48.8091 1077.46 43.3575 Q1083.19 37.865 1089.34 37.865 Q1094.22 37.865 1097.62 41.513 Q1101.03 45.1611 1101.03 51.5554 M1095 47.9483 Q1095 43.8494 1093.36 41.7999 Q1091.72 39.7095 1089.18 39.7095 Q1086.84 39.7095 1084.01 41.595 Q1081.23 43.4805 1078.77 47.6614 Q1077.46 50.0798 1076.51 53.072 Q1075.57 56.0642 1073.73 63.4423 Q1073.07 66.3935 1073.07 66.5575 Q1073.07 66.8854 1073.23 67.6232 Q1073.44 68.361 1073.93 69.5087 Q1074.46 70.6154 1075.2 71.5991 Q1075.94 72.5829 1077.29 73.3207 Q1078.65 74.0175 1080.28 74.0175 Q1082.83 74.0175 1085.53 71.968 Q1088.28 69.8776 1090.29 66.0656 Q1091.97 62.9914 1093.48 57.2119 Q1095 51.3914 1095 47.9483 Z" fill="#ebfb73" fill-rule="nonzero" fill-opacity="1"></path><path clip-path="url(#clip070)" d="M1104.34 54.2346 Q1104.34 40.0523 1109.63 28.6163 Q1111.88 23.8205 1115.04 19.8036 Q1118.19 15.7866 1120.28 14.0241 Q1122.37 12.2615 1122.95 12.2615 Q1123.77 12.2615 1123.81 13.0813 Q1123.81 13.4912 1122.7 14.5159 Q1109.18 28.2883 1109.22 54.2346 Q1109.22 80.2627 1122.37 93.5023 Q1123.81 94.9369 1123.81 95.3878 Q1123.81 96.2076 1122.95 96.2076 Q1122.37 96.2076 1120.37 94.527 Q1118.36 92.8465 1115.24 88.9935 Q1112.13 85.1405 1109.87 80.4267 Q1104.34 68.9907 1104.34 54.2346 Z" fill="#ebfb73" fill-rule="nonzero" fill-opacity="1"></path><path clip-path="url(#clip070)" d="M1169.01 51.5293 Q1169.01 57.5137 1165.97 63.2932 Q1162.98 69.0727 1158.27 72.6387 Q1153.55 76.1638 1148.76 76.1638 Q1145.89 76.1638 1143.96 74.6062 Q1142.08 73.0076 1141.05 70.7532 Q1140.27 73.5405 1138.59 80.2218 Q1136.91 86.903 1136.91 87.5588 Q1136.91 87.9277 1136.99 88.0917 Q1137.08 88.2557 1137.45 88.4606 Q1137.81 88.7065 1138.72 88.7885 Q1139.62 88.9115 1141.13 88.9115 Q1141.91 88.9115 1142.2 88.9115 Q1142.53 88.9525 1142.81 89.1574 Q1143.14 89.3624 1143.14 89.8132 Q1143.14 91.4938 1141.63 91.4938 Q1140.27 91.4938 1137.49 91.3708 Q1134.7 91.2479 1133.31 91.2479 Q1132.12 91.2479 1129.74 91.3708 Q1127.36 91.4938 1126.26 91.4938 Q1125.15 91.4938 1125.15 90.5101 Q1125.15 89.9362 1125.31 89.5673 Q1125.44 89.2394 1125.76 89.0754 Q1126.09 88.9525 1126.38 88.9115 Q1126.62 88.9115 1127.12 88.9115 Q1129 88.9115 1129.82 88.5836 Q1130.64 88.2966 1130.93 87.6818 Q1131.26 87.108 1131.62 85.4684 L1141.05 48.0862 Q1141.63 45.5858 1141.63 43.8233 Q1141.63 41.6099 1140.93 40.7901 Q1140.23 39.9703 1139 39.9703 Q1136.87 39.9703 1135.48 42.5116 Q1134.08 45.053 1132.9 49.9717 Q1132.53 51.3243 1132.28 51.6112 Q1132.08 51.8982 1131.46 51.8982 Q1130.44 51.8572 1130.44 51.0374 Q1130.44 50.8324 1130.76 49.5208 Q1131.09 48.1681 1131.71 46.2007 Q1132.36 44.1922 1133.06 42.9215 Q1133.47 42.0607 1133.84 41.4869 Q1134.21 40.913 1134.94 40.0113 Q1135.72 39.1095 1136.83 38.6176 Q1137.94 38.1258 1139.29 38.1258 Q1141.91 38.1258 1144.09 39.6834 Q1146.26 41.241 1146.83 44.3971 Q1149.17 41.6508 1152.04 39.8883 Q1154.91 38.1258 1157.82 38.1258 Q1162.65 38.1258 1165.81 41.8968 Q1169.01 45.6268 1169.01 51.5293 M1162.94 47.8402 Q1162.94 44.1102 1161.51 42.0607 Q1160.11 39.9703 1157.57 39.9703 Q1154.41 39.9703 1150.77 43.1674 Q1147.16 46.2007 1146.42 49.0289 L1142.28 65.4656 L1142.04 66.8183 Q1142.04 67.0642 1142.16 67.802 Q1142.32 68.4988 1142.77 69.6465 Q1143.27 70.7942 1143.92 71.819 Q1144.62 72.8027 1145.85 73.5405 Q1147.12 74.2783 1148.68 74.2783 Q1151.18 74.2783 1153.88 72.0649 Q1156.63 69.8515 1158.68 65.6706 Q1159.95 62.9653 1161.42 57.1448 Q1162.94 51.2833 1162.94 47.8402 Z" fill="#ebfb73" fill-rule="nonzero" fill-opacity="1"></path><path clip-path="url(#clip070)" d="M1175.03 95.3878 Q1175.03 94.9779 1176.09 93.9532 Q1189.62 80.1808 1189.62 54.2346 Q1189.62 28.2064 1176.62 15.0488 Q1175.03 13.5322 1175.03 13.0813 Q1175.03 12.2615 1175.85 12.2615 Q1176.42 12.2615 1178.43 13.9421 Q1180.48 15.6227 1183.55 19.4756 Q1186.67 23.3286 1188.96 28.0424 Q1194.5 39.4784 1194.5 54.2346 Q1194.5 68.4168 1189.21 79.8529 Q1186.95 84.6486 1183.8 88.6655 Q1180.64 92.6825 1178.55 94.445 Q1176.46 96.2076 1175.85 96.2076 Q1175.03 96.2076 1175.03 95.3878 Z" fill="#ebfb73" fill-rule="nonzero" fill-opacity="1"></path><path clip-path="url(#clip070)" d="M1207.26 49.1737 L1229.09 49.1737 L1229.09 55.8172 L1207.26 55.8172 L1207.26 49.1737 Z" fill="#ebfb73" fill-rule="nonzero" fill-opacity="1"></path><path clip-path="url(#clip070)" d="M1270.82 36.7375 L1270.82 12.189 L1278.27 12.189 L1278.27 75.2211 L1270.82 75.2211 L1270.82 68.4155 Q1268.47 72.4664 1264.86 74.4514 Q1261.3 76.3958 1256.28 76.3958 Q1248.05 76.3958 1242.87 69.8334 Q1237.72 63.2709 1237.72 52.5765 Q1237.72 41.8821 1242.87 35.3197 Q1248.05 28.7572 1256.28 28.7572 Q1261.3 28.7572 1264.86 30.7421 Q1268.47 32.6866 1270.82 36.7375 M1245.42 52.5765 Q1245.42 60.7998 1248.78 65.4989 Q1252.18 70.1574 1258.1 70.1574 Q1264.01 70.1574 1267.42 65.4989 Q1270.82 60.7998 1270.82 52.5765 Q1270.82 44.3532 1267.42 39.6946 Q1264.01 34.9956 1258.1 34.9956 Q1252.18 34.9956 1248.78 39.6946 Q1245.42 44.3532 1245.42 52.5765 Z" fill="#ebfb73" fill-rule="nonzero" fill-opacity="1"></path><path clip-path="url(#clip070)" d="M1293.62 29.8509 L1301.08 29.8509 L1301.08 75.2211 L1293.62 75.2211 L1293.62 29.8509 M1293.62 12.189 L1301.08 12.189 L1301.08 21.6276 L1293.62 21.6276 L1293.62 12.189 Z" fill="#ebfb73" fill-rule="nonzero" fill-opacity="1"></path><path clip-path="url(#clip070)" d="M1337.29 52.4145 Q1328.26 52.4145 1324.78 54.4804 Q1321.29 56.5464 1321.29 61.529 Q1321.29 65.4989 1323.89 67.8484 Q1326.52 70.1574 1331.01 70.1574 Q1337.21 70.1574 1340.94 65.7825 Q1344.71 61.367 1344.71 54.0753 L1344.71 52.4145 L1337.29 52.4145 M1352.16 49.3358 L1352.16 75.2211 L1344.71 75.2211 L1344.71 68.3345 Q1342.15 72.4664 1338.35 74.4514 Q1334.54 76.3958 1329.03 76.3958 Q1322.06 76.3958 1317.93 72.507 Q1313.84 68.5776 1313.84 62.0151 Q1313.84 54.3589 1318.94 50.47 Q1324.09 46.5812 1334.26 46.5812 L1344.71 46.5812 L1344.71 45.852 Q1344.71 40.7074 1341.3 37.9122 Q1337.94 35.0766 1331.82 35.0766 Q1327.94 35.0766 1324.25 36.0083 Q1320.56 36.94 1317.16 38.8034 L1317.16 31.9169 Q1321.25 30.337 1325.1 29.5674 Q1328.95 28.7572 1332.59 28.7572 Q1342.44 28.7572 1347.3 33.8613 Q1352.16 38.9655 1352.16 49.3358 Z" fill="#ebfb73" fill-rule="nonzero" fill-opacity="1"></path><path clip-path="url(#clip070)" d="M1397.37 52.0094 Q1397.37 43.9076 1394.01 39.4516 Q1390.68 34.9956 1384.65 34.9956 Q1378.65 34.9956 1375.29 39.4516 Q1371.97 43.9076 1371.97 52.0094 Q1371.97 60.0707 1375.29 64.5267 Q1378.65 68.9827 1384.65 68.9827 Q1390.68 68.9827 1394.01 64.5267 Q1397.37 60.0707 1397.37 52.0094 M1404.82 69.5903 Q1404.82 81.1759 1399.68 86.8066 Q1394.53 92.4779 1383.92 92.4779 Q1379.99 92.4779 1376.51 91.8703 Q1373.02 91.3032 1369.74 90.0879 L1369.74 82.8368 Q1373.02 84.6192 1376.22 85.4699 Q1379.42 86.3205 1382.74 86.3205 Q1390.08 86.3205 1393.72 82.4722 Q1397.37 78.6643 1397.37 70.9271 L1397.37 67.2408 Q1395.06 71.2512 1391.45 73.2361 Q1387.85 75.2211 1382.83 75.2211 Q1374.48 75.2211 1369.38 68.8611 Q1364.27 62.5012 1364.27 52.0094 Q1364.27 41.477 1369.38 35.1171 Q1374.48 28.7572 1382.83 28.7572 Q1387.85 28.7572 1391.45 30.7421 Q1395.06 32.7271 1397.37 36.7375 L1397.37 29.8509 L1404.82 29.8509 L1404.82 69.5903 Z" fill="#ebfb73" fill-rule="nonzero" fill-opacity="1"></path><path clip-path="url(#clip070)" d="M1446.47 36.8185 Q1445.21 36.0893 1443.71 35.7653 Q1442.25 35.4007 1440.47 35.4007 Q1434.15 35.4007 1430.75 39.5326 Q1427.39 43.624 1427.39 51.3207 L1427.39 75.2211 L1419.89 75.2211 L1419.89 29.8509 L1427.39 29.8509 L1427.39 36.8995 Q1429.74 32.7676 1433.5 30.7826 Q1437.27 28.7572 1442.66 28.7572 Q1443.43 28.7572 1444.36 28.8787 Q1445.29 28.9597 1446.42 29.1623 L1446.47 36.8185 Z" fill="#ebfb73" fill-rule="nonzero" fill-opacity="1"></path><path clip-path="url(#clip070)" d="M1474.9 52.4145 Q1465.87 52.4145 1462.39 54.4804 Q1458.9 56.5464 1458.9 61.529 Q1458.9 65.4989 1461.49 67.8484 Q1464.13 70.1574 1468.62 70.1574 Q1474.82 70.1574 1478.55 65.7825 Q1482.32 61.367 1482.32 54.0753 L1482.32 52.4145 L1474.9 52.4145 M1489.77 49.3358 L1489.77 75.2211 L1482.32 75.2211 L1482.32 68.3345 Q1479.76 72.4664 1475.96 74.4514 Q1472.15 76.3958 1466.64 76.3958 Q1459.67 76.3958 1455.54 72.507 Q1451.45 68.5776 1451.45 62.0151 Q1451.45 54.3589 1456.55 50.47 Q1461.7 46.5812 1471.86 46.5812 L1482.32 46.5812 L1482.32 45.852 Q1482.32 40.7074 1478.91 37.9122 Q1475.55 35.0766 1469.43 35.0766 Q1465.55 35.0766 1461.86 36.0083 Q1458.17 36.94 1454.77 38.8034 L1454.77 31.9169 Q1458.86 30.337 1462.71 29.5674 Q1466.56 28.7572 1470.2 28.7572 Q1480.05 28.7572 1484.91 33.8613 Q1489.77 38.9655 1489.77 49.3358 Z" fill="#ebfb73" fill-rule="nonzero" fill-opacity="1"></path><path clip-path="url(#clip070)" d="M1540.45 38.5604 Q1543.24 33.5373 1547.13 31.1472 Q1551.02 28.7572 1556.29 28.7572 Q1563.37 28.7572 1567.22 33.7398 Q1571.07 38.6819 1571.07 47.8369 L1571.07 75.2211 L1563.58 75.2211 L1563.58 48.08 Q1563.58 41.558 1561.27 38.3983 Q1558.96 35.2386 1554.22 35.2386 Q1548.43 35.2386 1545.06 39.087 Q1541.7 42.9354 1541.7 49.5788 L1541.7 75.2211 L1534.21 75.2211 L1534.21 48.08 Q1534.21 41.5175 1531.9 38.3983 Q1529.59 35.2386 1524.77 35.2386 Q1519.06 35.2386 1515.7 39.1275 Q1512.33 42.9759 1512.33 49.5788 L1512.33 75.2211 L1504.84 75.2211 L1504.84 29.8509 L1512.33 29.8509 L1512.33 36.8995 Q1514.89 32.7271 1518.45 30.7421 Q1522.01 28.7572 1526.92 28.7572 Q1531.86 28.7572 1535.3 31.2688 Q1538.79 33.7803 1540.45 38.5604 Z" fill="#ebfb73" fill-rule="nonzero" fill-opacity="1"></path><polyline clip-path="url(#clip072)" style="stroke:#ebfb73; stroke-linecap:round; stroke-linejoin:round; stroke-width:4; stroke-opacity:1; fill:none" points="2294.08,1386.4 2294.08,931.182 "></polyline>
<polyline clip-path="url(#clip072)" style="stroke:#ebfb73; stroke-linecap:round; stroke-linejoin:round; stroke-width:4; stroke-opacity:1; fill:none" points="1902.94,1246.89 1902.94,762.313 "></polyline>
<polyline clip-path="url(#clip072)" style="stroke:#ebfb73; stroke-linecap:round; stroke-linejoin:round; stroke-width:4; stroke-opacity:1; fill:none" points="1511.8,1122.08 1511.8,637.496 "></polyline>
<polyline clip-path="url(#clip072)" style="stroke:#ebfb73; stroke-linecap:round; stroke-linejoin:round; stroke-width:4; stroke-opacity:1; fill:none" points="1120.66,975.235 1120.66,475.969 "></polyline>
<polyline clip-path="url(#clip072)" style="stroke:#ebfb73; stroke-linecap:round; stroke-linejoin:round; stroke-width:4; stroke-opacity:1; fill:none" points="729.517,835.734 729.517,336.468 "></polyline>
<polyline clip-path="url(#clip072)" style="stroke:#ebfb73; stroke-linecap:round; stroke-linejoin:round; stroke-width:4; stroke-opacity:1; fill:none" points="338.375,659.523 338.375,160.256 "></polyline>
<line clip-path="url(#clip072)" x1="2310.08" y1="1386.4" x2="2278.08" y2="1386.4" style="stroke:#ebfb73; stroke-width:4; stroke-opacity:1"></line>
<line clip-path="url(#clip072)" x1="2310.08" y1="931.182" x2="2278.08" y2="931.182" style="stroke:#ebfb73; stroke-width:4; stroke-opacity:1"></line>
<line clip-path="url(#clip072)" x1="1918.94" y1="1246.89" x2="1886.94" y2="1246.89" style="stroke:#ebfb73; stroke-width:4; stroke-opacity:1"></line>
<line clip-path="url(#clip072)" x1="1918.94" y1="762.313" x2="1886.94" y2="762.313" style="stroke:#ebfb73; stroke-width:4; stroke-opacity:1"></line>
<line clip-path="url(#clip072)" x1="1527.8" y1="1122.08" x2="1495.8" y2="1122.08" style="stroke:#ebfb73; stroke-width:4; stroke-opacity:1"></line>
<line clip-path="url(#clip072)" x1="1527.8" y1="637.496" x2="1495.8" y2="637.496" style="stroke:#ebfb73; stroke-width:4; stroke-opacity:1"></line>
<line clip-path="url(#clip072)" x1="1136.66" y1="975.235" x2="1104.66" y2="975.235" style="stroke:#ebfb73; stroke-width:4; stroke-opacity:1"></line>
<line clip-path="url(#clip072)" x1="1136.66" y1="475.969" x2="1104.66" y2="475.969" style="stroke:#ebfb73; stroke-width:4; stroke-opacity:1"></line>
<line clip-path="url(#clip072)" x1="745.517" y1="835.734" x2="713.517" y2="835.734" style="stroke:#ebfb73; stroke-width:4; stroke-opacity:1"></line>
<line clip-path="url(#clip072)" x1="745.517" y1="336.468" x2="713.517" y2="336.468" style="stroke:#ebfb73; stroke-width:4; stroke-opacity:1"></line>
<line clip-path="url(#clip072)" x1="354.375" y1="659.523" x2="322.375" y2="659.523" style="stroke:#ebfb73; stroke-width:4; stroke-opacity:1"></line>
<line clip-path="url(#clip072)" x1="354.375" y1="160.256" x2="322.375" y2="160.256" style="stroke:#ebfb73; stroke-width:4; stroke-opacity:1"></line>
<circle clip-path="url(#clip072)" cx="2294.08" cy="1158.79" r="14.4" fill="#ebfb73" fill-rule="evenodd" fill-opacity="1" stroke="none"></circle>
<circle clip-path="url(#clip072)" cx="1902.94" cy="1004.6" r="14.4" fill="#ebfb73" fill-rule="evenodd" fill-opacity="1" stroke="none"></circle>
<circle clip-path="url(#clip072)" cx="1511.8" cy="879.787" r="14.4" fill="#ebfb73" fill-rule="evenodd" fill-opacity="1" stroke="none"></circle>
<circle clip-path="url(#clip072)" cx="1120.66" cy="725.602" r="14.4" fill="#ebfb73" fill-rule="evenodd" fill-opacity="1" stroke="none"></circle>
<circle clip-path="url(#clip072)" cx="729.517" cy="586.101" r="14.4" fill="#ebfb73" fill-rule="evenodd" fill-opacity="1" stroke="none"></circle>
<circle clip-path="url(#clip072)" cx="338.375" cy="409.889" r="14.4" fill="#ebfb73" fill-rule="evenodd" fill-opacity="1" stroke="none"></circle>
<polyline clip-path="url(#clip072)" style="stroke:#80d584; stroke-linecap:round; stroke-linejoin:round; stroke-width:4; stroke-opacity:1; fill:none" stroke-dasharray="16, 10" points="-1793.35,1107.39 4425.81,1107.39 "></polyline>
<path clip-path="url(#clip070)" d="M1142.6 1379.86 L2283.65 1379.86 L2283.65 1224.34 L1142.6 1224.34  Z" fill="#271924" fill-rule="evenodd" fill-opacity="1"></path>
<polyline clip-path="url(#clip070)" style="stroke:#80d584; stroke-linecap:round; stroke-linejoin:round; stroke-width:4; stroke-opacity:1; fill:none" points="1142.6,1379.86 2283.65,1379.86 2283.65,1224.34 1142.6,1224.34 1142.6,1379.86 "></polyline>
<circle clip-path="url(#clip070)" cx="1234.74" cy="1276.18" r="20.48" fill="#ebfb73" fill-rule="evenodd" fill-opacity="1" stroke="none"></circle>
<path clip-path="url(#clip070)" d="M1354.75 1261.56 L1354.75 1266.49 Q1352.38 1264.29 1349.7 1263.2 Q1347.04 1262.11 1344.03 1262.11 Q1338.1 1262.11 1334.95 1265.75 Q1331.81 1269.36 1331.81 1276.21 Q1331.81 1283.04 1334.95 1286.67 Q1338.1 1290.28 1344.03 1290.28 Q1347.04 1290.28 1349.7 1289.2 Q1352.38 1288.11 1354.75 1285.91 L1354.75 1290.79 Q1352.29 1292.46 1349.54 1293.29 Q1346.81 1294.13 1343.75 1294.13 Q1335.9 1294.13 1331.39 1289.34 Q1326.88 1284.52 1326.88 1276.21 Q1326.88 1267.88 1331.39 1263.09 Q1335.9 1258.27 1343.75 1258.27 Q1346.85 1258.27 1349.58 1259.1 Q1352.34 1259.91 1354.75 1261.56 Z" fill="#ebfb73" fill-rule="nonzero" fill-opacity="1"></path><path clip-path="url(#clip070)" d="M1373.56 1280.42 Q1368.4 1280.42 1366.41 1281.6 Q1364.42 1282.79 1364.42 1285.63 Q1364.42 1287.9 1365.9 1289.24 Q1367.41 1290.56 1369.98 1290.56 Q1373.52 1290.56 1375.65 1288.06 Q1377.8 1285.54 1377.8 1281.37 L1377.8 1280.42 L1373.56 1280.42 M1382.06 1278.66 L1382.06 1293.46 L1377.8 1293.46 L1377.8 1289.52 Q1376.34 1291.88 1374.17 1293.02 Q1371.99 1294.13 1368.84 1294.13 Q1364.86 1294.13 1362.5 1291.91 Q1360.16 1289.66 1360.16 1285.91 Q1360.16 1281.54 1363.08 1279.31 Q1366.02 1277.09 1371.83 1277.09 L1377.8 1277.09 L1377.8 1276.67 Q1377.8 1273.73 1375.86 1272.14 Q1373.94 1270.52 1370.44 1270.52 Q1368.22 1270.52 1366.11 1271.05 Q1364 1271.58 1362.06 1272.65 L1362.06 1268.71 Q1364.4 1267.81 1366.6 1267.37 Q1368.8 1266.91 1370.88 1266.91 Q1376.5 1266.91 1379.28 1269.82 Q1382.06 1272.74 1382.06 1278.66 Z" fill="#ebfb73" fill-rule="nonzero" fill-opacity="1"></path><path clip-path="url(#clip070)" d="M1390.83 1257.44 L1395.09 1257.44 L1395.09 1293.46 L1390.83 1293.46 L1390.83 1257.44 Z" fill="#ebfb73" fill-rule="nonzero" fill-opacity="1"></path><path clip-path="url(#clip070)" d="M1422.66 1268.53 L1422.66 1272.51 Q1420.86 1271.51 1419.03 1271.03 Q1417.22 1270.52 1415.37 1270.52 Q1411.23 1270.52 1408.94 1273.16 Q1406.64 1275.77 1406.64 1280.52 Q1406.64 1285.26 1408.94 1287.9 Q1411.23 1290.52 1415.37 1290.52 Q1417.22 1290.52 1419.03 1290.03 Q1420.86 1289.52 1422.66 1288.53 L1422.66 1292.46 Q1420.88 1293.29 1418.96 1293.71 Q1417.06 1294.13 1414.91 1294.13 Q1409.05 1294.13 1405.6 1290.45 Q1402.15 1286.77 1402.15 1280.52 Q1402.15 1274.17 1405.62 1270.54 Q1409.12 1266.91 1415.18 1266.91 Q1417.15 1266.91 1419.03 1267.32 Q1420.9 1267.72 1422.66 1268.53 Z" fill="#ebfb73" fill-rule="nonzero" fill-opacity="1"></path><path clip-path="url(#clip070)" d="M1429.63 1283.22 L1429.63 1267.53 L1433.89 1267.53 L1433.89 1283.06 Q1433.89 1286.74 1435.32 1288.6 Q1436.76 1290.42 1439.63 1290.42 Q1443.08 1290.42 1445.07 1288.22 Q1447.08 1286.03 1447.08 1282.23 L1447.08 1267.53 L1451.34 1267.53 L1451.34 1293.46 L1447.08 1293.46 L1447.08 1289.47 Q1445.53 1291.84 1443.47 1292.99 Q1441.43 1294.13 1438.73 1294.13 Q1434.26 1294.13 1431.94 1291.35 Q1429.63 1288.57 1429.63 1283.22 M1440.35 1266.91 L1440.35 1266.91 Z" fill="#ebfb73" fill-rule="nonzero" fill-opacity="1"></path><path clip-path="url(#clip070)" d="M1460.12 1257.44 L1464.37 1257.44 L1464.37 1293.46 L1460.12 1293.46 L1460.12 1257.44 Z" fill="#ebfb73" fill-rule="nonzero" fill-opacity="1"></path><path clip-path="url(#clip070)" d="M1485.07 1280.42 Q1479.91 1280.42 1477.92 1281.6 Q1475.93 1282.79 1475.93 1285.63 Q1475.93 1287.9 1477.41 1289.24 Q1478.91 1290.56 1481.48 1290.56 Q1485.02 1290.56 1487.15 1288.06 Q1489.3 1285.54 1489.3 1281.37 L1489.3 1280.42 L1485.07 1280.42 M1493.56 1278.66 L1493.56 1293.46 L1489.3 1293.46 L1489.3 1289.52 Q1487.85 1291.88 1485.67 1293.02 Q1483.49 1294.13 1480.35 1294.13 Q1476.37 1294.13 1474 1291.91 Q1471.67 1289.66 1471.67 1285.91 Q1471.67 1281.54 1474.58 1279.31 Q1477.52 1277.09 1483.33 1277.09 L1489.3 1277.09 L1489.3 1276.67 Q1489.3 1273.73 1487.36 1272.14 Q1485.44 1270.52 1481.94 1270.52 Q1479.72 1270.52 1477.62 1271.05 Q1475.51 1271.58 1473.56 1272.65 L1473.56 1268.71 Q1475.9 1267.81 1478.1 1267.37 Q1480.3 1266.91 1482.38 1266.91 Q1488.01 1266.91 1490.79 1269.82 Q1493.56 1272.74 1493.56 1278.66 Z" fill="#ebfb73" fill-rule="nonzero" fill-opacity="1"></path><path clip-path="url(#clip070)" d="M1506.55 1260.17 L1506.55 1267.53 L1515.32 1267.53 L1515.32 1270.84 L1506.55 1270.84 L1506.55 1284.91 Q1506.55 1288.09 1507.41 1288.99 Q1508.29 1289.89 1510.95 1289.89 L1515.32 1289.89 L1515.32 1293.46 L1510.95 1293.46 Q1506.02 1293.46 1504.14 1291.63 Q1502.27 1289.78 1502.27 1284.91 L1502.27 1270.84 L1499.14 1270.84 L1499.14 1267.53 L1502.27 1267.53 L1502.27 1260.17 L1506.55 1260.17 Z" fill="#ebfb73" fill-rule="nonzero" fill-opacity="1"></path><path clip-path="url(#clip070)" d="M1543.1 1279.43 L1543.1 1281.51 L1523.52 1281.51 Q1523.8 1285.91 1526.16 1288.22 Q1528.54 1290.52 1532.78 1290.52 Q1535.23 1290.52 1537.52 1289.91 Q1539.84 1289.31 1542.11 1288.11 L1542.11 1292.14 Q1539.81 1293.11 1537.41 1293.62 Q1535 1294.13 1532.52 1294.13 Q1526.32 1294.13 1522.68 1290.52 Q1519.07 1286.91 1519.07 1280.75 Q1519.07 1274.38 1522.5 1270.66 Q1525.95 1266.91 1531.78 1266.91 Q1537.01 1266.91 1540.05 1270.29 Q1543.1 1273.64 1543.1 1279.43 M1538.84 1278.18 Q1538.8 1274.68 1536.87 1272.6 Q1534.98 1270.52 1531.83 1270.52 Q1528.26 1270.52 1526.11 1272.53 Q1523.98 1274.54 1523.66 1278.2 L1538.84 1278.18 Z" fill="#ebfb73" fill-rule="nonzero" fill-opacity="1"></path><path clip-path="url(#clip070)" d="M1567.15 1271.47 L1567.15 1257.44 L1571.41 1257.44 L1571.41 1293.46 L1567.15 1293.46 L1567.15 1289.57 Q1565.81 1291.88 1563.75 1293.02 Q1561.71 1294.13 1558.84 1294.13 Q1554.14 1294.13 1551.18 1290.38 Q1548.24 1286.63 1548.24 1280.52 Q1548.24 1274.41 1551.18 1270.66 Q1554.14 1266.91 1558.84 1266.91 Q1561.71 1266.91 1563.75 1268.04 Q1565.81 1269.15 1567.15 1271.47 M1552.64 1280.52 Q1552.64 1285.22 1554.56 1287.9 Q1556.5 1290.56 1559.88 1290.56 Q1563.26 1290.56 1565.21 1287.9 Q1567.15 1285.22 1567.15 1280.52 Q1567.15 1275.82 1565.21 1273.16 Q1563.26 1270.47 1559.88 1270.47 Q1556.5 1270.47 1554.56 1273.16 Q1552.64 1275.82 1552.64 1280.52 Z" fill="#ebfb73" fill-rule="nonzero" fill-opacity="1"></path><path clip-path="url(#clip070)" d="M1615.44 1272.51 Q1617.04 1269.64 1619.26 1268.27 Q1621.48 1266.91 1624.49 1266.91 Q1628.54 1266.91 1630.74 1269.75 Q1632.94 1272.58 1632.94 1277.81 L1632.94 1293.46 L1628.66 1293.46 L1628.66 1277.95 Q1628.66 1274.22 1627.34 1272.41 Q1626.02 1270.61 1623.31 1270.61 Q1620 1270.61 1618.08 1272.81 Q1616.16 1275.01 1616.16 1278.8 L1616.16 1293.46 L1611.87 1293.46 L1611.87 1277.95 Q1611.87 1274.2 1610.55 1272.41 Q1609.23 1270.61 1606.48 1270.61 Q1603.22 1270.61 1601.3 1272.83 Q1599.37 1275.03 1599.37 1278.8 L1599.37 1293.46 L1595.09 1293.46 L1595.09 1267.53 L1599.37 1267.53 L1599.37 1271.56 Q1600.83 1269.17 1602.87 1268.04 Q1604.91 1266.91 1607.71 1266.91 Q1610.53 1266.91 1612.5 1268.34 Q1614.49 1269.78 1615.44 1272.51 Z" fill="#ebfb73" fill-rule="nonzero" fill-opacity="1"></path><path clip-path="url(#clip070)" d="M1663.61 1279.43 L1663.61 1281.51 L1644.03 1281.51 Q1644.3 1285.91 1646.67 1288.22 Q1649.05 1290.52 1653.29 1290.52 Q1655.74 1290.52 1658.03 1289.91 Q1660.35 1289.31 1662.61 1288.11 L1662.61 1292.14 Q1660.32 1293.11 1657.92 1293.62 Q1655.51 1294.13 1653.03 1294.13 Q1646.83 1294.13 1643.19 1290.52 Q1639.58 1286.91 1639.58 1280.75 Q1639.58 1274.38 1643.01 1270.66 Q1646.46 1266.91 1652.29 1266.91 Q1657.52 1266.91 1660.55 1270.29 Q1663.61 1273.64 1663.61 1279.43 M1659.35 1278.18 Q1659.3 1274.68 1657.38 1272.6 Q1655.48 1270.52 1652.34 1270.52 Q1648.77 1270.52 1646.62 1272.53 Q1644.49 1274.54 1644.17 1278.2 L1659.35 1278.18 Z" fill="#ebfb73" fill-rule="nonzero" fill-opacity="1"></path><path clip-path="url(#clip070)" d="M1682.38 1280.42 Q1677.22 1280.42 1675.23 1281.6 Q1673.24 1282.79 1673.24 1285.63 Q1673.24 1287.9 1674.72 1289.24 Q1676.23 1290.56 1678.79 1290.56 Q1682.34 1290.56 1684.47 1288.06 Q1686.62 1285.54 1686.62 1281.37 L1686.62 1280.42 L1682.38 1280.42 M1690.88 1278.66 L1690.88 1293.46 L1686.62 1293.46 L1686.62 1289.52 Q1685.16 1291.88 1682.98 1293.02 Q1680.81 1294.13 1677.66 1294.13 Q1673.68 1294.13 1671.32 1291.91 Q1668.98 1289.66 1668.98 1285.91 Q1668.98 1281.54 1671.9 1279.31 Q1674.84 1277.09 1680.65 1277.09 L1686.62 1277.09 L1686.62 1276.67 Q1686.62 1273.73 1684.67 1272.14 Q1682.75 1270.52 1679.26 1270.52 Q1677.04 1270.52 1674.93 1271.05 Q1672.82 1271.58 1670.88 1272.65 L1670.88 1268.71 Q1673.22 1267.81 1675.42 1267.37 Q1677.61 1266.91 1679.7 1266.91 Q1685.32 1266.91 1688.1 1269.82 Q1690.88 1272.74 1690.88 1278.66 Z" fill="#ebfb73" fill-rule="nonzero" fill-opacity="1"></path><path clip-path="url(#clip070)" d="M1721.2 1277.81 L1721.2 1293.46 L1716.94 1293.46 L1716.94 1277.95 Q1716.94 1274.27 1715.51 1272.44 Q1714.07 1270.61 1711.2 1270.61 Q1707.75 1270.61 1705.76 1272.81 Q1703.77 1275.01 1703.77 1278.8 L1703.77 1293.46 L1699.49 1293.46 L1699.49 1267.53 L1703.77 1267.53 L1703.77 1271.56 Q1705.3 1269.22 1707.36 1268.06 Q1709.44 1266.91 1712.15 1266.91 Q1716.62 1266.91 1718.91 1269.68 Q1721.2 1272.44 1721.2 1277.81 Z" fill="#ebfb73" fill-rule="nonzero" fill-opacity="1"></path><path clip-path="url(#clip070)" d="M1761.83 1271.47 L1761.83 1257.44 L1766.09 1257.44 L1766.09 1293.46 L1761.83 1293.46 L1761.83 1289.57 Q1760.48 1291.88 1758.42 1293.02 Q1756.39 1294.13 1753.52 1294.13 Q1748.82 1294.13 1745.85 1290.38 Q1742.91 1286.63 1742.91 1280.52 Q1742.91 1274.41 1745.85 1270.66 Q1748.82 1266.91 1753.52 1266.91 Q1756.39 1266.91 1758.42 1268.04 Q1760.48 1269.15 1761.83 1271.47 M1747.31 1280.52 Q1747.31 1285.22 1749.23 1287.9 Q1751.18 1290.56 1754.56 1290.56 Q1757.94 1290.56 1759.88 1287.9 Q1761.83 1285.22 1761.83 1280.52 Q1761.83 1275.82 1759.88 1273.16 Q1757.94 1270.47 1754.56 1270.47 Q1751.18 1270.47 1749.23 1273.16 Q1747.31 1275.82 1747.31 1280.52 Z" fill="#ebfb73" fill-rule="nonzero" fill-opacity="1"></path><path clip-path="url(#clip070)" d="M1797.03 1279.43 L1797.03 1281.51 L1777.45 1281.51 Q1777.73 1285.91 1780.09 1288.22 Q1782.47 1290.52 1786.71 1290.52 Q1789.16 1290.52 1791.46 1289.91 Q1793.77 1289.31 1796.04 1288.11 L1796.04 1292.14 Q1793.75 1293.11 1791.34 1293.62 Q1788.93 1294.13 1786.46 1294.13 Q1780.25 1294.13 1776.62 1290.52 Q1773.01 1286.91 1773.01 1280.75 Q1773.01 1274.38 1776.43 1270.66 Q1779.88 1266.91 1785.72 1266.91 Q1790.95 1266.91 1793.98 1270.29 Q1797.03 1273.64 1797.03 1279.43 M1792.78 1278.18 Q1792.73 1274.68 1790.81 1272.6 Q1788.91 1270.52 1785.76 1270.52 Q1782.2 1270.52 1780.04 1272.53 Q1777.91 1274.54 1777.59 1278.2 L1792.78 1278.18 Z" fill="#ebfb73" fill-rule="nonzero" fill-opacity="1"></path><path clip-path="url(#clip070)" d="M1825.58 1277.81 L1825.58 1293.46 L1821.32 1293.46 L1821.32 1277.95 Q1821.32 1274.27 1819.88 1272.44 Q1818.45 1270.61 1815.58 1270.61 Q1812.13 1270.61 1810.14 1272.81 Q1808.15 1275.01 1808.15 1278.8 L1808.15 1293.46 L1803.86 1293.46 L1803.86 1267.53 L1808.15 1267.53 L1808.15 1271.56 Q1809.67 1269.22 1811.73 1268.06 Q1813.82 1266.91 1816.53 1266.91 Q1820.99 1266.91 1823.28 1269.68 Q1825.58 1272.44 1825.58 1277.81 Z" fill="#ebfb73" fill-rule="nonzero" fill-opacity="1"></path><path clip-path="url(#clip070)" d="M1850.6 1268.29 L1850.6 1272.32 Q1848.79 1271.4 1846.85 1270.93 Q1844.9 1270.47 1842.82 1270.47 Q1839.65 1270.47 1838.05 1271.44 Q1836.48 1272.41 1836.48 1274.36 Q1836.48 1275.84 1837.61 1276.7 Q1838.75 1277.53 1842.17 1278.29 L1843.63 1278.62 Q1848.17 1279.59 1850.07 1281.37 Q1851.99 1283.13 1851.99 1286.3 Q1851.99 1289.91 1849.12 1292.02 Q1846.27 1294.13 1841.27 1294.13 Q1839.19 1294.13 1836.92 1293.71 Q1834.67 1293.32 1832.17 1292.51 L1832.17 1288.11 Q1834.53 1289.34 1836.83 1289.96 Q1839.12 1290.56 1841.36 1290.56 Q1844.37 1290.56 1845.99 1289.54 Q1847.61 1288.5 1847.61 1286.63 Q1847.61 1284.89 1846.43 1283.97 Q1845.28 1283.04 1841.32 1282.18 L1839.84 1281.84 Q1835.88 1281 1834.12 1279.29 Q1832.36 1277.55 1832.36 1274.54 Q1832.36 1270.89 1834.95 1268.9 Q1837.54 1266.91 1842.31 1266.91 Q1844.67 1266.91 1846.76 1267.25 Q1848.84 1267.6 1850.6 1268.29 Z" fill="#ebfb73" fill-rule="nonzero" fill-opacity="1"></path><path clip-path="url(#clip070)" d="M1858.77 1267.53 L1863.03 1267.53 L1863.03 1293.46 L1858.77 1293.46 L1858.77 1267.53 M1858.77 1257.44 L1863.03 1257.44 L1863.03 1262.83 L1858.77 1262.83 L1858.77 1257.44 Z" fill="#ebfb73" fill-rule="nonzero" fill-opacity="1"></path><path clip-path="url(#clip070)" d="M1876.15 1260.17 L1876.15 1267.53 L1884.93 1267.53 L1884.93 1270.84 L1876.15 1270.84 L1876.15 1284.91 Q1876.15 1288.09 1877.01 1288.99 Q1877.89 1289.89 1880.55 1289.89 L1884.93 1289.89 L1884.93 1293.46 L1880.55 1293.46 Q1875.62 1293.46 1873.75 1291.63 Q1871.87 1289.78 1871.87 1284.91 L1871.87 1270.84 L1868.75 1270.84 L1868.75 1267.53 L1871.87 1267.53 L1871.87 1260.17 L1876.15 1260.17 Z" fill="#ebfb73" fill-rule="nonzero" fill-opacity="1"></path><path clip-path="url(#clip070)" d="M1901.32 1295.86 Q1899.51 1300.49 1897.8 1301.91 Q1896.09 1303.32 1893.21 1303.32 L1889.81 1303.32 L1889.81 1299.75 L1892.31 1299.75 Q1894.07 1299.75 1895.04 1298.92 Q1896.02 1298.09 1897.2 1294.98 L1897.96 1293.04 L1887.47 1267.53 L1891.99 1267.53 L1900.09 1287.81 L1908.19 1267.53 L1912.71 1267.53 L1901.32 1295.86 Z" fill="#ebfb73" fill-rule="nonzero" fill-opacity="1"></path><path clip-path="url(#clip070)" d="M1931.18 1267.53 L1935.44 1267.53 L1940.76 1287.76 L1946.06 1267.53 L1951.08 1267.53 L1956.41 1287.76 L1961.71 1267.53 L1965.97 1267.53 L1959.19 1293.46 L1954.16 1293.46 L1948.58 1272.21 L1942.98 1293.46 L1937.96 1293.46 L1931.18 1267.53 Z" fill="#ebfb73" fill-rule="nonzero" fill-opacity="1"></path><path clip-path="url(#clip070)" d="M1972.43 1267.53 L1976.69 1267.53 L1976.69 1293.46 L1972.43 1293.46 L1972.43 1267.53 M1972.43 1257.44 L1976.69 1257.44 L1976.69 1262.83 L1972.43 1262.83 L1972.43 1257.44 Z" fill="#ebfb73" fill-rule="nonzero" fill-opacity="1"></path><path clip-path="url(#clip070)" d="M1989.81 1260.17 L1989.81 1267.53 L1998.58 1267.53 L1998.58 1270.84 L1989.81 1270.84 L1989.81 1284.91 Q1989.81 1288.09 1990.67 1288.99 Q1991.55 1289.89 1994.21 1289.89 L1998.58 1289.89 L1998.58 1293.46 L1994.21 1293.46 Q1989.28 1293.46 1987.4 1291.63 Q1985.53 1289.78 1985.53 1284.91 L1985.53 1270.84 L1982.4 1270.84 L1982.4 1267.53 L1985.53 1267.53 L1985.53 1260.17 L1989.81 1260.17 Z" fill="#ebfb73" fill-rule="nonzero" fill-opacity="1"></path><path clip-path="url(#clip070)" d="M2025.74 1277.81 L2025.74 1293.46 L2021.48 1293.46 L2021.48 1277.95 Q2021.48 1274.27 2020.04 1272.44 Q2018.61 1270.61 2015.74 1270.61 Q2012.29 1270.61 2010.3 1272.81 Q2008.31 1275.01 2008.31 1278.8 L2008.31 1293.46 L2004.02 1293.46 L2004.02 1257.44 L2008.31 1257.44 L2008.31 1271.56 Q2009.83 1269.22 2011.89 1268.06 Q2013.98 1266.91 2016.69 1266.91 Q2021.15 1266.91 2023.45 1269.68 Q2025.74 1272.44 2025.74 1277.81 Z" fill="#ebfb73" fill-rule="nonzero" fill-opacity="1"></path><path clip-path="url(#clip070)" d="M2071.48 1279.43 L2071.48 1281.51 L2051.89 1281.51 Q2052.17 1285.91 2054.53 1288.22 Q2056.92 1290.52 2061.15 1290.52 Q2063.61 1290.52 2065.9 1289.91 Q2068.21 1289.31 2070.48 1288.11 L2070.48 1292.14 Q2068.19 1293.11 2065.78 1293.62 Q2063.38 1294.13 2060.9 1294.13 Q2054.7 1294.13 2051.06 1290.52 Q2047.45 1286.91 2047.45 1280.75 Q2047.45 1274.38 2050.88 1270.66 Q2054.33 1266.91 2060.16 1266.91 Q2065.39 1266.91 2068.42 1270.29 Q2071.48 1273.64 2071.48 1279.43 M2067.22 1278.18 Q2067.17 1274.68 2065.25 1272.6 Q2063.35 1270.52 2060.2 1270.52 Q2056.64 1270.52 2054.49 1272.53 Q2052.36 1274.54 2052.03 1278.2 L2067.22 1278.18 Z" fill="#ebfb73" fill-rule="nonzero" fill-opacity="1"></path><path clip-path="url(#clip070)" d="M2093.49 1271.51 Q2092.77 1271.1 2091.92 1270.91 Q2091.08 1270.7 2090.07 1270.7 Q2086.45 1270.7 2084.51 1273.06 Q2082.59 1275.4 2082.59 1279.8 L2082.59 1293.46 L2078.31 1293.46 L2078.31 1267.53 L2082.59 1267.53 L2082.59 1271.56 Q2083.93 1269.2 2086.08 1268.06 Q2088.24 1266.91 2091.32 1266.91 Q2091.76 1266.91 2092.29 1266.97 Q2092.82 1267.02 2093.47 1267.14 L2093.49 1271.51 Z" fill="#ebfb73" fill-rule="nonzero" fill-opacity="1"></path><path clip-path="url(#clip070)" d="M2112.15 1271.51 Q2111.43 1271.1 2110.57 1270.91 Q2109.74 1270.7 2108.72 1270.7 Q2105.11 1270.7 2103.17 1273.06 Q2101.25 1275.4 2101.25 1279.8 L2101.25 1293.46 L2096.96 1293.46 L2096.96 1267.53 L2101.25 1267.53 L2101.25 1271.56 Q2102.59 1269.2 2104.74 1268.06 Q2106.89 1266.91 2109.97 1266.91 Q2110.41 1266.91 2110.95 1266.97 Q2111.48 1267.02 2112.13 1267.14 L2112.15 1271.51 Z" fill="#ebfb73" fill-rule="nonzero" fill-opacity="1"></path><path clip-path="url(#clip070)" d="M2125.62 1270.52 Q2122.2 1270.52 2120.2 1273.2 Q2118.21 1275.86 2118.21 1280.52 Q2118.21 1285.17 2120.18 1287.85 Q2122.17 1290.52 2125.62 1290.52 Q2129.02 1290.52 2131.01 1287.83 Q2133.01 1285.15 2133.01 1280.52 Q2133.01 1275.91 2131.01 1273.22 Q2129.02 1270.52 2125.62 1270.52 M2125.62 1266.91 Q2131.18 1266.91 2134.35 1270.52 Q2137.52 1274.13 2137.52 1280.52 Q2137.52 1286.88 2134.35 1290.52 Q2131.18 1294.13 2125.62 1294.13 Q2120.04 1294.13 2116.87 1290.52 Q2113.72 1286.88 2113.72 1280.52 Q2113.72 1274.13 2116.87 1270.52 Q2120.04 1266.91 2125.62 1266.91 Z" fill="#ebfb73" fill-rule="nonzero" fill-opacity="1"></path><path clip-path="url(#clip070)" d="M2159.6 1271.51 Q2158.88 1271.1 2158.03 1270.91 Q2157.19 1270.7 2156.18 1270.7 Q2152.57 1270.7 2150.62 1273.06 Q2148.7 1275.4 2148.7 1279.8 L2148.7 1293.46 L2144.42 1293.46 L2144.42 1267.53 L2148.7 1267.53 L2148.7 1271.56 Q2150.04 1269.2 2152.19 1268.06 Q2154.35 1266.91 2157.43 1266.91 Q2157.87 1266.91 2158.4 1266.97 Q2158.93 1267.02 2159.58 1267.14 L2159.6 1271.51 Z" fill="#ebfb73" fill-rule="nonzero" fill-opacity="1"></path><path clip-path="url(#clip070)" d="M2182.68 1280.52 Q2182.68 1275.82 2180.74 1273.16 Q2178.82 1270.47 2175.44 1270.47 Q2172.06 1270.47 2170.11 1273.16 Q2168.19 1275.82 2168.19 1280.52 Q2168.19 1285.22 2170.11 1287.9 Q2172.06 1290.56 2175.44 1290.56 Q2178.82 1290.56 2180.74 1287.9 Q2182.68 1285.22 2182.68 1280.52 M2168.19 1271.47 Q2169.53 1269.15 2171.57 1268.04 Q2173.63 1266.91 2176.48 1266.91 Q2181.2 1266.91 2184.14 1270.66 Q2187.1 1274.41 2187.1 1280.52 Q2187.1 1286.63 2184.14 1290.38 Q2181.2 1294.13 2176.48 1294.13 Q2173.63 1294.13 2171.57 1293.02 Q2169.53 1291.88 2168.19 1289.57 L2168.19 1293.46 L2163.91 1293.46 L2163.91 1257.44 L2168.19 1257.44 L2168.19 1271.47 Z" fill="#ebfb73" fill-rule="nonzero" fill-opacity="1"></path><path clip-path="url(#clip070)" d="M2205.94 1280.42 Q2200.78 1280.42 2198.79 1281.6 Q2196.8 1282.79 2196.8 1285.63 Q2196.8 1287.9 2198.28 1289.24 Q2199.79 1290.56 2202.36 1290.56 Q2205.9 1290.56 2208.03 1288.06 Q2210.18 1285.54 2210.18 1281.37 L2210.18 1280.42 L2205.94 1280.42 M2214.44 1278.66 L2214.44 1293.46 L2210.18 1293.46 L2210.18 1289.52 Q2208.72 1291.88 2206.55 1293.02 Q2204.37 1294.13 2201.22 1294.13 Q2197.24 1294.13 2194.88 1291.91 Q2192.54 1289.66 2192.54 1285.91 Q2192.54 1281.54 2195.46 1279.31 Q2198.4 1277.09 2204.21 1277.09 L2210.18 1277.09 L2210.18 1276.67 Q2210.18 1273.73 2208.24 1272.14 Q2206.31 1270.52 2202.82 1270.52 Q2200.6 1270.52 2198.49 1271.05 Q2196.38 1271.58 2194.44 1272.65 L2194.44 1268.71 Q2196.78 1267.81 2198.98 1267.37 Q2201.18 1266.91 2203.26 1266.91 Q2208.88 1266.91 2211.66 1269.82 Q2214.44 1272.74 2214.44 1278.66 Z" fill="#ebfb73" fill-rule="nonzero" fill-opacity="1"></path><path clip-path="url(#clip070)" d="M2238.24 1271.51 Q2237.52 1271.1 2236.66 1270.91 Q2235.83 1270.7 2234.81 1270.7 Q2231.2 1270.7 2229.25 1273.06 Q2227.33 1275.4 2227.33 1279.8 L2227.33 1293.46 L2223.05 1293.46 L2223.05 1267.53 L2227.33 1267.53 L2227.33 1271.56 Q2228.68 1269.2 2230.83 1268.06 Q2232.98 1266.91 2236.06 1266.91 Q2236.5 1266.91 2237.03 1266.97 Q2237.56 1267.02 2238.21 1267.14 L2238.24 1271.51 Z" fill="#ebfb73" fill-rule="nonzero" fill-opacity="1"></path><path clip-path="url(#clip070)" d="M2259.23 1268.29 L2259.23 1272.32 Q2257.43 1271.4 2255.48 1270.93 Q2253.54 1270.47 2251.45 1270.47 Q2248.28 1270.47 2246.69 1271.44 Q2245.11 1272.41 2245.11 1274.36 Q2245.11 1275.84 2246.25 1276.7 Q2247.38 1277.53 2250.81 1278.29 L2252.26 1278.62 Q2256.8 1279.59 2258.7 1281.37 Q2260.62 1283.13 2260.62 1286.3 Q2260.62 1289.91 2257.75 1292.02 Q2254.9 1294.13 2249.9 1294.13 Q2247.82 1294.13 2245.55 1293.71 Q2243.31 1293.32 2240.81 1292.51 L2240.81 1288.11 Q2243.17 1289.34 2245.46 1289.96 Q2247.75 1290.56 2250 1290.56 Q2253 1290.56 2254.62 1289.54 Q2256.25 1288.5 2256.25 1286.63 Q2256.25 1284.89 2255.06 1283.97 Q2253.91 1283.04 2249.95 1282.18 L2248.47 1281.84 Q2244.51 1281 2242.75 1279.29 Q2240.99 1277.55 2240.99 1274.54 Q2240.99 1270.89 2243.58 1268.9 Q2246.18 1266.91 2250.94 1266.91 Q2253.31 1266.91 2255.39 1267.25 Q2257.47 1267.6 2259.23 1268.29 Z" fill="#ebfb73" fill-rule="nonzero" fill-opacity="1"></path><polyline clip-path="url(#clip070)" style="stroke:#80d584; stroke-linecap:round; stroke-linejoin:round; stroke-width:4; stroke-opacity:1; fill:none" stroke-dasharray="16, 10" points="1165.64,1328.02 1303.84,1328.02 "></polyline>
<path clip-path="url(#clip070)" d="M1326.88 1310.74 L1348.73 1310.74 L1348.73 1314.67 L1331.55 1314.67 L1331.55 1324.9 L1348.01 1324.9 L1348.01 1328.84 L1331.55 1328.84 L1331.55 1341.36 L1349.14 1341.36 L1349.14 1345.3 L1326.88 1345.3 L1326.88 1310.74 Z" fill="#ebfb73" fill-rule="nonzero" fill-opacity="1"></path><path clip-path="url(#clip070)" d="M1378.19 1319.37 L1368.82 1331.99 L1378.68 1345.3 L1373.66 1345.3 L1366.11 1335.11 L1358.56 1345.3 L1353.54 1345.3 L1363.61 1331.73 L1354.4 1319.37 L1359.42 1319.37 L1366.3 1328.61 L1373.17 1319.37 L1378.19 1319.37 Z" fill="#ebfb73" fill-rule="nonzero" fill-opacity="1"></path><path clip-path="url(#clip070)" d="M1388.82 1341.41 L1388.82 1355.16 L1384.54 1355.16 L1384.54 1319.37 L1388.82 1319.37 L1388.82 1323.31 Q1390.16 1320.99 1392.2 1319.88 Q1394.26 1318.75 1397.11 1318.75 Q1401.83 1318.75 1404.77 1322.5 Q1407.73 1326.25 1407.73 1332.36 Q1407.73 1338.47 1404.77 1342.22 Q1401.83 1345.97 1397.11 1345.97 Q1394.26 1345.97 1392.2 1344.86 Q1390.16 1343.72 1388.82 1341.41 M1403.31 1332.36 Q1403.31 1327.66 1401.37 1325 Q1399.44 1322.31 1396.06 1322.31 Q1392.69 1322.31 1390.74 1325 Q1388.82 1327.66 1388.82 1332.36 Q1388.82 1337.06 1390.74 1339.74 Q1392.69 1342.4 1396.06 1342.4 Q1399.44 1342.4 1401.37 1339.74 Q1403.31 1337.06 1403.31 1332.36 Z" fill="#ebfb73" fill-rule="nonzero" fill-opacity="1"></path><path clip-path="url(#clip070)" d="M1436.97 1331.27 L1436.97 1333.35 L1417.38 1333.35 Q1417.66 1337.75 1420.02 1340.06 Q1422.41 1342.36 1426.64 1342.36 Q1429.1 1342.36 1431.39 1341.75 Q1433.7 1341.15 1435.97 1339.95 L1435.97 1343.98 Q1433.68 1344.95 1431.27 1345.46 Q1428.87 1345.97 1426.39 1345.97 Q1420.18 1345.97 1416.55 1342.36 Q1412.94 1338.75 1412.94 1332.59 Q1412.94 1326.22 1416.37 1322.5 Q1419.81 1318.75 1425.65 1318.75 Q1430.88 1318.75 1433.91 1322.13 Q1436.97 1325.48 1436.97 1331.27 M1432.71 1330.02 Q1432.66 1326.52 1430.74 1324.44 Q1428.84 1322.36 1425.69 1322.36 Q1422.13 1322.36 1419.98 1324.37 Q1417.85 1326.38 1417.52 1330.04 L1432.71 1330.02 Z" fill="#ebfb73" fill-rule="nonzero" fill-opacity="1"></path><path clip-path="url(#clip070)" d="M1462.62 1320.37 L1462.62 1324.35 Q1460.81 1323.35 1458.98 1322.87 Q1457.18 1322.36 1455.32 1322.36 Q1451.18 1322.36 1448.89 1325 Q1446.6 1327.61 1446.6 1332.36 Q1446.6 1337.1 1448.89 1339.74 Q1451.18 1342.36 1455.32 1342.36 Q1457.18 1342.36 1458.98 1341.87 Q1460.81 1341.36 1462.62 1340.37 L1462.62 1344.3 Q1460.83 1345.13 1458.91 1345.55 Q1457.01 1345.97 1454.86 1345.97 Q1449 1345.97 1445.56 1342.29 Q1442.11 1338.61 1442.11 1332.36 Q1442.11 1326.01 1445.58 1322.38 Q1449.07 1318.75 1455.14 1318.75 Q1457.11 1318.75 1458.98 1319.16 Q1460.86 1319.56 1462.62 1320.37 Z" fill="#ebfb73" fill-rule="nonzero" fill-opacity="1"></path><path clip-path="url(#clip070)" d="M1474.24 1312.01 L1474.24 1319.37 L1483.01 1319.37 L1483.01 1322.68 L1474.24 1322.68 L1474.24 1336.75 Q1474.24 1339.93 1475.09 1340.83 Q1475.97 1341.73 1478.63 1341.73 L1483.01 1341.73 L1483.01 1345.3 L1478.63 1345.3 Q1473.7 1345.3 1471.83 1343.47 Q1469.95 1341.62 1469.95 1336.75 L1469.95 1322.68 L1466.83 1322.68 L1466.83 1319.37 L1469.95 1319.37 L1469.95 1312.01 L1474.24 1312.01 Z" fill="#ebfb73" fill-rule="nonzero" fill-opacity="1"></path><path clip-path="url(#clip070)" d="M1510.79 1331.27 L1510.79 1333.35 L1491.2 1333.35 Q1491.48 1337.75 1493.84 1340.06 Q1496.23 1342.36 1500.46 1342.36 Q1502.92 1342.36 1505.21 1341.75 Q1507.52 1341.15 1509.79 1339.95 L1509.79 1343.98 Q1507.5 1344.95 1505.09 1345.46 Q1502.68 1345.97 1500.21 1345.97 Q1494 1345.97 1490.37 1342.36 Q1486.76 1338.75 1486.76 1332.59 Q1486.76 1326.22 1490.18 1322.5 Q1493.63 1318.75 1499.47 1318.75 Q1504.7 1318.75 1507.73 1322.13 Q1510.79 1325.48 1510.79 1331.27 M1506.53 1330.02 Q1506.48 1326.52 1504.56 1324.44 Q1502.66 1322.36 1499.51 1322.36 Q1495.95 1322.36 1493.8 1324.37 Q1491.67 1326.38 1491.34 1330.04 L1506.53 1330.02 Z" fill="#ebfb73" fill-rule="nonzero" fill-opacity="1"></path><path clip-path="url(#clip070)" d="M1534.84 1323.31 L1534.84 1309.28 L1539.1 1309.28 L1539.1 1345.3 L1534.84 1345.3 L1534.84 1341.41 Q1533.49 1343.72 1531.43 1344.86 Q1529.4 1345.97 1526.53 1345.97 Q1521.83 1345.97 1518.86 1342.22 Q1515.93 1338.47 1515.93 1332.36 Q1515.93 1326.25 1518.86 1322.5 Q1521.83 1318.75 1526.53 1318.75 Q1529.4 1318.75 1531.43 1319.88 Q1533.49 1320.99 1534.84 1323.31 M1520.32 1332.36 Q1520.32 1337.06 1522.24 1339.74 Q1524.19 1342.4 1527.57 1342.4 Q1530.95 1342.4 1532.89 1339.74 Q1534.84 1337.06 1534.84 1332.36 Q1534.84 1327.66 1532.89 1325 Q1530.95 1322.31 1527.57 1322.31 Q1524.19 1322.31 1522.24 1325 Q1520.32 1327.66 1520.32 1332.36 Z" fill="#ebfb73" fill-rule="nonzero" fill-opacity="1"></path><path clip-path="url(#clip070)" d="M1580 1323.31 L1580 1309.28 L1584.26 1309.28 L1584.26 1345.3 L1580 1345.3 L1580 1341.41 Q1578.66 1343.72 1576.6 1344.86 Q1574.56 1345.97 1571.69 1345.97 Q1566.99 1345.97 1564.03 1342.22 Q1561.09 1338.47 1561.09 1332.36 Q1561.09 1326.25 1564.03 1322.5 Q1566.99 1318.75 1571.69 1318.75 Q1574.56 1318.75 1576.6 1319.88 Q1578.66 1320.99 1580 1323.31 M1565.49 1332.36 Q1565.49 1337.06 1567.41 1339.74 Q1569.35 1342.4 1572.73 1342.4 Q1576.11 1342.4 1578.05 1339.74 Q1580 1337.06 1580 1332.36 Q1580 1327.66 1578.05 1325 Q1576.11 1322.31 1572.73 1322.31 Q1569.35 1322.31 1567.41 1325 Q1565.49 1327.66 1565.49 1332.36 Z" fill="#ebfb73" fill-rule="nonzero" fill-opacity="1"></path><path clip-path="url(#clip070)" d="M1615.21 1331.27 L1615.21 1333.35 L1595.62 1333.35 Q1595.9 1337.75 1598.26 1340.06 Q1600.65 1342.36 1604.88 1342.36 Q1607.34 1342.36 1609.63 1341.75 Q1611.94 1341.15 1614.21 1339.95 L1614.21 1343.98 Q1611.92 1344.95 1609.51 1345.46 Q1607.11 1345.97 1604.63 1345.97 Q1598.42 1345.97 1594.79 1342.36 Q1591.18 1338.75 1591.18 1332.59 Q1591.18 1326.22 1594.61 1322.5 Q1598.05 1318.75 1603.89 1318.75 Q1609.12 1318.75 1612.15 1322.13 Q1615.21 1325.48 1615.21 1331.27 M1610.95 1330.02 Q1610.9 1326.52 1608.98 1324.44 Q1607.08 1322.36 1603.93 1322.36 Q1600.37 1322.36 1598.22 1324.37 Q1596.09 1326.38 1595.76 1330.04 L1610.95 1330.02 Z" fill="#ebfb73" fill-rule="nonzero" fill-opacity="1"></path><path clip-path="url(#clip070)" d="M1643.75 1329.65 L1643.75 1345.3 L1639.49 1345.3 L1639.49 1329.79 Q1639.49 1326.11 1638.05 1324.28 Q1636.62 1322.45 1633.75 1322.45 Q1630.3 1322.45 1628.31 1324.65 Q1626.32 1326.85 1626.32 1330.64 L1626.32 1345.3 L1622.04 1345.3 L1622.04 1319.37 L1626.32 1319.37 L1626.32 1323.4 Q1627.85 1321.06 1629.91 1319.9 Q1631.99 1318.75 1634.7 1318.75 Q1639.17 1318.75 1641.46 1321.52 Q1643.75 1324.28 1643.75 1329.65 Z" fill="#ebfb73" fill-rule="nonzero" fill-opacity="1"></path><path clip-path="url(#clip070)" d="M1668.77 1320.13 L1668.77 1324.16 Q1666.97 1323.24 1665.02 1322.77 Q1663.08 1322.31 1660.99 1322.31 Q1657.82 1322.31 1656.23 1323.28 Q1654.65 1324.25 1654.65 1326.2 Q1654.65 1327.68 1655.79 1328.54 Q1656.92 1329.37 1660.35 1330.13 L1661.8 1330.46 Q1666.34 1331.43 1668.24 1333.21 Q1670.16 1334.97 1670.16 1338.14 Q1670.16 1341.75 1667.29 1343.86 Q1664.44 1345.97 1659.44 1345.97 Q1657.36 1345.97 1655.09 1345.55 Q1652.85 1345.16 1650.35 1344.35 L1650.35 1339.95 Q1652.71 1341.18 1655 1341.8 Q1657.29 1342.4 1659.54 1342.4 Q1662.54 1342.4 1664.17 1341.38 Q1665.79 1340.34 1665.79 1338.47 Q1665.79 1336.73 1664.6 1335.81 Q1663.45 1334.88 1659.49 1334.02 L1658.01 1333.68 Q1654.05 1332.84 1652.29 1331.13 Q1650.53 1329.39 1650.53 1326.38 Q1650.53 1322.73 1653.12 1320.74 Q1655.72 1318.75 1660.48 1318.75 Q1662.85 1318.75 1664.93 1319.09 Q1667.01 1319.44 1668.77 1320.13 Z" fill="#ebfb73" fill-rule="nonzero" fill-opacity="1"></path><path clip-path="url(#clip070)" d="M1676.94 1319.37 L1681.2 1319.37 L1681.2 1345.3 L1676.94 1345.3 L1676.94 1319.37 M1676.94 1309.28 L1681.2 1309.28 L1681.2 1314.67 L1676.94 1314.67 L1676.94 1309.28 Z" fill="#ebfb73" fill-rule="nonzero" fill-opacity="1"></path><path clip-path="url(#clip070)" d="M1694.33 1312.01 L1694.33 1319.37 L1703.1 1319.37 L1703.1 1322.68 L1694.33 1322.68 L1694.33 1336.75 Q1694.33 1339.93 1695.18 1340.83 Q1696.06 1341.73 1698.73 1341.73 L1703.1 1341.73 L1703.1 1345.3 L1698.73 1345.3 Q1693.79 1345.3 1691.92 1343.47 Q1690.04 1341.62 1690.04 1336.75 L1690.04 1322.68 L1686.92 1322.68 L1686.92 1319.37 L1690.04 1319.37 L1690.04 1312.01 L1694.33 1312.01 Z" fill="#ebfb73" fill-rule="nonzero" fill-opacity="1"></path><path clip-path="url(#clip070)" d="M1719.49 1347.7 Q1717.68 1352.33 1715.97 1353.75 Q1714.26 1355.16 1711.39 1355.16 L1707.98 1355.16 L1707.98 1351.59 L1710.48 1351.59 Q1712.24 1351.59 1713.22 1350.76 Q1714.19 1349.93 1715.37 1346.82 L1716.13 1344.88 L1705.65 1319.37 L1710.16 1319.37 L1718.26 1339.65 L1726.36 1319.37 L1730.88 1319.37 L1719.49 1347.7 Z" fill="#ebfb73" fill-rule="nonzero" fill-opacity="1"></path><path clip-path="url(#clip070)" d="M1748.77 1319.37 L1753.29 1319.37 L1761.39 1341.13 L1769.49 1319.37 L1774 1319.37 L1764.28 1345.3 L1758.49 1345.3 L1748.77 1319.37 Z" fill="#ebfb73" fill-rule="nonzero" fill-opacity="1"></path><path clip-path="url(#clip070)" d="M1791.66 1332.26 Q1786.5 1332.26 1784.51 1333.44 Q1782.52 1334.63 1782.52 1337.47 Q1782.52 1339.74 1784 1341.08 Q1785.51 1342.4 1788.08 1342.4 Q1791.62 1342.4 1793.75 1339.9 Q1795.9 1337.38 1795.9 1333.21 L1795.9 1332.26 L1791.66 1332.26 M1800.16 1330.5 L1800.16 1345.3 L1795.9 1345.3 L1795.9 1341.36 Q1794.44 1343.72 1792.27 1344.86 Q1790.09 1345.97 1786.94 1345.97 Q1782.96 1345.97 1780.6 1343.75 Q1778.26 1341.5 1778.26 1337.75 Q1778.26 1333.38 1781.18 1331.15 Q1784.12 1328.93 1789.93 1328.93 L1795.9 1328.93 L1795.9 1328.51 Q1795.9 1325.57 1793.96 1323.98 Q1792.03 1322.36 1788.54 1322.36 Q1786.32 1322.36 1784.21 1322.89 Q1782.1 1323.42 1780.16 1324.49 L1780.16 1320.55 Q1782.5 1319.65 1784.7 1319.21 Q1786.9 1318.75 1788.98 1318.75 Q1794.6 1318.75 1797.38 1321.66 Q1800.16 1324.58 1800.16 1330.5 Z" fill="#ebfb73" fill-rule="nonzero" fill-opacity="1"></path><path clip-path="url(#clip070)" d="M1808.93 1309.28 L1813.19 1309.28 L1813.19 1345.3 L1808.93 1345.3 L1808.93 1309.28 Z" fill="#ebfb73" fill-rule="nonzero" fill-opacity="1"></path><path clip-path="url(#clip070)" d="M1821.66 1335.06 L1821.66 1319.37 L1825.92 1319.37 L1825.92 1334.9 Q1825.92 1338.58 1827.36 1340.44 Q1828.79 1342.26 1831.66 1342.26 Q1835.11 1342.26 1837.1 1340.06 Q1839.12 1337.87 1839.12 1334.07 L1839.12 1319.37 L1843.38 1319.37 L1843.38 1345.3 L1839.12 1345.3 L1839.12 1341.31 Q1837.57 1343.68 1835.51 1344.83 Q1833.47 1345.97 1830.76 1345.97 Q1826.29 1345.97 1823.98 1343.19 Q1821.66 1340.41 1821.66 1335.06 M1832.38 1318.75 L1832.38 1318.75 Z" fill="#ebfb73" fill-rule="nonzero" fill-opacity="1"></path><path clip-path="url(#clip070)" d="M1874.33 1331.27 L1874.33 1333.35 L1854.74 1333.35 Q1855.02 1337.75 1857.38 1340.06 Q1859.77 1342.36 1864 1342.36 Q1866.46 1342.36 1868.75 1341.75 Q1871.06 1341.15 1873.33 1339.95 L1873.33 1343.98 Q1871.04 1344.95 1868.63 1345.46 Q1866.22 1345.97 1863.75 1345.97 Q1857.54 1345.97 1853.91 1342.36 Q1850.3 1338.75 1850.3 1332.59 Q1850.3 1326.22 1853.72 1322.5 Q1857.17 1318.75 1863.01 1318.75 Q1868.24 1318.75 1871.27 1322.13 Q1874.33 1325.48 1874.33 1331.27 M1870.07 1330.02 Q1870.02 1326.52 1868.1 1324.44 Q1866.2 1322.36 1863.05 1322.36 Q1859.49 1322.36 1857.34 1324.37 Q1855.21 1326.38 1854.88 1330.04 L1870.07 1330.02 Z" fill="#ebfb73" fill-rule="nonzero" fill-opacity="1"></path></svg>